<svg width="1920" height="436" viewBox="0 0 1920 436" fill="none" xmlns="http://www.w3.org/2000/svg">
<path fill-rule="evenodd" clip-rule="evenodd" d="M1978 436C1960.9 337.496 1901.59 176.941 1698.95 123.334C1399.19 43.9272 1186.25 149.802 869.589 39.8392C553.029 -70.1235 185.959 62.2208 -10.1787 257.688C-77.9916 325.233 -109.598 385.743 -122 436H1978Z" fill="#F9D681"/>
<path d="M409.801 368.4L415.001 385.8L424.901 368.4H434.901L431.101 396.1H422.601L425.001 381.5L417.501 394.2H409.901L406.101 382L404.201 396.1H395.701L399.501 370.2L397.601 368.3H409.801V368.4Z" fill="black"/>
<path d="M469.301 368.4C469.801 368.4 470.201 368.5 470.601 368.6C471.001 368.7 471.301 369 471.601 369.3C471.901 369.6 472.101 369.9 472.201 370.3C472.301 370.7 472.301 371.1 472.201 371.6L468.901 396.1H442.401C441.901 396.1 441.501 396 441.101 395.9C440.701 395.8 440.401 395.5 440.101 395.2C439.801 394.9 439.601 394.6 439.501 394.1C439.401 393.7 439.401 393.3 439.501 392.8L442.801 368.3H469.301V368.4ZM451.301 373.1L448.901 391.4H459.801L462.601 373.1H451.301Z" fill="black"/>
<path d="M509.302 368.4L507.402 382.5C507.402 383 507.302 383.4 507.102 383.8C506.902 384.2 506.602 384.6 506.202 384.9C505.802 385.2 505.402 385.4 505.002 385.6C504.602 385.8 504.102 385.8 503.602 385.8H497.402L507.402 396.1H497.002L487.502 385.8L486.102 396.1H476.602L479.902 370.2L478.502 368.3H509.302V368.4ZM489.002 373.1L488.002 381.1H498.502L499.402 373.1H489.002Z" fill="black"/>
<path d="M543.1 368.4L542.7 373.1H527L526.1 379.2H540.7L540.3 383.9H525.1L524.2 391.4H540.8L540.4 396.1H513.9L517.7 370.2L516.3 368.3H543.1V368.4Z" fill="black"/>
<path d="M606.301 368.4L605.901 373.1H590.301L589.401 379.2H604.001L603.601 383.9H588.401L587.501 391.4H604.101L603.701 396.1H577.201L581.001 370.2L579.601 368.3H606.301V368.4Z" fill="black"/>
<path d="M613.501 368.4H623.401L627.701 376.4L633.401 369.3L632.501 368.4H643.801L631.501 382L640.001 396.1H630.501L626.301 387.6L619.201 396.1H609.701L622.001 382L614.901 369.8L613.501 368.4Z" fill="black"/>
<path d="M649.101 395.9C648.701 395.7 648.401 395.5 648.101 395.2C647.801 394.9 647.601 394.6 647.501 394.1C647.401 393.7 647.401 393.3 647.501 392.8L650.801 368.3H680.601L680.101 373H659.301L656.901 391.3H675.301L677.701 389.4L676.801 396H650.301C649.901 396.1 649.501 396 649.101 395.9Z" fill="black"/>
<path d="M698.402 368.4L694.102 396.1H685.102L688.402 370.2L687.002 368.3H698.402V368.4Z" fill="black"/>
<path d="M710.202 396.1L713.502 373.1H703.102L703.602 368.4H733.902L733.002 373.1H723.002L719.702 396.1H710.202Z" fill="black"/>
<path d="M751.902 368.4L747.602 396.1H738.602L741.902 370.2L740.502 368.3H751.902V368.4Z" fill="black"/>
<path d="M769.8 368.4L779.7 385.8L782.1 368.4H790.2L786.4 396.1H776.9L767.4 379.1L765 396.1H756.5L760.3 370.2L758.4 368.3H769.8V368.4Z" fill="black"/>
<path d="M826.901 376.4H817.401L817.801 373.1H806.501L804.101 391.4H815.401L815.901 385.8L813.001 381.1H825.801L823.901 396.1H797.401C796.901 396.1 796.501 396 796.101 395.9C795.701 395.7 795.401 395.5 795.101 395.2C794.801 394.9 794.601 394.6 794.501 394.1C794.401 393.7 794.401 393.3 794.501 392.8L797.801 368.3H827.601L826.901 376.4Z" fill="black"/>
<path d="M890.7 368.4L894.4 396.1H886L885 388.6H873.2L869.9 396.1H861.9L872.8 369.7L871.4 368.3H890.7V368.4ZM879.8 373.1L875.1 383.9H884.6L883.2 373.1H879.8Z" fill="black"/>
<path d="M900.402 395.9C900.002 395.7 899.702 395.5 899.402 395.2C899.102 394.9 898.902 394.6 898.802 394.1C898.702 393.7 898.702 393.3 898.802 392.8L902.102 368.3H932.002L931.502 373H910.702L908.302 391.3H926.702L929.102 389.4L928.202 396H901.702C901.202 396.1 900.802 396 900.402 395.9Z" fill="black"/>
<path d="M943.301 396.1L946.601 373.1H936.201L936.701 368.4H967.001L966.101 373.1H956.101L952.801 396.1H943.301Z" fill="black"/>
<path d="M985.001 368.4L980.701 396.1H971.701L975.001 370.2L973.601 368.3H985.001V368.4Z" fill="black"/>
<path d="M995.6 396.1L990.4 369.7L989.5 368.3H999.5L1003.2 387.6L1012.7 368.3H1022.2L1009 396H995.6V396.1Z" fill="black"/>
<path d="M1039.8 368.4L1035.5 396.1H1026.5L1029.8 370.2L1028.4 368.3H1039.8V368.4Z" fill="black"/>
<path d="M1051.6 396.1L1054.9 373.1H1044.5L1045 368.4H1075.3L1074.4 373.1H1064.4L1061.1 396.1H1051.6Z" fill="black"/>
<path d="M1093.2 368.4L1088.9 396.1H1079.9L1083.2 370.2L1081.8 368.3H1093.2V368.4Z" fill="black"/>
<path d="M1127.2 368.4L1126.8 373.1H1111.2L1110.3 379.2H1124.9L1124.5 383.9H1109.3L1108.4 391.4H1125L1124.6 396.1H1098.1L1101.9 370.2L1100.5 368.3H1127.2V368.4Z" fill="black"/>
<path d="M1150.8 390.5L1151.7 384.9H1132.8L1135.2 368.4H1163.1L1162.2 376.4H1152.7L1153.2 373.1H1144.2L1142.8 380.2H1161.7L1159.8 392.9C1159.8 393.4 1159.7 393.8 1159.5 394.2C1159.3 394.6 1159 395 1158.6 395.3C1158.2 395.6 1157.8 395.8 1157.4 396C1157 396.2 1156.5 396.2 1156 396.2H1131.4L1132.3 388.7L1133.7 390.6H1150.8V390.5Z" fill="black"/>
<path d="M1226 368.4L1229.7 396.1H1221.2L1220.2 388.6H1208.4L1205.1 396.1H1197.1L1208 369.7L1206.6 368.3H1226V368.4ZM1215.1 373.1L1210.4 383.9H1219.9L1218.5 373.1H1215.1Z" fill="black"/>
<path d="M1250.4 369.3H1258L1259.4 385.3L1266.1 368.4H1274.1L1262.8 396.1H1254.3L1252.4 382.5L1246.7 396.1H1238.2L1234.9 369.3L1234 368.4H1243L1244.4 385.3L1250.4 369.3Z" fill="black"/>
<path d="M1307.1 368.4L1310.8 396.1H1302.3L1301.3 388.6H1289.5L1286.2 396.1H1278.2L1289.1 369.7L1287.7 368.3H1307.1V368.4ZM1296.2 373.1L1291.5 383.9H1301L1299.6 373.1H1296.2Z" fill="black"/>
<path d="M1328.7 368.4L1324.4 396.1H1315.4L1318.7 370.2L1317.3 368.3H1328.7V368.4Z" fill="black"/>
<path d="M1340.5 396.1L1343.8 373.1H1333.4L1333.9 368.4H1364.2L1363.3 373.1H1353.3L1350 396.1H1340.5Z" fill="black"/>
<path d="M1419.7 369.3L1418.8 368.4H1430.1L1416.4 384.9L1415 396.2H1405.5L1406.9 384.9L1398.9 369.8L1397.5 368.4H1407.5L1412.7 378.7L1419.7 369.3Z" fill="black"/>
<path d="M1463.7 368.4C1464.2 368.4 1464.6 368.5 1465 368.6C1465.4 368.8 1465.7 369 1466 369.3C1466.3 369.6 1466.5 369.9 1466.6 370.3C1466.7 370.7 1466.7 371.1 1466.6 371.6L1463.3 396.1H1436.8C1436.3 396.1 1435.9 396 1435.5 395.9C1435.1 395.8 1434.8 395.5 1434.5 395.2C1434.2 394.9 1434 394.6 1433.9 394.1C1433.8 393.7 1433.8 393.3 1433.9 392.8L1437.2 368.3H1463.7V368.4ZM1445.7 373.1L1443.3 391.4H1454.2L1457 373.1H1445.7Z" fill="black"/>
<path d="M1483.8 368.4L1480.5 391.4H1491.8L1495.2 369.7L1493.3 368.3H1504.7L1500.9 396H1473.9C1472.9 396 1472.2 395.7 1471.8 395.1C1471.3 394.5 1471.1 393.7 1471.1 392.7L1474.4 369.6L1473 368.2H1483.8V368.4Z" fill="black"/>
<path d="M1516.6 396.1H1509.1L1509.7 391.4H1517.2L1516.6 396.1ZM1517.5 389.3H1510L1513.1 368.4H1520.6L1517.5 389.3Z" fill="black"/>
<path d="M435.1 282.3H401.8L401.3 285.4H432.4L428.2 315.2H395.7L382.5 327.1L399.5 337.6H429.3L427.5 350.1H388.9L369.8 338.3L356.7 350.1H333.1L355.8 329.7L337.6 318.4H364.3L366.7 320L372 315.2H344.5L348.1 289.7L344.4 285.4H380L380.5 282.3H345.2L346.7 271.7H436.7L435.1 282.3ZM377 306.7L377.5 303.6H367.9L367.4 306.7H377ZM368.7 297.2H378.3L378.8 294H369.2L368.7 297.2ZM408.1 306.7L408.6 303.6H398.9L398.4 306.7H408.1ZM400.2 294L399.7 297.2H409.4L409.9 294H400.2Z" fill="black"/>
<path d="M489.5 329.1L491.3 337.6H501.7L510.6 324.8H464L462.9 326.9H441.5L448.8 313L446.1 309.9H471.8L469.5 314.2H533.2L531.2 329.1L517.8 348.3H438.5L440 337.7H469.9L468.1 329.2H489.5V329.1ZM475.2 273.8H539L536.9 288.7L523.5 307.9H446.4L448 297.3H474.6L472.7 288.8H494L495.9 297.3H507.4L516.3 284.5H469.6L468.6 286.6H447.2L454.4 272.7L451.7 269.6H477.4L475.2 273.8Z" fill="black"/>
<path opacity="0.6" d="M573.5 274.8L575.6 272.1L573.5 269.5H599.2L595 274.8H641.2L639.7 285.4H586.7L583.3 289.7H634.7L627.3 342.8C626.9 345 625.9 346.7 624.3 348.1C622.6 349.5 620.7 350.2 618.5 350.2H597.3L606.1 341.1L607 334.5H577L574.7 350.2H553.3L558.5 313.1H543.6L565.1 285.4H549.7L551.2 274.8H573.5ZM578.6 323.9H608.6L609.5 317.4H579.5L578.6 323.9ZM581 306.8H611L611.9 300.3H581.9L581 306.8Z" fill="#081912"/>
<path opacity="0.6" d="M665.299 279.8L666.199 274L662.499 269.7H681.799L680.299 279.8H687.399L686.199 288.3H678.999L677.899 296.4H686.999L685.799 305.2H679.399L678.499 311.6H684.899L683.699 320.4H677.299L674.899 337.4H740.499L738.999 348.2H672.299L657.099 339.4L655.399 348.2H644.799L651.999 313.8L649.999 311.1H662.599L659.599 326.9L662.299 328.4L665.599 305.2H651.099L652.299 296.4H662.999L664.099 288.3H655.099L656.299 279.8H665.299ZM715.699 324.9L713.399 325.3L711.899 335.4H700.299L701.399 327.2L682.099 330.3L683.299 321.9L685.599 321.6L691.499 280H689.199L690.399 271.6H723.199L721.999 280H719.599L714.399 317L716.799 316.6L715.699 324.9ZM697.399 319.7L702.699 318.9L703.699 311.4H698.499L697.399 319.7ZM699.799 303H704.999L705.999 295.7H700.799L699.799 303ZM701.899 287.3H707.099L708.099 280H702.899L701.899 287.3ZM730.899 291L732.099 299.7L735.599 290.9L736.699 282.7H723.499L724.699 273.7H747.599L745.099 291.5L736.499 309.9L740.699 335.2H730.199L728.699 321.8L722.499 335.2H712.599L724.899 309.3L721.699 290.9L722.399 285.6H731.399L730.899 291Z" fill="#081912"/>
<path opacity="0.6" d="M827.999 280.2H849.799L841.199 340.7C840.899 342.9 839.899 344.7 838.299 346.1C836.599 347.6 834.699 348.3 832.499 348.3H813.399L823.399 337.7L824.399 330.3H807.199L802.199 304.8H821.499L825.299 324.5L829.999 290.9H821.799L816.999 299.4H799.899L792.999 348.3H750.199L760.099 278.1H767.299L770.299 272.6L767.599 269.6H793.299L788.699 278.1H802.899L801.299 289.4L810.999 272.6L808.299 269.6H833.999L827.999 280.2ZM776.299 337.6L778.999 318.4H772.499L769.799 337.6H776.299ZM773.899 307.8H780.399L783.099 288.6H776.599L773.899 307.8Z" fill="#081912"/>
<path opacity="0.6" d="M852.5 350.2L863.1 318.5H881.7L871.1 350.2H852.5ZM863.8 314.2L862.3 295H880.9L882.4 314.2H863.8ZM867.1 290.8L865.6 271.6H884.2L885.7 290.8H867.1ZM907.2 313.2L908.6 303.8H886.6L888.1 293.2H910.1L911.5 283.2L891.5 283.6L893.1 273L954.9 271.4L953.4 282L932.2 282.6L930.7 293.1H954.3L952.8 303.7H929.2L927.8 313.1H949.2L944.2 347.9H881.6L886.6 313.1H907.2V313.2ZM926.7 337.7L928.7 323.8H904.7L902.7 337.7H926.7Z" fill="#081912"/>
<path opacity="0.6" d="M1001.1 322.7L1000.4 350.1H983.3V347.1L956.5 350.1L958.1 339.7L968.9 305.7H962.8L964.4 295.1H1007.2L1005.6 305.7H986L975.7 337.6L983.6 336.7L983.9 322.7H1001.1ZM1008 273.8L1006.5 284.4H968L969.5 273.8H1008ZM1017.8 292.9H1011.7L1013.3 282.3H1020.5L1022.8 273.3L1019.4 269.5H1040.8L1037.6 282.3H1058.2L1049.6 342.8C1049.2 345 1048.2 346.7 1046.6 348.1C1044.9 349.5 1043 350.2 1040.8 350.2H1023L1032.9 339.9L1039.6 293H1035L1020.8 350.2H1003.7L1017.8 292.9Z" fill="#081912"/>
<path d="M1098.8 305.7L1099.4 301.4H1069.5L1070.6 292.9H1100.6L1100.9 290.8H1122.3L1122 292.9H1152L1150.9 301.4H1120.8L1120.2 305.7H1156.6L1155.5 314.2H1140.5L1139.8 318.5H1152.7L1151.3 328H1138.4L1136.4 342.8C1136 345 1135 346.7 1133.4 348.1C1131.7 349.5 1129.8 350.2 1127.6 350.2H1105.3L1115.4 339.8L1117 328H1061.3L1062.7 318.5H1118.4L1119.1 314.2H1061.3L1062.4 305.7H1098.8ZM1092.9 273.8H1114L1112.9 282.3H1104.1L1107.7 288.7H1090.6L1087.4 283.1L1084.1 288.7H1064.8L1074.3 272.5L1071.8 269.6H1095.4L1092.9 273.8ZM1101.9 344H1078.3L1069.4 331.2H1093L1101.9 344ZM1137.9 273.8H1161.1L1160 282.3H1149L1152.6 288.7H1135.5L1132.3 283.1L1129 288.7H1109.7L1119.2 272.5L1116.7 269.6H1140.3L1137.9 273.8Z" fill="black"/>
<path d="M1195.9 282.3L1186.2 350.2H1165.8L1174.9 286.5L1168.2 287.7L1170 274.9L1197.6 269.5L1195.9 282.3ZM1213.5 301.5L1203.5 341.9H1189.6L1199.6 301.5H1213.5ZM1204.3 272.3L1202 269.5H1222.3L1219.7 278H1263.9L1259.4 295H1242.3L1244 288.6H1216.6L1214.1 297.1H1197L1204.3 272.3ZM1232.4 342.8C1232 345 1231 346.7 1229.3 348.1C1227.6 349.5 1225.7 350.2 1223.5 350.2H1202.3L1212.4 339.8L1218.9 293H1239.3L1232.4 342.8ZM1256.4 301.5L1254.9 342H1241L1242.4 301.5H1256.4Z" fill="black"/>
<path d="M1268.4 348.3L1293.1 316.4H1274.2L1275.7 305.8H1310.9L1313.7 286.6H1281.6L1283.2 276H1315.2L1315.5 273.9L1311.9 269.6H1337.6L1336.7 276H1368.8L1367.2 286.6H1335.1L1332.4 305.8H1367.7L1366.2 316.4H1347.3L1362.7 348.3H1341.3L1329.7 324.4L1326.1 350.2H1304.7L1308.3 324.6L1289.9 348.3H1268.4ZM1286.8 302.6L1284.3 289.8H1305.7L1308.2 302.6H1286.8ZM1337.1 302.6L1342.1 289.8H1363.5L1358.5 302.6H1337.1Z" fill="black"/>
<path d="M1385.1 284L1386.7 273L1384 269.8H1406.2L1404.2 284H1408L1406.5 294H1402.7L1401 306.1L1403.9 305.2L1402.2 316.8L1399.3 317.7L1395.8 342.7C1395.5 344.9 1394.5 346.6 1392.9 348C1391.2 349.4 1389.4 350.1 1387.3 350.1H1369.8L1377.2 340L1379.5 324L1373.2 325.9L1374.9 314.1L1381.2 312.2L1383.8 293.9H1377.8L1379.3 283.9H1385.1V284ZM1401.1 350.2L1409.8 319.6H1424.3L1415.6 350.2H1401.1ZM1422.7 350.2L1427.5 316.4H1407L1408.5 305.8H1429L1430.2 297.3H1450.7L1449.5 305.8H1470L1468.5 316.4H1448L1443.2 350.2H1422.7ZM1454.4 301.5L1447.2 286.6H1455.4L1456.1 282.3H1429.4L1428.7 286.6H1436.8L1425.6 301.5H1409.1L1418.7 288.7H1410.9L1412.8 274.8L1410.2 271.7H1474.9L1472.5 288.7H1464.5L1470.6 301.5H1454.4ZM1450.2 350.2L1450.5 319.6H1465L1464.8 350.2H1450.2Z" fill="#E05A24"/>
<path d="M1496 348.2H1476.7L1489.6 333.3H1508.8L1496 348.2ZM1484.8 320.4L1500.2 314.1H1485.4L1486.2 307.8L1494.4 304.4H1482.7L1485.1 287.6H1521L1521.6 284.2H1487.7L1489.2 273.6H1522.9L1519.4 269.6H1543.4L1542.8 273.6H1574.9L1573.4 284.2H1541.2L1540.7 287.6H1575.3L1572.9 304.5H1554.3L1555.3 297.1H1502L1501.3 301.6L1507.1 299.2H1530.8L1514.9 305.5H1568.3L1567.2 314H1523.8L1508.2 320.3H1545.7L1545 316.2H1566.4L1568.8 331.1H1547.4L1547.1 328.9H1534.8L1532.5 344.8C1532.3 346.3 1531.4 347.5 1529.8 348.4C1528.2 349.3 1526.3 349.8 1524.2 349.8H1504L1513.6 342.6L1515.5 328.8H1483.5L1484.8 320.4ZM1566.5 348.1H1547.2L1540.7 333.2H1560L1566.5 348.1Z" fill="#E05A24"/>
<path d="M1612.5 342.5H1595.4L1596.9 331.9H1614L1612.5 342.5ZM1614.6 326.8H1597.5L1604.5 279.1H1621.6L1614.6 326.8Z" fill="black"/>
</svg>
