<svg width="452" height="275" viewBox="0 0 452 275" fill="none" xmlns="http://www.w3.org/2000/svg">
<path d="M159.2 93.6003C159.4 93.5003 159.9 93.4004 160.8 93.2004C162.1 93.0004 163.7 92.7001 165.6 92.4001C167.5 92.1001 169.1 91.9004 170.5 91.7004C171.9 91.6004 172.6 91.7002 172.6 92.0002C172.4 92.3002 171.5 92.7003 170 93.1003C168.4 93.6003 166.6 94.0002 164.4 94.5002C162.3 95.0002 160.3 95.4004 158.5 95.7004C156.7 96.1004 155.5 96.3001 154.9 96.4001C153.6 96.6001 152.6 97.3001 152 98.4001C146.4 106.2 140 113.2 132.6 119.4C127.2 124.1 121.4 128.1 115.2 131.6C112.8 133 110.3 134.2 107.8 135.3C105.3 136.3 102.7 137.2 99.9 137.8C97.3 138.3 94.8 138.5 92.2 138.3C89.1 138 87.0001 136.8 85.8001 134.9C84.6001 132.9 84.4 130.5 85.4 127.5C86.1 125.7 87.1 124 88.4 122.6C90.4 120.3 92.6 118.2 95.1 116.4C98.5 113.9 102 111.8 105.7 109.8C106 109.6 106.3 109.5 106.6 109.4C107 109.2 107.4 109 107.8 108.7C108.3 108.4 108.6 108 108.6 107.4C108.6 107 108.7 106.6 108.7 106.2C108.7 105.6 108.7 105 108.7 104.4C108.7 96.9001 108.7 89.4001 108.7 81.9001C108.7 71.7001 108.7 61.6001 108.7 51.4001C108.7 51.3001 108.7 51.2003 108.7 51.1003C108.7 50.2003 108.7 49.3001 108.8 48.4001C109 47.5001 109.6 47.0001 110.8 46.9001C111.9 46.9001 112.5 47.4001 112.7 48.4001C112.8 49.2001 112.8 50.0001 112.8 50.9001C112.8 51.1001 112.8 51.3001 112.8 51.4001C112.8 59.5001 112.8 67.6004 112.8 75.7004C112.8 84.6004 112.8 93.5001 112.9 102.4C112.9 102.7 112.9 103.1 112.8 103.4C112.7 104.9 112.8 105.8 113.2 105.9C113.6 106.1 114.5 105.8 116.2 105.1C116.3 105.1 116.4 105 116.5 105C126.2 100.9 136.1 97.9 146.4 95.8C148.7 95.4 150.5 94.2003 151.6 92.1003C154.3 87.3003 156.7 82.2001 158.6 76.8C160.5 71.4 161.8 66.0003 162.5 60.6003C163.2 55.2003 163.1 50.3004 162.3 45.7004C161.4 41.1004 159.7 37.3 156.9 34.3C154.2 31.2 150.3 29.3002 145.4 28.5002C140.4 27.7002 134.2 28.4002 126.7 30.5002C122.9 31.5002 118.7 33.1003 114 35.1003C109.3 37.1003 104.7 39.6002 99.9 42.5002C95.1 45.3002 90.6 48.4 86.4 51.8C82.2 55.2 78.5 58.6004 75.5 62.2004C72.5 65.8004 70.3 69.4002 69.1 73.0002C68.7 74.1002 68.0001 74.6003 66.8001 74.6003C66.2001 74.6003 65.7 74.4002 65.4 74.0002C65.1 73.6002 65 73.2003 65.1 72.6003C65.5 71.2003 66.1 69.9004 66.9 68.7004C68.8 65.7004 70.9001 62.9001 73.3001 60.4001C79.5001 53.7001 87 47.6002 95.7 42.0002C104.5 36.4002 113.2 32.2 121.9 29.3C129.9 26.7 136.9 25.6001 142.6 25.9001C148.4 26.2001 153.1 27.7 156.9 30.3C160.6 32.9 163.3 36.4 165 40.8C166.7 45.2 167.5 50.1003 167.4 55.6003C167.3 61.1003 166.3 66.9003 164.5 73.1003C162.7 79.2003 160 85.3002 156.6 91.5002C155.9 92.8002 155.7 93.5004 156 93.7004C156.3 93.9004 156.9 93.9004 157.9 93.7004C158.2 93.7004 158.7 93.6003 159.2 93.6003ZM145.1 101.4C145.2 101.2 145.3 101.1 145.4 101C146 100.4 146.4 99.7001 146.6 98.9001C146.3 98.7001 146 98.6003 145.7 98.6003C145.4 98.6003 145.1 98.7004 144.8 98.7004C144.7 98.7004 144.6 98.8 144.5 98.8C139.7 100 134.9 101.4 130.1 103C125.3 104.5 120.7 106.3 116 108.4C115.7 108.6 115.4 108.7 115.1 108.8C114.3 109.1 113.8 109.4 113.4 109.6C113 109.8 112.8 110.1 112.8 110.5C112.7 110.9 112.7 111.4 112.7 112.1C112.7 112.5 112.7 113 112.7 113.5C112.7 114.3 112.7 115.1 112.7 115.9C112.7 116.7 112.7 117.5 112.6 118.3C112.6 119.1 112.6 119.9 112.5 120.6C112.3 121.6 111.7 122.1 110.6 122.1C109.4 122 108.8 121.3 108.8 120.1C108.7 118.7 108.7 117.4 108.7 116.1C108.7 115.2 108.7 114.3 108.7 113.4C108.6 112.5 108.2 112.2 107.4 112.6C104.8 114 102.3 115.5 99.9 117.2C97.5 118.9 95.3001 120.7 93.3001 122.8C92.0001 124.1 91 125.6 90.2 127.2C89.5 128.5 89.2 129.9 89.1 131.4C89.2 133.9 90.4 135.4 92.7 136.1C94.2 136.5 95.6 136.5 97.1 136.2C99.9 135.7 102.6 134.8 105.2 133.8C107.8 132.7 110.3 131.5 112.8 130.1C119.1 126.5 125 122.2 130.4 117.4C135.6 112.5 140.5 107.2 145.1 101.4Z" fill="black" stroke="#5F3720" stroke-width="2" stroke-miterlimit="10"/>
<path d="M184.8 95.7999C185.1 95.0999 185.4 94.7999 185.5 94.7999C185.6 94.8999 185.7 95.1002 185.6 95.6002C185.5 96.1002 185.4 96.6999 185.3 97.2999C185.1 98.2999 184.7 99.4003 184.1 100.7C183.5 102 182.9 103.1 182.2 104.2C181.2 105.6 179.9 106.7 178.4 107.5C176.9 108.3 175.5 108.4 174.3 108C173.1 107.6 172.4 106.5 172.2 104.5C172.2 102.9 172.3 101.1 172.6 99.2003C172.7 98.4003 172.8 97.5999 172.9 96.7999C172.9 96.4999 172.8 96.3003 172.7 96.2003C172.6 96.1003 172.4 96.0001 172.1 96.0001C171.9 96.0001 171.8 96.0001 171.6 96.0001C170.6 96.2001 169.6 96.1 168.6 95.9C167.4 95.5 166.7 95.0002 166.5 94.1002C166.3 93.3002 166.3 92.1999 166.6 90.7999C166.7 89.7999 167.1 89.1002 167.7 88.6002C168.3 88.1002 169 87.9001 169.8 88.0001C170.9 88.1001 171.5 88.4999 171.4 89.2999C171.4 90.0999 171.2 90.9003 170.8 91.7003C170.4 92.4003 170.3 93.0001 170.2 93.5001C170.2 94.0001 170.6 94.2001 171.4 94.0001C171.6 93.9001 171.8 93.8999 172 93.7999C172.3 93.6999 172.7 93.6001 173.1 93.5001C173.5 93.4001 174 93.4 174.7 93.4C175.5 93.4 176 93.8001 176.2 94.5001C176.5 95.2001 176.6 96.0002 176.5 97.1002C176.5 98.1002 176.4 99.2003 176.2 100.2C176 101.5 175.9 102.7 175.9 103.6C175.9 104.5 176.2 105.1 176.7 105.3C177.4 105.5 178.5 104.8 179.9 103.3C181.6 101.9 183.2 99.3999 184.8 95.7999Z" fill="black" stroke="#5F3720" stroke-width="2" stroke-miterlimit="10"/>
<path d="M312 9.10022C317.2 13.8002 318.7 19.5999 316.6 26.2999C316.2 27.4999 315.7 28.6003 315.1 29.7003C314 31.6003 312.8 33.5003 311.4 35.2003C310 36.9003 308.5 38.5002 307 40.1002C306 41.2002 304.7 41.6003 303.4 41.2003C303 41.2003 302.8 41.0002 302.6 40.6002C302.5 40.2002 302.6 40.0003 302.9 39.7003C305.4 37.3003 307.6 34.6002 309.5 31.6002C310.9 29.6002 311.8 27.5003 312.5 25.2003C314 19.0003 312.3 13.9 307.4 9.90003C305.1 8.10003 302.5 6.80013 299.6 6.00013C296.9 5.30013 294.2 4.80023 291.4 4.60023C288.7 4.40023 285.9 4.40023 283.2 4.60023C279 4.80023 274.8 5.30023 270.7 6.10022C266.5 6.80022 262.4 7.70032 258.3 8.70032C252.9 10.0003 247.7 11.6002 242.5 13.6002C237.3 15.5002 232.3 17.8 227.5 20.4C222.8 22.9 218.5 25.9001 214.5 29.5001C210.9 32.6001 208 36.3001 205.7 40.5001C202.8 46.1001 203 51.4999 206.4 56.7999C208.6 59.9999 211.2 62.8003 214.2 65.2003C218.9 69.1003 223.8 72.6003 229 75.7003C233.4 78.3003 237.8 80.9001 242.1 83.5001C245 85.2001 247.9 86.9002 250.8 88.6002C252.9 89.8002 254.9 90.9999 256.9 92.2999C258.9 93.5999 260.8 95 262.7 96.4C263.8 97.3 265.1 97.6002 266.4 97.1002C271.1 95.7002 275.8 94.8003 280.6 94.2003C280.8 94.2003 280.9 94.2002 281.1 94.1002C282.2 93.9002 283.3 93.9002 284.3 94.1002C284.6 94.2002 284.8 94.3001 285 94.5001C285.2 94.7001 285.3 94.8999 285.3 95.2999C285.3 95.6999 285.2 95.9002 285 96.1002C284.8 96.3002 284.6 96.4 284.3 96.4C282.6 96.4 281 96.6 279.4 96.9C277.8 97.2 276.2 97.6 274.7 97.9C273.4 98.2 272.2 98.5003 271 98.7003C270.8 98.7003 270.7 98.7999 270.6 98.7999C270 98.8999 269.4 99.0003 268.9 99.2003C268.3 99.4003 267.8 99.7002 267.4 100.1C267.7 100.9 268.1 101.5 268.7 102C268.9 102.3 269.2 102.6 269.4 102.9C270.4 104.2 271.2 105.5 271.9 106.9C272.6 108.3 273.2 109.7 273.5 111.3C274.3 115.3 273 118.4 269.6 120.6C268.4 121.3 267.2 121.9 266 122.3C261.5 123.9 256.9 124.6 252.1 124.3C250.2 124.2 248.5 123.7 246.9 122.9C244.7 121.7 243.2 120.1 242.5 118C241.8 115.9 242 113.7 243.1 111.5C243.8 110.1 244.8 108.8 246 107.8C247.5 106.4 249.1 105.2 250.9 104.2C252.6 103.1 254.4 102.2 256.2 101.3C257 100.9 257.7 100.5 258.5 100.1C258.9 99.9002 259.3 99.7001 259.7 99.5001C259.7 99.1001 259.7 98.8001 259.5 98.5001C259.3 98.3001 259.1 98.1 258.9 97.9C258.8 97.9 258.7 97.8003 258.7 97.7003C255.6 95.3003 252.3 93.1002 248.9 91.1002C244.8 88.7002 240.6 86.1999 236.4 83.7999C234.7 82.7999 232.9 81.8003 231.2 80.7003C225.2 77.2003 219.3 73.4003 213.7 69.2003C210.2 66.6003 207.1 63.7001 204.3 60.5001C202.9 58.8001 201.8 57.0002 200.9 55.1002C198.9 51.0002 198.7 46.6999 200.3 42.2999C201.1 39.9999 202.2 38.0001 203.6 36.0001C205 34.1001 206.5 32.3002 208.1 30.6002C211.7 26.8002 215.8 23.6 220.2 20.9C227.5 16.4 235.3 12.8002 243.4 10.1002C253.6 6.70023 264 4.29993 274.6 2.79993C278.3 2.29993 282 2.00003 285.7 1.90003C289.4 1.80003 293.1 2.00023 296.8 2.60023C299 2.90023 301.1 3.40013 303.2 4.00013C305.3 4.60013 307.3 5.50032 309.2 6.70032C309.9 7.40032 311 8.20022 312 9.10022ZM263.4 102.3C262.8 101.7 262.1 101.6 261.3 102C259.2 102.9 257.3 103.9 255.3 105.1C253.4 106.2 251.6 107.5 249.8 109C248.9 109.8 248.1 110.8 247.5 111.8C246.3 114 246.2 116.1 247.1 118C248 119.9 249.7 121.1 252.1 121.5C252.7 121.6 253.2 121.6 253.7 121.7C253.9 121.7 254 121.7 254.1 121.7C257.8 121.6 261.2 120.8 264.3 119.4C268.1 117.8 269.5 115 268.5 111C268.1 109.3 267.4 107.8 266.5 106.4C265.6 104.9 264.6 103.6 263.4 102.3Z" fill="black" stroke="#5F3720" stroke-width="2" stroke-miterlimit="10"/>
<path d="M308.5 95.6002C310 93.9002 310.8 93.3003 310.9 93.7003C311 94.1003 310.7 95 309.9 96.4C309.2 97.8 308.1 99.0001 306.5 100C305.4 100.7 304.4 101.1 303.6 101.4C302.8 101.6 302.1 101.8 301.4 101.8C300.1 101.9 299.1 101.5 298.5 100.7C297.8 99.9003 297.3 98.8002 297.1 97.6002C296.9 96.4002 296.6 95.0002 296.5 93.6002C296.4 92.7002 296.3 91.9999 296.2 91.2999C296 90.1999 295.7 89.6001 295.3 89.5001C294.8 89.4001 294.1 90.1002 293.1 91.6002C292.1 93.2002 291.2 95.0001 290.5 97.0001C289.7 99.0001 289.1 100.9 288.5 102.7C288.5 102.8 288.4 102.9 288.4 103C288.3 103.3 288.2 103.5 288.1 103.8C287.9 104.6 287.6 105.3 287.3 106.1C287 106.7 286.6 107.1 285.9 107.3C285.3 107.5 284.6 107.4 283.9 107.2C283.4 107 283.1 106.7 283 106.2C282.8 105.5 282.7 104.8 282.8 104.1C282.8 104 282.8 104 282.8 103.9C283 100.8 283 95.7002 282.9 88.6002C282.8 82.9002 282.8 76.8003 282.8 70.2003C282.8 63.6003 283 57.5002 283.3 51.6002C283.6 45.8002 284.2 41.1002 285 37.6002C285.4 36.3002 285.9 35.2003 286.7 34.2003C287.5 33.2003 288.4 32.6001 289.4 32.5001C290.4 32.4001 291.3 33.1001 292.2 34.5001C292.8 35.7001 293.1 37 293.3 38.4C293.7 42.5 293.3 48.9 292.3 57.4C291.2 66 290.1 73.3999 288.9 79.7999C287.7 86.1999 287.1 91.6 287.1 95.9C287.5 95.2 287.9 94.5999 288.3 93.7999C288.8 92.6999 289.5 91.6001 290.1 90.5001C290.8 89.4001 291.6 88.5003 292.5 87.7003C293.4 86.9003 294.5 86.4999 295.9 86.2999C296.8 86.1999 297.7 86.2001 298.6 86.5001C299.5 86.8001 300.1 87.4 300.5 88.4C300.9 90.2 301 92.1002 300.9 94.1002C300.9 96.2002 301.3 97.6002 302 98.1002C302.7 98.7002 303.7 98.8 304.8 98.4C305.7 98.3 307 97.3002 308.5 95.6002ZM288.8 40.9C288.6 43.1 288.4 46.8 288.1 51.9C287.9 57.1 287.6 62.2 287.5 67.4C287.3 72.6 287.2 76.8999 287.2 80.2999C287.6 77.1999 288.1 73.2003 288.7 68.2003C289.3 63.2003 289.8 58.0999 290.3 52.7999C290.8 47.4999 291 43.6 291 40.9C291 39.5 290.9 38.4999 290.7 37.7999C290.5 37.0999 290.3 36.9002 289.9 37.1002C289.5 37.3002 289.2 37.8002 289.1 38.6002C288.9 39.5002 288.8 40.2 288.8 40.9Z" fill="black" stroke="#5F3720" stroke-width="2" stroke-miterlimit="10"/>
<path d="M340.5 94.5002C340.1 95.5002 339.4 96.5002 338.6 97.5002C336.2 100.4 334 102.3 331.9 103C329.8 103.7 327.9 103.7 326 102.9C324.2 102.1 323.1 100.2 322.9 97.2004C321.1 100.7 319.4 102.9 317.8 103.8C316.2 104.8 314.5 105.1 312.8 104.9C310.8 104.6 309.4 103.8 308.7 102.6C308 101.4 307.8 100 308 98.4001C308.2 96.8001 308.7 95.3 309.4 93.8C310 92.7 310.8 91.7 311.8 90.8C312.8 89.9 313.9 89.1003 315.1 88.6003C316.5 87.9003 317.8 87.6003 319.3 87.6003C320.7 87.6003 322.2 88.1002 323.8 89.0002C323.8 89.0002 323.9 89.0001 323.9 88.9001C323.9 88.7001 323.9 88.5 324 88.3C324.1 88.1 324.2 87.9004 324.4 87.7004C324.9 87.3004 325.6 87.1003 326.3 87.1003C327 87.1003 327.6 87.5004 328 88.2004C328.1 89.1004 328 90.3 327.7 91.8C327.1 95 327.1 97.2002 327.6 98.5002C328.1 99.8002 329 100.4 330.4 100.3C331.8 100.2 333.4 99.3004 335.2 97.7004C336.8 96.2004 338.5 93.5003 340.3 89.6003C340.3 89.1003 340.5 88.8003 340.9 88.6003C341.3 88.4003 341.7 88.3 342.2 88.3C342.6 88.3 343 88.4003 343.3 88.6003C343.6 88.8003 343.9 89.3001 344 89.9001C344 90.1001 344 90.5002 344.1 91.0002C344.2 91.5002 344.2 91.9 344.2 92.3C344.3 92.9 344.3 93.3002 344.4 93.5002C344.5 93.7002 344.6 93.7002 344.9 93.5002C345.2 93.3002 345.6 92.7001 346.2 91.9001C347.2 90.3001 348.4 89.0002 349.9 88.0002C351.3 87.0002 352.7 86.6 354.4 86.8C355.8 86.9 356.8 87.7002 357.2 89.0002C357.4 89.7002 357.5 90.3002 357.5 91.0002C357.5 91.7002 357.5 92.4002 357.4 93.0002C357.3 93.7002 357.3 94.4004 357.2 95.2004C357.1 95.4004 357.1 95.7001 357.1 95.9001C356.8 98.4001 356.9 100.1 357.3 101C357.7 101.9 358.8 102 360.5 101.3C362.3 100.7 363.6 98.8004 364.7 95.7004C365.2 94.0004 365.6 93.9 365.6 95.3C365.7 96.7 365.3 98.2004 364.4 99.7004C363.5 101.2 362.4 102.4 361.1 103.3C359.4 104.5 357.7 105 356.2 104.8C354.7 104.6 353.7 103.7 353.1 102.2C352.5 100.7 352.4 98.8002 352.7 96.5002V96.2004C352.8 95.8004 352.9 95.2002 353 94.5002C353.1 93.7002 353.2 93.0003 353.2 92.1003C353.2 91.3003 353.2 90.6003 353.1 90.1003C353 89.6003 352.8 89.4002 352.4 89.5002C351.5 90.0002 350.5 91.0002 349.6 92.5002C348.7 94.0002 347.9 95.5004 347.2 97.2004C346.5 98.8004 346 100.1 345.6 101.2C345.5 101.5 345.4 101.9 345.3 102.2L344.8 103.6C344.3 104.9 343.3 105.4 342.1 105.1C341.4 104.9 341 104.5 340.9 103.8C340.8 103.3 340.8 102.7 340.8 102.2V101.3C340.6 99.2 340.6 96.8002 340.5 94.5002ZM313.4 101.7C314.2 102.3 315.2 102.2 316.2 101.5C317.2 100.8 318.2 99.7001 319.2 98.4001C320.2 97.0001 321 95.7 321.6 94.3C322.3 92.9 322.6 91.9 322.7 91.3C320.7 90.2 319 90.1 317.6 90.8C316.2 91.5 315.1 92.6004 314.2 94.2004C313.4 95.8004 312.9 97.3 312.7 98.8C312.6 100.2 312.8 101.2 313.4 101.7Z" fill="black" stroke="#5F3720" stroke-width="2" stroke-miterlimit="10"/>
<path d="M389.7 95.7001C390.1 95.5001 390.5 95.3001 390.8 95.2001C391.2 95.1001 391.4 95.1001 391.5 95.2001C391.6 95.3001 391.5 95.7001 391 96.2001C389.7 97.7001 388.1 99.0998 386.3 100.4C384.5 101.7 382.6 102.7 380.6 103.6C379.1 104.3 377.5 104.8 375.8 105.2C374.1 105.6 372.5 105.7 370.8 105.5C369.2 105.3 367.6 104.5 366.3 103.3C364.2 101.4 363.4 99.0997 363.7 96.2997C364 94.0997 364.9 92.3001 366.3 90.7001C367.7 89.2001 369.5 88.1 371.6 87.6C373.4 87.2 375.2 87.1999 376.9 87.4999C377.7 87.5999 378.5 87.8997 379.1 88.2997C379.7 88.7997 380.1 89.2999 380.1 89.9999C380.2 90.5999 379.9 91.1997 379.4 91.7997C378.3 92.7997 377 93.4 375.5 93.6C373.8 93.9 372.2 94.1 370.5 94.1C369.7 94.1 369.1 94.3 368.8 94.6C368.5 94.9 368.3 95.4997 368.2 96.2997C367.9 98.4997 368.6 100.3 370.3 101.7C371.3 102.5 372.6 102.9 374.1 102.8C375.6 102.7 377.2 102.3 378.8 101.6C380.5 100.9 382.1 100.1 383.7 99.2001C385.3 98.3001 386.7 97.4 388 96.6C388.7 96.2 389.2 95.9001 389.7 95.7001ZM371.3 90.9999C371.2 91.0999 371.1 91.1997 370.9 91.2997C370.8 91.3997 370.7 91.5 370.6 91.6C370.5 91.7 370.5 91.7997 370.5 91.7997C370.5 91.8997 370.9 91.9998 371.5 91.8998C372.1 91.7998 372.8 91.7 373.5 91.6C374.2 91.5 374.8 91.1999 375.3 90.9999C375.8 90.6999 375.9 90.4 375.7 90.1C375.6 90 375.5 89.8997 375.4 89.7997C375.3 89.6997 375.1 89.7 375 89.6C374.3 89.6 373.7 89.6999 373.1 89.9999C372.4 90.2999 371.8 90.5999 371.3 90.9999Z" fill="black" stroke="#5F3720" stroke-width="2" stroke-miterlimit="10"/>
<path d="M111.901 204.2C111.401 204.1 111.101 204 110.701 203.7C110.401 203.3 110.301 202.9 110.201 202.4L110.301 188C107.001 192.3 105.101 195.2 104.401 196.7C104.101 197 103.601 197.1 102.901 197.1L102.101 196.7C101.801 196.3 101.701 195.9 101.701 195.4C101.701 194.4 104.401 190.3 109.701 183.2L103.301 183.5C102.301 183.4 101.701 182.8 101.701 181.8C101.701 181.7 101.801 181.3 102.101 180.7C103.301 180.4 104.601 180.2 106.001 180.2C107.401 180.2 108.701 180.1 110.101 180.1L110.301 172.7C107.801 173.4 106.101 173.7 105.401 173.8L104.601 173.4C104.301 173 104.201 172.5 104.201 171.8L104.601 171C108.701 169.6 112.601 168.7 116.201 168.3L117.001 168.7C117.301 169 117.401 169.5 117.401 170.2L117.001 171C116.001 171.5 114.801 171.7 113.601 171.8L113.401 179.9H118.401L119.201 180.3C119.501 180.7 119.601 181.2 119.601 181.9L119.201 182.7L118.401 183.1H113.901C114.901 184.1 115.801 185 116.701 185.8C117.601 186.6 118.401 187.5 119.201 188.5L119.301 189.5L118.901 190.3C118.601 190.6 118.101 190.7 117.401 190.7L116.301 190C115.601 189 114.701 188.2 113.701 187.5C113.801 196.6 113.901 201.4 113.901 201.8C113.901 202.5 113.701 203.2 113.301 203.8C112.701 203.9 112.301 204.1 111.901 204.2ZM126.001 183.2C125.101 182.8 124.201 182.5 123.301 182.3C122.401 182.1 121.501 181.8 120.701 181.3C120.401 181 120.301 180.5 120.301 179.8L120.701 179C121.101 178.7 121.601 178.6 122.301 178.6C123.101 179 124.001 179.2 124.801 179.4C125.701 179.6 126.501 179.9 127.201 180.4C127.501 180.7 127.601 181.2 127.601 181.9L127.201 182.7C126.901 183 126.501 183.2 126.001 183.2ZM133.001 204.3H132.701L131.901 203.9C131.501 203.3 131.301 202.6 131.301 201.9V189.2C129.701 189.3 128.201 189.5 126.801 189.6C125.401 189.7 123.901 189.8 122.401 189.8C121.401 189.7 120.801 189 120.801 187.8L121.201 187C122.701 186.7 124.301 186.5 126.101 186.4C127.801 186.3 129.501 186.2 131.101 185.9V170.1L131.501 169.3C131.801 169 132.301 168.9 133.001 168.9L133.801 169.3C134.201 169.8 134.401 170.4 134.401 171.1V185.7L138.801 185.4L139.601 185.8C139.901 186.2 140.001 186.7 140.001 187.4L139.601 188.2C138.901 188.6 138.201 188.8 137.401 188.8C136.201 188.8 135.201 188.8 134.501 188.9L134.601 202.9L134.201 203.7C133.901 204.2 133.501 204.3 133.001 204.3ZM126.801 177.8C126.401 177.7 125.701 177.5 124.901 177.1C124.101 176.7 123.101 176.1 121.901 175.5C121.601 175.1 121.401 174.6 121.401 173.9L121.801 173.1C122.101 172.8 122.501 172.6 123.001 172.6H123.401C124.101 173 124.901 173.3 125.601 173.6C126.301 173.9 127.101 174.3 127.801 174.8C128.201 175.2 128.401 175.7 128.401 176.4L128.001 177.2C127.701 177.5 127.301 177.7 126.801 177.8Z" fill="black"/>
<path d="M177.401 184.3C176.401 184.2 175.901 183.5 175.901 182.3C176.201 181.6 176.501 180.3 176.801 178.3L148.701 177.9C149.001 180.1 149.201 181.8 149.501 182.9L149.001 183.8C148.701 184.1 148.301 184.2 147.801 184.2C147.701 184.2 147.301 184.1 146.701 183.8C146.201 182.6 145.901 181.3 145.801 179.9C145.701 178.5 145.601 177.2 145.301 175.8C145.301 175 145.901 174.6 147.201 174.6H152.301L151.201 168.8C151.301 167.8 152.001 167.3 153.201 167.3L154.001 167.7C154.401 168.8 154.701 169.9 154.901 171.1C155.101 172.3 155.301 173.5 155.601 174.7H159.301C158.801 171.7 158.301 169.6 157.901 168.3L158.301 167.5C158.701 167.2 159.201 167 159.801 167L160.601 167.4C161.201 168.4 161.501 169.5 161.701 170.7C161.901 171.9 162.001 173.2 162.101 174.7H167.801C167.701 174.4 167.701 174.1 167.701 173.8C167.701 173.3 167.801 172.9 168.101 172.5C168.401 172.1 169.101 170.5 170.301 167.6C170.601 167.3 171.101 167.2 171.701 167.2L172.501 167.6C172.801 167.9 173.001 168.3 173.001 168.7C172.901 170 172.101 172 170.601 174.6C175.201 174.8 177.801 174.9 178.701 174.9C179.701 174.9 180.101 175.3 180.101 176.1C180.101 176.7 180.001 177.8 179.701 179.6C179.401 181.3 179.101 182.6 178.701 183.6C178.401 184.1 177.901 184.3 177.401 184.3ZM163.401 204.7C163.201 204.7 163.001 204.7 162.801 204.6C161.601 204.3 160.601 203.6 159.701 202.6C159.401 202.2 159.201 201.7 159.201 201.1L159.601 200.3C159.901 200 160.401 199.9 161.001 199.9C161.601 200.2 162.101 200.5 162.601 200.9C162.801 199.9 162.901 199 163.101 198.1C163.301 197.2 163.401 196.2 163.401 195.1L150.301 195.5L149.501 195.1C149.201 194.8 149.101 194.3 149.101 193.7L149.501 192.9C150.001 192.5 150.501 192.3 151.101 192.3L162.701 192C162.501 191.2 162.001 190.3 161.201 189.5C160.701 189 160.501 188.7 160.501 188.3C160.501 188 160.701 187.7 161.201 187.4C161.701 187.1 162.301 186.7 162.901 186.1C163.601 185.5 164.401 184.7 165.501 183.6L157.301 183.4L156.301 182.9C156.001 182.6 155.901 182.2 155.901 181.7C155.901 181.6 156.001 181.2 156.301 180.6L157.101 180.2L169.001 180.4C169.901 180.4 170.401 180.8 170.401 181.5C170.401 181.7 170.401 182 170.301 182.3L168.501 185C167.501 186.2 166.301 187.4 164.801 188.6C165.401 189.7 165.801 190.7 166.001 191.7C168.001 191.8 170.001 191.9 171.901 192C173.901 192.1 175.801 192.4 177.701 192.7C178.001 193 178.101 193.5 178.101 194.2L177.701 195C177.301 195.3 176.801 195.5 176.201 195.5L166.501 194.8C166.401 196.5 166.201 198.1 166.001 199.6C165.601 203 164.701 204.7 163.401 204.7Z" fill="black"/>
<path d="M216.901 185.2H216.601L215.701 184.5L214.501 182.5L196.101 183.5C195.601 183.4 195.301 183.2 195.001 182.9C194.701 182.6 194.601 182.1 194.601 181.4C195.301 180.2 196.901 177.9 199.601 174.5L190.701 174.7C189.701 174.6 189.101 173.9 189.101 172.6L189.501 171.8L190.301 171.4L203.001 171.2L202.801 167.4L203.301 166.4C203.601 166.1 204.001 166 204.501 166C204.601 166 205.001 166.1 205.601 166.4C205.901 167.1 206.001 167.9 206.001 168.8C206.001 169.7 206.101 170.5 206.201 171.2H219.901L220.701 171.6C221.001 171.9 221.101 172.4 221.101 173.1L220.701 173.9C220.301 174.2 219.901 174.4 219.501 174.4H203.501L199.701 180L212.601 179.2C211.901 178.5 211.601 177.7 211.601 176.8L212.001 176C212.401 175.7 212.901 175.6 213.601 175.6L214.401 176C215.201 176.9 215.801 177.9 216.301 179C216.801 180 217.401 181.1 217.901 182.2C218.301 182.6 218.501 183 218.501 183.6C218.501 183.8 218.401 184.2 218.101 184.8C217.901 185 217.401 185.2 216.901 185.2ZM214.901 204.6H214.401C212.001 204.5 210.001 203.9 208.401 202.9C208.101 202.6 208.001 202.1 208.001 201.4L208.401 200.6C208.801 200.3 209.201 200.2 209.701 200.2C209.801 200.2 210.701 200.5 212.401 201.1V198.3L199.501 198.2V203L199.101 203.8C198.801 204.1 198.301 204.2 197.601 204.2L196.801 203.8C196.301 203.3 196.101 198 196.101 187.9C196.101 187.2 196.101 186.5 196.101 185.9C196.101 185.2 196.501 184.8 197.201 184.7C197.501 184.7 198.401 184.7 200.001 184.7C202.801 184.7 207.601 184.8 214.401 184.9C215.101 185.1 215.501 185.5 215.601 186.1V202.3C215.601 203.8 215.401 204.6 214.901 204.6ZM212.401 190.1V188.1L199.501 188.2L199.601 189.9L212.401 190.1ZM212.501 195.1V193.5L199.601 193.2V195L212.501 195.1Z" fill="black"/>
<path d="M232.401 203.8H232.201L231.401 203.4C231.101 203.1 231.001 202.6 231.001 201.9L231.401 201.1C233.001 199.3 234.301 197.4 235.201 195.2C237.401 190.2 238.601 185.3 238.801 180.5L239.001 174.7V174.1C239.001 173.2 239.201 172.4 239.601 171.6C239.901 171.3 240.401 171.2 241.101 171.2L241.901 171.6C242.201 172.3 242.401 173 242.401 173.7C242.401 174 242.401 174.3 242.301 174.6C242.301 176.7 242.201 179.1 242.001 181.6C241.801 184.2 241.301 187.2 240.401 190.7C239.501 194.2 238.501 196.9 237.301 198.8C235.401 202.2 233.801 203.8 232.401 203.8ZM258.301 203.3C256.601 203.3 255.001 203.1 253.601 202.7C252.801 202.5 251.801 201.8 250.601 200.7C249.501 199.6 248.801 198.1 248.601 196.2C248.501 195.2 248.401 193.8 248.401 192C248.401 189.3 248.601 184.1 248.901 176.6C249.001 174.7 249.201 172.9 249.501 171C249.901 170.7 250.401 170.5 251.101 170.5L251.901 170.9C252.201 171.8 252.401 172.7 252.401 173.7C252.401 174.1 252.401 174.5 252.301 174.9C251.801 186.1 251.601 192.1 251.601 192.9C251.601 194 251.701 195 251.801 196C251.901 196.9 252.401 197.8 253.201 198.7C254.001 199.6 255.101 200 256.401 200C257.801 200 260.001 199.9 262.801 199.7C262.501 197.7 262.401 196.3 262.401 195.4C262.401 194.1 263.001 193.4 264.101 193.4H264.401L265.201 193.8C265.501 195.3 265.801 197.8 266.301 201.4C266.301 202 266.101 202.4 265.601 202.6C265.101 202.8 264.401 202.9 263.301 202.9C262.201 202.9 261.201 203 260.301 203.2C259.801 203.2 259.101 203.3 258.301 203.3Z" fill="black"/>
<path d="M296.201 204.8C295.901 204.8 295.501 204.6 295.101 204.3C294.801 203.9 293.501 203 291.201 201.6C289.001 200.1 286.501 198.9 283.901 198C283.101 197.6 282.701 197.2 282.701 196.6C282.701 196.2 282.801 195.8 283.101 195.4C283.601 195.1 284.101 195 284.601 195C285.001 195 285.601 195.2 286.301 195.5C287.001 195.8 288.301 196.4 290.301 197.3C293.101 194.4 295.401 191.9 297.101 189.9L284.701 190.1C284.001 189.9 283.601 189.5 283.601 188.8C283.601 188 284.001 186 284.701 182.7L272.901 183.2C272.401 182.5 272.101 181.9 272.101 181.4C272.101 180.8 272.501 180.3 273.301 180.1C274.001 180 278.001 179.7 285.401 179.5L286.101 175.2H277.001C276.401 174.6 276.101 174.1 276.101 173.6C276.101 173.2 276.401 172.6 277.001 172H286.401L286.801 169.3C286.901 168.4 287.201 167.6 287.701 166.9C288.101 166.6 288.401 166.4 288.801 166.4C289.201 166.4 289.501 166.6 289.901 166.9C290.201 167.4 290.301 167.9 290.301 168.3C290.301 168.9 290.101 169.4 289.801 170L289.501 171.9L302.201 171.7C302.401 171.6 302.501 171.6 302.701 171.6C303.101 171.6 303.501 171.8 303.801 172.1C304.101 172.6 304.301 173 304.301 173.3C304.301 173.9 303.901 174.4 303.101 174.7L289.301 175.1L288.701 179.3C299.501 179.4 305.901 179.5 307.901 179.6C308.401 180.1 308.601 180.6 308.601 181.1C308.601 181.6 308.301 182.1 307.801 182.7L287.901 182.4L287.301 186.7C294.701 186.6 299.101 186.5 300.601 186.5C300.901 186.5 301.101 186.5 301.501 186.5C301.801 186.5 302.101 186.8 302.501 187.4C302.601 187.5 302.601 187.7 302.601 187.8C302.601 188.3 302.201 189 301.501 189.7L293.701 198.7C296.001 200.5 297.201 201.5 297.401 201.8C297.701 202.2 297.901 202.6 297.901 203C297.901 203.4 297.701 203.8 297.401 204.1C296.901 204.6 296.501 204.8 296.201 204.8Z" fill="black"/>
<path d="M317.301 181.7H317.001L316.201 181.3C315.701 179.9 315.401 178.4 315.301 176.8C315.201 175.2 315.101 173.6 315.001 172.1C315.201 171.2 315.901 170.7 317.001 170.7L330.001 171V168.7C330.001 168 330.201 167.4 330.601 166.8C331.001 166.5 331.501 166.4 332.101 166.4L332.901 166.8L333.301 167.6V171.2H348.501C349.201 171.4 349.601 171.8 349.801 172.3C349.901 172.6 349.901 172.9 349.901 173.3C349.901 173.7 349.801 174.3 349.701 175.1C349.601 175.9 349.501 176.7 349.301 177.5C349.201 178.3 348.901 179 348.501 179.7C348.201 180 347.701 180.1 347.001 180.1L346.201 179.7C345.901 179.3 345.801 178.8 345.801 178.1C346.201 177 346.401 175.8 346.501 174.5L318.301 174L318.901 180.4L318.501 181.2C318.201 181.5 317.801 181.7 317.301 181.7ZM336.301 204.8C335.101 204.8 333.201 203.4 330.601 200.6L330.501 199.6L330.901 198.8C331.201 198.5 331.701 198.4 332.401 198.4C333.301 199 334.201 199.7 335.101 200.6C335.201 199.9 335.301 199.3 335.301 198.5C335.301 197.8 335.201 196.4 335.101 194.3C331.001 197.7 326.501 199.9 321.501 200.9C320.501 200.8 319.901 200.1 319.901 198.9L320.301 198.1C322.601 197.4 325.001 196.6 327.301 195.5C329.601 194.4 331.701 192.9 333.601 191L333.101 190C331.001 191.6 329.101 192.7 327.201 193.5C325.301 194.3 323.501 194.9 321.601 195.5L320.801 195.1C320.501 194.8 320.401 194.3 320.401 193.6L320.801 192.8C322.601 191.9 324.401 191.1 326.301 190.3C328.201 189.6 329.901 188.4 331.501 186.9L329.801 185.5C328.501 186.4 327.201 187.3 325.901 188.1C324.601 188.9 323.201 189.6 321.701 190L320.901 189.6C320.601 189.3 320.501 188.8 320.501 188.1L320.901 187.3C322.601 186.3 324.201 185.3 325.801 184.3C327.401 183.3 328.901 182.1 330.301 180.7L324.501 180.6C323.501 180.6 322.601 180.4 321.801 180C321.501 179.7 321.301 179.2 321.301 178.5L321.801 177.7C322.301 177.4 322.701 177.2 323.201 177.2C323.501 177.2 330.101 177.3 343.001 177.5L343.801 177.9C344.101 178.2 344.201 178.7 344.201 179.4L343.801 180.2C343.401 180.5 343.001 180.6 342.501 180.7H334.801C333.701 181.8 332.901 182.7 332.301 183.5C333.301 184.3 334.501 186 335.901 188.6L340.301 185.2C341.001 184.4 342.001 184.1 343.201 184.1L344.001 184.5C344.301 184.8 344.401 185.3 344.401 186L344.001 186.8L339.201 190.7C340.201 191.9 341.401 193.1 342.701 194.1C344.001 195.2 346.101 196.7 349.201 198.6C349.501 198.9 349.601 199.4 349.601 200.1L349.201 200.9C348.801 201.2 348.301 201.3 347.601 201.3C344.601 199.7 341.501 197.5 338.301 194.5C338.401 196.2 338.501 197.6 338.501 198.6C338.501 198.9 338.501 199.4 338.401 200C338.401 200.6 338.201 201.3 338.001 202C337.801 202.7 337.501 203.4 337.201 204C337.101 204.5 336.701 204.8 336.301 204.8Z" fill="black"/>
<path d="M39.0004 256.5C38.5004 256.4 38.2004 256.3 37.9004 256C37.6004 255.7 37.4004 255.3 37.4004 254.9L37.5004 227.8C37.5004 226.1 38.1003 225.2 39.2003 225.2C39.9003 225.2 40.5004 225.6 41.3004 226.3C43.8004 230.9 46.9004 237.6 50.8004 246.4L50.9004 226.8C51.0004 225.8 51.6003 225.2 52.6003 225.2C52.7003 225.2 53.1003 225.3 53.7003 225.6L54.1003 226.4C54.1003 238.6 54.2004 245.8 54.3004 248C54.4004 250.1 54.5003 252.3 54.6003 254.6C54.3003 255.6 53.8003 256.1 53.1003 256.1C52.7003 256.1 52.3004 256 51.8004 255.7C49.7004 251.5 46.2003 243.8 41.1003 232.7L40.8004 255.2L40.4004 256C39.8004 256.3 39.4004 256.5 39.0004 256.5Z" fill="black"/>
<path d="M67.1007 256.3C66.1007 256.1 65.2007 255.8 64.2007 255.4C63.3007 255 62.3008 254.2 61.3008 253.1C60.3008 252 59.6008 250.5 59.3008 248.6C59.0008 247 58.8008 245.5 58.8008 244.2V242.6C58.9008 240.2 59.6007 238.3 61.0007 236.9C62.7007 235.1 64.5007 234.3 66.6007 234.3C66.8007 234.3 67.2008 234.3 67.8008 234.4C68.5008 234.5 69.2007 234.6 70.0007 235C70.8007 235.3 71.8007 236.1 73.0007 237.5C74.2007 238.9 74.9007 240.4 75.1007 242.1C75.4007 243.8 75.5007 245 75.5007 245.6C75.5007 246.3 75.3008 246.7 74.9008 246.8C74.5008 246.9 70.3008 247.1 62.3008 247.3C62.6008 249.3 63.3008 250.7 64.3008 251.5C65.5008 252.6 66.7007 253.1 68.1007 253.1C68.2007 253.1 68.5007 253.1 69.0007 253.1C69.5007 253.1 70.2008 252.8 70.9008 252.3C71.7008 251.8 72.5008 251.4 73.4008 251.2L74.2007 251.6C74.5007 252 74.6007 252.4 74.6007 253V253.3L74.2007 254.1C72.9007 255.1 71.7007 255.8 70.6007 256C69.6007 256.2 68.4007 256.3 67.1007 256.3ZM61.9008 244L72.1007 243.6C72.0007 241.4 71.4008 239.8 70.4008 238.9C69.4008 238 68.2008 237.5 66.8008 237.5C66.5008 237.5 66.1007 237.6 65.5007 237.7C64.9007 237.8 64.3007 238.2 63.7007 238.8C63.1007 239.4 62.7008 240.1 62.4008 240.9C62.2008 241.8 62.0008 242.8 61.9008 244Z" fill="black"/>
<path d="M95.2 256.8H94.9L94.1 256.4C93.8 255.8 93.5 255.2 93.4 254.5C93.3 253.8 93.2 253.1 93.1 252.3C91.8 254 90.5 255.1 89.3 255.6C88.4 256 87.5 256.2 86.6 256.2C86.3 256.2 85.7 256.1 85 256C84.3 255.9 83.4 255.3 82.5 254.2C81.6 253.1 81 252 80.7 250.8C80.2 248.8 80 246.4 80 243.5C80 242.8 80 241.9 80.1 241C80.1 240.1 80.4 239.3 80.8 238.7C81.2 238.4 81.6 238.2 82.2 238.2H82.4L83.2 238.6C83.5 239 83.6 239.4 83.6 239.9V240.2C83.4 242.6 83.3 244.5 83.3 245.7C83.3 248.8 83.9 250.9 85.1 252.1C85.5 252.6 86 252.8 86.6 252.8C86.8 252.8 87.2 252.7 87.8 252.5C88.4 252.3 89.1 251.6 90.1 250.3C91 249 91.6 247.4 91.9 245.5C92.2 243.5 92.6 241.7 93.1 239.8C93.4 239.5 93.8 239.4 94.3 239.4C94.4 239.4 94.8 239.5 95.4 239.8C95.7 240.4 95.9 241.1 95.9 241.8C95.9 242.1 95.9 242.4 95.8 242.7C95.9 247.5 96 250.5 96.2 251.8C96.4 253 96.6 254.3 96.8 255.5L96.4 256.3C96.1 256.6 95.7 256.8 95.2 256.8Z" fill="black"/>
<path d="M110.201 255.8C109.001 255.8 107.801 255.5 106.801 254.9C106.001 254.4 105.101 253.6 104.101 252.5C103.101 251.3 102.401 249.8 101.901 247.8C101.501 246.4 101.301 245.1 101.301 243.9C101.301 243.5 101.401 242.9 101.501 242.1C101.701 240.3 102.501 238.5 104.001 236.6C105.601 234.6 107.701 233.7 110.201 233.7C110.401 233.7 110.901 233.7 111.701 233.8C112.501 233.9 113.301 234.2 114.201 234.9C114.701 235.4 114.901 235.9 114.901 236.5V236.7L114.501 237.5C114.101 237.8 113.701 237.9 113.101 237.9H113.001C112.201 237.3 111.401 237 110.601 237C110.401 237 110.001 237.1 109.401 237.2C107.801 237.5 106.601 238.3 105.801 239.6C105.001 240.9 104.601 242.4 104.601 244.2C104.601 245.1 104.801 246.2 105.101 247.4C105.401 248.5 105.901 249.5 106.601 250.5C107.601 251.9 109.001 252.7 110.501 252.7C110.701 252.7 111.101 252.7 111.601 252.6C112.101 252.5 112.701 252.3 113.301 251.9C114.001 251.5 114.701 251.3 115.501 251.3L116.301 251.7C116.601 252 116.701 252.5 116.701 253V253.3L116.301 254.1C114.301 255.1 112.201 255.8 110.201 255.8Z" fill="black"/>
<path d="M133.501 256.9C132.301 256.9 131.101 256.3 130.001 255.2C129.001 254.2 128.401 252.8 128.101 251C127.801 249.7 127.601 247.2 127.601 243.4V230.1C127.601 228.5 127.601 227.4 127.601 226.6C127.901 225.7 128.401 225.2 129.101 225.2C130.101 225.2 130.601 225.7 130.801 226.7V244.4C130.801 246.6 130.901 248.3 131.101 249.5C131.301 252 132.101 253.3 133.501 253.3C134.401 253.3 135.901 252.9 138.001 252.2L138.801 252.6C139.101 252.9 139.201 253.4 139.201 253.9V254.2L138.601 255.2C137.301 256.4 135.501 256.9 133.501 256.9Z" fill="black"/>
<path d="M151.901 256.3C150.901 256.1 150.001 255.8 149.001 255.4C148.101 255 147.101 254.2 146.101 253.1C145.101 252 144.401 250.5 144.101 248.6C143.801 247 143.601 245.5 143.601 244.2V242.6C143.701 240.2 144.401 238.3 145.801 236.9C147.501 235.1 149.301 234.3 151.401 234.3C151.601 234.3 152.001 234.3 152.601 234.4C153.301 234.5 154.001 234.6 154.801 235C155.601 235.3 156.601 236.1 157.801 237.5C159.001 238.9 159.701 240.4 159.901 242.1C160.201 243.8 160.301 245 160.301 245.6C160.301 246.3 160.101 246.7 159.701 246.8C159.301 246.9 155.101 247.1 147.101 247.3C147.401 249.3 148.101 250.7 149.101 251.5C150.301 252.6 151.501 253.1 152.901 253.1C153.001 253.1 153.301 253.1 153.801 253.1C154.301 253.1 155.001 252.8 155.701 252.3C156.501 251.8 157.301 251.4 158.201 251.2L159.001 251.6C159.301 252 159.401 252.4 159.401 253V253.3L159.001 254.1C157.701 255.1 156.501 255.8 155.401 256C154.401 256.2 153.201 256.3 151.901 256.3ZM146.801 244L157.001 243.6C156.901 241.4 156.301 239.8 155.301 238.9C154.301 238 153.101 237.5 151.701 237.5C151.401 237.5 151.001 237.6 150.401 237.7C149.801 237.8 149.201 238.2 148.601 238.8C148.001 239.4 147.601 240.1 147.301 240.9C147.001 241.8 146.801 242.8 146.801 244Z" fill="black"/>
<path d="M180.001 256.8H179.701L178.901 256.4C178.601 255.8 178.301 255.2 178.201 254.5C178.101 253.8 178.001 253.1 177.901 252.3C176.601 254 175.301 255.1 174.101 255.6C173.201 256 172.301 256.2 171.401 256.2C171.101 256.2 170.501 256.1 169.801 256C169.101 255.9 168.201 255.3 167.301 254.2C166.401 253.1 165.801 252 165.501 250.8C165.001 248.8 164.801 246.4 164.801 243.5C164.801 242.8 164.801 241.9 164.901 241C164.901 240.1 165.201 239.3 165.601 238.7C166.001 238.4 166.401 238.2 167.001 238.2H167.201L168.001 238.6C168.301 239 168.401 239.4 168.401 239.9V240.2C168.201 242.6 168.101 244.5 168.101 245.7C168.101 248.8 168.701 250.9 169.901 252.1C170.301 252.6 170.801 252.8 171.401 252.8C171.601 252.8 172.001 252.7 172.601 252.5C173.201 252.3 173.901 251.6 174.901 250.3C175.801 249 176.401 247.4 176.701 245.5C177.001 243.5 177.401 241.7 177.901 239.8C178.201 239.5 178.601 239.4 179.101 239.4C179.201 239.4 179.601 239.5 180.201 239.8C180.501 240.4 180.701 241.1 180.701 241.8C180.701 242.1 180.701 242.4 180.601 242.7C180.701 247.5 180.801 250.5 181.001 251.8C181.201 253 181.401 254.3 181.601 255.5L181.201 256.3C180.901 256.6 180.501 256.8 180.001 256.8Z" fill="black"/>
<path d="M193.5 256.6C192.5 256.6 191.6 256.3 190.8 255.8C190.1 255.4 189.5 255.1 188.8 254.8C188.5 254.3 188.3 253.9 188.2 253.3C188.3 252.2 188.9 251.7 189.9 251.7H190.2C190.9 252.1 191.6 252.5 192.3 252.9C192.8 253.2 193.3 253.4 194 253.4C195.5 253.4 196.7 253 197.6 252.1C198.1 251.6 198.4 251.1 198.4 250.5C198.4 250.4 198.4 250.1 198.3 249.7C198.2 249.3 197.6 249 196.6 248.7C195.6 248.4 194.4 248.1 193 247.7C191.6 247.3 190.5 246.6 189.6 245.7C188.2 244.3 187.5 242.7 187.5 241.1L187.6 240C187.7 238.8 188.6 237.5 190 236C191.5 234.6 193.1 233.8 194.9 233.8C195.2 233.8 195.7 233.8 196.4 233.9C197.1 234 197.8 234.4 198.7 235.1C199.4 235.8 199.8 236.4 199.8 237.1C199.8 237.2 199.7 237.6 199.4 238.2C199.1 238.5 198.7 238.6 198.2 238.6H197.9C196.6 237.7 195.6 237.2 194.8 237.2C194.7 237.2 194.5 237.2 194 237.3C193.6 237.4 193 237.7 192.4 238.2C191.8 238.7 191.3 239.4 191 240.4C190.9 240.8 190.8 241.1 190.8 241.4C190.8 241.9 191 242.5 191.5 243C192 243.5 192.5 244 193.2 244.3C193.8 244.6 194.9 244.9 196.3 245.1C197.7 245.3 198.9 245.8 199.9 246.6C200.9 247.4 201.5 248.3 201.6 249.2C201.7 249.6 201.7 250 201.7 250.5C201.7 251 201.6 251.6 201.5 252.3C201.3 253 200.9 253.7 200 254.5C198.6 255.9 196.4 256.6 193.5 256.6Z" fill="black"/>
<path d="M230.801 256.8C229.901 256.7 229.401 256.4 229.301 255.9C229.201 255.3 228.801 245.3 228.301 225.8C228.401 225.4 228.501 225 228.801 224.7C229.101 224.4 229.501 224.2 230.001 224.2L242.901 224.5L243.701 224.9C244.001 225.2 244.101 225.6 244.101 226.1V226.4L243.701 227.2C243.301 227.5 242.901 227.7 242.501 227.7L231.501 227.5L232.101 238.7H242.101L242.901 239.1C243.201 239.5 243.301 239.9 243.301 240.4V240.7L242.901 241.5C242.501 241.8 242.101 242 241.701 242L232.201 241.9L232.501 253.2H243.101L243.901 253.6C244.201 253.9 244.301 254.3 244.301 254.8V255.1L243.901 255.9C242.801 256.4 238.401 256.7 230.801 256.8Z" fill="black"/>
<path d="M264.501 256.3H264.301L263.501 255.9C263.201 255.5 263.001 255 263.001 254.3C261.101 255 259.601 255.3 258.501 255.3C255.401 255.3 253.101 254.4 251.601 252.5C250.201 250.9 249.601 248.9 249.601 246.4C249.601 243.1 250.501 240.7 252.301 239C253.801 237.6 255.701 236.9 258.001 236.9C259.601 236.9 261.001 237.1 262.201 237.6L261.901 225.9C262.001 224.9 262.601 224.3 263.601 224.3H263.901L264.701 224.7C265.001 225.3 265.201 226 265.201 226.7C265.201 227.4 265.601 236.9 266.301 255.1L265.901 255.9C265.501 256.1 265.101 256.3 264.501 256.3ZM258.101 251.9C258.401 251.9 258.901 251.9 259.601 251.8C260.301 251.7 261.301 251.3 262.601 250.5L262.301 241.4C260.501 240.5 259.001 240 257.801 240C256.401 240 255.301 240.4 254.401 241.3C253.201 242.5 252.601 244.1 252.601 246.1C252.601 247.9 253.101 249.4 254.001 250.4C255.201 251.4 256.501 251.9 258.101 251.9Z" fill="black"/>
<path d="M286.1 256.8H285.8L285 256.4C284.7 255.8 284.4 255.2 284.3 254.5C284.2 253.8 284.1 253.1 284 252.3C282.7 254 281.4 255.1 280.2 255.6C279.3 256 278.4 256.2 277.5 256.2C277.2 256.2 276.6 256.1 275.9 256C275.2 255.9 274.3 255.3 273.4 254.2C272.5 253.1 271.9 252 271.6 250.8C271.1 248.8 270.9 246.4 270.9 243.5C270.9 242.8 270.9 241.9 271 241C271 240.1 271.3 239.3 271.7 238.7C272.1 238.4 272.5 238.2 273.1 238.2H273.3L274.1 238.6C274.4 239 274.5 239.4 274.5 239.9V240.2C274.3 242.6 274.2 244.5 274.2 245.7C274.2 248.8 274.8 250.9 276 252.1C276.4 252.6 276.9 252.8 277.5 252.8C277.7 252.8 278.1 252.7 278.7 252.5C279.3 252.3 280 251.6 281 250.3C281.9 249 282.5 247.4 282.8 245.5C283.1 243.5 283.5 241.7 284 239.8C284.3 239.5 284.7 239.4 285.2 239.4C285.3 239.4 285.7 239.5 286.3 239.8C286.6 240.4 286.8 241.1 286.8 241.8C286.8 242.1 286.8 242.4 286.7 242.7C286.8 247.5 286.9 250.5 287.1 251.8C287.3 253 287.5 254.3 287.7 255.5L287.3 256.3C287 256.6 286.6 256.8 286.1 256.8Z" fill="black"/>
<path d="M301.1 255.8C299.9 255.8 298.7 255.5 297.7 254.9C296.9 254.4 296 253.6 295 252.5C294 251.3 293.3 249.8 292.8 247.8C292.4 246.4 292.2 245.1 292.2 243.9C292.2 243.5 292.3 242.9 292.4 242.1C292.6 240.3 293.4 238.5 294.9 236.6C296.5 234.6 298.6 233.7 301.1 233.7C301.3 233.7 301.8 233.7 302.6 233.8C303.4 233.9 304.2 234.2 305.1 234.9C305.6 235.4 305.8 235.9 305.8 236.5V236.7L305.4 237.5C305 237.8 304.6 237.9 304 237.9H303.9C303.1 237.3 302.3 237 301.5 237C301.3 237 300.9 237.1 300.3 237.2C298.7 237.5 297.5 238.3 296.7 239.6C295.9 240.9 295.5 242.4 295.5 244.2C295.5 245.1 295.7 246.2 296 247.4C296.3 248.5 296.8 249.5 297.5 250.5C298.5 251.9 299.9 252.7 301.4 252.7C301.6 252.7 302 252.7 302.5 252.6C303 252.5 303.6 252.3 304.2 251.9C304.9 251.5 305.6 251.3 306.4 251.3L307.2 251.7C307.5 252 307.6 252.5 307.6 253V253.3L307.2 254.1C305.2 255.1 303.1 255.8 301.1 255.8Z" fill="black"/>
<path d="M328.501 256.5C328.001 256.4 327.701 256.3 327.401 256L326.801 255.1C324.901 255.9 323.201 256.4 321.601 256.4C321.501 256.4 321.101 256.4 320.601 256.4C320.001 256.4 319.301 256.1 318.301 255.7C317.401 255.2 316.501 254.6 315.701 253.9C314.501 252.7 313.801 251.1 313.801 249C313.801 248.7 313.801 248.2 313.901 247.5C314.101 245.7 314.901 244.1 316.201 242.7C317.401 241.5 319.001 240.9 320.901 240.9C322.101 240.9 323.301 241.1 324.501 241.6C324.501 240.6 324.101 239.8 323.401 239.2C322.101 238.3 320.801 237.8 319.501 237.8C319.101 237.8 318.601 237.9 318.001 238C317.401 238.2 316.701 238.3 316.001 238.3L315.001 237.8C314.701 237.5 314.601 237 314.601 236.5V236.2L315.101 235.3C316.001 234.7 317.201 234.4 318.701 234.4C319.301 234.4 320.001 234.5 320.801 234.6C321.601 234.7 322.701 235.2 324.201 235.9C325.601 236.6 326.601 237.7 327.301 239.1C327.901 240.5 328.201 242.8 328.301 246C328.301 249.2 329.001 252.2 330.201 255.2L329.801 256C329.301 256.3 328.901 256.5 328.501 256.5ZM321.601 253.1C322.601 253.1 323.501 252.9 324.401 252.5L325.601 251.5C325.401 250.5 325.301 248.8 325.101 246.4C323.901 245 322.701 244.2 321.401 244.2C321.401 244.2 321.001 244.2 320.301 244.2C319.601 244.2 319.001 244.5 318.401 245.1C317.601 245.9 317.101 247.2 317.101 248.8C317.101 249.1 317.101 249.4 317.201 249.9C317.201 250.4 317.501 250.9 318.101 251.4C318.601 251.9 319.301 252.3 320.101 252.7C320.501 253 321.101 253.1 321.601 253.1Z" fill="black"/>
<path d="M344.301 256.5C343.101 256.5 341.901 255.9 340.801 254.8C339.801 253.8 339.201 252.4 338.901 250.6C338.601 248.8 338.401 245.7 338.201 241.3L335.101 241.5L334.301 241.1C334.001 240.7 333.801 240.3 333.801 239.7V239.5L334.201 238.7C334.701 238.3 335.301 238.1 336.001 238.1H336.901H338.301V236C338.301 233.8 338.501 232.3 338.801 231.5C339.101 231.2 339.501 231.1 340.001 231.1H340.301L341.101 231.5C341.401 232 341.601 232.4 341.601 233V233.5L341.701 238L348.401 237.8L349.201 238.2C349.501 238.5 349.601 239 349.601 239.5V239.8L349.201 240.6C348.101 241 347.001 241.2 345.701 241.2H344.901C343.701 241.2 342.601 241.3 341.501 241.4C341.701 245.4 341.801 248.1 341.901 249.4C342.001 250.7 342.301 251.7 342.701 252.4C343.001 252.9 343.501 253.2 344.301 253.2C345.201 253.2 346.701 252.8 348.801 252.1L349.601 252.5C349.901 252.8 350.001 253.3 350.001 253.8V254.1L349.401 255.1C348.101 256 346.301 256.5 344.301 256.5Z" fill="black"/>
<path d="M363.201 235.4C362.501 235.3 362.001 234.9 361.401 234.4C360.901 233.8 360.601 233.1 360.601 232.4C360.601 232.3 360.601 232 360.601 231.6C360.601 231.1 360.901 230.6 361.501 230.1C362.001 229.7 362.401 229.5 363.001 229.5C363.901 229.5 364.701 229.9 365.501 230.7C366.001 231.2 366.201 231.8 366.201 232.4C366.201 232.5 366.201 232.9 366.101 233.4C366.001 233.9 365.701 234.4 365.201 234.8C364.701 235.1 364.001 235.4 363.201 235.4ZM364.201 255.7H363.901L363.001 255.3C362.401 251.4 362.101 246.4 361.901 240.1C362.001 239.1 362.601 238.5 363.701 238.5H364.001L364.801 238.9C365.401 244 365.701 249.2 365.801 254.4L365.401 255.2C365.101 255.5 364.701 255.7 364.201 255.7Z" fill="black"/>
<path d="M384.7 256.1C383.4 256.1 382.3 255.9 381.3 255.5C380.5 255.2 379.8 254.6 379 253.6C377.6 251.9 376.9 249.6 376.9 246.9V245.4C377 242.5 377.9 240.2 379.4 238.4C381.2 236.3 383.4 235.2 385.8 235.2C386.2 235.2 386.8 235.3 387.8 235.4C388.7 235.5 389.8 236.2 391.1 237.5C392.3 238.8 393.1 239.9 393.2 240.9C393.5 242.9 393.7 244.3 393.7 245.3C393.7 245.9 393.7 246.7 393.6 247.7C393.4 250.2 392.5 252.3 390.9 253.9C389.4 255.4 387.4 256.1 384.7 256.1ZM384.7 252.9C385.9 252.9 387 252.6 387.9 252.1C388.8 251.6 389.4 250.9 389.8 249.9C390.3 248.6 390.5 247.1 390.5 245.5C390.5 245 390.5 244.3 390.4 243.4C390.3 242.5 390 241.6 389.3 240.6C388.6 239.6 388 239 387.3 238.8C387 238.7 386.6 238.7 386.3 238.7C385.8 238.7 385.2 238.8 384.4 239C383.6 239.2 382.8 239.8 381.9 240.9C381 242 380.4 243.1 380.2 244.2C380.1 245 380 245.9 380 246.6C380 247.7 380.2 248.9 380.6 250.2C381.2 252 382.5 252.9 384.7 252.9Z" fill="black"/>
<path d="M412.201 256.3H411.901L411.101 255.9C410.701 255.4 410.501 254.8 410.501 254.2C410.501 254 410.501 253.7 410.601 253.5L410.901 250.2C411.001 249.4 411.001 248.6 411.001 247.8C411.001 246.4 410.801 245.2 410.501 244.2C409.801 242.2 408.801 241.2 407.401 241.2C407.301 241.2 407.001 241.2 406.501 241.3C406.001 241.4 405.501 241.8 404.901 242.6C404.301 243.4 403.701 244.3 403.001 245.3C402.301 246.3 401.901 247.4 401.801 248.6C401.801 251.3 401.801 253.1 401.801 253.8L401.401 254.6C401.101 254.9 400.701 255 400.201 255H399.901L399.101 254.6C398.601 251.9 398.201 249.1 398.101 246.3C398.001 243.5 397.801 240.7 397.601 238C397.701 236.9 398.301 236.4 399.301 236.4H399.601L400.401 236.8C400.701 237.6 400.901 238.5 400.901 239.4C401.001 240.3 401.001 241.2 401.101 242.2C401.701 241.4 402.301 240.7 402.901 240C404.201 238.6 405.601 237.9 407.201 237.9C407.501 237.9 408.001 238 408.801 238.1C409.501 238.2 410.401 238.8 411.301 239.7C412.201 240.6 413.001 241.7 413.501 242.9C413.901 243.9 414.101 245.4 414.101 247.2C414.101 247.5 414.101 248.4 414.001 249.7C413.901 251 413.901 252.2 413.901 253.2C413.901 254.2 413.701 255.1 413.401 255.9C413.101 256.1 412.701 256.3 412.201 256.3Z" fill="black"/>
</svg>
