<svg width="317" height="57" viewBox="0 0 317 57" fill="none" xmlns="http://www.w3.org/2000/svg">
<path d="M293.6 56.6006H23.4C10.7 56.6006 0.5 46.3004 0.5 33.7004V23.8005C0.5 11.1005 10.8 0.900391 23.4 0.900391H293.6C306.3 0.900391 316.5 11.2005 316.5 23.8005V33.7004C316.5 46.3004 306.2 56.6006 293.6 56.6006Z" fill="#FFC300"/>
<path d="M93.5 38H87.4C85.5 37.9 84.3 37.8 83.7 37.8C83.1 37.8 82.8 37.5001 82.6 37.1001C82.6 37.0001 82.5 36.3 82.5 35C82.5 32.1 82.6 26.1999 82.8 17.3999C82.8 16.9999 83 16.6 83.2 16.3C83.4 16.1 83.8 16 84.1 16H84.3L84.9 16.3C85.1 16.6 85.2 16.9 85.2 17.3V17.6001L84.8 35.3L94.3 35.6001L94.9 35.8999C95.1 36.0999 95.2 36.4 95.2 36.8V37L94.9 37.6001C94.6 37.8001 94.1 38 93.5 38Z" fill="black"/>
<path d="M104.702 38.3008C104.002 38.2008 103.302 38.0007 102.602 37.7007C101.902 37.4007 101.202 36.8007 100.502 36.0007C99.8016 35.2007 99.3016 34.1007 99.0016 32.7007C98.8016 31.5007 98.6016 30.5007 98.6016 29.5007V28.4006C98.7016 26.6006 99.2015 25.3007 100.202 24.2007C101.402 22.9007 102.802 22.3008 104.302 22.3008C104.402 22.3008 104.702 22.3006 105.202 22.4006C105.702 22.4006 106.202 22.6008 106.802 22.8008C107.402 23.0008 108.102 23.6008 109.002 24.6008C109.902 25.6008 110.402 26.7006 110.602 27.9006C110.802 29.1006 110.902 30.0007 110.902 30.5007C110.902 31.0007 110.802 31.3006 110.502 31.4006C110.202 31.5006 107.202 31.6007 101.302 31.7007C101.502 33.1007 102.002 34.2008 102.702 34.8008C103.502 35.6008 104.502 36.0007 105.502 36.0007C105.602 36.0007 105.802 36.0007 106.202 36.0007C106.602 36.0007 107.002 35.8006 107.602 35.4006C108.202 35.0006 108.802 34.8008 109.402 34.6008L110.002 34.9006C110.202 35.2006 110.302 35.5006 110.302 35.9006V36.1008L110.002 36.7007C109.102 37.4007 108.202 37.9008 107.402 38.1008C106.602 38.3008 105.602 38.3008 104.702 38.3008ZM100.902 29.3008L108.402 29.0007C108.302 27.4007 107.902 26.2008 107.202 25.6008C106.502 24.9008 105.602 24.6008 104.502 24.6008C104.302 24.6008 104.002 24.6007 103.502 24.7007C103.102 24.8007 102.702 25.1007 102.202 25.5007C101.802 26.0007 101.402 26.5007 101.302 27.0007C101.102 27.6007 101.002 28.4008 100.902 29.3008Z" fill="black"/>
<path d="M125.198 38.4006C124.898 38.4006 124.598 38.2007 124.398 38.0007L123.998 37.3008C122.598 37.9008 121.398 38.2007 120.198 38.2007C120.098 38.2007 119.898 38.2007 119.398 38.2007C118.998 38.2007 118.398 38.0007 117.698 37.7007C116.998 37.4007 116.398 36.9006 115.798 36.4006C114.898 35.6006 114.398 34.4008 114.398 32.8008C114.398 32.6008 114.398 32.2007 114.498 31.7007C114.598 30.4007 115.198 29.2007 116.198 28.2007C117.098 27.3007 118.298 26.9006 119.598 26.9006C120.498 26.9006 121.298 27.1006 122.198 27.4006C122.198 26.6006 121.898 26.1007 121.398 25.7007C120.398 25.0007 119.498 24.7007 118.598 24.7007C118.298 24.7007 117.998 24.8006 117.498 24.9006C117.098 25.0006 116.598 25.1008 116.098 25.1008L115.398 24.8008C115.198 24.6008 115.098 24.2006 115.098 23.9006V23.7007L115.498 23.0007C116.198 22.5007 116.998 22.3008 118.098 22.3008C118.598 22.3008 119.098 22.4007 119.698 22.5007C120.298 22.6007 121.098 22.9006 122.098 23.4006C123.098 23.9006 123.898 24.7007 124.298 25.7007C124.698 26.7007 124.998 28.4008 124.998 30.8008C124.998 33.2008 125.498 35.4007 126.398 37.5007L126.098 38.1008C125.798 38.2008 125.498 38.4006 125.198 38.4006ZM120.198 35.9006C120.898 35.9006 121.598 35.7006 122.198 35.4006L123.098 34.7007C122.998 34.0007 122.898 32.7007 122.698 31.0007C121.898 29.9007 120.898 29.4006 119.998 29.4006C119.998 29.4006 119.698 29.4006 119.198 29.4006C118.698 29.4006 118.198 29.6008 117.798 30.1008C117.198 30.7008 116.898 31.6008 116.898 32.8008C116.898 33.0008 116.898 33.3008 116.898 33.6008C116.898 34.0008 117.098 34.3007 117.498 34.7007C117.898 35.1007 118.398 35.4008 118.898 35.6008C119.398 35.8008 119.798 35.9006 120.198 35.9006Z" fill="black"/>
<path d="M132.902 38.2007H132.702L132.102 37.9006C131.602 35.7006 131.202 33.5007 131.102 31.2007C130.902 28.9007 130.802 26.6006 130.602 24.4006C130.702 23.6006 131.102 23.3008 131.902 23.3008H132.102L132.702 23.6008C132.902 24.5008 133.102 25.5007 133.202 26.5007C133.302 27.5007 133.302 28.5006 133.402 29.4006C133.802 28.8006 134.302 28.2007 134.802 27.7007C135.302 27.2007 135.902 26.8008 136.602 26.6008C137.202 26.3008 137.902 26.2007 138.502 26.2007C139.102 26.2007 139.802 26.1008 140.502 26.1008L141.102 26.4006C141.302 26.6006 141.402 27.0008 141.402 27.3008V27.5007L141.102 28.1008C140.402 28.2008 139.502 28.3006 138.702 28.4006C137.202 28.6006 136.002 29.7006 135.002 31.9006C134.502 33.0006 134.202 34.3008 134.202 35.8008L134.302 37.6008L134.002 38.2007C133.502 38.1007 133.202 38.2007 132.902 38.2007Z" fill="black"/>
<path d="M155.403 38.2014H155.203L154.603 37.9014C154.303 37.5014 154.203 37.1016 154.203 36.6016C154.203 36.4016 154.203 36.3016 154.303 36.1016L154.503 33.7014C154.503 33.1014 154.603 32.5015 154.603 32.0015C154.603 30.9015 154.503 30.1014 154.303 29.4014C153.803 28.0014 153.003 27.2014 152.003 27.2014C151.903 27.2014 151.703 27.2015 151.303 27.3015C150.903 27.4015 150.603 27.7014 150.103 28.2014C149.703 28.8014 149.203 29.4014 148.703 30.2014C148.203 31.0014 147.903 31.7016 147.803 32.6016C147.803 34.6016 147.803 35.9014 147.803 36.4014L147.503 37.0015C147.303 37.2015 147.003 37.3015 146.603 37.3015H146.403L145.803 37.0015C145.403 35.0015 145.203 33.0014 145.103 30.9014C145.003 28.8014 144.903 26.8015 144.703 24.8015C144.803 24.0015 145.203 23.6016 146.003 23.6016H146.203L146.803 23.9014C147.003 24.5014 147.103 25.1015 147.203 25.8015C147.203 26.5015 147.303 27.1015 147.303 27.8015C147.703 27.2015 148.203 26.7014 148.603 26.2014C149.503 25.2014 150.603 24.7014 151.703 24.7014C151.903 24.7014 152.303 24.7015 152.903 24.8015C153.403 24.9015 154.103 25.3014 154.703 25.9014C155.403 26.6014 155.903 27.4015 156.303 28.3015C156.603 29.1015 156.703 30.1015 156.703 31.5015C156.703 31.7015 156.703 32.4015 156.603 33.3015C156.503 34.2015 156.503 35.1014 156.503 35.9014C156.503 36.6014 156.403 37.3014 156.103 37.9014C156.103 38.1014 155.803 38.2014 155.403 38.2014Z" fill="black"/>
<path d="M176.7 38.5C175.9 38.4 175.5 37.9001 175.5 37.1001V36.8C175.5 25.3 175.6 19.2001 175.6 18.6001C175.6 18.0001 175.8 17.3999 176 16.8999C176.2 16.4999 176.5 16.3 176.8 16.3C177.1 16.3 177.4 16.4999 177.8 16.8999C179.8 20.8999 181.1 24 181.9 26.2C182.7 24.5 183.4 22.9 184.2 21.3C184.9 19.7 185.7 18.1 186.6 16.5C187 16.2 187.3 16 187.6 16C188 16 188.2 16.3 188.4 17L189 37.6001L188.7 38.2C188.5 38.4 188.2 38.5 187.8 38.5H187.6L187 38.2C186.8 38 186.7 37.6999 186.7 37.3999L186.2 23.5C184.9 25.7 183.7 28.5 182.8 31.8C182.5 32.1 182.3 32.3 182 32.3C181.7 32.3 181.4 32.1 181.1 31.8C180.6 30.4 180.1 28.9 179.7 27.3C179.3 25.8 178.7 24.3 178.1 22.8V37.1001C178.1 37.6001 178 38 177.7 38.3C177.3 38.4 177 38.5 176.7 38.5Z" fill="black"/>
<path d="M197.2 38.1006C196.3 38.1006 195.4 38.0004 194.7 37.7004C194.1 37.5004 193.6 37.1005 193 36.3005C192 35.0005 191.5 33.4004 191.5 31.4004V30.3005C191.6 28.2005 192.2 26.5004 193.4 25.2004C194.7 23.7004 196.3 22.9004 198.1 22.9004C198.4 22.9004 198.8 22.9005 199.5 23.0005C200.2 23.1005 201 23.6006 201.9 24.6006C202.8 25.6006 203.3 26.4005 203.4 27.0005C203.6 28.4005 203.7 29.5004 203.7 30.2004C203.7 30.6004 203.7 31.2004 203.6 31.9004C203.5 33.7004 202.8 35.2004 201.6 36.4004C200.7 37.6004 199.2 38.1006 197.2 38.1006ZM197.3 35.7004C198.2 35.7004 199 35.5006 199.6 35.1006C200.3 34.7006 200.7 34.2005 201 33.5005C201.3 32.5005 201.5 31.5005 201.5 30.3005C201.5 29.9005 201.5 29.4005 201.4 28.8005C201.3 28.2005 201.1 27.5004 200.6 26.7004C200.1 26.0004 199.6 25.5004 199.1 25.4004C198.9 25.3004 198.6 25.3005 198.4 25.3005C198 25.3005 197.6 25.4005 197 25.5005C196.4 25.6005 195.8 26.1004 195.2 26.9004C194.6 27.7004 194.1 28.5005 194 29.3005C193.9 29.9005 193.8 30.5006 193.8 31.1006C193.8 31.9006 193.9 32.8005 194.2 33.8005C194.7 35.1005 195.7 35.7004 197.3 35.7004Z" fill="black"/>
<path d="M210.3 38.2007H210.1L209.5 37.9006C209 35.7006 208.6 33.5007 208.5 31.2007C208.3 28.9007 208.2 26.6006 208 24.4006C208.1 23.6006 208.5 23.3008 209.3 23.3008H209.5L210.1 23.6008C210.3 24.5008 210.5 25.5007 210.6 26.5007C210.7 27.5007 210.7 28.5006 210.8 29.4006C211.2 28.8006 211.7 28.2007 212.2 27.7007C212.7 27.2007 213.3 26.8008 214 26.6008C214.6 26.3008 215.3 26.2007 215.9 26.2007C216.5 26.2007 217.2 26.1008 217.9 26.1008L218.5 26.4006C218.7 26.6006 218.8 27.0008 218.8 27.3008V27.5007L218.5 28.1008C217.8 28.2008 216.9 28.3006 216.1 28.4006C214.6 28.6006 213.4 29.7006 212.4 31.9006C211.9 33.0006 211.6 34.3008 211.6 35.8008L211.7 37.6008L211.4 38.2007C211 38.1007 210.7 38.2007 210.3 38.2007Z" fill="black"/>
<path d="M228.6 38.3008C227.9 38.2008 227.2 38.0007 226.5 37.7007C225.8 37.4007 225.1 36.8007 224.4 36.0007C223.7 35.2007 223.2 34.1007 222.9 32.7007C222.7 31.5007 222.5 30.5007 222.5 29.5007V28.4006C222.6 26.6006 223.1 25.3007 224.1 24.2007C225.3 22.9007 226.7 22.3008 228.2 22.3008C228.3 22.3008 228.6 22.3006 229.1 22.4006C229.6 22.4006 230.1 22.6008 230.7 22.8008C231.3 23.0008 232 23.6008 232.9 24.6008C233.8 25.6008 234.3 26.7006 234.5 27.9006C234.7 29.1006 234.8 30.0007 234.8 30.5007C234.8 31.0007 234.7 31.3006 234.4 31.4006C234.1 31.5006 231.1 31.6007 225.2 31.7007C225.4 33.1007 225.9 34.2008 226.6 34.8008C227.4 35.6008 228.4 36.0007 229.4 36.0007C229.5 36.0007 229.7 36.0007 230.1 36.0007C230.5 36.0007 230.9 35.8006 231.5 35.4006C232.1 35.0006 232.7 34.8008 233.3 34.6008L233.9 34.9006C234.1 35.2006 234.2 35.5006 234.2 35.9006V36.1008L233.9 36.7007C233 37.4007 232.1 37.9008 231.3 38.1008C230.5 38.3008 229.5 38.3008 228.6 38.3008ZM224.8 29.3008L232.3 29.0007C232.2 27.4007 231.8 26.2008 231.1 25.6008C230.4 24.9008 229.5 24.6008 228.4 24.6008C228.2 24.6008 227.9 24.6007 227.4 24.7007C227 24.8007 226.6 25.1007 226.1 25.5007C225.7 26.0007 225.3 26.5007 225.2 27.0007C225 27.6007 224.9 28.4008 224.8 29.3008Z" fill="black"/>
</svg>
