<svg width="56" height="56" viewBox="0 0 56 56" fill="none" xmlns="http://www.w3.org/2000/svg">
<path d="M40.3222 43.1449C48.4791 36.1124 49.3906 23.799 42.358 15.6421C35.3255 7.48528 23.0121 6.57383 14.8552 13.6063C6.69838 20.6389 5.78692 32.9523 12.8194 41.1091C19.852 49.266 32.1654 50.1775 40.3222 43.1449Z" fill="#393939"/>
<path opacity="0.45" d="M29.0984 11.9C36.4984 11.9 42.9984 16.1 46.2984 22.2C43.6984 14.5 36.3984 9 27.8984 9C17.0984 9 8.39844 17.7 8.39844 28.5C8.39844 31.8 9.19843 35 10.6984 37.7C9.99843 35.7 9.69843 33.6 9.69843 31.4C9.59843 20.6 18.2984 11.9 29.0984 11.9Z" fill="#B17F55"/>
<path opacity="0.5" d="M38.5273 41.3722C45.7392 35.1891 46.5732 24.3304 40.3902 17.1185C34.2071 9.90662 23.3482 9.07259 16.1364 15.2557C8.92451 21.4388 8.09056 32.2976 14.2737 39.5095C20.4567 46.7213 31.3155 47.5553 38.5273 41.3722Z" stroke="#393939" stroke-width="0.8656" stroke-miterlimit="10"/>
<path opacity="0.5" d="M27.5031 43.7993C35.9531 43.7993 42.8031 36.9492 42.8031 28.4993C42.8031 20.0493 35.9531 13.1992 27.5031 13.1992C19.0532 13.1992 12.2031 20.0493 12.2031 28.4993C12.2031 36.9492 19.0532 43.7993 27.5031 43.7993Z" fill="#393939"/>
<path d="M31.5016 23.8L27.8016 17L27.6016 28.2L31.5016 23.8Z" fill="#A11B00"/>
<path d="M27.6016 28.5007H39.4016L31.7016 24.3008L31.5016 23.8008L27.6016 28.2007V28.5007Z" fill="#EEDFA5"/>
<path d="M27.6 28.1992L27.5 28.2993L27.6 28.4993V28.1992Z" fill="#EEDFA5"/>
<path d="M27.4969 28.3008L27.2969 28.5007H27.5969L27.4969 28.3008Z" fill="#EEDFA5"/>
<path d="M27.6 28.2L27.8 17L27.5 16.5L23.5 23.9L27.5 28.3L27.6 28.2Z" fill="#D23D14"/>
<path d="M27.5984 28.5L27.3984 40.3L27.4984 40.4L31.5984 32.9L27.5984 28.5Z" fill="#EEDFA5"/>
<path d="M39.4016 28.5H27.6016L31.6016 32.9L31.7016 32.7L39.4016 28.5Z" fill="#CEC095"/>
<path d="M27.2984 28.5L23.3984 32.9L27.3984 40.3L27.5984 28.5H27.2984Z" fill="#CEC095"/>
<path d="M15.5 28.5L23.3 32.7L23.4 32.9L27.3 28.5H15.5Z" fill="#EEDFA5"/>
<path d="M27.5 28.3004L23.5 23.9004L23.3 24.3004L15.5 28.5004H27.3L27.5 28.3004Z" fill="#CEC095"/>
<path d="M27.4984 30.0007C28.3821 30.0007 29.0984 29.2844 29.0984 28.4008C29.0984 27.5171 28.3821 26.8008 27.4984 26.8008C26.6148 26.8008 25.8984 27.5171 25.8984 28.4008C25.8984 29.2844 26.6148 30.0007 27.4984 30.0007Z" fill="white"/>
<path d="M27.5016 4.90039C14.6016 4.90039 4.10156 15.4004 4.10156 28.3004C4.10156 41.2004 14.6016 51.7003 27.5016 51.7003C40.4016 51.7003 50.9016 41.2004 50.9016 28.3004C50.9016 15.4004 40.4016 4.90039 27.5016 4.90039ZM27.5016 47.7003C16.8016 47.7003 8.10156 39.0004 8.10156 28.3004C8.10156 17.6004 16.8016 8.90039 27.5016 8.90039C38.2016 8.90039 46.9016 17.6004 46.9016 28.3004C46.9016 39.0004 38.2016 47.7003 27.5016 47.7003Z" fill="#B17F55"/>
<path d="M10.2969 17.3C11.0969 14.9 12.8969 12.9 15.1969 12C13.5969 13.9 12.0969 15.6 10.2969 17.3Z" fill="#B17F55"/>
<path d="M7.10216 28.1992C6.50216 25.0992 7.3022 21.6992 9.2022 19.1992C8.4022 22.1992 7.70216 25.0992 7.10216 28.1992Z" fill="#B17F55"/>
<path d="M12.8 42.3008C9.69999 40.0008 7.7 36.2008 7.5 32.3008C8.9 35.9008 10.6 39.1008 12.8 42.3008Z" fill="#B17F55"/>
<path d="M23.9031 48.2C20.7031 48.3 17.4031 46.8 15.2031 44.5C18.2031 45.9 20.9031 47 23.9031 48.2Z" fill="#B17F55"/>
<path d="M40.9969 43.1992C37.6969 46.9992 32.2969 49.0993 27.2969 48.4993C32.3969 47.8993 36.8969 46.0992 40.9969 43.1992Z" fill="#B17F55"/>
<path d="M47.6016 30.3008C47.8016 34.3008 46.1016 38.4007 43.1016 41.1007C45.1016 37.6007 46.6016 34.1008 47.6016 30.3008Z" fill="#B17F55"/>
<path d="M43.1016 15.4004C46.5016 18.6004 48.3016 23.6003 47.6016 28.2003C47.1016 23.6003 45.6016 19.4004 43.1016 15.4004Z" fill="#B17F55"/>
<path d="M29.6016 7.99923C34.3016 7.89923 39.1016 10.1992 41.9016 13.9992C38.2016 11.0992 34.2016 9.09923 29.6016 7.99923Z" fill="#B17F55"/>
<path d="M17 10.7994C19.8 8.3994 23.8 7.29937 27.4 7.89937C23.7 8.49937 20.4 9.3994 17 10.7994Z" fill="#B17F55"/>
<path d="M21 7.70105C25.7 5.60105 31.6 5.9011 36 8.5011C31 7.0011 26.1 6.80105 21 7.70105Z" fill="#B17F55"/>
<path d="M9.70312 16.0992C11.6031 12.1992 15.5031 9.09922 19.7031 8.19922C15.9031 10.1992 12.6031 12.7992 9.70312 16.0992Z" fill="#B17F55"/>
<path d="M5.99787 25.9993C5.69787 23.0993 6.69784 19.9992 8.59784 17.6992C7.69784 20.5992 6.89787 23.1993 5.99787 25.9993Z" fill="#B17F55"/>
<path d="M11.7993 42.8993C7.59929 39.3993 5.29931 33.5992 5.99931 28.1992C6.49931 33.5992 8.49929 38.4993 11.7993 42.8993Z" fill="#B17F55"/>
<path d="M26.3 49.5996C21.6 49.9996 16.7 48.0996 13.5 44.5996C17.5 47.0996 21.7 48.7996 26.3 49.5996Z" fill="#B17F55"/>
<path d="M36.5031 47.5996C34.2031 49.2996 31.1031 50.0996 28.2031 49.5996C31.0031 48.8996 33.6031 48.2996 36.5031 47.5996Z" fill="#B17F55"/>
<path d="M43.4969 42.4004C42.6969 44.2004 41.1969 45.5004 39.2969 46.0004C40.4969 44.5004 41.7969 43.4004 43.4969 42.4004Z" fill="#B17F55"/>
<path d="M48.8 30.0996C49.1 33.8996 47.7 37.7996 45 40.4996C46.6 37.0996 47.8 33.7996 48.8 30.0996Z" fill="#B17F55"/>
<path d="M47.7969 21.5C49.0969 23.5 49.4969 25.9 48.8969 28.2C48.2969 25.9 47.8969 23.8 47.7969 21.5Z" fill="#B17F55"/>
<path d="M38.5 9.80078C42.8 11.6008 46.2 15.6007 47.3 20.1007C45 16.1007 42.1 12.7008 38.5 9.80078Z" fill="#B17F55"/>
<path d="M17.2031 8.10016C19.7031 6.10016 23.1031 5.20014 26.3031 5.70014C23.2031 6.50014 20.3031 7.20016 17.2031 8.10016Z" fill="#B17F55"/>
<path d="M11.2031 12.6C12.1031 10.8 13.8031 9.5 15.7031 9C14.4031 10.5 13.0031 11.6 11.2031 12.6Z" fill="#B17F55"/>
<path d="M5.89844 21.4008C6.19844 18.5008 7.69839 15.6008 10.0984 13.8008C8.69839 16.4008 7.39844 18.8008 5.89844 21.4008Z" fill="#B17F55"/>
<path d="M4.90001 28.2003C4.30001 26.4003 4.49998 24.5004 5.49998 22.9004C5.69998 24.7004 5.50001 26.4003 4.90001 28.2003Z" fill="#B17F55"/>
<path d="M10.3974 42.9004C6.99738 39.9004 4.99733 35.3004 5.09733 30.9004C6.19733 35.2004 7.89738 39.1004 10.3974 42.9004Z" fill="#B17F55"/>
<path d="M17.6031 48.5004C15.2031 48.0004 13.0031 46.5004 11.7031 44.4004C13.9031 45.6004 15.7031 46.9004 17.6031 48.5004Z" fill="#B17F55"/>
<path d="M27.4031 50.7003C24.8031 51.3003 22.0031 50.8004 19.7031 49.4004C22.4031 49.7004 24.8031 50.1003 27.4031 50.7003Z" fill="#B17F55"/>
<path d="M41.0984 46C38.2984 49 33.9984 50.7 29.8984 50.5C33.8984 49.5 37.4984 48 41.0984 46Z" fill="#B17F55"/>
<path d="M49.3031 33.4004C48.9031 37.6004 46.6031 41.7003 43.2031 44.2003C45.7031 40.8003 47.7031 37.3004 49.3031 33.4004Z" fill="#B17F55"/>
<path d="M40.7031 10C46.8031 13.6 50.6031 21.1 49.9031 28.2C49.3031 21.1 46.0031 14.7 40.7031 10Z" fill="#B17F55"/>
<path d="M29.6016 5.80044C32.7016 5.50044 35.9016 6.50039 38.3016 8.50039C35.3016 7.50039 32.6016 6.70044 29.6016 5.80044Z" fill="#B17F55"/>
<path opacity="0.6" d="M42 10.0996C45.9 14.1996 48.2 19.7997 48.2 25.8997C48.2 38.6997 37.9 48.9996 25.1 48.9996C17.8 48.9996 11.2 45.5996 7 40.1996C11.1 47.0996 18.6 51.6996 27.2 51.6996C40.1 51.6996 50.6 41.1997 50.6 28.2997C50.6 20.8997 47.3 14.3996 42 10.0996Z" fill="#B17F55"/>
<path d="M31.4332 8.34114C31.9007 6.35183 30.6671 4.36017 28.6778 3.89262C26.6885 3.42508 24.6969 4.65874 24.2294 6.64804C23.7618 8.63734 24.9954 10.629 26.9847 11.0965C28.974 11.5641 30.9656 10.3304 31.4332 8.34114Z" fill="#C38F73"/>
<path d="M27.7984 10.3997C29.4 10.3997 30.6984 9.10126 30.6984 7.49963C30.6984 5.89801 29.4 4.59961 27.7984 4.59961C26.1968 4.59961 24.8984 5.89801 24.8984 7.49963C24.8984 9.10126 26.1968 10.3997 27.7984 10.3997Z" fill="white"/>
<path d="M26.2969 9.19995V6H26.6969L27.6969 7.59998C27.8969 7.99998 28.0969 8.29998 28.2969 8.59998C28.2969 8.19998 28.2969 7.80005 28.2969 7.30005V6H28.6969V9.19995H28.2969L27.2969 7.59998C27.0969 7.19998 26.8969 6.9 26.6969 6.5C26.6969 6.9 26.6969 7.30005 26.6969 7.80005V9.19995H26.2969Z" fill="#393939"/>
<path d="M31.4489 50.0306C31.9165 48.0413 30.6828 46.0496 28.6935 45.5821C26.7042 45.1145 24.7125 46.3482 24.245 48.3375C23.7775 50.3268 25.011 52.3185 27.0003 52.786C28.9896 53.2535 30.9814 52.0199 31.4489 50.0306Z" fill="#C38F73"/>
<path d="M27.7984 52.1007C29.4 52.1007 30.6984 50.8023 30.6984 49.2007C30.6984 47.5991 29.4 46.3008 27.7984 46.3008C26.1968 46.3008 24.8984 47.5991 24.8984 49.2007C24.8984 50.8023 26.1968 52.1007 27.7984 52.1007Z" fill="white"/>
<path d="M26.6 50.4012C26.8 50.5012 27.1 50.6012 27.3 50.6012C27.7 50.6012 28 50.4012 28 50.1012C28 49.8012 27.8 49.6012 27.4 49.5012C26.9 49.3012 26.6 49.0012 26.6 48.6012C26.6 48.1012 27 47.7012 27.6 47.7012C27.9 47.7012 28.2 47.8012 28.3 47.9012L28.2 48.2012C28.1 48.1012 27.9 48.0012 27.6 48.0012C27.2 48.0012 27 48.3012 27 48.5012C27 48.8012 27.2 48.9012 27.6 49.1012C28.1 49.3012 28.4 49.6012 28.4 50.0012C28.4 50.5012 28 50.9012 27.3 50.9012C27 50.9012 26.7 50.8012 26.5 50.7012L26.6 50.4012Z" fill="#393939"/>
<path d="M6.59839 31.9C8.64184 31.9 10.2984 30.2434 10.2984 28.2C10.2984 26.1565 8.64184 24.5 6.59839 24.5C4.55493 24.5 2.89844 26.1565 2.89844 28.2C2.89844 30.2434 4.55493 31.9 6.59839 31.9Z" fill="#C38F73"/>
<path d="M6.59528 31.1007C8.1969 31.1007 9.4953 29.8023 9.4953 28.2007C9.4953 26.5991 8.1969 25.3008 6.59528 25.3008C4.99365 25.3008 3.69531 26.5991 3.69531 28.2007C3.69531 29.8023 4.99365 31.1007 6.59528 31.1007Z" fill="white"/>
<path d="M5.29999 30.0007L4.5 26.8008H4.90002L5.29999 28.4008C5.39999 28.8008 5.5 29.2007 5.5 29.5007C5.6 29.2007 5.69999 28.8008 5.79999 28.4008L6.20001 26.8008H6.59998L7 28.4008C7.1 28.8008 7.20001 29.2007 7.20001 29.5007C7.30001 29.2007 7.4 28.8008 7.5 28.4008L7.90002 26.8008H8.29999L7.40002 30.0007H7L6.59998 28.3008C6.49998 27.9008 6.40002 27.6008 6.40002 27.3008C6.30002 27.6008 6.30001 27.9008 6.20001 28.3008L5.70001 30.0007H5.29999Z" fill="#393939"/>
<path d="M48.3953 31.9C50.4388 31.9 52.0953 30.2434 52.0953 28.2C52.0953 26.1565 50.4388 24.5 48.3953 24.5C46.3519 24.5 44.6953 26.1565 44.6953 28.2C44.6953 30.2434 46.3519 31.9 48.3953 31.9Z" fill="#C38F73"/>
<path d="M48.3922 31.1007C49.9938 31.1007 51.2922 29.8023 51.2922 28.2007C51.2922 26.5991 49.9938 25.3008 48.3922 25.3008C46.7906 25.3008 45.4922 26.5991 45.4922 28.2007C45.4922 29.8023 46.7906 31.1007 48.3922 31.1007Z" fill="white"/>
<path d="M48.7953 28.4993H47.5953V29.5992H48.9953V29.8993H47.1953V26.6992H48.8953V26.9993H47.5953V27.9993H48.7953V28.4993Z" fill="#393939"/>
</svg>
