<svg width="1920" height="3075" viewBox="0 0 1920 3075" fill="none" xmlns="http://www.w3.org/2000/svg">
<g opacity="0.8">
<path d="M1924.5 268.3H-31V3074.3H1924.5V268.3Z" fill="#F9D681"/>
<path d="M449.601 510.4C422.201 518.9 322.701 558.7 170.901 537.6C-13.2991 512 -29.3991 399.1 -33.7991 366.7C-49.5991 247.7 34.6009 163.2 135.201 107.2C423.601 -53.1 812.801 5.49969 962.001 37.8997C1117.3 71.6997 1245 142.6 1397.2 181.4C1493.8 206.1 1599.3 217.3 1703.3 214C1750.7 212.5 1799.1 208.1 1845.1 215.6C1941.4 231.4 1999.3 299.6 1985.7 360.1C1972.1 420.6 1900.9 471.4 1815.8 502.7C1696.6 546.5 1560.9 582.6 1424.9 593.8C1277.4 605.9 1112.8 596.6 972.401 565.2C923.701 554.3 878.201 538.6 830.401 526.3C731.001 500.9 580.301 478.8 475.801 503.1C466.501 505.4 457.901 507.8 449.601 510.4Z" fill="#F9D681"/>
</g>
</svg>
