<svg width="268" height="94" viewBox="0 0 268 94" fill="none" xmlns="http://www.w3.org/2000/svg">
<path d="M1.70117 77.8994L267.701 93.9994L265.901 82.2994L265.501 79.8994L241.901 76.4994L264.001 70.0994L263.501 66.4994L255.901 64.2994L262.701 61.4994L259.201 27.2994L244.401 26.1994L257.001 23.5994L254.201 12.3994L3.30127 14.8994L1.90125 38.1994L8.80127 40.4994L1.6012 42.7994V47.7994L21.4012 50.7994L1.6012 54.2994L0.701172 68.5994L5.90125 71.1994L1.6012 73.0994V77.8994H1.70117ZM229.701 20.3994C233.501 20.3994 236.601 23.4994 236.601 27.2994C236.601 31.0994 233.501 34.1994 229.701 34.1994C225.901 34.1994 222.801 31.0994 222.801 27.2994C222.801 23.4994 225.901 20.3994 229.701 20.3994ZM28.4012 20.3994C32.2012 20.3994 35.3013 23.4994 35.3013 27.2994C35.3013 31.0994 32.2012 34.1994 28.4012 34.1994C24.6012 34.1994 21.5012 31.0994 21.5012 27.2994C21.5012 23.4994 24.6012 20.3994 28.4012 20.3994Z" fill="url(#paint0_linear_29_505)"/>
<mask id="mask0_29_505" style="mask-type:luminance" maskUnits="userSpaceOnUse" x="0" y="12" width="268" height="82">
<path d="M1.70117 77.8994L267.701 93.9994L265.901 82.2994L265.501 79.8994L241.901 76.4994L264.001 70.0994L263.501 66.4994L255.901 64.2994L262.701 61.4994L259.201 27.2994L244.401 26.1994L257.001 23.5994L254.201 12.3994L3.30127 14.8994L1.90125 38.1994L8.80127 40.4994L1.6012 42.7994V47.7994L21.4012 50.7994L1.6012 54.2994L0.701172 68.5994L5.90125 71.1994L1.6012 73.0994V77.8994H1.70117ZM229.701 20.3994C233.501 20.3994 236.601 23.4994 236.601 27.2994C236.601 31.0994 233.501 34.1994 229.701 34.1994C225.901 34.1994 222.801 31.0994 222.801 27.2994C222.801 23.4994 225.901 20.3994 229.701 20.3994ZM28.4012 20.3994C32.2012 20.3994 35.3013 23.4994 35.3013 27.2994C35.3013 31.0994 32.2012 34.1994 28.4012 34.1994C24.6012 34.1994 21.5012 31.0994 21.5012 27.2994C21.5012 23.4994 24.6012 20.3994 28.4012 20.3994Z" fill="white"/>
</mask>
<g mask="url(#mask0_29_505)">
<g opacity="0.1">
<path d="M316.5 86.3994L258 84.3994L203.6 82.0994L106 77.8994L20.6 73.3994L-18.1 71.2994L-54.5 68.8994L-18.1 69.9994L20.6 71.5994L105.8 75.0994L203.4 80.0994L257.8 82.8994L316.5 86.3994Z" fill="#704C29"/>
<path d="M313.102 64.3998L255.302 63.2998L201.502 61.6998L104.702 58.8998L20.2015 55.5998L-18.2985 54.0998L-54.3984 52.2998L-18.2985 52.7998L20.1016 53.8998L104.602 56.0998L201.302 59.6998L255.102 61.6998L313.102 64.3998Z" fill="#704C29"/>
<path d="M320.9 115.3L261.5 112.2L206.4 108.8L107.6 102.7L21.3004 96.4996L-17.7997 93.6996L-54.5996 90.5996L-17.7997 92.3997L21.2003 94.6996L107.4 99.7996L206.2 106.7L261.3 110.6L320.9 115.3Z" fill="#704C29"/>
<path d="M319.3 104.699C299.2 104.299 279.5 103.399 260.3 102.799L205.5 100.399C171.1 98.7992 138.3 96.7992 107 95.0992C77.1004 93.0992 48.4004 91.2992 21.0004 89.1992L-17.9996 86.0992C-30.4996 84.8992 -42.6996 83.8992 -54.5996 82.6992C-42.5996 82.7992 -30.4996 83.2992 -17.9996 83.5992L20.9004 85.0992C48.2004 86.1992 76.8003 87.8992 106.6 89.2992C137.9 91.2992 170.6 93.0992 205 95.5992L259.9 99.5992C279.2 101.299 299 102.799 319.3 104.699Z" fill="#704C29"/>
<path d="M318.1 96.5996L259.2 93.9996L204.6 91.2996L106.5 86.2996L20.9 81.2996L-18 78.9996L-54.5 76.5996L-18 78.0996L20.8 79.9996L106.4 84.1996L204.4 89.6996L259.1 92.8997L318.1 96.5996Z" fill="#704C29"/>
<path d="M315 76.8991C295.2 76.7991 275.8 76.2991 256.9 75.9991L202.8 74.5991C168.9 73.5991 136.4 72.1991 105.5 71.0991C75.9 69.5991 47.6 68.3991 20.4 66.7991L-18.2 64.3991C-30.5 63.4991 -42.6 62.6991 -54.5 61.6991C-42.7 61.5991 -30.6 61.8991 -18.2 61.8991L20.3 62.6991C47.4 63.2991 75.6 64.4991 105.1 65.3991C136 66.7991 168.3 68.0991 202.3 69.8991L256.5 72.8991C275.5 74.1991 295 75.2991 315 76.8991Z" fill="#704C29"/>
<path d="M312.402 59.6992L254.702 58.4992L201.002 57.0992L104.502 54.4992L20.0016 51.5992L-18.2985 50.1992L-54.3984 48.6992L-18.2985 49.2992L20.0016 50.2992L104.302 52.3992L200.802 55.5992L254.502 57.3992L312.402 59.6992Z" fill="#704C29"/>
<path d="M310.701 48.5992L253.301 47.7992L199.901 46.7992L103.801 44.8992L19.8013 42.5992L-18.3988 41.4992L-54.2988 40.1992L-18.3988 40.5992L19.8013 41.2992L103.701 42.7992L199.801 45.2992L253.101 46.6992L310.701 48.5992Z" fill="#704C29"/>
<path d="M308.201 31.999L251.201 31.799L198.301 31.399L102.901 30.499L19.4012 29.099L-18.4988 28.399L-54.2988 27.499H-18.5988L19.4012 27.799L102.801 28.399L198.101 29.899L251.101 30.699L308.201 31.999Z" fill="#704C29"/>
<path d="M309.701 41.9992L252.501 41.6992L199.301 40.8992L103.501 39.4992L19.6012 37.4992L-18.4988 36.4992L-54.2988 35.1992L-18.4988 35.2992L19.6012 35.6992L103.301 36.7992L199.101 38.9992L252.301 40.1992L309.701 41.9992Z" fill="#704C29"/>
<path d="M306.601 21.9996C287.301 22.5996 268.501 22.7996 250.101 23.0996L197.501 23.5996C164.401 23.7996 132.801 23.4996 102.501 23.4996C73.5012 23.0996 45.8012 22.8996 19.2012 22.2996L-18.6987 21.2996C-30.7987 20.7996 -42.6988 20.4997 -54.2988 19.8997C-42.6988 19.3997 -30.7987 19.1997 -18.6987 18.8997L19.1012 18.3997C45.6012 18.0997 73.3012 18.1996 102.101 18.0996C132.301 18.3996 163.901 18.4996 197.001 19.0996L249.701 20.1996C268.201 20.7996 287.201 21.1996 306.601 21.9996Z" fill="#704C29"/>
<path d="M305.101 11.9992L248.801 12.5992L196.301 12.7992L101.801 13.1992L19.0007 12.8992L-18.6992 12.6992L-54.1992 12.2992L-18.6992 11.7992L18.9008 11.5992L101.701 11.1992L196.201 11.3992L248.601 11.4992L305.101 11.9992Z" fill="#704C29"/>
</g>
</g>
<path d="M28.4004 28.2992C26.5004 28.2992 24.9004 27.6713 24.9004 26.834V0H31.8004V26.834C31.9004 27.6713 30.3004 28.2992 28.4004 28.2992Z" fill="url(#paint1_linear_29_505)"/>
<path d="M229.7 28.2992C227.8 28.2992 226.2 27.6713 226.2 26.834V0H233.1V26.834C233.2 27.6713 231.6 28.2992 229.7 28.2992Z" fill="url(#paint2_linear_29_505)"/>
<defs>
<linearGradient id="paint0_linear_29_505" x1="94.0893" y1="-27.3834" x2="171.587" y2="138.811" gradientUnits="userSpaceOnUse">
<stop stop-color="#A17049"/>
<stop offset="1" stop-color="#7C4C33"/>
</linearGradient>
<linearGradient id="paint1_linear_29_505" x1="10.3101" y1="6.18174" x2="21.1081" y2="31.9754" gradientUnits="userSpaceOnUse">
<stop offset="0.1976" stop-color="#EFB050"/>
<stop offset="1" stop-color="#CB7F39"/>
</linearGradient>
<linearGradient id="paint2_linear_29_505" x1="211.605" y1="6.1817" x2="222.402" y2="31.9754" gradientUnits="userSpaceOnUse">
<stop offset="0.1976" stop-color="#EFB050"/>
<stop offset="1" stop-color="#CB7F39"/>
</linearGradient>
</defs>
</svg>
