<svg width="459" height="81" viewBox="0 0 459 81" fill="none" xmlns="http://www.w3.org/2000/svg">
<path d="M432.198 80.1992H26.8984C12.4984 80.1992 0.898438 68.5992 0.898438 54.1992V26.6992C0.898438 12.2992 12.4984 0.699219 26.8984 0.699219H432.198C446.598 0.699219 458.198 12.2992 458.198 26.6992V54.1992C458.198 68.5992 446.498 80.1992 432.198 80.1992Z" fill="white"/>
<path d="M55.7969 42.3984H32.4968L33.3969 35.8984H56.6968L57.9968 26.8984H32.1968L33.0968 20.498H71.8969L67.0968 54.5977C66.8968 55.8977 66.2969 56.9984 65.2969 57.8984C64.2969 58.7984 63.0969 59.1982 61.8969 59.1982H27.7969L28.7969 52.6982H54.5968L55.7969 42.3984Z" fill="#E05A24"/>
<path d="M133.497 16.1992L132.597 22.6992H117.597L110.797 32.999H135.597L134.597 39.499H123.997L133.197 63.8994H118.997L109.797 39.499H106.497L90.4968 63.8994H76.2969L92.2969 39.499H81.6968L82.6968 32.999H96.5968L103.397 22.6992H88.5968L89.4968 16.1992H133.497Z" fill="#E05A24"/>
<path d="M170.298 26.8984H157.298L156.697 32.0977H143.798L145.398 20.498H184.097L180.798 43.7979H153.697L152.497 52.7979H176.997L179.898 50.1982L178.597 59.1982H144.497C143.197 59.1982 142.098 58.7984 141.398 57.8984C140.598 56.9984 140.297 55.8977 140.497 54.5977L142.898 37.2979H168.697L170.298 26.8984Z" fill="#E05A24"/>
<path d="M206.494 37.0977L202.694 63.7979H192.194L195.294 41.3984L189.594 43.5977L191.194 32.3984L207.994 25.8984L206.494 37.0977ZM212.894 18.7979L213.094 17.5977L211.294 14.998H228.294L227.794 18.7979H247.194L246.194 25.6982H192.194L193.194 18.7979H212.894ZM224.494 28.998H244.494L242.894 40.7979L229.794 52.2979L242.194 63.6982H227.594L222.194 58.8984L216.794 63.6982H203.894L215.894 53.1982L207.094 45.1982L207.694 40.6982H219.594L219.294 42.6982L223.394 46.498L226.894 43.3984H221.394L220.294 37.498L219.294 39.498H206.994L213.694 26.3984H225.694L224.494 28.998ZM228.594 41.998L233.794 37.3984L234.094 35.3984H221.394L220.894 36.3984H227.494L228.594 41.998Z" fill="#E05A24"/>
<path d="M269.6 51.0977L262.2 61.3984H251.5L259 51.0977H269.6ZM274.7 42.6982L275.2 39.3984H253.9L254.8 32.8984H264.9L264.6 27.0977H274.9L275.2 32.8984H288.5L290.4 27.0977H300.7L298.8 32.8984H310.2L309.3 39.3984H288L287.5 42.6982H306.2L305.3 49.1982H286.6L285.2 59.3984C285 60.6984 284.4 61.7977 283.4 62.5977C282.4 63.3977 281.2 63.8984 279.9 63.8984H266.4L272.5 57.6982L273.7 49.1982H255.1L256 42.6982H274.7ZM278 18.7979L278.2 17.498L276 14.8984H291.5L291 18.7979H310.4L309.4 25.2979H257.7L258.7 18.7979H278ZM301.1 51.0977L305.7 61.3984H295L290.3 51.0977H301.1Z" fill="#E05A24"/>
<path d="M336.8 35.5977L337.5 30.3984L355.9 22.5977H319.2L320.1 16.0977H373.1L371.9 25.0977L349.9 34.3984L349.8 35.3984H371.8L370.9 41.8984H348.9L346.5 59.1982C346.3 60.4982 345.7 61.5984 344.7 62.3984C343.7 63.1984 342.5 63.6982 341.2 63.6982H327.7L333.8 57.3984L336 41.8984H314L314.9 35.3984H336.8V35.5977Z" fill="#E05A24"/>
<path d="M431.695 48.7979L429.695 62.998H375.695L377.695 48.7979H431.695ZM422.195 31.5977H392.295L392.095 33.3984H379.895L380.895 26.1982H435.195L434.195 33.3984H421.995L422.195 31.5977ZM431.195 34.5977L429.395 47.498H380.595L382.395 34.5977H431.195ZM391.595 23.498H381.295L382.195 17.3984H392.395L390.295 14.8984H404.495L404.095 17.3984H414.395L412.295 14.8984H426.495L426.095 17.3984H436.495L435.595 23.498H425.295L425.095 25.0977H413.495L413.695 23.498H403.395L403.195 25.0977H391.595V23.498ZM419.095 57.6982L419.595 54.1982H388.295L387.795 57.6982H419.095ZM419.295 42.1982L419.595 39.6982H392.495L392.195 42.1982H419.295Z" fill="#E05A24"/>
</svg>
