<svg width="348" height="61" viewBox="0 0 348 61" fill="none" xmlns="http://www.w3.org/2000/svg">
<path d="M321.2 60.4H26C11.6 60.4 0 48.8 0 34.4V26C0 11.6 11.6 0 26 0H321.1C335.5 0 347.1 11.6 347.1 26V34.3C347.2 48.7 335.5 60.4 321.2 60.4Z" fill="white"/>
<path d="M95.6 32.6H73.7L74.5 26.5H96.4L97.6 18H73.3L74.1 12H110.6L106.1 44.1C105.9 45.3 105.4 46.4 104.4 47.2C103.4 48 102.4 48.4 101.2 48.4H69L69.9 42.3H94.2L95.6 32.6Z" fill="#E05A24"/>
<path d="M168.7 8L167.9 14.1H153.8L147.4 23.8H170.8L169.9 29.9H159.9L168.5 52.9H155.1L146.5 29.9H143.4L128.4 52.9H115L130 29.9H120L120.9 23.8H134L140.4 14.1H126.5L127.3 8H168.7Z" fill="#E05A24"/>
<path d="M203.294 18H190.994L190.394 22.9H178.194L179.694 12H216.094L212.994 33.9H187.494L186.294 42.4H209.394L212.194 40L210.994 48.5H178.894C177.694 48.5 176.694 48.1 175.994 47.3C175.294 46.5 174.994 45.4 175.194 44.2L177.494 27.9H201.794L203.294 18Z" fill="#E05A24"/>
<path d="M237.398 27.7008L233.798 52.8008H223.898L226.798 31.7008L221.398 33.7008L222.898 23.1008L238.698 17.0008L237.398 27.7008ZM243.398 10.4008L243.598 9.20081L241.898 6.80078H257.898L257.398 10.4008H275.698L274.698 16.9008H223.898L224.898 10.4008H243.398ZM254.298 20.1008H273.098L271.598 31.2008L259.298 42.0008L270.998 52.8008H257.198L252.098 48.3008L246.998 52.8008H234.798L246.098 42.9008L237.798 35.3008L238.398 31.1008H249.598L249.298 33.0008L253.098 36.6008L256.398 33.7008H251.198L250.198 28.1008L249.198 30.0008H237.598L243.898 17.7008H255.198L254.298 20.1008ZM258.198 32.2008L263.098 27.9008L263.398 26.0008H251.398L250.998 27.0008H257.198L258.198 32.2008Z" fill="#E05A24"/>
</svg>
