<svg width="642" height="272" viewBox="0 0 642 272" fill="none" xmlns="http://www.w3.org/2000/svg">
<path d="M317.602 217.9C316.602 217.8 315.702 217.6 314.902 217.1C314.102 216.7 313.102 215.8 312.002 214.6C310.902 213.4 310.002 211.7 309.402 209.5C308.902 207.5 308.602 205.7 308.602 203.8C308.602 203.6 308.602 202.9 308.602 201.8C308.602 200.7 308.802 199.4 309.302 197.9C309.702 196.4 310.302 195.2 311.102 194.3C312.502 192.7 313.802 191.7 315.102 191.2C316.102 190.8 317.302 190.5 318.502 190.5C318.902 190.5 319.502 190.5 320.202 190.6C320.902 190.7 321.502 191 322.202 191.7C322.602 192.1 322.802 192.6 322.802 193.2V193.4L322.402 194.1C322.102 194.4 321.702 194.5 321.302 194.5H321.102C319.902 193.8 319.002 193.4 318.202 193.4C317.402 193.4 316.502 193.8 315.402 194.6C314.502 195.3 313.702 196.1 313.102 197C312.102 198.4 311.702 200.5 311.702 203.1C311.702 203.7 311.702 204.5 311.802 205.6C311.902 206.7 312.102 207.9 312.502 209.2C312.902 210.6 313.402 211.6 314.102 212.4C314.802 213.2 315.402 213.7 316.002 214.1C316.602 214.5 317.202 214.7 317.902 214.7C317.902 214.7 318.102 214.7 318.502 214.7C318.902 214.7 319.502 214.3 320.402 213.6L321.302 213.5L322.002 213.9C322.302 214.2 322.402 214.6 322.402 215.1V215.3C321.102 216.6 320.202 217.4 319.502 217.6C319.002 217.8 318.302 217.9 317.602 217.9Z" fill="#5F3720"/>
<path d="M341.905 218.601C341.505 218.501 341.105 218.401 340.805 218.101L340.305 217.301C338.605 218.101 337.005 218.501 335.505 218.501C335.405 218.501 335.105 218.501 334.505 218.501C334.005 218.501 333.305 218.301 332.405 217.801C331.505 217.401 330.705 216.801 330.005 216.101C328.905 215.001 328.305 213.501 328.305 211.601C328.305 211.301 328.305 210.801 328.405 210.201C328.605 208.501 329.305 207.101 330.505 205.801C331.605 204.701 333.105 204.101 334.805 204.101C335.905 204.101 337.005 204.301 338.105 204.701C338.105 203.701 337.805 203.001 337.105 202.501C335.905 201.601 334.705 201.201 333.605 201.201C333.305 201.201 332.805 201.301 332.305 201.401C331.705 201.501 331.105 201.601 330.505 201.701L329.605 201.301C329.305 201.001 329.205 200.601 329.205 200.101V199.901L329.705 199.101C330.605 198.501 331.705 198.201 333.005 198.201C333.605 198.201 334.205 198.301 335.005 198.401C335.705 198.501 336.805 198.901 338.105 199.601C339.405 200.301 340.305 201.201 340.905 202.501C341.505 203.801 341.805 205.901 341.805 208.901C341.805 211.801 342.405 214.601 343.505 217.301L343.105 218.001C342.705 218.401 342.305 218.601 341.905 218.601ZM335.605 215.501C336.505 215.501 337.305 215.301 338.105 214.901L339.205 214.001C339.005 213.101 338.905 211.501 338.705 209.301C337.605 208.001 336.505 207.301 335.305 207.301C335.305 207.301 334.905 207.301 334.305 207.301C333.705 207.301 333.105 207.601 332.605 208.101C331.805 208.901 331.405 210.001 331.405 211.501C331.405 211.701 331.405 212.101 331.505 212.601C331.505 213.101 331.805 213.501 332.305 214.001C332.805 214.501 333.405 214.901 334.105 215.201C334.605 215.401 335.105 215.501 335.605 215.501Z" fill="#5F3720"/>
<path d="M355.302 218.601H355.102L354.302 218.201C354.002 217.701 353.802 217.001 353.802 216.101C353.802 215.801 353.802 215.301 353.902 214.601C354.002 213.801 354.102 212.7 354.202 211.3C354.302 209.9 354.302 208.501 354.302 207.201C354.302 205.301 354.102 204.4 353.602 204.4C353.402 204.4 353.202 204.601 352.902 205.101C352.602 205.601 352.202 206.4 351.602 207.5C351.002 208.6 350.702 210.1 350.502 211.9C350.402 213.7 350.202 215.601 349.902 217.601C349.602 217.801 349.202 218 348.802 218C348.702 218 348.302 217.901 347.802 217.601C347.302 214.901 346.902 212.2 346.702 209.4C346.502 206.6 346.302 203.801 346.102 201.101L346.502 200.3C346.902 200 347.302 199.9 347.802 199.9H347.902L348.702 200.3C349.002 201 349.202 201.801 349.202 202.701C349.302 203.601 349.302 204.401 349.402 205.201C349.902 204.101 350.602 203.101 351.402 202.201C352.102 201.401 352.802 201.101 353.402 201.101C353.602 201.101 353.902 201.2 354.402 201.3C354.902 201.4 355.302 201.701 355.702 202.101C356.102 202.501 356.502 203 356.802 203.5C357.802 202.3 359.002 201.701 360.402 201.701C361.002 201.701 361.702 201.9 362.302 202.4C363.502 203.4 364.102 205.6 364.102 208.9C364.102 209.8 364.102 211.001 364.002 212.601C363.902 214.201 363.902 215.401 363.902 216.101C363.902 216.801 363.702 217.501 363.402 218.101C363.102 218.401 362.702 218.5 362.302 218.5H362.102L361.302 218.101C361.002 217.701 360.802 217.201 360.802 216.701L360.902 216.101C361.102 211.901 361.102 209.2 361.102 207.9C361.102 206.7 361.002 205.801 360.702 205.201C360.602 204.901 360.402 204.8 360.202 204.8C360.002 204.8 359.802 204.901 359.402 205.201C359.002 205.501 358.702 206.2 358.302 207.3C357.902 208.5 357.602 210.101 357.402 212.201C357.202 214.301 356.902 216.3 356.602 218.3C356.102 218.5 355.802 218.601 355.302 218.601Z" fill="#5F3720"/>
<path d="M369.002 223.401H368.802L368.102 223.001C367.802 222.601 367.602 222.201 367.602 221.601L367.102 202.001C367.202 201.601 367.302 201.301 367.502 200.901C367.902 200.601 368.302 200.501 368.702 200.501H368.902L369.702 200.901L369.902 201.301C371.902 200.201 373.902 199.701 375.702 199.701C376.002 199.701 376.602 199.701 377.302 199.801C378.502 199.901 379.902 200.901 381.402 202.701C382.302 203.801 382.802 205.801 382.802 208.701C382.802 210.101 382.602 211.501 382.302 212.901C382.002 213.901 381.402 214.901 380.302 215.701C378.602 217.001 376.702 217.701 374.602 217.701C373.302 217.701 372.002 217.501 370.602 217.101L370.702 222.301L370.302 223.001C369.902 223.301 369.502 223.401 369.002 223.401ZM374.602 214.701C375.402 214.701 376.002 214.601 376.702 214.301C377.202 214.001 377.802 213.501 378.402 213.001C379.002 212.501 379.502 211.601 379.602 210.601C379.702 209.801 379.802 209.101 379.802 208.401C379.802 208.201 379.802 207.801 379.702 207.201C379.602 206.601 379.502 206.001 379.202 205.301C378.902 204.601 378.402 204.001 377.802 203.401C377.202 202.901 376.602 202.701 375.802 202.701C375.602 202.701 375.302 202.701 374.802 202.801C374.302 202.901 373.702 203.001 372.902 203.301C372.202 203.601 371.302 204.301 370.302 205.501L370.402 213.901C371.902 214.401 373.302 214.701 374.602 214.701Z" fill="#5F3720"/>
<path d="M418.998 218.101H411.398C408.998 218.001 407.498 217.9 406.798 217.9C406.098 217.9 405.698 217.6 405.498 217C405.398 216.8 405.398 215.9 405.398 214.3C405.398 210.6 405.498 203.301 405.798 192.201C405.898 191.701 405.998 191.3 406.298 190.8C406.598 190.5 406.998 190.4 407.498 190.4H407.698L408.398 190.8C408.698 191.2 408.798 191.6 408.798 192V192.4L408.298 214.701L420.198 215.101L420.898 215.5C421.198 215.8 421.298 216.201 421.298 216.601V216.8L420.898 217.601C420.398 217.901 419.798 218.101 418.998 218.101Z" fill="#5F3720"/>
<path d="M431.803 219.301H431.003C430.103 219.301 429.303 219.101 428.503 218.801C427.303 218.201 426.403 217.201 425.903 215.901C425.103 212.701 424.703 209.301 424.703 206.001V203.901V199.801L425.203 199.301C425.503 199.001 425.803 198.801 426.203 198.801C426.703 198.801 427.203 199.101 427.703 199.801V205.201C427.703 207.701 427.903 210.201 428.203 212.701C428.303 214.101 428.803 215.201 429.803 216.101C430.303 216.301 430.903 216.401 431.403 216.401C431.903 216.401 432.403 216.301 432.903 216.201C434.103 215.901 435.103 215.201 435.803 214.101C436.203 213.501 436.703 212.401 437.103 210.901C436.903 208.001 436.903 204.401 436.903 199.901C437.503 199.401 438.003 199.101 438.503 199.101C438.903 199.101 439.203 199.201 439.603 199.501C439.703 199.701 439.903 199.801 440.003 199.901C440.103 207.401 440.203 213.101 440.303 217.001C440.403 217.101 440.403 217.301 440.403 217.401C440.403 217.801 440.203 218.101 439.903 218.401C439.603 218.701 439.203 218.801 438.803 218.801C438.003 218.801 437.503 218.201 437.203 217.001C436.003 218.101 434.903 218.701 434.003 219.001C433.403 219.201 432.603 219.301 431.803 219.301ZM433.803 197.001C433.303 197.001 432.803 196.601 432.403 195.901C431.703 194.801 430.903 193.801 430.003 192.901C429.303 192.501 428.903 191.901 428.803 191.201C428.803 190.801 429.003 190.401 429.303 190.201C429.703 189.901 430.103 189.801 430.403 189.801C431.403 189.801 432.703 191.001 434.203 193.301C435.003 194.001 435.303 194.601 435.303 195.401C435.303 195.801 435.203 196.201 434.903 196.701C434.603 196.801 434.203 197.001 433.803 197.001Z" fill="#5F3720"/>
<path d="M471.802 218.701H471.602L470.902 218.3C470.602 218 470.502 217.601 470.402 217.201L470.502 202C467.002 196.4 464.702 192.3 463.602 189.8L464.002 189C464.402 188.7 464.802 188.601 465.202 188.601H465.402L466.202 189C467.102 190.6 468.002 192.201 469.102 193.701C470.202 195.201 471.102 196.8 471.902 198.4L478.302 188.9C478.702 188.6 479.102 188.4 479.602 188.4C479.802 188.4 480.102 188.5 480.702 188.8C480.902 189.1 481.102 189.5 481.102 189.9V190.101C480.902 190.601 478.402 194.7 473.702 202.3L473.502 217.4L473.102 218.101C472.702 218.601 472.302 218.701 471.802 218.701Z" fill="#5F3720"/>
<path d="M494.298 200.001H493.998C492.998 199.801 491.898 199.601 490.898 199.601C489.798 199.601 488.698 199.601 487.598 199.601L486.598 199.701L485.798 199.301C485.598 199.001 485.398 198.601 485.398 198.201C485.398 198.101 485.498 197.701 485.798 197.201C486.398 196.901 487.098 196.701 487.898 196.701C488.698 196.701 489.498 196.701 490.398 196.701C491.198 196.701 492.098 196.801 492.898 196.801C493.798 196.901 494.598 197.101 495.398 197.501C495.598 197.901 495.798 198.301 495.798 198.701C495.798 198.801 495.698 199.201 495.398 199.701C495.198 199.901 494.798 200.001 494.298 200.001ZM491.598 218.401H491.398L490.698 218.001C490.298 217.401 490.098 216.601 490.098 215.801V215.301C489.998 211.601 489.898 209.001 489.698 207.401C489.498 205.801 489.398 204.201 489.298 202.601L489.698 201.801C489.998 201.601 490.398 201.401 490.798 201.401C490.898 201.401 491.298 201.501 491.898 201.801C492.398 204.301 492.798 206.801 492.898 209.401C492.998 212.001 493.098 214.601 493.298 217.201L492.898 217.901C492.498 218.201 492.098 218.401 491.598 218.401Z" fill="#5F3720"/>
<path d="M516.4 218.4H516.2L515.4 218C515.1 217.5 514.9 217 514.9 216.4C514.9 216.2 514.9 216.001 515 215.701L515.2 212.701C515.3 212.001 515.3 211.2 515.3 210.5C515.3 209.2 515.2 208.101 514.9 207.201C514.3 205.401 513.3 204.5 512.1 204.5C512 204.5 511.7 204.501 511.3 204.601C510.9 204.701 510.4 205.1 509.8 205.8C509.2 206.5 508.7 207.4 508 208.3C507.4 209.2 507 210.2 506.9 211.3C506.9 213.8 506.9 215.401 506.9 216.101L506.5 216.8C506.2 217.1 505.8 217.201 505.4 217.201H505.2L504.4 216.8C503.9 214.3 503.6 211.701 503.5 209.101C503.4 206.501 503.2 204 503 201.4C503.1 200.4 503.7 199.9 504.6 199.9H504.8L505.5 200.3C505.8 201.1 505.9 201.901 506 202.701C506.1 203.501 506.1 204.4 506.2 205.3C506.7 204.6 507.3 203.9 507.9 203.3C509.1 202 510.4 201.3 511.8 201.3C512.1 201.3 512.6 201.4 513.3 201.5C514 201.6 514.8 202.1 515.6 202.9C516.5 203.7 517.1 204.7 517.6 205.9C518 206.9 518.1 208.2 518.1 209.9C518.1 210.2 518.1 211.001 518 212.201C517.9 213.401 517.9 214.5 517.9 215.4C517.9 216.3 517.7 217.2 517.4 217.9C517.2 218.3 516.9 218.4 516.4 218.4Z" fill="#5F3720"/>
<path d="M529.302 223.602C528.202 223.402 527.302 223.001 526.702 222.301C525.602 221.101 525.102 219.801 525.102 218.401C525.102 218.201 525.102 217.901 525.102 217.401C525.102 216.901 525.602 216.301 526.502 215.501C527.402 214.701 528.302 214.201 529.302 213.801C530.202 213.401 531.202 213.202 532.302 213.102L532.202 211.001C530.602 212.001 529.302 212.602 528.402 212.602C528.202 212.602 527.902 212.601 527.402 212.501C526.902 212.401 526.302 212.101 525.702 211.301C524.702 210.201 524.102 209.002 524.102 207.602C524.102 207.302 524.102 206.902 524.202 206.202C524.302 205.602 524.502 204.802 524.902 203.702C525.302 202.702 525.802 201.802 526.502 201.202C527.202 200.502 527.802 200.202 528.502 200.102C528.702 200.102 529.002 200.102 529.302 200.102C529.802 200.102 530.402 200.201 531.202 200.301C532.002 200.401 533.202 201.202 534.802 202.702C535.102 203.302 535.302 203.902 535.302 204.602C535.302 204.902 535.302 205.201 535.202 205.501L535.402 212.602C535.802 212.402 536.202 212.401 536.502 212.401C536.602 212.401 537.002 212.501 537.602 212.801C537.802 213.201 538.002 213.601 538.002 214.001V214.301L537.602 215.001C536.902 215.401 536.202 215.501 535.402 215.501V216.702C535.402 217.302 535.302 218.001 535.202 218.801C535.102 219.601 534.402 220.602 533.202 221.702C532.002 222.802 530.602 223.602 529.302 223.602ZM528.402 209.301C529.002 209.301 529.502 209.201 530.002 208.901C530.802 208.401 531.302 207.802 531.602 207.102C531.902 206.402 532.102 205.602 532.202 204.602C531.902 204.202 531.502 203.801 530.902 203.501C530.602 203.401 530.302 203.301 530.002 203.301C528.902 203.301 528.102 204.001 527.602 205.301C527.402 205.901 527.302 206.502 527.302 207.102C527.302 207.402 527.302 207.801 527.402 208.401C527.502 209.001 527.802 209.301 528.402 209.301ZM529.802 220.501C530.202 220.501 530.502 220.402 530.702 220.202C531.902 219.302 532.502 218.101 532.502 216.801V216.102C530.702 216.402 529.302 217.002 528.602 218.102C528.402 218.402 528.302 218.701 528.302 218.901C528.302 219.201 528.502 219.501 528.802 219.901C529.002 220.401 529.402 220.501 529.802 220.501Z" fill="#5F3720"/>
<path d="M564.205 221.601C563.205 221.501 562.805 220.9 562.805 219.8L563.205 219.101C564.105 218.601 565.005 218.4 566.105 218.3L565.905 214.9C566.005 213.9 566.605 213.5 567.705 213.5L568.505 213.9C568.805 214.4 569.005 215.1 569.005 215.8C569.005 216.5 569.005 217.2 569.105 217.9L569.905 217.8L569.705 211.101L566.705 211.3C565.905 211.2 565.505 210.9 565.405 210.5C565.305 210 565.305 208.5 565.105 205.8C565.105 204.6 565.505 204 566.205 203.8C566.505 203.7 567.105 203.701 568.105 203.701C569.705 203.701 572.405 203.8 576.005 203.9C576.705 203.9 577.105 204.301 577.205 205.101C577.105 208.001 577.005 209.8 576.905 210.3C576.905 210.8 576.505 211.101 575.905 211.101C575.305 211.101 574.205 211.101 572.605 211.101V213.4H576.305L576.805 213.601C576.605 213.301 576.505 212.9 576.505 212.5C576.505 212.4 576.605 212 576.905 211.5C577.905 211.2 579.005 210.9 580.105 210.5H579.905C578.905 210.5 578.405 210 578.405 208.9V208.601L578.805 207.9C580.405 205.6 581.305 204.2 581.605 203.8C581.805 203.5 582.105 203.3 582.505 203.3C582.705 203.3 582.905 203.3 583.205 203.4L591.805 203.5C592.805 203.6 593.205 203.9 593.205 204.4C593.205 204.7 593.105 205 592.905 205.3L589.405 209.3C590.605 209.7 591.805 210.001 593.005 210.201C594.205 210.401 595.505 210.6 596.705 210.9C597.005 211.2 597.105 211.6 597.105 212.3L596.705 213C596.305 213.3 595.805 213.5 595.305 213.5C593.805 213.5 590.705 212.8 586.005 211.4C582.905 212.9 580.305 213.801 578.205 214.101L577.305 213.8C577.505 214.2 577.605 214.5 577.605 214.9C577.605 215 577.505 215.4 577.205 215.9L576.205 216.3H572.805L572.905 217.4L577.005 217L577.805 217.4C578.105 217.7 578.205 218.1 578.205 218.8L577.805 219.5C575.705 220.1 573.505 220.501 571.205 220.701C568.605 220.801 566.405 221.101 564.205 221.601ZM579.005 201.9H578.805L578.105 201.5C577.705 200.6 577.605 198.5 577.605 195.4L566.705 195.601L567.405 200.701L567.005 201.5C566.705 201.7 566.205 201.9 565.605 201.9L564.905 201.5C564.405 200.4 564.105 199.2 564.005 198C563.705 195.8 563.605 194.4 563.605 193.9C563.605 193.1 564.005 192.701 564.705 192.701L577.405 192.5L577.205 191.5L567.305 191.701L566.605 191.3C566.305 190.9 566.205 190.5 566.205 189.9L566.605 189.101C567.305 188.801 568.105 188.601 569.005 188.601L589.805 188.4C590.405 188.4 590.905 188.5 591.405 188.8C591.605 189.1 591.805 189.5 591.805 189.9C591.805 190 591.705 190.4 591.405 190.9C590.905 191.2 590.405 191.4 589.805 191.4H589.405L580.405 191.5L580.605 192.3C588.905 192.5 593.405 192.7 594.205 192.8C594.705 192.9 595.005 193.4 595.005 194.3C595.005 194.7 594.905 195.101 594.805 195.601C594.605 196.601 594.605 197.601 594.505 198.601C594.505 199.601 594.305 200.6 593.805 201.5C593.505 201.7 593.105 201.9 592.405 201.9L591.705 201.5C591.405 201.1 591.305 200.7 591.305 200.3L591.705 195.701L580.705 195.5L580.805 200.9L580.405 201.601C579.905 201.801 579.505 201.9 579.005 201.9ZM568.205 208.701L573.905 208.601L574.005 205.9L568.105 205.701L568.205 208.701ZM575.205 198.9H574.605C573.905 198.7 573.105 198.6 572.305 198.5C571.505 198.5 570.805 198.3 570.105 198C569.905 197.8 569.905 197.501 569.905 197.201C569.905 196.801 570.105 196.501 570.605 196.201C572.105 196.301 573.205 196.4 573.905 196.5C574.605 196.6 575.205 196.8 575.805 197C576.005 197.2 576.005 197.5 576.005 197.8C576.105 198.3 575.805 198.7 575.205 198.9ZM574.505 201.701C573.805 201.601 573.105 201.5 572.405 201.4C571.705 201.3 571.005 201.101 570.405 200.701C570.305 200.501 570.205 200.2 570.205 200C570.205 199.5 570.405 199.2 570.905 199C572.805 199.1 574.305 199.4 575.405 199.9C575.605 200.1 575.605 200.301 575.605 200.601C575.605 201.201 575.305 201.501 574.505 201.701ZM580.305 210.3L581.705 209.8L581.105 209.5L580.305 210.3ZM591.305 220.8H590.505C589.205 220.8 586.405 220.701 582.105 220.601C581.305 220.601 580.905 220.3 580.905 219.8C580.905 219.3 580.805 217.7 580.705 215C580.805 213.9 581.105 213.301 581.705 213.201H587.505C590.205 213.201 591.705 213.3 592.005 213.4C592.305 213.5 592.505 213.901 592.505 214.601C592.505 215.001 592.405 216.6 592.405 219.3C592.105 220.2 591.705 220.7 591.305 220.8ZM585.605 207.9L587.505 206.3H583.605L583.005 207C583.805 207.5 584.705 207.8 585.605 207.9ZM588.405 198.601C587.605 198.401 586.805 198.301 585.905 198.201C585.005 198.101 584.205 197.901 583.405 197.601C583.305 197.401 583.205 197.1 583.205 196.9C583.205 196.4 583.405 196.1 583.905 195.9C585.405 196.1 586.605 196.2 587.305 196.3C588.005 196.4 588.705 196.5 589.405 196.9C589.605 197.1 589.605 197.4 589.605 197.9C589.505 198.3 589.005 198.501 588.405 198.601ZM587.905 201.601C587.205 201.401 586.405 201.3 585.705 201.3C584.905 201.3 584.205 201.101 583.605 200.701C583.405 200.501 583.405 200.2 583.405 199.9C583.405 199.5 583.705 199.2 584.205 199C586.305 199.1 587.905 199.3 588.905 199.9C589.105 200.1 589.205 200.4 589.205 200.9C588.805 201.2 588.405 201.501 587.905 201.601ZM589.305 218.4L589.205 215.5H583.605L583.805 218.4H589.305Z" fill="#5F3720"/>
<path d="M603.003 221.301H602.803L602.103 220.901C601.803 220.501 601.703 220.101 601.703 219.701V219.301C602.703 216.301 603.403 213.301 603.803 210.201C604.203 207.101 604.403 201.001 604.403 192.001C604.403 190.701 604.703 190.001 605.203 189.901C605.703 189.801 610.003 189.701 618.003 189.601C618.003 188.401 618.203 187.501 618.503 186.701C618.903 186.401 619.303 186.301 619.903 186.301L620.603 186.701C620.903 187.301 621.103 187.901 621.103 188.701C621.103 189.001 621.103 189.301 621.003 189.601C627.903 189.501 631.503 189.501 631.703 189.501C632.303 189.501 632.903 189.701 633.403 190.001C633.703 190.301 633.903 190.701 633.903 191.201C633.903 191.401 633.703 191.701 633.503 192.201C633.003 192.501 632.503 192.601 631.903 192.601H631.203L615.803 192.801L616.103 192.901C616.403 193.201 616.503 193.601 616.503 194.001V194.201L614.403 196.401L614.503 203.201C614.303 203.601 614.103 203.801 613.803 204.001H613.203C612.803 203.801 612.503 203.501 612.403 202.901V198.701L610.903 200.101C610.503 200.401 610.103 200.501 609.703 200.501C609.503 200.501 609.203 200.301 608.703 200.101C608.403 199.801 608.303 199.401 608.303 198.801L608.703 198.101L614.203 192.801L607.803 192.901C607.603 201.601 607.303 207.701 606.803 211.001C606.303 214.401 605.503 217.701 604.303 220.901C603.903 221.201 603.503 221.301 603.003 221.301ZM626.103 218.701L608.703 218.501C608.203 218.501 607.703 218.401 607.303 218.201C607.103 218.001 606.903 217.801 606.903 217.601C606.903 217.201 607.203 216.901 607.703 216.601L626.003 216.901C626.403 217.201 626.603 217.501 626.603 217.801C626.703 218.101 626.503 218.401 626.103 218.701ZM629.803 222.601C628.903 222.601 627.703 222.101 626.303 221.201C625.903 221.001 625.803 220.801 625.803 220.501C625.803 220.301 626.003 220.101 626.303 219.901C626.603 219.701 626.903 219.601 627.203 219.601C627.703 219.601 628.303 219.801 628.803 220.201L629.203 220.401C629.703 219.501 630.203 218.601 630.503 217.501C630.803 216.701 630.903 216.201 630.903 215.901C630.903 215.701 630.903 215.601 630.803 215.601C627.303 215.701 621.903 215.801 614.603 215.901C613.103 215.901 612.103 215.901 611.603 215.901C611.103 215.901 610.803 215.601 610.803 215.101C610.803 214.601 610.803 213.301 610.803 211.201C610.803 209.301 610.803 208.001 610.703 207.501C610.703 207.201 611.003 207.001 611.503 207.001C612.103 206.901 613.403 206.901 615.403 206.901C616.403 205.401 617.203 204.501 617.803 204.101H618.303C618.703 204.101 619.003 204.201 619.203 204.401C619.503 204.601 619.603 204.801 619.603 205.001C619.603 205.201 619.503 205.401 619.203 205.701L618.303 206.901C623.003 206.901 625.903 206.901 626.903 206.901C627.903 206.901 628.403 207.101 628.503 207.501C628.503 207.701 628.503 208.001 628.503 208.201C628.503 208.501 628.503 208.801 628.403 209.301C628.403 209.801 628.103 210.301 627.703 210.901C627.003 211.901 626.403 212.401 626.003 212.401C625.603 212.401 624.603 212.201 623.203 211.701C622.503 211.501 622.103 211.201 622.003 210.601C622.103 210.101 622.503 209.801 623.203 209.701C623.603 209.801 624.203 209.901 625.003 210.301C625.603 210.101 625.903 209.601 626.003 208.701L613.103 208.901L613.203 214.101C620.203 214.001 624.303 213.901 625.503 213.901C626.703 213.901 628.103 213.801 629.803 213.801C630.803 213.801 631.703 213.801 632.403 213.901C633.103 214.001 633.403 214.301 633.403 214.901C633.403 215.701 633.103 217.001 632.503 219.001C631.803 221.301 630.903 222.601 629.803 222.601ZM619.503 213.001C619.203 213.001 619.003 212.901 618.703 212.801C618.003 212.401 617.303 212.001 616.603 211.601C615.903 211.201 615.303 210.701 614.703 210.201V210.001C614.703 209.801 614.803 209.501 615.103 209.301L615.703 209.001C616.203 209.001 616.703 209.101 617.103 209.401C617.603 209.801 618.203 210.201 618.803 210.601C619.503 210.901 620.103 211.301 620.603 211.801V212.001C620.603 212.301 620.503 212.501 620.203 212.701C619.903 212.901 619.603 213.001 619.503 213.001ZM621.003 203.801C619.703 203.801 619.003 203.501 619.003 202.801C618.903 201.801 618.803 200.601 618.803 199.201C618.503 199.501 618.203 199.801 617.903 199.901C617.203 199.901 616.703 199.701 616.503 199.201V198.501C617.203 197.401 618.503 195.601 620.403 193.201C620.603 193.001 620.903 192.901 621.203 192.901C621.703 193.001 622.003 193.201 622.203 193.701V194.401L621.303 195.601H625.403L627.203 193.101C627.503 192.901 627.803 192.801 628.103 192.801C628.603 192.801 628.903 193.001 629.203 193.501V194.101L628.303 195.501H632.703C633.003 195.701 633.103 195.901 633.103 196.201V196.501C632.903 196.801 632.603 196.901 632.303 196.901H627.503V197.801L633.003 197.601C633.303 197.801 633.403 198.001 633.403 198.301C633.403 198.401 633.403 198.501 633.403 198.601C632.603 199.001 631.703 199.201 630.803 199.201H629.603C628.903 199.201 628.303 199.201 627.603 199.301V200.201L632.603 200.101C632.903 200.301 633.003 200.601 633.003 200.801V201.101C632.503 201.501 631.903 201.601 631.203 201.601C630.903 201.601 629.703 201.601 627.703 201.601V202.301L633.003 202.201C633.303 202.401 633.403 202.601 633.403 202.901V203.101C632.603 203.501 631.703 203.601 630.703 203.601C629.903 203.701 626.603 203.701 621.003 203.801ZM620.903 198.001L625.503 197.801V197.001L620.903 196.901V198.001ZM625.703 200.101L625.603 199.201L620.903 199.401V200.101H625.703ZM621.103 202.301L625.903 202.201L625.703 201.501H621.003L621.103 202.301Z" fill="#5F3720"/>
<path d="M2.60001 270.801L1.70001 270.301C1.40001 270.001 1.20001 269.501 1.20001 269.001V268.701L1.70001 267.801C3.30001 267.301 4.90001 267.001 6.70001 266.801C8.40001 266.601 9.80001 265.901 10.7 264.801C11.4 263.901 11.8 262.901 11.8 261.901C11.8 261.701 11.7 261.101 11.6 260.301C11.5 259.501 10.9 258.701 9.79999 257.801C8.69999 257.001 7.6 256.501 6.5 256.501C5.4 256.501 4.29999 256.201 3.29999 255.901C2.99999 255.501 2.79999 255.101 2.79999 254.601V254.301L3.29999 253.401C4.39999 252.801 5.50001 252.401 6.70001 252.201C7.90001 252.001 8.99999 251.301 9.89999 250.301C10.6 249.401 11 248.501 11 247.401C11 247.201 10.9 246.601 10.8 245.801C10.7 245.001 10.2 244.201 9.39999 243.301C8.09999 242.001 6.90001 241.301 5.70001 241.301C5.20001 241.301 4.70001 241.401 4.20001 241.601C3.30001 241.901 2.6 242.101 2 242.101H1.70001L0.600006 241.501C0.200006 241.101 0 240.601 0 240.001V239.801L0.5 238.901C1.6 238.101 3.10001 237.701 5.10001 237.701C5.50001 237.701 6.09999 237.701 6.89999 237.801C7.69999 237.901 8.40001 238.101 9.20001 238.701C10 239.201 10.9 240.001 12 241.201C13.1 242.301 13.8 243.501 14.1 244.801C14.3 245.601 14.3 246.301 14.3 247.101C14.3 247.701 14.2 248.401 14.1 249.401C14 250.401 13.6 251.201 13.1 251.901C12.6 252.501 11.8 253.301 10.8 254.301C11.8 255.001 12.7 255.701 13.3 256.501C13.9 257.301 14.5 258.301 14.8 259.501C15 260.401 15.2 261.201 15.2 262.201C15.2 262.601 15.2 263.201 15.1 264.001C15 264.901 14.6 265.701 13.9 266.501C13.2 267.301 12.3 268.101 11.4 268.801C10.5 269.501 9.2 270.001 7.5 270.201C5.9 270.501 4.30001 270.701 2.60001 270.801Z" fill="#5F3720"/>
<path d="M26.9031 271.101C25.9031 271.001 25.0031 270.801 24.2031 270.401C23.9031 270.001 23.7031 269.501 23.7031 269.001V268.701L24.1031 267.801C24.5031 267.501 24.9031 267.301 25.4031 267.301L29.7031 267.501L29.4031 241.901L26.8031 244.101L25.7031 244.201L24.8031 243.701C24.5031 243.401 24.3031 242.901 24.3031 242.301V242.001C25.8031 240.301 27.0031 239.101 28.0031 238.301C29.0031 237.501 30.1031 237.001 31.4031 236.801H31.7031C32.3031 236.801 32.7031 237.301 32.9031 238.301L33.2031 267.301L36.9031 267.001L38.0031 267.601C38.3031 267.901 38.5031 268.401 38.5031 268.901V269.201L38.0031 270.101C37.6031 270.501 37.1031 270.701 36.6031 270.701L26.9031 271.101Z" fill="#5F3720"/>
<path d="M52.6031 271.101C51.6031 271.101 50.6031 270.801 49.7031 270.301C49.0031 269.901 48.3031 269.501 47.6031 269.201C47.2031 268.701 47.0031 268.201 47.0031 267.601C47.2031 266.401 47.8031 265.901 48.9031 265.901H49.2031C50.0031 266.301 50.7031 266.701 51.5031 267.201C52.0031 267.501 52.6031 267.701 53.3031 267.701C54.9031 267.701 56.2031 267.201 57.2031 266.301C57.8031 265.801 58.1031 265.201 58.1031 264.601C58.1031 264.401 58.0031 264.201 57.9031 263.701C57.8031 263.301 57.2031 262.901 56.1031 262.701C55.0031 262.401 53.7031 262.101 52.2031 261.601C50.7031 261.101 49.5031 260.401 48.5031 259.501C47.0031 258.001 46.2031 256.301 46.2031 254.501L46.3031 253.301C46.5031 252.001 47.3031 250.501 48.9031 249.001C50.5031 247.401 52.3031 246.701 54.2031 246.701C54.5031 246.701 55.1031 246.801 55.8031 246.901C56.5031 247.001 57.4031 247.401 58.3031 248.201C59.1031 248.901 59.4031 249.601 59.4031 250.301C59.4031 250.501 59.2031 250.801 58.9031 251.501C58.5031 251.801 58.1031 252.001 57.6031 252.001H57.3031C55.9031 251.001 54.8031 250.501 54.0031 250.501C53.9031 250.501 53.6031 250.501 53.1031 250.601C52.6031 250.701 52.1031 251.001 51.4031 251.501C50.7031 252.101 50.2031 252.801 49.9031 253.801C49.7031 254.201 49.7031 254.601 49.7031 254.901C49.7031 255.501 50.0031 256.101 50.5031 256.601C51.0031 257.201 51.6031 257.601 52.3031 258.001C53.0031 258.301 54.1031 258.601 55.7031 258.901C57.2031 259.101 58.6031 259.701 59.6031 260.601C60.7031 261.501 61.3031 262.401 61.5031 263.401C61.6031 263.901 61.6031 264.301 61.6031 264.801C61.6031 265.301 61.5031 266.001 61.3031 266.701C61.1031 267.501 60.6031 268.201 59.7031 269.101C58.1031 270.401 55.8031 271.101 52.6031 271.101Z" fill="#5F3720"/>
<path d="M78.1969 271.001C76.8969 271.001 75.5969 270.401 74.3969 269.101C73.2969 268.001 72.5969 266.501 72.2969 264.501C71.9969 262.601 71.6969 259.201 71.5969 254.401L68.2969 254.601L67.3969 254.101C66.9969 253.701 66.7969 253.201 66.7969 252.601V252.401L67.2969 251.501C67.8969 251.101 68.4969 250.901 69.1969 250.901H70.1969H71.7969V248.601C71.7969 246.201 71.9969 244.601 72.2969 243.701C72.6969 243.401 73.0969 243.201 73.5969 243.201H73.8969L74.7969 243.701C75.0969 244.201 75.2969 244.701 75.2969 245.301V245.801L75.3969 250.701L82.6969 250.501L83.5969 250.901C83.8969 251.301 84.0969 251.701 84.0969 252.301V252.601L83.5969 253.501C82.3969 253.901 81.1969 254.101 79.7969 254.101H78.8969C77.5969 254.101 76.3969 254.201 75.1969 254.301C75.3969 258.701 75.4969 261.601 75.6969 263.001C75.7969 264.401 76.0969 265.501 76.5969 266.301C76.8969 266.901 77.4969 267.201 78.2969 267.201C79.2969 267.201 80.8969 266.801 83.1969 266.101L84.0969 266.501C84.3969 266.901 84.5969 267.301 84.5969 267.901V268.201L83.9969 269.301C82.1969 270.401 80.2969 271.001 78.1969 271.001Z" fill="#5F3720"/>
<path d="M122.703 271.201C121.603 271.101 120.503 270.801 119.503 270.301C118.503 269.901 117.403 269.001 116.303 267.701C114.203 265.301 113.203 260.001 113.203 251.801C113.203 249.801 113.503 247.701 114.103 245.401C114.703 243.101 115.503 241.301 116.703 240.001C117.903 238.701 118.903 237.801 119.803 237.401C121.103 236.701 122.403 236.301 123.503 236.301C124.403 236.301 125.303 236.601 126.403 237.101C127.503 237.601 128.403 238.401 129.003 239.401C129.703 240.401 130.303 241.801 130.903 243.401C131.803 246.101 132.303 249.601 132.303 254.101C132.303 254.601 132.303 255.501 132.303 257.001C132.303 258.401 132.003 260.101 131.503 262.201C131.003 264.201 130.003 266.201 128.603 268.101C127.003 269.901 125.103 271.001 122.703 271.201ZM124.003 267.501C125.303 266.601 126.203 265.501 126.903 264.201C127.603 262.901 128.003 261.501 128.203 260.101C128.403 258.601 128.503 256.901 128.503 254.901C128.503 252.901 128.503 251.201 128.403 249.701C128.303 248.201 128.203 247.001 127.903 246.201C127.703 245.401 127.303 244.401 126.903 243.301C126.103 241.201 124.903 240.201 123.203 240.201C123.003 240.201 122.603 240.201 122.003 240.301C121.403 240.401 120.803 240.801 120.003 241.501C119.203 242.201 118.603 243.201 118.103 244.301C117.203 246.301 116.803 249.501 116.803 253.801C116.803 254.401 116.803 255.401 116.903 256.701C117.003 258.001 117.103 259.501 117.403 261.201C117.703 262.901 118.503 264.401 119.803 265.601C121.003 266.801 122.303 267.301 123.703 267.301H124.003V267.501Z" fill="#5F3720"/>
<path d="M146.297 270.201C144.997 270.201 143.697 269.901 142.597 269.201C141.697 268.701 140.697 267.801 139.697 266.601C138.597 265.301 137.797 263.601 137.397 261.501C136.997 259.901 136.797 258.501 136.797 257.301C136.797 256.901 136.897 256.201 136.997 255.301C137.197 253.401 138.097 251.401 139.797 249.401C141.497 247.301 143.797 246.201 146.597 246.201C146.797 246.201 147.397 246.201 148.197 246.301C148.997 246.401 149.897 246.801 150.897 247.501C151.397 248.101 151.597 248.601 151.597 249.201V249.401L151.097 250.301C150.697 250.601 150.197 250.801 149.597 250.801H149.497C148.597 250.101 147.797 249.801 146.897 249.801C146.697 249.801 146.197 249.901 145.597 250.001C143.797 250.301 142.497 251.201 141.697 252.601C140.897 254.001 140.397 255.701 140.397 257.501C140.397 258.501 140.597 259.601 140.997 261.001C141.297 262.201 141.797 263.301 142.597 264.301C143.697 265.901 145.197 266.601 146.897 266.601C147.097 266.601 147.497 266.601 148.097 266.501C148.597 266.401 149.297 266.201 149.997 265.801C150.697 265.401 151.497 265.201 152.397 265.101L153.297 265.601C153.597 266.001 153.797 266.401 153.797 267.001V267.301L153.297 268.201C150.697 269.501 148.397 270.201 146.297 270.201Z" fill="#5F3720"/>
<path d="M170.197 271.001C168.897 271.001 167.597 270.401 166.397 269.101C165.297 268.001 164.597 266.501 164.297 264.501C163.997 262.601 163.697 259.201 163.597 254.401L160.297 254.601L159.397 254.101C158.997 253.701 158.797 253.201 158.797 252.601V252.401L159.297 251.501C159.897 251.101 160.497 250.901 161.197 250.901H162.197H163.797V248.601C163.797 246.201 163.997 244.601 164.297 243.701C164.697 243.401 165.097 243.201 165.597 243.201H165.897L166.797 243.701C167.097 244.201 167.297 244.701 167.297 245.301V245.801L167.397 250.701L174.697 250.501L175.597 250.901C175.897 251.301 176.097 251.701 176.097 252.301V252.601L175.597 253.501C174.397 253.901 173.197 254.101 171.797 254.101H170.897C169.597 254.101 168.397 254.201 167.197 254.301C167.397 258.701 167.497 261.601 167.697 263.001C167.797 264.401 168.097 265.501 168.597 266.301C168.897 266.901 169.497 267.201 170.297 267.201C171.297 267.201 172.897 266.801 175.197 266.101L176.097 266.501C176.397 266.901 176.597 267.301 176.597 267.901V268.201L175.997 269.301C174.197 270.401 172.297 271.001 170.197 271.001Z" fill="#5F3720"/>
<path d="M222.197 270.601L210.997 270.301C208.797 270.301 207.197 270.101 206.197 269.701C205.897 269.301 205.797 268.901 205.797 268.401V268.101L206.397 267.001C207.897 265.901 209.197 264.701 210.397 263.201C211.597 261.801 212.697 260.501 213.797 259.301C217.597 255.201 219.497 251.801 219.497 249.101C219.497 248.901 219.497 248.301 219.397 247.401C219.297 246.501 218.897 245.701 217.997 244.901C216.897 243.901 215.497 243.301 213.997 243.301C213.497 243.301 212.897 243.401 212.197 243.501C211.497 243.601 210.597 244.201 209.297 245.101C208.897 245.401 208.497 245.601 207.997 245.601H207.697L206.697 245.101C206.297 244.701 206.097 244.101 206.097 243.501C206.197 243.001 206.597 242.501 207.297 241.801C208.097 241.101 209.097 240.601 210.497 240.201C211.597 239.901 212.697 239.701 213.797 239.701L215.297 239.801C216.997 239.901 218.797 240.801 220.497 242.301C222.197 243.701 222.997 245.901 222.997 248.801C222.997 249.301 222.897 250.001 222.797 250.901C222.697 251.901 222.297 253.001 221.697 254.201C221.097 255.401 220.297 256.701 219.397 257.901C218.397 259.101 215.997 262.101 212.097 266.801L222.797 267.001L223.697 267.501C223.997 267.801 224.197 268.301 224.197 268.801V269.101L223.697 270.001C223.097 270.301 222.597 270.501 222.197 270.601Z" fill="#5F3720"/>
<path d="M237 269.701C235.5 269.701 234.3 269.401 233.4 268.801C230.7 267.201 229.1 264.501 228.4 260.801C227.8 257.601 227.5 255.001 227.5 252.901C227.5 252.201 227.5 251.301 227.6 250.001C227.6 248.701 227.9 247.301 228.5 245.601C229.4 242.801 231 240.501 233.5 238.501C234.9 237.401 236.4 236.801 238 236.801C238.2 236.801 238.6 236.801 239.1 236.801C239.7 236.801 240.3 237.001 241.2 237.201C242.1 237.401 242.9 238.001 243.7 239.001C244.5 240.001 245.3 241.201 245.9 242.801C246.5 244.401 246.9 246.001 247 247.801C247.1 249.001 247.1 250.201 247.1 251.501C247.1 252.101 247.1 253.101 247 254.501C247 255.801 246.6 257.701 246.1 260.201C245.5 262.601 244.6 264.701 243.3 266.201C242 267.801 240.8 268.801 239.8 269.201C238.8 269.601 238 269.701 237 269.701ZM231.4 257.801L233.2 253.201C236 247.501 238.3 243.401 240 240.701H238.9C236 240.701 233.9 242.301 232.5 245.501C231.5 247.801 231 250.101 231 252.301C231 253.701 231.2 255.501 231.4 257.801ZM236.6 266.201C239.9 266.201 242 263.401 242.9 257.801C243.2 255.601 243.4 253.601 243.4 251.701C243.4 248.401 243.1 245.801 242.4 243.801C240.3 246.901 238.5 250.201 237 253.501C235.5 256.801 234.1 260.201 232.8 263.701C233.4 264.701 234.1 265.401 235.1 265.801C235.6 266.101 236.1 266.201 236.6 266.201Z" fill="#5F3720"/>
<path d="M268.197 270.601L256.997 270.301C254.797 270.301 253.197 270.101 252.197 269.701C251.897 269.301 251.797 268.901 251.797 268.401V268.101L252.397 267.001C253.897 265.901 255.197 264.701 256.397 263.201C257.597 261.801 258.697 260.501 259.797 259.301C263.597 255.201 265.497 251.801 265.497 249.101C265.497 248.901 265.497 248.301 265.397 247.401C265.297 246.501 264.897 245.701 263.997 244.901C262.897 243.901 261.497 243.301 259.997 243.301C259.497 243.301 258.897 243.401 258.197 243.501C257.497 243.601 256.597 244.201 255.297 245.101C254.897 245.401 254.497 245.601 253.997 245.601H253.697L252.697 245.101C252.297 244.701 252.097 244.101 252.097 243.501C252.197 243.001 252.597 242.501 253.297 241.801C254.097 241.101 255.097 240.601 256.497 240.201C257.597 239.901 258.697 239.701 259.797 239.701L261.297 239.801C262.997 239.901 264.797 240.801 266.497 242.301C268.197 243.701 268.997 245.901 268.997 248.801C268.997 249.301 268.897 250.001 268.797 250.901C268.697 251.901 268.297 253.001 267.697 254.201C267.097 255.401 266.297 256.701 265.397 257.901C264.397 259.101 261.997 262.101 258.097 266.801L268.797 267.001L269.697 267.501C269.997 267.801 270.197 268.301 270.197 268.801V269.101L269.697 270.001C269.097 270.301 268.597 270.501 268.197 270.601Z" fill="#5F3720"/>
<path d="M287.8 270.602H287.5L286.6 270.102C286.1 269.102 285.9 268.101 285.9 266.801L285.8 258.401H275.8C274.8 258.401 274 258.302 273.4 258.202C272.8 258.102 272.5 257.402 272.5 256.102C273.4 253.002 274.7 250.001 276.6 247.301C278.4 244.501 281.2 241.101 284.9 236.901C285.6 236.301 286.3 236.102 286.9 236.102C287.6 236.102 288.3 236.501 288.8 237.401L289.1 254.901C290.5 254.701 291.6 254.602 292.3 254.602H292.6L293.5 255.102C293.8 255.502 293.9 256.001 293.9 256.501C293.9 256.701 293.8 257.102 293.5 257.702C292.4 258.202 291.1 258.401 289.8 258.401H289.3L289.6 269.202L289.1 270.102C288.8 270.402 288.4 270.602 287.8 270.602ZM285.6 255.001L285.3 241.901C281.7 245.701 278.8 250.101 276.7 255.001H285.6Z" fill="#5F3720"/>
<path d="M329.098 255.5C324.498 255.5 321.498 255.3 319.898 254.9C319.598 254.6 319.398 254.101 319.398 253.601V253.3L319.898 252.4L320.798 251.9H336.998L337.998 252.5C338.298 252.8 338.498 253.3 338.498 253.8V254.101L337.998 255C336.898 255.3 333.898 255.5 329.098 255.5Z" fill="#5F3720"/>
<path d="M383.197 270.601L371.997 270.301C369.797 270.301 368.197 270.101 367.197 269.701C366.897 269.301 366.797 268.901 366.797 268.401V268.101L367.397 267.001C368.897 265.901 370.197 264.701 371.397 263.201C372.597 261.801 373.697 260.501 374.797 259.301C378.597 255.201 380.497 251.801 380.497 249.101C380.497 248.901 380.497 248.301 380.397 247.401C380.297 246.501 379.897 245.701 378.997 244.901C377.897 243.901 376.497 243.301 374.997 243.301C374.497 243.301 373.897 243.401 373.197 243.501C372.497 243.601 371.597 244.201 370.297 245.101C369.897 245.401 369.497 245.601 368.997 245.601H368.697L367.697 245.101C367.297 244.701 367.097 244.101 367.097 243.501C367.197 243.001 367.597 242.501 368.297 241.801C369.097 241.101 370.097 240.601 371.497 240.201C372.597 239.901 373.697 239.701 374.797 239.701L376.297 239.801C377.997 239.901 379.797 240.801 381.497 242.301C383.197 243.701 383.997 245.901 383.997 248.801C383.997 249.301 383.897 250.001 383.797 250.901C383.697 251.901 383.297 253.001 382.697 254.201C382.097 255.401 381.297 256.701 380.397 257.901C379.397 259.101 376.997 262.101 373.097 266.801L383.797 267.001L384.697 267.501C384.997 267.801 385.197 268.301 385.197 268.801V269.101L384.697 270.001C384.097 270.301 383.597 270.501 383.197 270.601Z" fill="#5F3720"/>
<path d="M404.798 270.702H404.498L403.598 270.202C403.198 269.602 402.998 269.001 402.998 268.301C402.998 268.101 402.998 267.801 403.098 267.501L403.398 263.901C403.498 263.001 403.498 262.201 403.498 261.301C403.498 259.701 403.298 258.401 402.998 257.401C402.198 255.301 401.098 254.202 399.598 254.202C399.398 254.202 399.098 254.201 398.598 254.301C398.098 254.401 397.498 254.802 396.898 255.702C396.198 256.602 395.598 257.502 394.798 258.602C394.098 259.702 393.598 260.902 393.498 262.202C393.498 265.102 393.498 267.001 393.498 267.901L393.098 268.801C392.698 269.101 392.298 269.301 391.798 269.301H391.498L390.598 268.801C389.998 265.801 389.698 262.801 389.498 259.801C389.398 256.701 389.198 253.701 388.898 250.801C389.098 249.601 389.698 249.102 390.798 249.102H391.098L391.998 249.602C392.298 250.502 392.498 251.401 392.598 252.401C392.698 253.401 392.698 254.401 392.798 255.401C393.398 254.601 394.098 253.802 394.798 253.102C396.198 251.602 397.698 250.801 399.398 250.801C399.698 250.801 400.298 250.901 401.098 251.001C401.898 251.101 402.798 251.702 403.798 252.702C404.798 253.702 405.598 254.902 406.098 256.202C406.498 257.302 406.698 258.901 406.698 260.901C406.698 261.301 406.698 262.202 406.598 263.602C406.498 265.002 406.498 266.301 406.498 267.401C406.498 268.501 406.298 269.501 405.898 270.401C405.798 270.601 405.298 270.702 404.798 270.702Z" fill="#5F3720"/>
<path d="M428.7 270.701H428.5L427.6 270.201C427.2 269.701 427 269.2 427 268.5C424.9 269.2 423.3 269.601 422.2 269.601C418.9 269.601 416.4 268.6 414.7 266.5C413.2 264.8 412.5 262.5 412.5 259.9C412.5 256.4 413.5 253.7 415.4 251.9C417 250.4 419.1 249.601 421.6 249.601C423.3 249.601 424.9 249.8 426.2 250.3L425.8 237.601C426 236.501 426.6 235.9 427.7 235.9H428L428.9 236.4C429.3 237 429.5 237.8 429.5 238.5C429.5 239.3 429.9 249.5 430.7 269.3L430.2 270.201C429.7 270.601 429.2 270.701 428.7 270.701ZM421.7 266C422.1 266 422.6 266 423.4 265.9C424.1 265.8 425.2 265.4 426.7 264.5L426.4 254.701C424.4 253.701 422.8 253.201 421.6 253.201C420.1 253.201 418.8 253.701 417.9 254.601C416.6 255.901 416 257.6 416 259.8C416 261.8 416.5 263.3 417.5 264.4C418.5 265.4 419.9 266 421.7 266Z" fill="#5F3720"/>
<path d="M460.003 271C459.503 270.9 459.103 270.7 458.803 270.4C458.503 270.1 458.303 269.7 458.203 269.2L458.303 239.9C458.303 238 458.903 237.1 460.103 237.1C460.803 237.1 461.603 237.5 462.403 238.2C465.103 243.2 468.503 250.5 472.803 260L472.903 238.7C473.103 237.6 473.703 237 474.803 237C475.003 237 475.403 237.1 476.003 237.4L476.403 238.3C476.403 251.6 476.503 259.4 476.603 261.7C476.703 264 476.803 266.4 476.903 268.8C476.503 269.9 476.003 270.4 475.203 270.4C474.803 270.4 474.303 270.2 473.803 269.9C471.603 265.3 467.703 257 462.203 245L461.903 269.4L461.403 270.3C460.903 270.8 460.503 271 460.003 271Z" fill="#5F3720"/>
<path d="M489.898 270.6C488.498 270.6 487.298 270.4 486.198 270C485.398 269.7 484.498 269 483.698 268C482.198 266.1 481.398 263.7 481.398 260.7V259.1C481.498 256 482.398 253.4 484.198 251.5C486.198 249.2 488.498 248 491.198 248C491.598 248 492.298 248.1 493.298 248.2C494.298 248.3 495.498 249.1 496.798 250.5C498.098 251.9 498.898 253.1 499.098 254.1C499.398 256.2 499.598 257.8 499.598 258.9C499.598 259.5 499.598 260.4 499.498 261.5C499.298 264.2 498.298 266.4 496.598 268.2C495.098 269.8 492.798 270.6 489.898 270.6ZM489.998 267.1C491.298 267.1 492.498 266.8 493.498 266.3C494.498 265.7 495.198 265 495.498 263.9C495.998 262.5 496.198 260.9 496.198 259.2C496.198 258.6 496.198 257.9 496.098 256.9C495.998 256 495.598 254.9 494.998 253.8C494.398 252.7 493.598 252.1 492.798 251.9C492.498 251.8 492.098 251.8 491.698 251.8C491.198 251.8 490.498 251.9 489.698 252.1C488.898 252.3 487.998 253 486.998 254.2C485.998 255.4 485.398 256.6 485.198 257.8C484.998 258.7 484.998 259.6 484.998 260.4C484.998 261.6 485.198 262.9 485.598 264.4C486.098 266.1 487.598 267.1 489.998 267.1Z" fill="#5F3720"/>
<path d="M513.198 271.601C512.498 271.601 511.798 271.101 510.998 270.201C508.098 264.601 505.898 258.001 504.398 250.501C504.498 250.001 504.598 249.601 504.898 249.201C505.298 248.901 505.798 248.801 506.298 248.801H506.598L507.498 249.201C508.198 252.101 508.998 255.001 509.798 257.801C510.598 260.701 511.798 263.501 513.198 266.301C514.298 263.601 515.498 260.901 516.698 258.301C517.898 255.701 519.098 253.001 520.098 250.301C520.498 249.901 520.998 249.701 521.598 249.701H521.798L522.698 250.201C522.998 250.601 523.198 251.101 523.198 251.601V251.901C522.098 255.001 520.798 258.101 519.398 261.101C517.998 264.201 516.598 267.201 515.098 270.301C514.398 271.201 513.798 271.601 513.198 271.601Z" fill="#5F3720"/>
<path d="M567.197 270.601L555.997 270.301C553.797 270.301 552.197 270.101 551.197 269.701C550.897 269.301 550.797 268.901 550.797 268.401V268.101L551.397 267.001C552.897 265.901 554.197 264.701 555.397 263.201C556.597 261.801 557.697 260.501 558.797 259.301C562.597 255.201 564.497 251.801 564.497 249.101C564.497 248.901 564.497 248.301 564.397 247.401C564.297 246.501 563.897 245.701 562.997 244.901C561.897 243.901 560.497 243.301 558.997 243.301C558.497 243.301 557.897 243.401 557.197 243.501C556.497 243.601 555.597 244.201 554.297 245.101C553.897 245.401 553.497 245.601 552.997 245.601H552.697L551.697 245.101C551.297 244.701 551.097 244.101 551.097 243.501C551.197 243.001 551.597 242.501 552.297 241.801C553.097 241.101 554.097 240.601 555.497 240.201C556.597 239.901 557.697 239.701 558.797 239.701L560.297 239.801C561.997 239.901 563.797 240.801 565.497 242.301C567.197 243.701 567.997 245.901 567.997 248.801C567.997 249.301 567.897 250.001 567.797 250.901C567.697 251.901 567.297 253.001 566.697 254.201C566.097 255.401 565.297 256.701 564.397 257.901C563.397 259.101 560.997 262.101 557.097 266.801L567.797 267.001L568.697 267.501C568.997 267.801 569.197 268.301 569.197 268.801V269.101L568.697 270.001C568.097 270.301 567.597 270.501 567.197 270.601Z" fill="#5F3720"/>
<path d="M582 269.701C580.5 269.701 579.3 269.401 578.4 268.801C575.7 267.201 574.1 264.501 573.4 260.801C572.8 257.601 572.5 255.001 572.5 252.901C572.5 252.201 572.5 251.301 572.6 250.001C572.6 248.701 572.9 247.301 573.5 245.601C574.4 242.801 576 240.501 578.5 238.501C579.9 237.401 581.4 236.801 583 236.801C583.2 236.801 583.6 236.801 584.1 236.801C584.7 236.801 585.3 237.001 586.2 237.201C587.1 237.401 587.9 238.001 588.7 239.001C589.5 240.001 590.3 241.201 590.9 242.801C591.5 244.401 591.9 246.001 592 247.801C592.1 249.001 592.1 250.201 592.1 251.501C592.1 252.101 592.1 253.101 592 254.501C592 255.801 591.6 257.701 591.1 260.201C590.5 262.601 589.6 264.701 588.3 266.201C587 267.801 585.8 268.801 584.8 269.201C583.8 269.601 583 269.701 582 269.701ZM576.4 257.801L578.2 253.201C581 247.501 583.3 243.401 585 240.701H583.9C581 240.701 578.9 242.301 577.5 245.501C576.5 247.801 576 250.101 576 252.301C576 253.701 576.2 255.501 576.4 257.801ZM581.6 266.201C584.9 266.201 587 263.401 587.9 257.801C588.2 255.601 588.4 253.601 588.4 251.701C588.4 248.401 588.1 245.801 587.4 243.801C585.3 246.901 583.5 250.201 582 253.501C580.5 256.801 579.1 260.201 577.8 263.701C578.4 264.701 579.1 265.401 580.1 265.801C580.6 266.101 581.1 266.201 581.6 266.201Z" fill="#5F3720"/>
<path d="M613.197 270.601L601.997 270.301C599.797 270.301 598.197 270.101 597.197 269.701C596.897 269.301 596.797 268.901 596.797 268.401V268.101L597.397 267.001C598.897 265.901 600.197 264.701 601.397 263.201C602.597 261.801 603.697 260.501 604.797 259.301C608.597 255.201 610.497 251.801 610.497 249.101C610.497 248.901 610.497 248.301 610.397 247.401C610.297 246.501 609.897 245.701 608.997 244.901C607.897 243.901 606.497 243.301 604.997 243.301C604.497 243.301 603.897 243.401 603.197 243.501C602.497 243.601 601.597 244.201 600.297 245.101C599.897 245.401 599.497 245.601 598.997 245.601H598.697L597.697 245.101C597.297 244.701 597.097 244.101 597.097 243.501C597.197 243.001 597.597 242.501 598.297 241.801C599.097 241.101 600.097 240.601 601.497 240.201C602.597 239.901 603.697 239.701 604.797 239.701L606.297 239.801C607.997 239.901 609.797 240.801 611.497 242.301C613.197 243.701 613.997 245.901 613.997 248.801C613.997 249.301 613.897 250.001 613.797 250.901C613.697 251.901 613.297 253.001 612.697 254.201C612.097 255.401 611.297 256.701 610.397 257.901C609.397 259.101 606.997 262.101 603.097 266.801L613.797 267.001L614.697 267.501C614.997 267.801 615.197 268.301 615.197 268.801V269.101L614.697 270.001C614.097 270.301 613.597 270.501 613.197 270.601Z" fill="#5F3720"/>
<path d="M632.8 270.602H632.5L631.6 270.102C631.1 269.102 630.9 268.101 630.9 266.801L630.8 258.401H620.8C619.8 258.401 619 258.302 618.4 258.202C617.8 258.102 617.5 257.402 617.5 256.102C618.4 253.002 619.7 250.001 621.6 247.301C623.4 244.501 626.2 241.101 629.9 236.901C630.6 236.301 631.3 236.102 631.9 236.102C632.6 236.102 633.3 236.501 633.8 237.401L634.1 254.901C635.5 254.701 636.6 254.602 637.3 254.602H637.6L638.5 255.102C638.8 255.502 638.9 256.001 638.9 256.501C638.9 256.701 638.8 257.102 638.5 257.702C637.4 258.202 636.1 258.401 634.8 258.401H634.3L634.6 269.202L634.1 270.102C633.8 270.402 633.4 270.602 632.8 270.602ZM630.6 255.001L630.3 241.901C626.7 245.701 623.8 250.101 621.7 255.001H630.6Z" fill="#5F3720"/>
<path d="M430.702 62.8003H430.202L428.602 62.0005C428.002 61.2005 427.702 60.2006 427.702 59.1006C429.302 40.0006 432.302 23.8005 436.902 10.5005L421.502 10.2007C422.602 15.2007 423.102 18.4003 423.102 19.8003L422.302 21.4004C421.702 21.9004 421.002 22.2007 420.002 22.2007H419.502L418.002 21.4004C417.202 19.5004 416.302 15.3003 415.302 8.80029C415.202 8.20029 415.102 7.60059 415.102 7.10059C415.102 5.60059 415.502 4.80059 416.402 4.60059C417.002 4.40059 419.702 4.40039 424.502 4.40039C435.802 4.40039 442.102 4.60049 443.502 5.00049C444.202 5.20049 444.602 6.00029 444.602 7.30029L444.402 8.70068C440.602 17.1007 438.002 25.8004 436.702 34.9004C435.402 44.0004 434.102 53.0005 432.902 62.0005C432.502 62.6005 431.702 62.8003 430.702 62.8003Z" fill="#5F3720"/>
<path d="M482.506 63.0005L463.306 62.5005C459.506 62.5005 456.806 62.2005 455.106 61.5005C454.606 60.9005 454.406 60.1007 454.406 59.2007V58.6006L455.406 56.7007C458.006 54.9007 460.306 52.7007 462.306 50.2007C464.306 47.7007 466.206 45.5005 468.106 43.5005C474.606 36.5005 477.806 30.6005 477.806 26.0005C477.806 25.6005 477.706 24.6007 477.606 23.2007C477.506 21.7007 476.706 20.3004 475.206 18.9004C473.306 17.1004 471.006 16.2007 468.206 16.2007C467.306 16.2007 466.306 16.3006 465.106 16.6006C463.906 16.8006 462.306 17.7003 460.206 19.3003C459.606 19.8003 458.806 20.1006 457.906 20.1006H457.406L455.706 19.2007C455.106 18.5007 454.706 17.5004 454.606 16.4004C454.706 15.6004 455.406 14.6005 456.706 13.5005C458.006 12.4005 459.806 11.5003 462.206 10.8003C464.106 10.2003 466.006 9.90039 467.806 9.90039L470.406 10.1006C473.406 10.3006 476.406 11.8004 479.406 14.4004C482.206 16.9004 483.706 20.6006 483.706 25.6006C483.706 26.4006 483.606 27.6003 483.406 29.3003C483.206 31.0003 482.606 32.8004 481.606 34.9004C480.606 37.0004 479.206 39.1007 477.606 41.2007C475.906 43.3007 471.706 48.4005 465.006 56.5005L483.306 56.8003L484.806 57.7007C485.306 58.3007 485.606 59.0005 485.606 60.0005V60.5005L484.806 62.0005C484.106 62.6005 483.306 62.9005 482.506 63.0005Z" fill="#5F3720"/>
<path d="M502.103 44.6001C500.203 44.3001 499.203 43.0999 499.203 40.8999C500.503 37.7999 501.803 34.6 503.003 31.5C504.203 28.3 505.903 25.3 507.903 22.5C508.703 21.9 509.703 21.6001 510.903 21.6001L512.503 22.3999C513.003 22.9999 513.303 23.9002 513.303 25.2002C511.303 28.0002 509.703 31.1002 508.403 34.2002C507.203 37.4002 505.803 40.5001 504.303 43.6001C503.703 44.1001 503.003 44.5001 502.103 44.6001ZM528.303 67.7998H527.803C525.703 67.1998 522.903 65.6 519.203 63C518.703 62.4 518.403 61.5002 518.403 60.2002L519.203 58.6001C519.903 58.1001 520.903 57.8999 522.103 57.8999L525.303 59.7002L524.703 5.3999C525.003 3.4999 526.003 2.5 527.903 2.5C528.203 2.5 528.903 2.7002 530.003 3.2002C530.503 6.2002 530.803 9.2999 530.903 12.3999C531.003 15.5999 531.203 33.2002 531.503 65.2002C530.703 66.9002 529.603 67.7998 528.303 67.7998ZM556.503 43.6001H556.003L554.403 42.7998C552.503 39.4998 550.203 36.3999 547.703 33.3999C545.203 30.3999 543.303 27.1001 542.003 23.6001L542.803 22.1001C543.403 21.6001 544.303 21.2998 545.603 21.2998L547.103 22.1001C549.103 25.4001 551.403 28.5 553.903 31.5C556.403 34.5 558.303 37.7998 559.603 41.2998L558.803 42.7998C558.103 43.3998 557.403 43.6001 556.503 43.6001Z" fill="#5F3720"/>
<path d="M575.8 52.2012C574.3 52.1012 573.5 51.6011 573.2 50.6011C573.1 50.1011 573 48.5009 573 45.9009C573 43.3009 573.1 38.501 573.3 31.501C573.5 24.501 573.6 19.801 573.6 17.501C573.6 15.201 574.4 13.8009 575.9 13.4009C577.5 13.0009 580.9 12.8008 586.3 12.8008C591.7 12.8008 594.9 12.9011 595.9 13.1011C597 13.3011 597.6 13.9008 597.9 14.8008C598.2 16.0008 598.4 25.0012 598.5 41.7012C598.5 46.0012 598.4 48.6011 598.1 49.6011C597.9 50.5011 597.1 51.101 595.9 51.501C594.9 51.801 588.1 52.1012 575.8 52.2012ZM579.5 46.1011L592.3 45.8008L592.5 35.1011L579.2 35.3008L579.5 46.1011ZM579.3 29.1011L592.4 29.001L592.1 19.1011L579.6 19.3008L579.3 29.1011ZM630.3 70.6011H629.7C626.2 69.6011 622.8 67.8012 619.4 65.2012C618.9 64.6012 618.7 63.6009 618.7 62.4009L619.4 60.9009C620.1 60.4009 621.1 60.1011 622.3 60.1011C623.9 61.0011 625.5 61.9012 627 62.7012L626.8 22.1011L605.5 22.4009C603.6 22.1009 602.6 20.9012 602.6 18.7012L603.4 17.1011L605 16.3008L627 16.001L626.8 2.60107L627.6 1.00098C628.2 0.500977 629.1 0.201172 630.4 0.201172L632 1.00098C632.7 1.90098 633 3.00107 633 4.10107V16.001L639.2 15.8008L641.3 16.7012C641.8 17.3012 642 18.101 642 19.001C642 19.301 641.8 19.9011 641.3 21.1011C640.2 21.6011 639 21.9009 637.8 21.9009L635.7 21.8008C634.7 21.8008 633.8 21.901 632.9 22.001L633.2 68.2012C632.9 69.7012 632 70.6011 630.3 70.6011ZM615.6 53.6011H615.1L613.5 52.8008L607.8 46.6011C607.3 45.9011 607 44.9012 607 43.7012L607.8 42.1011C608.4 41.6011 609.2 41.4009 610.1 41.4009C611.4 41.4009 613.8 43.7012 617.5 48.2012C618.2 48.9012 618.6 49.9008 618.6 51.3008L617.8 52.8008C617.2 53.4008 616.5 53.6011 615.6 53.6011Z" fill="#5F3720"/>
<path d="M133.403 152.201C132.003 151.801 127.903 149.401 121.103 144.901C120.603 144.301 120.403 143.401 120.403 142.101L121.103 140.601C121.703 140.101 122.503 139.801 123.503 139.801C123.803 139.801 126.103 140.801 130.403 142.701L130.603 124.701H103.003C101.903 123.701 101.403 122.701 101.403 121.701C101.403 120.801 101.903 119.801 103.003 118.901H130.503V111.401L100.603 111.901C99.3031 111.001 98.7031 110.101 98.7031 109.101C98.7031 108.201 99.3031 107.101 100.503 106.001L122.503 105.601L118.803 93.7012C112.203 93.7012 107.603 93.6009 105.103 93.4009C103.603 92.9009 102.803 92.0009 102.803 90.9009C102.803 90.0009 103.303 88.801 104.203 87.501L129.903 88.1011L129.503 81.1011L130.503 80.2012C131.203 79.5012 131.903 79.2012 132.603 79.2012C133.203 79.2012 133.903 79.5011 134.603 80.1011C135.303 81.2011 135.703 82.3011 135.703 83.6011L135.603 84.501L136.003 88.2012L159.103 88.7012C160.003 89.6012 160.403 90.501 160.403 91.501C160.403 92.501 159.903 93.501 159.003 94.501H148.303L146.503 105.401C154.903 105.401 160.703 105.501 163.703 105.601C165.203 106.201 166.003 107.001 166.003 108.101C166.003 108.701 165.703 109.401 165.203 110.201C164.503 110.901 163.603 111.301 162.603 111.301C162.203 111.301 161.803 111.201 161.403 111.101L136.303 111.301V119.401H162.003C163.503 120.301 164.303 121.301 164.303 122.301C164.303 123.201 163.603 124.101 162.203 125.101L136.103 125.301L136.503 149.901C136.103 151.401 135.103 152.201 133.403 152.201ZM108.703 143.801H108.303L106.803 143.001C106.303 142.401 106.003 141.401 106.003 140.201C107.603 137.101 110.103 133.601 113.303 129.501C114.003 128.801 114.903 128.501 116.003 128.501L116.603 128.601L118.103 129.401C118.603 130.001 118.903 131.001 118.903 132.201C115.703 136.301 113.203 139.801 111.203 142.901C110.603 143.401 109.703 143.801 108.703 143.801ZM128.403 105.701L140.403 105.201L142.503 94.1011L124.903 93.9009L128.403 105.701ZM156.703 143.501H156.203C154.603 142.601 153.003 141.401 151.503 140.001C150.003 138.601 148.303 137.301 146.603 136.101L144.903 134.101L144.703 132.301L145.503 130.701C146.203 130.201 147.203 129.901 148.403 129.901L159.003 138.101C159.503 138.801 159.803 139.801 159.803 141.101L159.003 142.601C158.303 143.301 157.603 143.501 156.703 143.501Z" fill="#5F3720"/>
<path d="M212.6 149.4C209.7 148.3 206.4 146 202.6 142.3C202.1 141.7 201.8 140.8 201.8 139.5L202.6 138C203.2 137.5 204 137.201 204.9 137.201C205.8 137.201 207.1 138 208.6 139.5C209.5 140.6 210.6 141.4 211.7 141.9L213.2 137.3C213.8 135.2 214.1 132.4 214.1 128.8C214.1 126.3 214 123.3 213.7 119.9L182.4 120.4L180.9 119.601C180.3 118.901 180 117.901 180 116.701L180.8 115.201C182.2 114.501 183.7 114.201 185.4 114.201L186.7 114.3L212.4 113.8C211.8 112.3 211.2 110.8 210.8 109.5C210.4 108.2 209.3 106.601 207.5 104.701C206.9 103.901 206.6 103.1 206.6 102.3C206.6 101.6 206.9 100.901 207.5 100.201C209.6 99.0007 211.5 97.4005 213.2 95.5005C214.9 93.6005 216.7 91.9004 218.4 90.4004L194.9 90.9004C192.9 90.6004 191.9 89.6007 191.9 87.7007V87.2007L192.8 85.7007C194.6 85.0007 196.6 84.5004 198.6 84.4004H226C227.8 84.7004 228.8 85.5006 228.8 86.6006C228.8 87.1006 228.6 87.6003 228.3 88.3003C225.2 92.2003 222.6 95.0003 220.5 96.8003C218.3 98.6003 216.3 100.501 214.4 102.701L218.9 113.701L242.9 113.5L244.6 114.4C245.1 115.1 245.4 116.1 245.4 117.3L244.6 118.9C243 119.5 241.2 119.8 239.3 119.8C238.3 119.7 231.8 119.701 219.9 119.701C220.2 122.301 220.3 124.801 220.3 127.201C220.3 128.701 220.2 130.8 219.9 133.3C219.7 135.9 219.2 138.4 218.4 141C217.7 143.6 216.7 145.6 215.6 147C214.5 148.4 213.5 149.3 212.6 149.4Z" fill="#5F3720"/>
<path d="M277.1 150.101H276.6L275.1 149.301C274.4 147.601 274 145.701 274 143.601C274 141.501 273.9 137.801 273.8 132.201C272 134.401 270.1 136.501 268.2 138.601C266.3 140.601 264.5 142.701 262.8 144.901C262.2 145.401 261.4 145.601 260.5 145.601C260.2 145.601 259.6 145.401 258.4 144.901C257.8 144.301 257.5 143.501 257.5 142.601L257.6 141.801C259.8 138.901 262.2 136.101 264.9 133.301C267.6 130.501 269.7 127.601 271.2 124.401H263.6C261.7 124.101 260.7 122.901 260.7 120.701L261.5 119.101L263.1 118.401L272.9 118.201L272.7 113.501C273 111.601 274.2 110.601 276.5 110.601L278.1 111.401C278.6 112.101 278.9 112.901 278.9 113.801V118.101L288.4 117.901C289.6 117.901 290.7 118.201 291.6 118.801C292.1 119.401 292.4 120.401 292.4 121.601L291.6 123.101C290.7 123.801 289.6 124.101 288.4 124.101C287.8 124.001 285.2 124.001 280.6 123.901C282.1 125.301 283.5 126.701 284.9 128.101C286.3 129.501 287.7 130.701 289.3 131.601C289.8 132.201 290 132.901 290 133.801C290 134.101 289.8 134.801 289.3 135.901C288.7 136.501 287.9 136.801 287 136.801C286.1 136.801 284.8 136.001 283 134.401L279.8 131.801C280.1 137.801 280.2 142.301 280.2 145.201L280.1 147.601L279.4 149.101C278.8 149.801 278 150.101 277.1 150.101ZM291.3 111.601H290.8L289.3 110.801C288.5 108.901 288 106.701 288 104.501C287.9 102.201 287.9 100.001 287.9 97.7012C284.2 100.201 280.8 102.801 277.6 105.601C274.4 108.401 270.8 110.201 266.7 111.201L265.1 110.401C264.6 109.801 264.3 108.801 264.3 107.601L265.1 106.001C268.7 104.501 272 102.401 275.1 99.8008C278.2 97.2008 281.4 94.5011 284.6 91.6011L272.3 92.2012C270.2 91.9012 269.1 90.8008 269.1 88.8008V88.3008L269.9 86.7012C270.5 86.2012 271.2 85.9008 272.1 85.8008L287 85.3008L286.8 82.6011C287.1 80.7011 288.3 79.7012 290.5 79.7012L292.1 80.501C292.7 81.601 293 82.8011 293 84.1011L292.9 85.2012L311.7 84.6011L313.7 85.501C314.2 86.101 314.5 87.0008 314.5 88.3008L313.7 89.8008C312.9 90.3008 312 90.6012 311.1 90.7012L295.3 90.9009C299 93.1009 302.7 95.2012 306.4 97.2012C310.1 99.2012 314 101.001 317.9 102.401C318.4 103.001 318.7 104.001 318.7 105.201L317.9 106.701C317.2 107.201 316.2 107.501 315 107.501C311.2 106.301 307.6 104.801 304.3 102.901C300.9 101.001 297.4 99.2011 293.8 97.6011L294.3 109.101L293.5 110.701C293 111.301 292.2 111.601 291.3 111.601ZM312.2 149.901C311.3 149.801 310.5 149.501 309.9 149.001C309.3 147.901 309 146.801 309 145.501C309 142.801 308.9 138.101 308.6 131.401C304.6 136.501 302.1 139.701 301 141.201C299.9 142.601 298.6 144.001 297.2 145.301L295.4 145.401L293.8 144.701C293.3 144.101 293.1 143.101 293.1 141.901C295.3 139.001 297.4 136.101 299.6 133.301C301.8 130.501 303.8 127.601 305.6 124.601H298.3C296.4 124.301 295.4 123.101 295.4 120.901L296.2 119.301L297.7 118.601H308.4L307.9 112.301C308.2 110.301 309.5 109.301 311.8 109.301L313.3 110.101C313.9 111.301 314.2 112.501 314.2 113.901C314.2 115.901 314.3 117.501 314.4 118.601H323.5L325.1 119.301C325.6 119.901 325.9 120.901 325.9 122.101L325.1 123.601C324.4 124.101 323.6 124.401 322.7 124.501H316.4C322.7 130.701 325.9 134.601 325.9 136.401L325.1 138.001C324.4 138.501 323.5 138.701 322.7 138.701C322.4 138.701 321.8 138.501 320.6 138.001L314.8 131.901L315.4 147.401L314.6 148.901C313.8 149.501 313 149.801 312.2 149.901Z" fill="#5F3720"/>
<path d="M341.402 147.101C339.502 146.801 338.602 145.801 338.602 144.001C338.602 143.701 338.802 143.101 339.302 141.901C343.902 138.501 348.602 136.101 353.302 134.601L354.802 135.301C355.302 136.001 355.602 136.901 355.602 138.101L354.802 139.501C352.602 140.901 350.302 142.201 348.102 143.401C345.702 144.701 343.502 145.901 341.402 147.101ZM353.502 109.801L342.002 108.801C340.102 108.501 339.202 107.501 339.202 105.601C339.202 105.301 339.402 104.701 339.902 103.601L341.502 102.801C348.802 103.001 353.502 103.601 355.702 104.701C356.202 105.301 356.502 106.201 356.502 107.401L355.702 108.901C355.102 109.401 354.302 109.701 353.502 109.801ZM356.202 92.3008C353.702 91.7008 351.102 91.201 348.402 91.001C345.702 90.801 343.202 90.2008 340.702 89.3008C340.202 88.7008 339.902 87.8011 339.902 86.6011L340.702 85.2012C341.402 84.6012 342.202 84.3008 343.102 84.3008L344.002 84.4009C346.402 84.8009 348.802 85.201 351.302 85.501C353.802 85.801 356.202 86.3011 358.602 87.1011C359.102 87.7011 359.302 88.6008 359.302 89.8008L358.602 91.3008C357.902 91.8008 357.102 92.1008 356.202 92.3008ZM369.202 148.001C367.902 148.001 367.202 147.601 366.902 146.801C366.602 146.001 366.202 142.601 365.602 136.601C365.002 130.601 364.502 125.601 364.102 121.401C364.202 119.501 364.802 118.301 366.202 118.001C367.502 117.701 371.902 117.501 379.402 117.401V110.201C372.502 109.801 368.202 109.601 366.402 109.601C364.702 109.601 363.202 109.301 362.102 108.701C361.602 108.101 361.302 107.101 361.302 105.901L362.102 104.501C362.702 103.901 363.502 103.601 364.502 103.601L379.202 104.101V92.6011L369.502 94.3008C367.602 94.0008 366.702 93.0012 366.702 91.2012V90.6011L367.402 89.1011C371.602 88.2011 375.802 87.2012 379.902 86.2012C384.002 85.2012 388.302 84.5012 392.602 84.2012L394.202 85.001C394.702 85.501 394.902 86.2011 394.902 87.1011C394.902 87.4011 394.702 88.0011 394.202 89.1011C392.802 89.8011 389.902 90.4011 385.302 91.1011L385.102 103.701H400.702L402.102 104.501C402.602 105.101 402.902 106.001 402.902 107.201L402.102 108.701C401.502 109.201 400.702 109.501 399.902 109.601H385.002L385.202 117.301H397.402C398.602 117.401 399.302 118.101 399.602 119.501C399.102 135.101 398.802 143.701 398.702 145.101C398.502 146.501 397.402 147.301 395.302 147.301L369.202 148.001ZM371.702 141.901L392.802 141.701L393.702 123.301L369.902 123.601C370.402 126.801 371.002 132.901 371.702 141.901Z" fill="#5F3720"/>
<path d="M429.1 150.601C427.3 150.601 425.6 149.801 424 148.101C423.1 146.701 422 145.5 420.8 144.3C419.6 143.1 419 141.701 418.9 140.101L419.7 138.601C420.3 138.101 421.3 137.8 422.5 137.8L424.4 139L425.9 140.601L426.1 124.5L415.4 127.101C413.5 126.801 412.5 125.6 412.5 123.4L413.3 121.9C415.4 121.1 417.5 120.4 419.6 119.8C421.8 119.3 423.9 118.701 426.1 118.101L425.5 97.2007L417.2 97.5005C415.3 97.2005 414.3 96.2003 414.3 94.3003V93.7007L415 92.2007C415.7 91.6007 416.6 91.3003 417.7 91.3003L425.5 91.1006L425.2 84.0005C425.5 81.6005 426.6 80.4004 428.7 80.4004H429.2L430.8 81.2007C431.3 81.9007 431.6 82.7006 431.6 83.6006L431.5 84.5005L431.7 90.7007C432.4 90.6007 433.1 90.5005 433.8 90.5005C435.6 90.5005 437.3 90.8004 438.9 91.4004C439.4 92.0004 439.7 93.0007 439.7 94.2007L438.9 95.9004C437.4 96.6004 435.7 96.9004 433.8 96.9004C433.1 96.9004 432.4 96.8007 431.7 96.7007L432.2 116L433 115.9C435.2 115.9 436.2 117.001 436.2 119.101V119.601L435.4 121.201C434.5 121.901 433.5 122.3 432.3 122.4L432.6 148.201C431.7 149.801 430.6 150.601 429.1 150.601ZM444.6 149.8L443.1 149C442.6 148.4 442.3 147.501 442.3 146.201L443.2 144.5C444.4 143.7 445.4 142.6 446.1 141.5C446.8 140.3 447.7 138.8 448.7 136.8C449.7 134.9 450.4 132.4 450.8 129.4C451.1 126.4 451.5 123.4 451.9 120.4C449.7 121.2 447.9 122.4 446.3 123.9C444.7 125.4 442.8 126.301 440.7 126.601L439.1 125.8C438.6 125.2 438.3 124.3 438.3 123L439.1 121.5C441.3 120 443.4 118.5 445.5 117C447.6 115.5 449.9 114.4 452.5 113.9C452.8 109.8 452.9 106 452.9 102.4L452.7 85.0005C453 83.1005 454 82.1006 455.9 82.1006H456.5L458 82.8003C458.6 84.3003 458.9 85.9006 458.9 87.6006C458.9 89.3006 458.8 94.4004 458.7 102.9C458.5 111.4 458.1 119.4 457.4 126.8C456.7 134.3 454.8 140 451.7 143.9C448.6 147.8 446.3 149.8 444.6 149.8ZM446.8 108.101H446.3L440.5 104.201C440 103.601 439.7 102.6 439.7 101.4L440.5 99.8003C441.2 99.3003 442 99.0005 442.9 99.0005C444 99.0005 446 100.201 449.1 102.701C449.6 103.401 449.9 104.401 449.9 105.701L449.1 107.201C448.5 107.801 447.7 108.101 446.8 108.101ZM483.3 148.8C480.5 148.8 477.8 148.401 475.2 147.701C473.3 147.201 471.1 145.5 468.6 142.4C466.1 139.4 464.8 135.2 464.7 130C464.4 114 464 99.5006 463.5 86.6006C463.8 84.7006 465 83.7007 467.2 83.7007L468.8 84.5005C469.4 85.3005 469.7 86.3003 469.7 87.3003C469.9 100.3 470.1 109.2 470.3 113.8C470.5 118.5 470.6 123.1 470.7 127.5C470.7 132 471.7 135.6 473.6 138.3C475.5 141 477.8 142.4 480.6 142.4L480.3 138.101L481 136.5C481.6 136 482.6 135.701 483.8 135.701L485.3 136.5C486.2 138.6 486.6 141.301 486.6 144.701L486.5 146.701C486.5 148.201 485.4 148.8 483.3 148.8ZM482.2 126.4H481.7L480.2 125.601L472.9 117C472.4 116.3 472.1 115.301 472.1 114.101L472.9 112.5C473.5 112 474.5 111.8 475.7 111.8C478.4 114.4 480.2 116.3 481.1 117.4C482 118.6 482.9 119.601 483.9 120.601C484.8 121.501 485.3 122.701 485.3 124.201L484.5 125.701C483.9 126.101 483.2 126.4 482.2 126.4ZM475.4 105.8H474.8L473.3 105.101C472.8 104.401 472.5 103.401 472.5 102.201C473.3 100.301 474.8 98.1007 476.8 95.7007C477.5 95.0007 478.5 94.7007 479.9 94.7007L481.4 95.6006C481.9 96.2006 482.2 97.1004 482.2 98.4004C480.1 101.1 478.6 103.401 477.5 105.201C477 105.601 476.2 105.8 475.4 105.8Z" fill="#5F3720"/>
<path d="M523.906 142.901L504.706 142.301L501.206 142.401C498.706 142.401 496.906 142.301 496.006 142.001C495.106 141.801 494.506 140.701 494.206 138.901C493.906 137.101 493.706 130.502 493.406 119.202V118.602C493.406 117.202 493.906 116.401 495.006 116.001C496.106 115.601 500.206 115.401 507.406 115.401L507.206 86.9014C507.306 85.8014 507.706 84.8013 508.306 83.8013C508.906 83.3013 509.906 83.0015 511.106 83.0015L512.706 83.8013C513.206 84.6013 513.506 85.5015 513.506 86.5015C513.406 87.1015 513.406 89.8017 513.306 94.7017C518.206 94.7017 521.106 94.7016 522.106 94.6016C524.206 94.6016 526.206 95.0013 527.906 95.8013C528.406 96.4013 528.706 97.3016 528.706 98.6016L527.906 100.102C526.306 100.702 524.506 101.001 522.606 101.001C521.906 101.001 521.206 100.901 520.506 100.801L513.306 100.602L513.406 115.102C518.606 115.102 522.606 115.401 525.306 115.901C526.506 116.101 527.006 117.401 527.006 119.801C526.806 124.201 526.706 128.701 526.506 133.301C526.306 137.901 526.106 140.601 525.806 141.401C525.806 142.501 525.006 142.901 523.906 142.901ZM520.506 136.702L521.006 121.702H499.506L500.006 136.401L520.506 136.702ZM554.706 149.801C553.906 149.701 552.906 149.002 551.706 147.702C550.606 146.402 549.706 144.801 549.006 142.901C548.306 141.001 547.706 139.102 547.206 137.102C544.106 139.002 540.306 141.802 535.706 145.202C535.006 146.002 533.906 146.501 532.606 146.501L531.006 145.702C530.506 145.102 530.206 144.201 530.206 142.901L531.006 141.401L545.106 130.501C544.406 126.401 543.606 122.501 542.806 118.801C542.006 115.101 541.506 111.402 541.206 107.602L530.206 108.401L528.706 107.602C528.206 106.902 527.906 105.902 527.906 104.702L528.706 103.102C530.406 102.402 532.306 102.001 534.406 101.901C536.506 101.801 538.506 101.702 540.406 101.602C540.006 98.4016 539.706 92.5014 539.506 83.9014L540.206 82.4014C540.906 81.9014 541.906 81.6016 543.106 81.6016L544.706 82.4014L545.506 83.9014L546.406 101.001L557.606 100.401L559.206 101.202C559.706 101.802 559.906 102.601 559.906 103.501C559.906 103.801 559.706 104.402 559.206 105.602C557.306 106.302 555.306 106.702 553.306 106.702C551.206 106.802 549.206 106.902 547.106 107.102C547.406 110.402 547.906 113.501 548.506 116.401C549.106 119.301 549.706 122.202 550.306 125.102C553.506 121.302 555.806 118.601 557.306 117.001L559.206 116.801L560.706 117.602C561.206 118.302 561.506 119.301 561.506 120.501C557.306 126.201 554.206 130.302 552.106 132.702L554.706 141.301L557.106 138.501C557.706 138.001 558.706 137.702 559.906 137.702L561.506 138.501C562.006 139.101 562.306 140.001 562.306 141.301C561.606 142.501 560.806 143.701 560.106 144.801C558.206 147.901 556.306 149.601 554.706 149.801ZM555.506 97.5015H555.006L553.306 96.6016C552.306 95.3016 551.306 93.9015 550.306 92.5015C549.306 91.1015 548.706 89.6014 548.506 87.9014L549.306 86.3013C549.906 85.8013 550.806 85.6016 552.106 85.6016L553.806 86.5015L557.806 92.3013C558.306 93.0013 558.606 94.0013 558.606 95.3013L557.806 96.8013C557.206 97.3013 556.406 97.5015 555.506 97.5015Z" fill="#5F3720"/>
<path d="M616.4 95.2998H615.9L614.4 94.5C613.9 93.7 613.6 92.7999 613.5 91.8999H601.3C601.3 92.8999 601 93.6998 600.5 94.2998C599.9 94.7998 598.9 95.1001 597.7 95.1001L596.1 94.2998L595.2 91.8999L578.9 91.7002C577 91.4002 576 90.4 576 88.5C576 88.2 576.2 87.5999 576.7 86.3999L578.3 85.7002L594.3 85.8999L593.7 83.3999C594 81.4999 595.2 80.5 597.4 80.5L599 81.2998C599.9 82.5998 600.4 84.0998 600.5 85.7998L614.6 86L614.5 85C614.5 82.2 615.6 80.7002 617.8 80.7002H618.3L619.8 81.5C620.4 82.4 620.7 83.4001 620.7 84.6001C620.7 85.1001 620.6 85.5 620.5 86L636 86.2002L637.6 87C638.1 87.6 638.4 88.5998 638.4 89.7998L637.6 91.3999C636.9 91.8999 636.1 92.1998 635.3 92.2998L619.4 92V92.5C619.5 94.4 618.4 95.2998 616.4 95.2998ZM632.4 113C632.1 113 631.5 112.8 630.3 112.3C629.7 111.5 629.4 110.5 629.4 109.3L631 104.4L583.3 103.6L584.2 110.6L583.4 112.2C582.7 112.7 582 113 581.1 113.1C580.3 113 579.5 112.7 579 112.2C578.2 110.6 577.5 107 577.1 101.4V100.7C577.1 98.7002 578 97.7002 579.9 97.7002C616.3 98.0002 635.4 98.3 637.1 98.5C638 98.7 638.4 99.2002 638.4 100.2C638.4 100.9 638.1 101.9 637.6 103.2C636.2 107.8 635.3 110.9 634.7 112.4C634.1 112.7 633.3 113 632.4 113ZM625.4 149.1L589.5 148.8L588.6 148.9C587.1 148.9 586.4 148.1 586.4 146.5L586.5 145.8L586 131C586.2 129.2 586.8 128.3 588 128.2C592.3 128.2 605.4 128.4 627.3 128.7H627.9C629.3 128.7 630 129.4 630 130.7C630 131.1 629.9 131.6 629.8 132.1C629.4 140.6 629.1 145.5 628.9 147C628.8 148.4 627.6 149.1 625.4 149.1ZM619.4 125.1L594.5 125L593.5 125.1C592.1 125.1 591.3 124.4 591.3 123C591.1 116.8 590.9 112.3 590.6 109.3C590.6 107.6 591.7 106.8 594 106.8H594.9C611.6 107 620.8 107.2 622.3 107.4C623.4 107.6 624 108.3 624 109.5C624 109.9 623.9 110.3 623.8 110.8C623.5 118 623.4 122.1 623.4 123.2C623.3 124.5 622 125.1 619.4 125.1ZM623.2 142.8L623.8 134.7L592.2 134.2V142.7H623.2V142.8ZM617.2 119.1L617.7 113.1L597 112.8L597.3 119L617.2 119.1Z" fill="#5F3720"/>
</svg>
