<svg width="1007" height="3368" viewBox="0 0 1007 3368" fill="none" xmlns="http://www.w3.org/2000/svg">
<g opacity="0.8">
<path d="M1037.6 293.398H-22.6953V3368H1037.6V293.398Z" fill="#F9D681"/>
<path d="M238.102 396.2C223.302 402.9 169.202 434.2 86.9017 418.7C-12.9983 399.8 -21.4983 312.399 -23.7983 287.299C-32.1983 195.099 13.6017 129.199 68.3017 85.3994C224.902 -40.2006 435.902 3.1996 516.702 27.5996C600.902 52.9996 670.002 107.3 752.402 136.7C804.702 155.3 861.902 163.499 918.302 160.399C944.002 158.999 970.302 155.299 995.202 160.899C1047.4 172.699 1078.6 225.2 1071.2 272.2C1063.7 319.2 1025 358.9 978.802 383.6C914.102 418.2 840.402 446.8 766.702 456.1C686.702 466.2 597.402 459.8 521.402 436.2C495.002 428 470.402 415.999 444.502 406.799C390.602 387.599 309.002 371.3 252.202 390.6C247.302 392.2 242.602 394.1 238.102 396.2Z" fill="#F9D681"/>
</g>
</svg>
