<svg width="1920" height="1564" viewBox="0 0 1920 1564" fill="none" xmlns="http://www.w3.org/2000/svg">
<path d="M1960.5 0.699219L-19.2969 86.3989L-23.7969 1134.6L1956 1049L1960.5 0.699219Z" fill="#F9D681"/>
<path d="M484.101 688.099C458.601 668.599 369.001 583 204.901 583.2C5.90079 583.4 -48.4992 760.399 -63.6992 811.099C-119.699 997.799 -60.7992 1151.3 24.6008 1262.9C269.401 1582.4 691.401 1574.7 856.501 1555.7C1028.4 1535.9 1184.1 1450.8 1354.4 1422.3C1462.5 1404.2 1575.3 1409.5 1681.8 1437.7C1730.3 1450.6 1778.9 1468.3 1829 1466.4C1933.9 1462.3 2016.4 1366.2 2022.5 1266.5C2028.6 1166.8 1971.9 1070 1894.4 1001.3C1785.8 904.999 1657.4 817.6 1520.5 769.7C1372 717.8 1198.7 696.5 1043 715.7C989.001 722.4 936.701 737.499 883.201 746.499C771.901 765.199 608.801 767.199 508.701 705.399C499.901 699.899 491.801 693.999 484.101 688.099Z" fill="#F9D681"/>
</svg>
