<svg width="309" height="241" viewBox="0 0 309 241" fill="none" xmlns="http://www.w3.org/2000/svg">
<path d="M11.5938 93.8984H5.49377C3.59377 93.7984 2.3937 93.6985 1.7937 93.6985C1.1937 93.6985 0.893726 93.3984 0.693726 92.9984C0.693726 92.8984 0.59375 92.1984 0.59375 90.8984C0.59375 87.9984 0.693799 82.0985 0.893799 73.2985C0.893799 72.8985 1.0937 72.4985 1.2937 72.1985C1.4937 71.9985 1.89373 71.8984 2.19373 71.8984H2.3938L2.99377 72.1985C3.19377 72.4985 3.2937 72.7985 3.2937 73.1985V73.4984L2.8938 91.1985L12.3938 91.4984L12.9938 91.7985C13.1938 91.9985 13.2937 92.2985 13.2937 92.6985V92.8984L12.9938 93.4984C12.6938 93.6984 12.1938 93.8984 11.5938 93.8984Z" fill="#020202" stroke="black" stroke-width="0.75" stroke-miterlimit="10"/>
<path d="M22.6937 94.1992C21.9937 94.0992 21.2937 93.8992 20.5938 93.5992C19.8937 93.2992 19.1938 92.6992 18.4938 91.8992C17.7938 91.0992 17.2938 89.9992 16.9938 88.5992C16.7938 87.3992 16.5938 86.3992 16.5938 85.3992V84.2992C16.6938 82.4992 17.1937 81.0992 18.1937 80.0992C19.3937 78.7992 20.7937 78.1992 22.2937 78.1992C22.3937 78.1992 22.6937 78.1992 23.1937 78.2992C23.6937 78.2992 24.1937 78.4992 24.7937 78.6992C25.3937 78.8992 26.0938 79.4991 26.9938 80.4991C27.8938 81.4991 28.3938 82.5992 28.5938 83.7992C28.7937 84.9992 28.8938 85.8992 28.8938 86.3992C28.8938 86.8992 28.7938 87.1992 28.4938 87.2992C28.1938 87.3992 25.1937 87.4992 19.2937 87.5992C19.4937 88.9992 19.9937 90.0992 20.6937 90.6992C21.4937 91.4992 22.4938 91.8992 23.4938 91.8992C23.5938 91.8992 23.7937 91.8992 24.1937 91.8992C24.5937 91.8992 24.9937 91.6992 25.5938 91.2992C26.1938 90.8992 26.7938 90.6991 27.3938 90.4991L27.9938 90.7992C28.1938 91.0992 28.2937 91.3992 28.2937 91.7992V91.9991L27.9938 92.5992C27.0938 93.2992 26.1938 93.7991 25.3938 93.9991C24.5938 94.0991 23.6937 94.1992 22.6937 94.1992ZM18.9938 85.1992L26.4938 84.8992C26.3938 83.2992 25.9937 82.0991 25.2937 81.4991C24.5937 80.8991 23.6937 80.4991 22.5938 80.4991C22.3938 80.4991 22.0938 80.4992 21.5938 80.5992C21.1937 80.6992 20.7937 80.9992 20.2937 81.3992C19.8937 81.8992 19.4938 82.3992 19.3938 82.8992C19.1938 83.4992 18.9938 84.2992 18.9938 85.1992Z" fill="#020202" stroke="black" stroke-width="0.75" stroke-miterlimit="10"/>
<path d="M43.2921 94.2992C42.9921 94.2992 42.6922 94.0992 42.4922 93.8992L42.0922 93.1992C40.6922 93.7992 39.4921 94.0992 38.2921 94.0992C38.1921 94.0992 37.9922 94.0992 37.4922 94.0992C37.0922 94.0992 36.4921 93.8992 35.7921 93.5992C35.0921 93.2992 34.4922 92.7992 33.8922 92.2992C32.9922 91.4992 32.4922 90.2992 32.4922 88.6992C32.4922 88.4992 32.4922 88.0992 32.5922 87.5992C32.6922 86.2992 33.2921 85.0992 34.2921 84.0992C35.1921 83.1992 36.3921 82.7992 37.6921 82.7992C38.5921 82.7992 39.3921 82.9992 40.2921 83.2992C40.2921 82.4992 39.9922 81.9992 39.4922 81.5992C38.4922 80.8992 37.5921 80.5992 36.6921 80.5992C36.3921 80.5992 36.0922 80.6992 35.5922 80.7992C35.1922 80.8992 34.6921 80.9991 34.1921 80.9991L33.4922 80.6992C33.2922 80.4992 33.1921 80.0992 33.1921 79.7992V79.5992L33.5922 78.8992C34.2922 78.3992 35.0921 78.1992 36.1921 78.1992C36.6921 78.1992 37.1921 78.2992 37.7921 78.3992C38.3921 78.4992 39.1921 78.7992 40.1921 79.2992C41.1921 79.7992 41.9922 80.5992 42.3922 81.5992C42.7922 82.5992 43.0922 84.2992 43.0922 86.6992C43.0922 89.0992 43.5922 91.2992 44.4922 93.3992L44.1921 93.9991C43.8921 94.0991 43.5921 94.2992 43.2921 94.2992ZM38.2921 91.7992C38.9921 91.7992 39.6921 91.5992 40.2921 91.2992L41.1921 90.5992C41.0921 89.8992 40.9921 88.5992 40.7921 86.7992C39.9921 85.6992 38.9922 85.1992 38.0922 85.1992C38.0922 85.1992 37.7921 85.1992 37.2921 85.1992C36.7921 85.1992 36.2922 85.3992 35.8922 85.8992C35.2922 86.4992 34.9922 87.3992 34.9922 88.5992C34.9922 88.7992 34.9922 89.0992 34.9922 89.3992C34.9922 89.6992 35.1922 90.0991 35.5922 90.4991C35.9922 90.8991 36.4922 91.1992 36.9922 91.3992C37.4922 91.6992 37.8921 91.7992 38.2921 91.7992Z" fill="#020202" stroke="black" stroke-width="0.75" stroke-miterlimit="10"/>
<path d="M50.8938 94.0992H50.6937L50.0938 93.7992C49.5938 91.5992 49.1938 89.3992 49.0938 87.0992C48.8938 84.7992 48.7938 82.4992 48.5938 80.2992C48.6938 79.4992 49.0938 79.1992 49.8938 79.1992H50.0938L50.6937 79.4991C50.8937 80.3991 51.0937 81.3992 51.1937 82.3992C51.2937 83.3992 51.2938 84.3992 51.3938 85.2992C51.7938 84.6992 52.2937 84.0992 52.7937 83.5992C53.2937 83.0992 53.8938 82.6991 54.5938 82.4991C55.1937 82.1991 55.8938 82.0992 56.4938 82.0992C57.1938 82.0992 57.7938 81.9991 58.4938 81.9991L59.0938 82.2992C59.2937 82.4992 59.3938 82.8992 59.3938 83.1992V83.3992L59.0938 83.9991C58.3938 84.0991 57.4937 84.1992 56.6937 84.2992C55.1937 84.4992 53.9938 85.5992 52.9938 87.7992C52.4938 88.8992 52.1937 90.1992 52.1937 91.6992L52.2937 93.4991L51.9938 94.0992C51.5938 93.9992 51.2938 94.0992 50.8938 94.0992Z" fill="#020202" stroke="black" stroke-width="0.75" stroke-miterlimit="10"/>
<path d="M73.4969 94.0981H73.2969L72.6969 93.7981C72.3969 93.3981 72.2969 92.998 72.2969 92.498C72.2969 92.298 72.297 92.198 72.397 91.998L72.5969 89.5981C72.5969 88.9981 72.6969 88.3981 72.6969 87.8981C72.6969 86.7981 72.597 85.9981 72.397 85.2981C71.897 83.8981 71.0969 83.0981 70.0969 83.0981C69.9969 83.0981 69.797 83.0981 69.397 83.1981C69.097 83.2981 68.6969 83.5981 68.1969 84.0981C67.7969 84.6981 67.2969 85.2981 66.7969 86.0981C66.2969 86.7981 65.997 87.598 65.897 88.498C65.897 90.498 65.897 91.7981 65.897 92.2981L65.5969 92.8981C65.3969 93.0981 65.0969 93.1981 64.6969 93.1981H64.4969L63.897 92.8981C63.497 90.8981 63.2969 88.8981 63.1969 86.7981C63.0969 84.6981 62.9969 82.6981 62.7969 80.6981C62.8969 79.8981 63.2969 79.498 64.0969 79.498H64.2969L64.897 79.7981C65.097 80.3981 65.1969 80.9981 65.2969 81.6981C65.2969 82.3981 65.397 82.9981 65.397 83.6981C65.797 83.0981 66.2969 82.5981 66.6969 82.0981C67.5969 81.0981 68.6969 80.5981 69.7969 80.5981C69.9969 80.5981 70.3969 80.5981 70.9969 80.6981C71.4969 80.7981 72.1969 81.1981 72.7969 81.7981C73.4969 82.4981 73.997 83.2981 74.397 84.1981C74.697 84.9981 74.7969 85.9981 74.7969 87.3981C74.7969 87.5981 74.7969 88.2981 74.6969 89.1981C74.6969 90.1981 74.5969 90.9981 74.5969 91.7981C74.5969 92.4981 74.4969 93.1981 74.1969 93.7981C74.1969 93.9981 73.8969 94.0981 73.4969 94.0981Z" fill="#020202" stroke="black" stroke-width="0.75" stroke-miterlimit="10"/>
<path d="M84.1969 78.8984C83.6969 78.7984 83.297 78.5985 82.897 78.0985C82.497 77.6985 82.2969 77.1985 82.2969 76.5985C82.2969 76.4985 82.2969 76.2984 82.2969 75.9984C82.2969 75.6984 82.4969 75.2984 82.9969 74.8984C83.2969 74.5984 83.6969 74.3984 84.0969 74.3984C84.6969 74.3984 85.297 74.6985 85.897 75.2985C86.197 75.6985 86.397 76.0984 86.397 76.4984C86.397 76.5984 86.3969 76.7985 86.2969 77.1985C86.1969 77.5985 85.9969 77.8985 85.5969 78.1985C85.2969 78.6985 84.7969 78.8984 84.1969 78.8984ZM84.897 93.6985H84.6969L83.9969 93.3984C83.5969 90.5984 83.2969 86.8985 83.1969 82.2985C83.2969 81.4985 83.6969 81.1985 84.4969 81.1985H84.6969L85.2969 81.4984C85.6969 85.1984 85.9969 88.9985 85.9969 92.7985L85.6969 93.3984C85.4969 93.5984 85.197 93.6985 84.897 93.6985Z" fill="#020202" stroke="black" stroke-width="0.75" stroke-miterlimit="10"/>
<path d="M104.497 94.0981H104.297L103.697 93.7981C103.397 93.3981 103.297 92.998 103.297 92.498C103.297 92.298 103.297 92.198 103.397 91.998L103.597 89.5981C103.597 88.9981 103.697 88.3981 103.697 87.8981C103.697 86.7981 103.597 85.9981 103.397 85.2981C102.897 83.8981 102.097 83.0981 101.097 83.0981C100.997 83.0981 100.797 83.0981 100.397 83.1981C100.097 83.2981 99.6969 83.5981 99.1969 84.0981C98.7969 84.6981 98.2969 85.2981 97.7969 86.0981C97.2969 86.7981 96.997 87.598 96.897 88.498C96.897 90.498 96.897 91.7981 96.897 92.2981L96.5969 92.8981C96.3969 93.0981 96.0969 93.1981 95.6969 93.1981H95.4969L94.897 92.8981C94.497 90.8981 94.2969 88.8981 94.1969 86.7981C94.0969 84.6981 93.9969 82.6981 93.7969 80.6981C93.8969 79.8981 94.2969 79.498 95.0969 79.498H95.2969L95.897 79.7981C96.097 80.3981 96.1969 80.9981 96.2969 81.6981C96.2969 82.3981 96.397 82.9981 96.397 83.6981C96.797 83.0981 97.2969 82.5981 97.6969 82.0981C98.5969 81.0981 99.6969 80.5981 100.797 80.5981C100.997 80.5981 101.397 80.5981 101.997 80.6981C102.497 80.7981 103.197 81.1981 103.797 81.7981C104.497 82.4981 104.997 83.2981 105.397 84.1981C105.697 84.9981 105.797 85.9981 105.797 87.3981C105.797 87.5981 105.797 88.2981 105.697 89.1981C105.697 90.1981 105.597 90.9981 105.597 91.7981C105.597 92.4981 105.497 93.1981 105.197 93.7981C105.197 93.9981 104.897 94.0981 104.497 94.0981Z" fill="#020202" stroke="black" stroke-width="0.75" stroke-miterlimit="10"/>
<path d="M114.795 98.1981C113.895 98.0981 113.195 97.6981 112.795 97.1981C111.895 96.1981 111.495 95.1981 111.495 94.0981C111.495 93.9981 111.495 93.6981 111.495 93.2981C111.495 92.8981 111.895 92.3981 112.595 91.7981C113.295 91.1981 114.095 90.6981 114.795 90.3981C115.495 90.0981 116.295 89.8981 117.195 89.8981L117.095 88.1981C115.795 88.9981 114.795 89.3981 114.095 89.3981C113.995 89.3981 113.695 89.3981 113.295 89.2981C112.895 89.1981 112.395 88.8981 111.895 88.3981C111.095 87.4981 110.695 86.598 110.695 85.498C110.695 85.298 110.695 84.8981 110.795 84.3981C110.895 83.8981 110.995 83.2981 111.395 82.3981C111.695 81.5981 112.095 80.8981 112.695 80.3981C113.195 79.8981 113.695 79.598 114.295 79.498C114.495 79.498 114.695 79.498 114.895 79.498C115.295 79.498 115.795 79.4981 116.395 79.5981C116.995 79.6981 117.995 80.298 119.295 81.498C119.495 81.998 119.695 82.498 119.695 82.998C119.695 83.198 119.695 83.4981 119.595 83.6981L119.695 89.2981C119.995 89.1981 120.295 89.0981 120.595 89.0981C120.695 89.0981 120.995 89.1981 121.495 89.3981C121.695 89.6981 121.795 89.9981 121.795 90.3981V90.5981L121.495 91.1981C120.995 91.4981 120.395 91.5981 119.695 91.5981V92.498C119.695 92.998 119.695 93.5981 119.595 94.1981C119.495 94.7981 118.995 95.598 117.995 96.498C116.795 97.798 115.795 98.1981 114.795 98.1981ZM113.995 86.8981C114.495 86.8981 114.895 86.7981 115.195 86.5981C115.795 86.1981 116.195 85.6981 116.395 85.0981C116.595 84.4981 116.795 83.8981 116.895 83.0981C116.695 82.7981 116.295 82.4981 115.895 82.1981C115.695 82.0981 115.395 81.998 115.195 81.998C114.295 81.998 113.695 82.498 113.295 83.498C113.095 83.998 113.095 84.3981 113.095 84.8981C113.095 85.0981 113.095 85.4981 113.195 85.8981C113.295 86.5981 113.495 86.8981 113.995 86.8981ZM115.095 95.7981C115.395 95.7981 115.595 95.6981 115.795 95.5981C116.795 94.8981 117.195 93.9981 117.195 92.8981V92.3981C115.695 92.5981 114.695 93.098 114.095 93.998C113.895 94.198 113.895 94.3981 113.895 94.6981C113.895 94.8981 113.995 95.198 114.295 95.498C114.495 95.698 114.795 95.7981 115.095 95.7981Z" fill="#020202" stroke="black" stroke-width="0.75" stroke-miterlimit="10"/>
<path d="M149.297 94.2985C148.997 94.2985 148.697 94.0985 148.397 93.5985C147.897 92.6985 147.397 91.7985 147.097 90.7985C146.797 89.7985 146.497 88.7985 146.197 87.7985C145.797 88.6985 145.497 89.5984 145.097 90.4984C144.797 91.3984 144.497 92.2985 144.097 93.1985C143.897 93.6985 143.597 93.8984 143.297 93.8984C142.997 93.8984 142.697 93.6985 142.397 93.1985C140.997 90.3985 139.997 86.6985 139.297 82.2985C139.297 81.9985 139.497 81.6984 139.597 81.4984C139.897 81.2984 140.197 81.1985 140.597 81.1985H140.797L141.397 81.4984C141.897 83.8984 142.497 86.3985 143.197 88.7985C143.897 86.7985 144.697 84.6985 145.697 82.7985C145.897 82.3985 146.097 82.1985 146.397 82.1985C146.697 82.1985 146.997 82.3985 147.397 82.7985L148.897 88.8984C149.397 87.4984 149.797 86.1984 150.297 84.9984C150.797 83.7984 151.297 82.5985 151.697 81.1985C151.897 80.9985 152.197 80.8984 152.597 80.8984H152.797L153.397 81.1985C153.597 81.3985 153.697 81.6985 153.697 82.0985C153.697 82.3985 153.097 84.3984 151.797 87.9984C151.197 89.7984 150.597 91.5985 149.897 93.5985C149.797 94.0985 149.597 94.2985 149.297 94.2985Z" fill="#020202" stroke="black" stroke-width="0.75" stroke-miterlimit="10"/>
<path d="M161.697 78.8984C161.197 78.7984 160.797 78.5985 160.397 78.0985C159.997 77.6985 159.797 77.1985 159.797 76.5985C159.797 76.4985 159.797 76.2984 159.797 75.9984C159.797 75.6984 159.997 75.2984 160.497 74.8984C160.797 74.5984 161.197 74.3984 161.597 74.3984C162.197 74.3984 162.797 74.6985 163.397 75.2985C163.697 75.6985 163.897 76.0984 163.897 76.4984C163.897 76.5984 163.897 76.7985 163.797 77.1985C163.697 77.5985 163.497 77.8985 163.097 78.1985C162.797 78.6985 162.297 78.8984 161.697 78.8984ZM162.397 93.6985H162.197L161.497 93.3984C161.097 90.5984 160.797 86.8985 160.697 82.2985C160.797 81.4985 161.197 81.1985 161.997 81.1985H162.197L162.797 81.4984C163.197 85.1984 163.497 88.9985 163.497 92.7985L163.197 93.3984C162.997 93.5984 162.697 93.6985 162.397 93.6985Z" fill="#020202" stroke="black" stroke-width="0.75" stroke-miterlimit="10"/>
<path d="M178.897 94.2976C177.997 94.2976 177.197 93.8976 176.397 92.9976C175.697 92.2976 175.197 91.1976 174.997 89.8976C174.797 88.5976 174.597 86.2977 174.497 83.0977L172.297 83.1976L171.697 82.8976C171.497 82.5976 171.297 82.2976 171.297 81.8976V81.6976L171.597 81.0977C171.997 80.7977 172.397 80.6976 172.897 80.6976H173.597H174.697V79.1976C174.697 77.5976 174.797 76.4976 174.997 75.8976C175.197 75.6976 175.497 75.5977 175.897 75.5977H176.097L176.697 75.8976C176.897 76.1976 176.997 76.5976 176.997 76.9976V77.2976L177.097 80.5977L181.997 80.4976L182.597 80.7976C182.797 80.9976 182.897 81.3976 182.897 81.6976V81.8976L182.597 82.4976C181.797 82.7976 180.997 82.8976 180.097 82.8976H179.497C178.697 82.8976 177.797 82.9977 176.997 83.0977C177.097 85.9977 177.197 87.9976 177.297 88.9976C177.397 89.9976 177.597 90.6976 177.897 91.1976C178.097 91.5976 178.497 91.7976 179.097 91.7976C179.797 91.7976 180.897 91.4976 182.397 90.9976L182.997 91.2976C183.197 91.4976 183.297 91.8976 183.297 92.1976V92.3976L182.897 93.0977C181.597 93.8977 180.297 94.2976 178.897 94.2976Z" fill="#020202" stroke="black" stroke-width="0.75" stroke-miterlimit="10"/>
<path d="M197.592 94.4984H197.392L196.792 94.1985C196.492 93.7985 196.392 93.4984 196.392 92.9984V92.8984C196.592 92.0984 196.692 90.7984 196.692 88.8984C196.692 87.0984 196.592 85.7984 196.492 84.9984C196.292 84.1984 195.992 83.5984 195.592 82.9984C195.292 82.5984 194.892 82.3984 194.392 82.3984C194.192 82.3984 193.692 82.4985 193.192 82.5985C192.592 82.7985 192.192 83.2985 191.792 84.1985C191.392 85.0985 191.092 85.8985 190.692 86.6985C190.292 87.4985 190.092 88.2985 189.992 89.2985L190.092 92.9984L189.792 93.5985C189.592 93.7985 189.192 93.8984 188.892 93.8984H188.692L188.092 93.5985C187.792 92.9985 187.592 92.2985 187.592 91.5985C187.492 90.8985 187.492 84.6984 187.492 72.9984C187.592 72.1984 187.992 71.8984 188.792 71.8984H188.992L189.592 72.1985L189.892 72.7985V82.3984C190.292 81.9984 190.592 81.5985 190.992 81.1985C191.892 80.2985 192.792 79.8984 193.892 79.8984C194.192 79.8984 194.692 79.9985 195.292 80.0985C195.892 80.1985 196.592 80.6984 197.292 81.3984C197.992 82.0984 198.492 82.9984 198.792 83.9984C198.992 84.9984 199.092 86.2984 199.092 87.9984C199.092 88.0984 199.092 88.6985 199.092 89.7985C199.092 90.8985 199.092 91.6985 199.092 92.2985C199.092 92.8985 198.892 93.4984 198.692 93.9984C198.292 94.3984 197.992 94.4984 197.592 94.4984Z" fill="#020202" stroke="black" stroke-width="0.75" stroke-miterlimit="10"/>
<path d="M219.192 94.2985C218.892 94.2985 218.592 94.0984 218.392 93.8984C218.192 93.6984 218.092 93.3985 217.992 93.0985L218.092 73.2985C218.092 71.9985 218.492 71.3984 219.292 71.3984C219.792 71.3984 220.292 71.6985 220.792 72.1985C222.592 75.5985 224.892 80.4984 227.792 86.8984L227.892 72.5985C227.992 71.7985 228.392 71.4984 229.192 71.4984C229.292 71.4984 229.592 71.5985 229.992 71.7985L230.292 72.3984C230.292 81.2984 230.292 86.5985 230.392 88.1985C230.492 89.7985 230.492 91.3984 230.592 92.9984C230.392 93.6984 229.992 94.0985 229.492 94.0985C229.192 94.0985 228.892 93.9985 228.592 93.7985C227.092 90.6985 224.492 85.0984 220.792 76.9984L220.592 93.4984L220.292 94.0985C219.792 94.0985 219.492 94.2985 219.192 94.2985Z" fill="#020202" stroke="black" stroke-width="0.75" stroke-miterlimit="10"/>
<path d="M244.792 94.2992C244.492 94.2992 244.192 94.0992 243.992 93.8992L243.592 93.1992C242.192 93.7992 240.992 94.0992 239.792 94.0992C239.692 94.0992 239.492 94.0992 238.992 94.0992C238.592 94.0992 237.992 93.8992 237.292 93.5992C236.592 93.2992 235.992 92.7992 235.392 92.2992C234.492 91.4992 233.992 90.2992 233.992 88.6992C233.992 88.4992 233.992 88.0992 234.092 87.5992C234.192 86.2992 234.792 85.0992 235.792 84.0992C236.692 83.1992 237.892 82.7992 239.192 82.7992C240.092 82.7992 240.892 82.9992 241.792 83.2992C241.792 82.4992 241.492 81.9992 240.992 81.5992C239.992 80.8992 239.092 80.5992 238.192 80.5992C237.892 80.5992 237.592 80.6992 237.092 80.7992C236.692 80.8992 236.192 80.9991 235.692 80.9991L234.992 80.6992C234.792 80.4992 234.692 80.0992 234.692 79.7992V79.5992L235.092 78.8992C235.792 78.3992 236.592 78.1992 237.692 78.1992C238.192 78.1992 238.692 78.2992 239.292 78.3992C239.892 78.4992 240.692 78.7992 241.692 79.2992C242.692 79.7992 243.492 80.5992 243.892 81.5992C244.292 82.5992 244.592 84.2992 244.592 86.6992C244.592 89.0992 245.092 91.2992 245.992 93.3992L245.692 93.9991C245.392 94.0991 245.092 94.2992 244.792 94.2992ZM239.792 91.7992C240.492 91.7992 241.192 91.5992 241.792 91.2992L242.692 90.5992C242.592 89.8992 242.492 88.5992 242.292 86.7992C241.492 85.6992 240.492 85.1992 239.592 85.1992C239.592 85.1992 239.292 85.1992 238.792 85.1992C238.292 85.1992 237.792 85.3992 237.392 85.8992C236.792 86.4992 236.492 87.3992 236.492 88.5992C236.492 88.7992 236.492 89.0992 236.492 89.3992C236.492 89.6992 236.692 90.0991 237.092 90.4991C237.492 90.8991 237.992 91.1992 238.492 91.3992C238.992 91.6992 239.392 91.7992 239.792 91.7992Z" fill="#020202" stroke="black" stroke-width="0.75" stroke-miterlimit="10"/>
<path d="M256.397 94.2976C255.497 94.2976 254.697 93.8976 253.897 92.9976C253.197 92.2976 252.697 91.1976 252.497 89.8976C252.297 88.5976 252.097 86.2977 251.997 83.0977L249.797 83.1976L249.197 82.8976C248.997 82.5976 248.797 82.2976 248.797 81.8976V81.6976L249.097 81.0977C249.497 80.7977 249.897 80.6976 250.397 80.6976H251.097H252.197V79.1976C252.197 77.5976 252.297 76.4976 252.497 75.8976C252.697 75.6976 252.997 75.5977 253.397 75.5977H253.597L254.197 75.8976C254.397 76.1976 254.497 76.5976 254.497 76.9976V77.2976L254.597 80.5977L259.497 80.4976L260.097 80.7976C260.297 80.9976 260.397 81.3976 260.397 81.6976V81.8976L260.097 82.4976C259.297 82.7976 258.497 82.8976 257.597 82.8976H256.997C256.197 82.8976 255.297 82.9977 254.497 83.0977C254.597 85.9977 254.697 87.9976 254.797 88.9976C254.897 89.9976 255.097 90.6976 255.397 91.1976C255.597 91.5976 255.997 91.7976 256.597 91.7976C257.297 91.7976 258.397 91.4976 259.897 90.9976L260.497 91.2976C260.697 91.4976 260.797 91.8976 260.797 92.1976V92.3976L260.397 93.0977C259.097 93.8977 257.797 94.2976 256.397 94.2976Z" fill="#020202" stroke="black" stroke-width="0.75" stroke-miterlimit="10"/>
<path d="M275.795 94.4984H275.595L274.995 94.1985C274.795 93.7985 274.595 93.2985 274.495 92.7985C274.395 92.2985 274.295 91.7985 274.295 91.1985C273.295 92.3985 272.395 93.1985 271.495 93.5985C270.795 93.8985 270.195 93.9984 269.495 93.9984C269.295 93.9984 268.895 93.9984 268.295 93.8984C267.695 93.7984 267.095 93.3985 266.495 92.5985C265.795 91.7985 265.395 90.9985 265.195 90.0985C264.795 88.5985 264.695 86.8985 264.695 84.7985C264.695 84.2985 264.695 83.6984 264.695 82.9984C264.695 82.2984 264.895 81.7985 265.195 81.2985C265.495 81.0985 265.795 80.8984 266.195 80.8984H266.395L266.995 81.1985C267.195 81.4985 267.295 81.7985 267.295 82.1985V82.3984C267.095 84.1984 267.095 85.4984 267.095 86.3984C267.095 88.6984 267.495 90.1985 268.395 91.0985C268.695 91.4985 269.095 91.5985 269.495 91.5985C269.695 91.5985 269.995 91.4984 270.395 91.3984C270.795 91.2984 271.395 90.6985 272.095 89.7985C272.795 88.8985 273.195 87.6985 273.395 86.2985C273.595 84.8985 273.895 83.4985 274.295 82.0985C274.495 81.8985 274.795 81.7985 275.195 81.7985C275.295 81.7985 275.595 81.8985 275.995 82.0985C276.195 82.5985 276.395 83.0985 276.395 83.5985C276.395 83.7985 276.395 83.9985 276.295 84.2985C276.295 87.7985 276.395 89.9984 276.595 90.8984C276.795 91.7984 276.895 92.6985 276.995 93.5985L276.695 94.1985C276.395 94.3985 276.095 94.4984 275.795 94.4984Z" fill="#020202" stroke="black" stroke-width="0.75" stroke-miterlimit="10"/>
<path d="M283.394 94.0992H283.194L282.594 93.7992C282.094 91.5992 281.694 89.3992 281.594 87.0992C281.394 84.7992 281.294 82.4992 281.094 80.2992C281.194 79.4992 281.594 79.1992 282.394 79.1992H282.594L283.194 79.4991C283.394 80.3991 283.594 81.3992 283.694 82.3992C283.794 83.3992 283.794 84.3992 283.894 85.2992C284.294 84.6992 284.794 84.0992 285.294 83.5992C285.794 83.0992 286.394 82.6991 287.094 82.4991C287.694 82.1991 288.394 82.0992 288.994 82.0992C289.694 82.0992 290.294 81.9991 290.994 81.9991L291.594 82.2992C291.794 82.4992 291.894 82.8992 291.894 83.1992V83.3992L291.594 83.9991C290.894 84.0991 289.994 84.1992 289.194 84.2992C287.694 84.4992 286.494 85.5992 285.494 87.7992C284.994 88.8992 284.694 90.1992 284.694 91.6992L284.794 93.4991L284.494 94.0992C284.094 93.9992 283.794 94.0992 283.394 94.0992Z" fill="#020202" stroke="black" stroke-width="0.75" stroke-miterlimit="10"/>
<path d="M301.694 94.1992C300.994 94.0992 300.294 93.8992 299.594 93.5992C298.894 93.2992 298.194 92.6992 297.494 91.8992C296.794 91.0992 296.294 89.9992 295.994 88.5992C295.794 87.3992 295.594 86.3992 295.594 85.3992V84.2992C295.694 82.4992 296.194 81.0992 297.194 80.0992C298.394 78.7992 299.794 78.1992 301.294 78.1992C301.394 78.1992 301.694 78.1992 302.194 78.2992C302.694 78.2992 303.194 78.4992 303.794 78.6992C304.394 78.8992 305.094 79.4991 305.994 80.4991C306.894 81.4991 307.394 82.5992 307.594 83.7992C307.794 84.9992 307.894 85.8992 307.894 86.3992C307.894 86.8992 307.794 87.1992 307.494 87.2992C307.194 87.3992 304.194 87.4992 298.294 87.5992C298.494 88.9992 298.994 90.0992 299.694 90.6992C300.494 91.4992 301.494 91.8992 302.494 91.8992C302.594 91.8992 302.794 91.8992 303.194 91.8992C303.594 91.8992 303.994 91.6992 304.594 91.2992C305.194 90.8992 305.794 90.6991 306.394 90.4991L306.994 90.7992C307.194 91.0992 307.294 91.3992 307.294 91.7992V91.9991L306.994 92.5992C306.094 93.2992 305.194 93.7991 304.394 93.9991C303.594 94.0991 302.694 94.1992 301.694 94.1992ZM297.994 85.1992L305.494 84.8992C305.394 83.2992 304.994 82.0991 304.294 81.4991C303.594 80.8991 302.694 80.4991 301.594 80.4991C301.394 80.4991 301.094 80.4992 300.594 80.5992C300.194 80.6992 299.794 80.9992 299.294 81.3992C298.894 81.8992 298.494 82.3992 298.394 82.8992C298.194 83.4992 297.994 84.2992 297.994 85.1992Z" fill="#020202" stroke="black" stroke-width="0.75" stroke-miterlimit="10"/>
<path d="M7.49695 51.9004H7.29688L6.09692 51.3004C5.69692 50.9004 5.59692 50.2004 5.59692 49.2004L6.29688 47.9004C9.09688 45.5004 11.4969 42.9005 13.6969 40.1005C15.8969 37.3005 17.4969 34.7004 18.7969 32.3004C19.9969 29.9004 20.9969 27.9004 21.6969 26.2004C22.3969 24.5004 22.997 22.8004 23.397 21.2004L5.6969 21.6005L4.49695 21.1005C3.99695 20.5005 3.79688 19.8004 3.79688 18.8004L4.39697 17.6005C5.29697 17.0005 6.29697 16.7004 7.39697 16.7004L8.1969 16.8004L23.897 16.4004L24.0969 7.60046C24.2969 6.10046 25.2969 5.40039 26.9969 5.40039L28.1969 6.00037L28.6969 7.10046L28.2969 16.3004H46.7969L48.0969 17.0004C48.4969 17.5004 48.5969 18.1004 48.5969 18.7004C48.5969 18.9004 48.3969 19.4004 48.0969 20.3004L46.897 20.9004H29.397C32.397 25.1004 35.397 29.2004 38.397 33.2004C41.397 37.2004 45.5969 42.0004 51.0969 47.5004C51.4969 48.0004 51.6969 48.7005 51.6969 49.6005L51.0969 50.8004C50.5969 51.2004 49.797 51.3004 48.897 51.3004C42.697 45.4004 38.1969 40.6004 35.4969 36.8004C32.7969 33.0004 29.7969 29.3004 26.6969 25.8004C25.0969 30.4004 22.8969 34.7004 20.2969 38.7004C17.6969 42.7004 14.197 46.8004 9.89697 50.8004C9.19697 51.5004 8.39695 51.9004 7.49695 51.9004Z" fill="black" stroke="black" stroke-width="0.75" stroke-miterlimit="10"/>
<path d="M89.4938 53.2001L71.2937 53.1001C70.2937 52.8001 69.7938 52.2 69.5938 51.5C69.3938 50.8 69.0938 37.8001 68.5938 12.6001C68.5938 11.2001 68.9937 10.4001 69.6937 10.2001C70.3937 10.0001 71.2937 9.80005 72.1937 9.80005H77.7937C80.0937 5.90005 81.8938 3.1001 83.0938 1.6001C83.4937 1.2001 83.9937 1 84.5938 1C84.8937 1 85.4937 1.2001 86.2937 1.6001C86.6937 2.1001 86.8938 2.80007 86.8938 3.70007C86.4938 4.50007 85.0937 6.50005 82.7937 9.80005C96.3937 10 103.494 10.3 104.194 10.5C104.894 10.7 105.294 11.5 105.394 13C105.094 37.3 104.894 49.9 104.594 50.9C104.394 51.9 103.794 52.5 102.894 52.8C102.294 53.1 97.7938 53.2001 89.4938 53.2001ZM100.794 22.4L100.694 14.9L73.1937 14.5L73.3938 22.2001L100.794 22.4ZM100.894 35.7001L100.994 27.1001L73.5938 27V35.7001H100.894ZM99.9938 48.6001L100.494 40.3H74.0938L73.8938 48.4L99.9938 48.6001Z" fill="black" stroke="black" stroke-width="0.75" stroke-miterlimit="10"/>
<path d="M124.295 36.4991C122.795 36.2991 121.995 35.4991 121.995 33.9991V33.5992L122.595 32.2992C124.795 31.0992 127.095 29.2992 129.295 26.8992L126.895 25.1992C126.495 24.6992 126.295 23.9991 126.295 22.9991L126.895 21.7992C127.495 21.3992 128.295 21.0992 129.195 21.0992L133.295 23.5992C134.395 22.6992 135.195 21.3992 135.795 19.5992C133.695 18.7992 132.095 17.9992 130.995 17.0992C130.395 16.4992 129.995 15.7991 129.995 14.9991L130.095 14.4991L130.795 13.3992C131.195 12.9992 131.795 12.6992 132.495 12.6992C132.795 12.6992 134.695 13.5992 138.195 15.3992C138.995 14.3992 140.295 12.2992 142.095 9.19922L131.195 8.29919C130.095 9.69919 129.195 11.1992 128.295 12.6992C127.495 14.1992 126.195 15.7992 124.495 17.3992C123.795 17.9992 122.995 18.1992 121.895 18.1992L120.695 17.5992C120.295 17.0992 120.195 16.3992 120.195 15.3992C122.495 12.6992 124.295 10.1992 125.795 7.79919C127.195 5.49919 128.095 4.09919 128.495 3.79919C128.895 3.39919 129.395 3.19922 130.195 3.19922C130.895 3.19922 132.095 3.29915 133.895 3.49915C135.595 3.69915 137.795 3.89924 140.395 4.09924C142.995 4.29924 145.595 4.69922 147.995 5.19922C148.395 5.79922 148.595 6.49915 148.595 7.49915C146.995 9.99915 145.795 11.9992 144.895 13.6992C143.995 15.3992 142.395 17.9992 140.095 21.7992C137.795 25.5992 134.895 28.7992 131.495 31.5992C128.195 34.6992 125.795 36.1991 124.295 36.4991ZM123.395 54.1992H122.995L121.695 53.6992C121.295 53.0992 121.095 52.3992 121.095 51.3992C121.895 49.6992 123.195 46.3991 124.995 41.4991C125.395 41.0991 126.195 40.9991 127.195 40.9991L128.295 41.4991C128.795 41.9991 128.995 42.5992 128.995 43.2992L128.895 43.8992C128.095 47.1992 126.795 50.4992 125.095 53.6992C124.695 54.0992 124.095 54.1992 123.395 54.1992ZM138.295 53.8992C137.695 53.7992 137.095 53.5992 136.595 53.1992C135.995 51.6992 135.595 50.0992 135.495 48.2992C135.395 46.5992 135.095 44.8992 134.695 43.2992L135.395 41.9991C135.795 41.5991 136.595 41.3992 137.595 41.3992L138.695 41.9991C139.495 43.3991 139.895 44.9992 140.095 46.7992C140.295 48.5992 140.495 50.2992 140.795 51.8992L140.295 53.1992C139.595 53.5992 138.995 53.7992 138.295 53.8992ZM146.895 37.8992H146.795L145.595 37.1992C145.195 36.6992 144.995 35.9991 144.995 34.9991L145.595 33.7992C148.795 30.5992 152.095 24.7992 155.495 16.1992H151.695C150.495 16.1992 149.295 15.8992 148.295 15.3992C147.895 14.8992 147.695 14.2992 147.695 13.5992C147.695 13.3992 147.895 12.7992 148.295 11.8992C148.995 11.4992 149.795 11.1992 150.795 11.1992C151.195 11.1992 153.195 11.2992 156.695 11.3992C156.895 10.3992 157.095 9.29922 157.295 8.19922C157.495 7.09922 157.795 5.99924 158.295 5.09924C158.795 4.69924 159.495 4.49915 160.495 4.49915L161.795 5.09924C162.195 5.69924 162.495 6.39924 162.495 7.09924C162.495 7.39924 162.195 8.99919 161.595 11.7992L167.795 11.6992L166.695 10.9991C165.495 9.39915 164.695 7.59915 164.295 5.49915L164.895 4.29919C165.495 3.89919 166.095 3.79919 166.795 3.79919C166.995 3.79919 167.495 3.99919 168.395 4.29919C169.595 5.89919 170.395 7.69922 170.695 9.69922L170.095 10.9991L168.995 11.3992C169.595 11.5992 170.095 11.7992 170.595 12.1992C170.995 12.7992 171.095 13.3992 171.095 14.0992C171.095 14.2992 170.895 14.7992 170.595 15.6992C169.695 16.0992 168.695 16.3992 167.495 16.3992L165.595 16.2992C164.795 16.2992 163.995 16.3991 163.195 16.4991C164.095 18.2991 165.095 19.9992 166.195 21.5992C167.295 23.1992 168.995 25.3991 171.495 27.9991C173.995 30.5991 175.295 32.6992 175.495 34.1992L174.795 35.3992C174.295 35.7992 173.595 35.9991 172.595 35.9991L170.895 34.8992C165.395 28.7992 161.595 23.7991 159.695 19.9991C158.695 21.8991 157.495 24.3992 155.995 27.5992C154.495 30.6992 152.895 33.1992 151.295 35.0992C149.295 36.8992 147.995 37.8992 146.895 37.8992ZM151.695 52.0992H151.295L150.195 51.3992C149.495 50.0992 148.995 48.7992 148.695 47.3992C148.395 45.9992 147.995 44.5992 147.495 43.1992C147.695 41.6992 148.495 40.8992 149.995 40.8992H150.395L151.495 41.3992C152.695 44.1992 153.495 47.0992 153.995 50.1992L153.395 51.2992C153.095 51.8992 152.495 52.0992 151.695 52.0992ZM167.695 51.6992H167.295L165.995 51.1992L165.895 50.7992H165.695C164.695 49.3992 163.795 47.8992 162.895 46.3992C161.995 44.8992 161.395 43.2992 160.895 41.6992L161.595 40.5992C162.095 40.1992 162.795 39.8992 163.795 39.8992L165.095 40.5992C165.895 41.6992 166.495 42.8992 167.195 44.0992C167.795 45.3992 168.595 46.4992 169.395 47.5992C169.895 48.1992 170.095 48.9991 170.095 49.9991L169.495 51.1992C168.995 51.4992 168.395 51.6992 167.695 51.6992Z" fill="black" stroke="black" stroke-width="0.75" stroke-miterlimit="10"/>
<path d="M192.595 51.7004C190.995 51.6004 190.195 50.7004 190.195 48.9004L189.995 23.6005C185.695 23.8005 183.295 23.9004 182.895 23.9004C182.295 23.9004 181.795 23.7004 181.395 23.3004C180.995 22.7004 180.695 22.1005 180.695 21.6005C180.695 20.8005 181.195 20.1005 182.295 19.6005C184.895 19.4005 186.995 19.4004 188.595 19.4004C191.395 19.4004 193.195 19.8004 193.895 20.5004C194.495 21.1004 194.695 21.6004 194.695 22.2004C194.695 22.4004 194.695 22.5005 194.595 22.6005L194.195 44.3004C195.695 42.4004 197.195 41.5004 198.595 41.5004C199.095 41.5004 199.595 41.6004 200.195 41.9004C200.595 42.3004 200.795 42.9004 200.795 43.5004C200.795 44.2004 200.195 45.2004 198.895 46.5004C197.595 47.8004 196.495 48.9004 195.495 50.0004C194.495 51.1004 193.595 51.5004 192.595 51.7004ZM195.195 13.3004C194.895 13.3004 194.595 13.2005 194.195 13.1005L189.895 9.90039C188.295 9.20039 187.595 8.10044 187.595 6.70044V6.20044C187.995 5.30044 188.795 4.80042 189.895 4.80042L196.695 10.0004C196.995 10.4004 197.095 10.7005 197.095 11.1005C197.095 11.3005 197.095 11.6004 196.995 11.9004C196.595 12.8004 195.995 13.3004 195.195 13.3004ZM217.295 54.8004L216.995 54.7004L215.795 54.1005C215.395 53.7005 215.195 53.2004 215.095 52.5004L214.895 40.4004C211.795 43.4004 209.495 45.7005 207.995 47.1005C206.495 48.5005 204.995 49.3004 203.595 49.4004L202.495 48.8004C202.095 48.4004 201.995 47.7004 201.995 46.8004L202.495 45.7004C206.895 42.4004 210.195 39.2004 212.295 36.2004L203.095 36.0004L201.995 35.4004C201.595 35.0004 201.395 34.4004 201.395 33.7004C201.395 33.5004 201.595 33.0004 201.995 32.2004L203.295 31.5004L214.895 31.9004L214.995 26.6005C210.595 26.6005 208.095 26.6004 207.595 26.7004C206.195 26.7004 205.395 26.2005 205.095 25.1005C204.795 24.0005 204.295 18.1005 203.595 7.10046L203.495 6.40039C203.495 4.80039 203.895 3.90044 204.595 3.70044C205.295 3.50044 210.095 3.40039 218.795 3.40039L227.995 3.50037L228.295 3.40039C229.495 3.40039 230.195 4.30044 230.295 6.20044C229.895 17.6004 229.595 23.8004 229.495 25.0004C229.395 26.1004 228.595 26.7004 227.295 26.7004C226.895 26.7004 224.195 26.6005 219.395 26.6005L219.295 31.9004C221.095 31.9004 222.895 31.9004 224.595 32.0004C226.395 32.1004 227.995 32.4004 229.595 33.0004C229.995 33.5004 230.095 34.1004 230.095 34.7004C230.095 34.9004 229.895 35.4004 229.595 36.2004C228.995 36.6004 228.395 36.8004 227.795 36.8004L220.995 36.3004L231.595 44.8004C231.995 45.2004 232.195 45.8004 232.195 46.5004C232.195 46.7004 231.995 47.2004 231.595 48.0004C231.095 48.4004 230.495 48.6005 229.795 48.6005C228.695 48.6005 225.195 46.1004 219.395 41.0004L219.595 52.9004L219.095 54.0004C218.495 54.6004 217.995 54.8004 217.295 54.8004ZM214.595 12.8004L214.795 7.90039L207.895 8.00037V12.7004H214.595V12.8004ZM214.795 22.3004L214.695 17.3004H208.595L208.995 22.3004H214.795ZM225.895 13.1005V8.00037H219.395L219.195 13.0004L225.895 13.1005ZM225.295 22.3004V21.3004L225.795 17.6005L219.195 17.5004L219.295 22.4004H225.295V22.3004Z" fill="black" stroke="black" stroke-width="0.75" stroke-miterlimit="10"/>
<path d="M246.397 23.0007H245.997L244.897 22.4008C244.297 20.6008 243.897 18.7008 243.897 16.7008C243.897 14.7008 243.697 12.8008 243.297 10.9008C243.497 9.10076 244.297 8.10083 245.897 8.10083L265.597 7.40076L265.497 4.00073L265.997 2.90076C266.497 2.50076 267.197 2.30078 268.097 2.30078L269.297 2.90076C269.897 3.90076 270.197 5.00078 270.197 6.30078L270.097 7.40076H289.197C290.397 7.40076 291.097 7.90081 291.297 8.70081C291.397 9.10081 291.497 9.50083 291.497 10.1008C291.497 10.7008 291.397 11.6008 291.197 12.9008C290.997 14.1008 290.797 15.6008 290.697 17.1008C290.597 18.7008 290.197 20.2008 289.697 21.6008C289.097 22.0008 288.397 22.2008 287.497 22.2008L286.297 21.6008C285.897 21.1008 285.697 20.5008 285.597 19.7008C286.197 16.2008 286.497 13.7007 286.697 12.0007L248.097 12.7008L248.597 21.3008L248.097 22.4008C247.797 22.8008 247.197 23.0007 246.397 23.0007ZM247.597 54.1008C246.097 53.9008 245.397 53.1008 245.397 51.7008V51.3008L245.897 50.2008C247.097 49.6008 248.497 49.3008 249.997 49.3008L250.997 49.4008L266.897 49.3008V43.9008L256.897 43.8008C255.397 43.6008 254.697 42.7007 254.697 41.0007L255.297 39.8008L256.397 39.2008L266.597 39.3008L266.397 35.5007C266.597 34.0007 267.497 33.3008 269.197 33.3008L270.397 33.9008C270.897 35.3008 271.197 37.1008 271.197 39.1008L281.497 39.2008L282.797 39.8008C283.197 40.3008 283.297 40.9007 283.297 41.5007C283.297 41.7007 283.097 42.2008 282.797 43.1008C282.197 43.5008 281.597 43.7008 280.897 43.8008H271.397V49.1008H289.297L290.697 49.8008C291.097 50.3008 291.297 51.0008 291.297 51.9008L290.697 53.1008C289.997 53.6008 289.097 53.8008 288.197 53.8008L247.597 54.1008ZM283.397 35.5007H282.997L281.697 34.9008L279.097 30.6008L256.797 32.2008C255.297 32.0008 254.597 31.0008 254.597 29.3008C255.597 27.7008 256.697 26.2008 257.897 24.7008C259.097 23.2008 259.997 21.6008 260.797 19.8008L256.597 19.9008C255.097 19.7008 254.397 18.8008 254.397 17.1008L254.997 16.0007C255.597 15.5007 256.297 15.2008 257.097 15.2008H279.697L281.197 16.0007C281.597 16.4007 281.797 17.1008 281.797 18.1008L281.197 19.2008C280.697 19.6008 280.097 19.8008 279.497 19.9008H266.697L262.097 26.9008L275.397 26.3008C274.597 25.6008 274.097 24.7008 274.097 23.8008C274.097 23.5008 274.297 23.0008 274.797 22.1008C275.297 21.7008 275.997 21.5007 276.897 21.5007L278.097 22.1008C279.597 24.0008 280.997 25.8008 282.497 27.7008C283.997 29.5008 284.997 31.6008 285.697 33.8008L285.097 34.9008C284.697 35.3008 284.097 35.5007 283.397 35.5007Z" fill="black" stroke="black" stroke-width="0.75" stroke-miterlimit="10"/>
<path d="M29.3015 154.001H29.1016L28.4016 153.701C28.2016 153.401 28.0016 153.101 28.0016 152.801L28.2015 135.001C26.5015 137.301 25.2016 139.401 24.4016 141.301C24.1016 141.501 23.7015 141.601 23.2015 141.601L22.5016 141.301C22.3016 140.901 22.1016 140.501 22.1016 140.101C23.3016 137.401 24.8015 134.901 26.7015 132.501C28.5015 130.101 30.1016 127.601 31.4016 124.801C31.7016 124.601 32.1016 124.401 32.5016 124.401C32.6016 124.401 32.9016 124.501 33.4016 124.701C33.6016 125.001 33.7015 125.401 33.7015 125.901C33.2015 126.801 32.2015 128.701 30.7015 131.601L30.6016 153.001L30.3015 153.601C30.0015 153.901 29.6015 154.001 29.3015 154.001ZM33.9016 138.401C33.0016 138.301 32.5016 137.801 32.5016 136.901V136.701L32.8015 136.101C33.7015 135.801 34.7015 135.701 35.8015 135.701C36.8015 135.701 37.9016 135.601 38.9016 135.501L38.4016 131.101L35.9016 131.201L35.2015 130.801C35.0015 130.501 34.8015 130.101 34.8015 129.501L35.1016 128.901C35.9016 128.601 36.9015 128.501 38.2015 128.501V125.701C38.3015 124.901 38.8015 124.401 39.8015 124.401L40.5016 124.701C40.7016 125.001 40.9016 125.301 40.9016 125.801L40.8015 128.501H45.4016V126.501C45.4016 125.801 45.6016 125.201 45.9016 124.601C46.2016 124.401 46.6016 124.301 47.1016 124.301L47.8015 124.601C48.0015 124.901 48.1016 125.301 48.1016 125.801C48.1016 126.101 48.0016 127.001 48.0016 128.601L48.7015 128.501C49.4015 128.501 50.0016 128.701 50.5016 129.001C50.7016 129.201 50.8015 129.601 50.8015 130.201L50.5016 130.801C50.1016 131.001 49.8015 131.201 49.3015 131.201L48.0016 131.101V135.201L51.3015 135.101L52.2015 135.601C52.4015 135.801 52.5016 136.201 52.5016 136.801L52.2015 137.401C51.7015 137.701 51.2016 137.801 50.6016 137.801H50.0016L33.9016 138.401ZM48.6016 153.401L37.3015 153.301C36.6015 153.201 36.3015 152.701 36.3015 151.801C36.2015 145.201 36.1016 141.301 36.0016 140.201C36.1016 139.501 36.5015 139.101 37.2015 139.101H37.6016C45.0016 139.301 49.0015 139.401 49.7015 139.501C50.2015 139.601 50.5016 139.901 50.5016 140.601C50.5016 140.701 50.5016 141.001 50.4016 141.501C50.3016 142.001 50.3015 143.901 50.2015 147.101C50.1015 150.301 50.1016 152.201 50.0016 152.601C49.8016 153.201 49.4016 153.401 48.6016 153.401ZM47.6016 145.001L47.7015 142.101L38.7015 141.901L38.8015 145.001H47.6016ZM47.5016 150.801V147.601L38.9016 147.501L39.0016 150.601L47.5016 150.801ZM41.5016 135.301L45.4016 135.201V131.001H41.0016L41.5016 135.301Z" fill="#5F3720"/>
<path d="M61.5984 152.1C60.7984 152.1 60.3983 151.8 60.2983 151.3C60.1983 150.8 59.9984 147.7 59.6984 142C59.4984 137.7 59.3984 134.9 59.3984 133.6C59.3984 133.2 59.3984 132.8 59.4984 132.5C59.5984 132.2 59.9984 132 60.6984 132L69.7983 132.2C69.7983 129 69.9984 126.5 70.3984 124.7C70.6984 124.5 71.0984 124.4 71.5984 124.4L72.1984 124.7L72.4984 125.3L72.2983 132.2C78.5983 132.2 81.9984 132.3 82.3984 132.4C82.7984 132.5 83.0984 132.8 83.0984 133.6C82.6984 145 82.4984 151 82.3984 151.3C82.2984 151.7 81.8984 151.9 81.1984 151.9C68.5984 151.9 61.9984 152 61.5984 152.1ZM69.5984 140L69.7983 134.7L62.0984 134.5L62.2983 139.9L69.5984 140ZM62.7983 149.3L69.6984 149.1L69.5984 142.6L62.4984 142.5L62.7983 149.3ZM80.4984 140.1L80.6984 134.9L72.3984 134.8L72.1984 140.1H80.4984ZM80.0984 149.2L80.2983 142.7H72.0984L72.1984 149L80.0984 149.2Z" fill="#5F3720"/>
<path d="M94.1 152H94L93.2999 151.7C93.0999 151.5 93 151.1 93 150.5L93.4 149.8C95 148.4 96.4 147 97.6 145.4C98.8 143.8 99.8 142.3 100.5 141C101.2 139.7 101.7 138.5 102.2 137.5C102.6 136.5 102.9 135.6 103.1 134.6L93.1 134.8L92.4 134.5C92.1 134.2 92 133.7 92 133.2L92.2999 132.5C92.7999 132.2 93.4 132 94 132H94.4L103.3 131.8L103.4 126.8C103.5 126 104.1 125.5 105.1 125.5L105.8 125.8L106.1 126.4L105.9 131.6H116.4L117.1 132C117.3 132.3 117.4 132.6 117.4 133C117.4 133.1 117.3 133.4 117.1 133.9L116.4 134.2H106.5C108.2 136.6 109.9 138.9 111.6 141.2C113.3 143.5 115.7 146.2 118.8 149.3C119 149.6 119.1 150 119.1 150.5L118.8 151.2C118.5 151.4 118.1 151.5 117.5 151.5C114 148.2 111.5 145.4 109.9 143.3C108.3 141.1 106.7 139.1 104.9 137.1C104 139.7 102.8 142.1 101.3 144.4C99.7999 146.7 97.8 149 95.4 151.3C95.1 151.8 94.6 152 94.1 152Z" fill="#5F3720"/>
<path d="M140.502 152.801H130.202C129.702 152.601 129.302 152.301 129.202 151.901C129.102 151.501 128.902 144.101 128.602 129.901C128.602 129.101 128.802 128.701 129.202 128.501C129.602 128.401 130.102 128.301 130.602 128.301H133.802C135.102 126.101 136.102 124.501 136.802 123.601C137.002 123.401 137.302 123.301 137.602 123.301C137.802 123.301 138.102 123.401 138.602 123.601C138.802 123.901 138.902 124.301 138.902 124.801C138.702 125.301 137.902 126.401 136.602 128.301C144.302 128.401 148.302 128.601 148.702 128.701C149.102 128.801 149.302 129.301 149.402 130.101C149.202 143.901 149.102 151.001 149.002 151.601C148.902 152.201 148.602 152.501 148.002 152.701C147.802 152.701 145.302 152.801 140.502 152.801ZM147.002 135.301L146.902 131.101L131.302 130.901L131.402 135.301H147.002ZM147.002 142.801L147.102 137.901L131.602 137.801V142.701H147.002V142.801ZM146.502 150.201L146.802 145.501H131.802L131.702 150.101L146.502 150.201Z" fill="#5F3720"/>
<path d="M160.298 143.302C159.398 143.202 158.998 142.701 158.998 141.901V141.702L159.298 141.001C160.598 140.301 161.798 139.301 163.098 137.901L161.698 136.901C161.498 136.601 161.398 136.202 161.398 135.702L161.698 135.001C162.098 134.801 162.498 134.602 162.998 134.602L165.298 136.001C165.898 135.501 166.398 134.802 166.698 133.802C165.498 133.302 164.598 132.901 163.998 132.401C163.598 132.101 163.498 131.702 163.498 131.202V130.901L163.898 130.302C164.098 130.102 164.498 129.901 164.898 129.901C165.098 129.901 166.098 130.401 168.098 131.401C168.598 130.801 169.298 129.701 170.298 127.901L164.098 127.401C163.498 128.201 162.898 129.101 162.498 129.901C161.998 130.801 161.298 131.702 160.398 132.602C159.998 132.902 159.498 133.102 158.898 133.102L158.198 132.802C157.998 132.502 157.898 132.102 157.898 131.602C159.198 130.102 160.198 128.602 161.098 127.302C161.898 126.002 162.398 125.201 162.598 125.001C162.798 124.801 163.098 124.702 163.598 124.702C163.998 124.702 164.698 124.801 165.698 124.901C166.698 125.001 167.898 125.102 169.398 125.302C170.898 125.502 172.298 125.601 173.698 125.901C173.898 126.201 173.998 126.602 173.998 127.202C173.098 128.602 172.398 129.802 171.898 130.702C171.398 131.602 170.498 133.102 169.198 135.302C167.898 137.402 166.298 139.302 164.298 140.802C162.298 142.302 161.098 143.102 160.298 143.302ZM159.698 153.302H159.498L158.798 153.001C158.598 152.701 158.498 152.202 158.498 151.702C158.998 150.702 159.698 148.902 160.698 146.102C160.898 145.902 161.398 145.802 161.898 145.802L162.498 146.102C162.798 146.402 162.898 146.702 162.898 147.102V147.401C162.398 149.301 161.698 151.101 160.698 153.001C160.498 153.201 160.098 153.302 159.698 153.302ZM168.198 153.102C167.798 153.102 167.498 152.902 167.198 152.702C166.898 151.802 166.698 150.901 166.598 149.901C166.498 148.901 166.398 148.001 166.098 147.001L166.498 146.302C166.698 146.102 167.198 146.001 167.698 146.001L168.298 146.302C168.698 147.102 168.998 148.001 169.098 149.001C169.198 150.001 169.298 151.001 169.498 151.901L169.198 152.602C168.898 153.002 168.598 153.102 168.198 153.102ZM173.098 144.102L172.398 143.702C172.198 143.402 172.098 143.001 172.098 142.501L172.398 141.802C174.198 140.002 176.098 136.702 177.998 131.802H175.798C175.098 131.802 174.498 131.602 173.898 131.302C173.698 131.002 173.598 130.702 173.598 130.302C173.598 130.202 173.698 129.902 173.898 129.302C174.298 129.102 174.798 128.901 175.298 128.901C175.498 128.901 176.698 129.001 178.598 129.001C178.698 128.401 178.798 127.802 178.898 127.202C178.998 126.602 179.198 126.001 179.398 125.401C179.698 125.201 180.098 125.102 180.598 125.102L181.298 125.401C181.498 125.701 181.698 126.101 181.698 126.501C181.698 126.701 181.498 127.602 181.198 129.202L184.698 129.102L184.098 128.702C183.398 127.802 182.998 126.802 182.698 125.602L182.998 124.901C183.298 124.701 183.698 124.602 184.098 124.602C184.198 124.602 184.498 124.701 184.998 124.901C185.698 125.801 186.098 126.801 186.298 128.001L185.998 128.702L185.398 128.901C185.698 129.001 185.998 129.101 186.298 129.401C186.498 129.701 186.598 130.101 186.598 130.501C186.598 130.601 186.498 130.901 186.298 131.401C185.798 131.601 185.198 131.802 184.598 131.802H183.498C182.998 131.802 182.598 131.801 182.098 131.901C182.598 132.901 183.198 133.902 183.798 134.802C184.398 135.702 185.398 136.901 186.798 138.401C188.198 139.901 188.898 141.101 189.098 141.901L188.698 142.602C188.398 142.802 187.998 142.901 187.498 142.901L186.498 142.302C183.398 138.902 181.298 136.002 180.098 133.802C179.598 134.902 178.898 136.302 177.998 138.102C177.098 139.902 176.298 141.302 175.298 142.302C174.498 143.502 173.698 144.102 173.098 144.102ZM175.798 152.202H175.598L174.998 151.802C174.598 151.102 174.298 150.301 174.098 149.501C173.898 148.701 173.698 147.902 173.398 147.102C173.498 146.202 173.998 145.802 174.798 145.802H174.998L175.598 146.102C176.298 147.702 176.798 149.302 176.998 151.102L176.698 151.702C176.598 152.002 176.198 152.202 175.798 152.202ZM184.898 151.901H184.698L183.998 151.602L183.898 151.401H183.798C183.298 150.601 182.698 149.801 182.198 148.901C181.698 148.101 181.298 147.202 181.098 146.202L181.498 145.602C181.798 145.402 182.198 145.202 182.698 145.202L183.398 145.602C183.798 146.202 184.198 146.902 184.598 147.602C184.998 148.302 185.398 149.002 185.898 149.602C186.198 149.902 186.298 150.401 186.298 151.001L185.998 151.702C185.598 151.802 185.298 151.901 184.898 151.901Z" fill="#5F3720"/>
<path d="M216.302 154.101C216.102 154.101 215.802 154.001 215.202 153.901C214.602 153.801 214.002 153.201 213.102 152.201C212.702 151.901 212.502 151.501 212.402 151.001C212.502 150.301 212.902 149.801 213.602 149.801C214.102 149.901 214.602 150.101 214.902 150.501L215.702 151.201C216.402 149.201 216.902 147.401 217.202 146.101C217.502 144.701 217.702 143.401 217.902 142.201C218.102 141.001 218.302 138.601 218.502 135.001C216.802 134.901 213.602 134.801 208.802 134.801C207.502 138.201 206.402 140.501 205.602 142.001C204.702 143.401 204.102 144.501 203.602 145.101C203.102 145.801 202.402 146.701 201.402 147.901C200.402 149.101 199.602 150.101 199.002 150.901C198.402 151.701 197.502 152.601 196.402 153.601C196.102 153.801 195.802 154.001 195.502 154.001C195.202 154.001 194.902 153.901 194.602 153.601C194.302 153.301 194.202 153.101 194.202 152.801C194.202 152.501 194.302 152.201 194.602 151.901C195.002 151.501 195.402 151.101 196.002 150.601C196.502 150.101 197.302 149.201 198.502 147.801C199.602 146.401 200.502 145.401 201.002 144.701C201.502 144.001 202.302 142.801 203.302 141.201C204.302 139.601 205.202 137.601 206.002 135.001C198.702 135.201 194.902 135.201 194.802 135.301C194.502 135.301 194.102 135.101 193.802 134.701C193.702 134.601 193.602 134.401 193.602 134.301C193.602 133.901 194.002 133.401 194.702 132.901L206.902 132.601C207.502 130.901 207.902 129.401 208.102 128.201C208.302 126.901 208.402 126.001 208.502 125.501C208.602 125.001 208.802 124.501 209.102 124.101C209.402 123.901 209.602 123.801 209.902 123.801C210.202 123.801 210.502 123.901 210.802 124.201C211.002 124.401 211.202 124.601 211.202 124.901C211.202 125.001 211.202 125.101 211.102 125.201C210.802 127.601 210.302 130.001 209.702 132.501C214.202 132.501 217.302 132.501 219.102 132.601H219.302C220.202 132.601 220.702 133.001 220.902 133.801C221.002 134.501 221.102 135.101 221.102 135.801C221.102 139.201 220.802 142.201 220.302 144.801C219.802 147.401 219.202 149.501 218.602 151.301C217.802 153.101 217.102 154.101 216.302 154.101ZM200.802 130.801C200.502 130.801 200.202 130.701 200.002 130.401C198.902 128.501 198.102 127.401 197.802 127.001C197.302 126.601 197.102 126.301 197.102 125.801C197.102 125.501 197.202 125.201 197.502 124.901C197.702 124.701 198.002 124.601 198.402 124.601C198.902 124.701 199.402 124.901 199.702 125.301C200.002 125.701 200.602 126.501 201.402 127.801C201.902 128.301 202.102 128.801 202.102 129.301C202.102 129.701 202.002 130.001 201.702 130.401C201.402 130.701 201.102 130.801 200.802 130.801ZM212.802 145.901C212.602 145.901 212.502 145.901 212.302 145.801C211.802 145.201 211.202 144.501 210.502 143.601C209.302 141.901 208.702 140.901 208.702 140.501C208.702 140.201 208.802 139.901 209.002 139.601C209.202 139.301 209.502 139.201 209.802 139.201C210.502 139.401 211.102 139.801 211.402 140.501C212.802 142.201 213.702 143.601 214.102 144.601C213.902 145.501 213.502 145.901 212.802 145.901Z" fill="#5F3720"/>
<path d="M227.1 148.101L226.3 147.701C226.1 147.401 226 147.001 226 146.501L226.3 145.901C227.3 145.401 228.3 145.101 229.5 145.001C229.2 134.801 229 129.501 229 129.301C229 128.601 229.4 128.201 230.1 128.001C232.7 128.001 234.8 127.901 236.3 127.901C237.8 127.901 238.7 127.901 239 128.001C239.6 128.101 239.8 128.601 239.8 129.501C239.8 129.801 239.7 134.101 239.6 142.601L241.5 142.401L242.1 142.701C242.3 143.001 242.4 143.401 242.4 144.001L242.1 144.601C239.6 145.101 237.1 145.701 234.6 146.401C232.1 147.001 229.6 147.601 227.1 148.101ZM231.6 133.501L237 133.401L237.1 130.501L231.5 130.401L231.6 133.501ZM231.7 138.401L237 138.301V136.101L231.7 136.201V138.401ZM232 144.401L236.9 143.101L237 140.801L231.9 141.001L232 144.401ZM253 153.501H252.9C252 153.201 251.1 152.601 250.4 151.801C250.1 151.501 250 151.101 250 150.501L250.3 149.901C250.6 149.701 250.9 149.601 251.3 149.601C251.6 149.601 252 149.801 252.5 150.201C252.9 148.401 253.2 146.501 253.4 144.601C253.6 142.701 253.7 139.001 253.7 133.501L249.6 133.801C249.4 136.701 249 139.601 248.4 142.401C247.8 145.301 246.9 148.001 245.6 150.701C245.3 150.901 244.9 151.001 244.4 151.001L243.7 150.701C243.5 150.401 243.4 150.001 243.4 149.401C244.6 147.001 245.4 144.501 245.9 141.801C246.4 139.101 246.8 136.501 247 133.901L243.1 134.201C242.2 134.101 241.8 133.601 241.8 132.801V132.601L242.1 131.901C242.9 131.701 243.7 131.501 244.6 131.401C245.4 131.301 246.3 131.301 247.2 131.201V126.601C247.3 125.801 247.8 125.301 248.8 125.301L249.5 125.601L249.8 126.201V130.901C252.7 130.701 254.5 130.601 255.1 130.601C255.7 130.601 256.1 130.901 256.1 131.301C256.2 131.801 256.2 132.401 256.2 133.301C256.2 134.201 256.2 135.901 256.2 138.401C256.2 140.901 256 143.401 255.7 145.801C255.4 148.201 255 150.001 254.5 151.301C254.2 152.901 253.7 153.501 253 153.501Z" fill="#5F3720"/>
<path d="M282.895 153.4C282.795 153.4 282.695 153.4 282.595 153.3C281.995 153.1 281.395 152.8 280.895 152.3C280.095 151.5 279.595 150.6 279.495 149.5L279.795 148.8C279.995 148.6 280.395 148.5 280.995 148.5L281.595 148.8L282.195 149.5C282.795 147.4 283.395 145.5 283.795 143.6C284.195 141.8 284.595 138.3 284.795 133.3L273.795 133.2C273.395 136.1 272.395 139.1 270.795 142.3C269.195 145.5 267.595 148.4 265.895 151.3C265.595 151.6 265.195 151.8 264.595 151.8C264.495 151.8 264.195 151.7 263.695 151.5C263.495 151.2 263.395 150.8 263.395 150.3C264.895 147.9 266.395 145.2 267.995 142.1C269.595 139 270.595 136.1 270.995 133.4C268.995 133.3 267.495 133.3 266.495 133.3C265.195 133.3 264.195 133.2 263.495 132.9C263.295 132.6 263.195 132.2 263.195 131.7L263.495 131C264.095 130.7 264.795 130.6 265.595 130.6C265.895 130.6 266.195 130.6 266.395 130.7L271.395 130.8C271.595 129.9 271.695 128.9 271.895 127.8C272.095 126.6 272.395 125.7 272.695 124.8C272.895 124.6 273.295 124.5 273.895 124.5L274.495 124.8C274.695 125.1 274.795 125.5 274.795 126.1C274.595 126.7 274.395 127.5 274.295 128.4C274.195 129.3 274.095 130.1 273.995 130.8C277.395 130.8 279.995 130.7 282.095 130.7C284.595 130.7 286.095 130.7 286.495 130.8C287.095 130.9 287.395 131.4 287.395 132.1L287.295 132.7C286.895 138.7 286.495 142.9 285.995 145.4C285.495 147.8 284.995 149.8 284.395 151.3C284.095 152.7 283.495 153.4 282.895 153.4Z" fill="#5F3720"/>
<path d="M45.9954 194.9C45.0954 194.8 44.5953 194.3 44.5953 193.3L44.4954 179C42.0954 179.1 40.6954 179.1 40.4954 179.2C40.1954 179.2 39.8953 179.1 39.5953 178.9C39.3953 178.6 39.1953 178.2 39.1953 177.9C39.1953 177.4 39.4953 177.1 40.0953 176.8C41.5953 176.7 42.7953 176.7 43.6953 176.7C45.2953 176.7 46.2953 176.9 46.6953 177.3C46.9953 177.6 47.1953 177.9 47.1953 178.3C47.1953 178.4 47.1953 178.5 47.1953 178.5L46.9954 190.8C47.7954 189.7 48.6954 189.2 49.4954 189.2C49.7954 189.2 50.0954 189.3 50.3954 189.4C50.5954 189.6 50.6953 189.9 50.6953 190.3C50.6953 190.7 50.2953 191.3 49.5953 192C48.8953 192.7 48.1953 193.4 47.6953 194C47.0953 194.4 46.4954 194.8 45.9954 194.9ZM47.3954 173.1C47.1954 173.1 47.0954 173.1 46.8954 173L44.4954 171.2C43.5954 170.8 43.1953 170.2 43.1953 169.4V169.1C43.3953 168.6 43.8954 168.3 44.4954 168.3L48.2953 171.2C48.4953 171.4 48.4954 171.6 48.4954 171.8C48.4954 171.9 48.4954 172.1 48.3954 172.2C48.1954 172.9 47.8954 173.1 47.3954 173.1ZM50.1953 195.4C49.3953 195.3 48.8954 194.8 48.8954 193.8L49.1953 193.2C49.8953 192.9 50.7953 192.7 51.5953 192.7L57.6953 192.6L57.2953 168.7C57.3953 167.8 57.8953 167.4 58.6953 167.4C58.7953 167.4 59.0953 167.5 59.5953 167.8L59.8954 168.4L60.0953 175.9C64.7953 175.9 67.3954 176 67.9954 176.3C68.1954 176.6 68.2953 176.9 68.2953 177.3C68.2953 177.4 68.1954 177.7 67.9954 178.1C67.4954 178.3 66.9954 178.5 66.4954 178.5C66.0954 178.5 63.9953 178.4 60.1953 178.4L60.2953 192.4C64.1953 192.3 66.5953 192.2 67.7953 192.1L68.3954 192.4C68.5954 192.7 68.7953 193 68.7953 193.4C68.7953 193.5 68.6954 193.8 68.3954 194.3C67.9954 194.8 61.8953 195.2 50.1953 195.4Z" fill="#5F3720"/>
<path d="M77.1 195H77L76.2999 194.7C76.0999 194.5 76 194.1 76 193.5L76.4 192.8C78 191.4 79.4 190 80.6 188.4C81.8 186.8 82.8 185.3 83.5 184C84.2 182.7 84.7 181.5 85.2 180.5C85.6 179.5 85.9 178.6 86.1 177.6L76.1 177.8L75.4 177.5C75.1 177.2 75 176.7 75 176.2L75.2999 175.5C75.7999 175.2 76.4 175 77 175H77.4L86.2999 174.8L86.4 169.8C86.5 169 87.1 168.5 88.1 168.5L88.7999 168.8L89.1 169.4L88.9 174.6H99.4L100.1 175C100.3 175.3 100.4 175.6 100.4 176C100.4 176.1 100.3 176.4 100.1 176.9L99.4 177.2H89.5C91.2 179.6 92.9 181.9 94.6 184.2C96.3 186.5 98.6999 189.2 101.8 192.3C102 192.6 102.1 193 102.1 193.5L101.8 194.2C101.5 194.4 101.1 194.5 100.5 194.5C97 191.2 94.5 188.4 92.9 186.3C91.3 184.1 89.7 182.1 87.9 180.1C87 182.7 85.7999 185.1 84.2999 187.4C82.7999 189.7 80.8 192 78.4 194.3C78.1 194.8 77.6 195 77.1 195Z" fill="#5F3720"/>
<path d="M110.8 185.802C110 185.702 109.5 185.202 109.5 184.202C110.1 182.902 110.6 181.502 111.1 180.102C111.6 178.702 112.3 177.402 113.2 176.202C113.5 176.002 114 175.802 114.5 175.802L115.2 176.102C115.4 176.302 115.5 176.702 115.5 177.302C114.6 178.502 113.9 179.802 113.4 181.202C112.9 182.602 112.3 183.902 111.6 185.302C111.5 185.602 111.2 185.702 110.8 185.802ZM122.1 195.802H121.9C121 195.602 119.8 194.902 118.2 193.702C118 193.502 117.9 193.101 117.9 192.501L118.2 191.802C118.5 191.602 118.9 191.501 119.5 191.501L120.9 192.302L120.6 168.901C120.7 168.101 121.2 167.602 122 167.602C122.1 167.602 122.4 167.701 122.9 167.901C123.1 169.201 123.2 170.501 123.3 171.901C123.3 173.301 123.4 180.802 123.6 194.602C123.1 195.402 122.6 195.802 122.1 195.802ZM134.2 185.401H134L133.3 185.102C132.5 183.702 131.5 182.301 130.4 181.001C129.3 179.701 128.5 178.302 127.9 176.802L128.2 176.202C128.4 176.002 128.8 175.901 129.4 175.901L130 176.202C130.9 177.602 131.8 179.002 132.9 180.302C134 181.602 134.8 183.001 135.3 184.501L135 185.102C134.9 185.302 134.6 185.401 134.2 185.401Z" fill="#5F3720"/>
<path d="M151.095 176.301C150.795 176.301 150.495 176.201 150.195 175.901C149.895 175.401 149.795 174.801 149.695 174.201C149.595 173.601 149.595 173.001 149.495 172.401C145.795 172.501 143.495 172.701 142.595 172.801L141.995 172.501C141.795 172.201 141.695 171.801 141.695 171.201L141.995 170.601C143.095 170.201 144.195 170.001 145.395 170.001C146.595 170.001 147.795 170.001 149.095 169.901L148.995 168.401L149.395 167.601C149.595 167.401 149.995 167.301 150.595 167.301L151.195 167.601C151.495 168.301 151.695 169.001 151.695 169.801H160.195V169.201C160.195 168.601 160.295 168.101 160.595 167.601C160.795 167.401 161.195 167.301 161.795 167.301L162.395 167.601C162.695 168.101 162.795 168.601 162.795 169.201C162.795 169.401 162.795 169.701 162.695 169.901C163.795 169.901 164.795 170.001 165.895 170.001C166.995 170.001 167.995 170.201 168.995 170.501C169.195 170.801 169.295 171.201 169.295 171.701L168.995 172.301C168.595 172.601 168.095 172.701 167.595 172.701L162.195 172.501C161.995 173.001 161.895 173.601 161.895 174.201C161.895 174.801 161.795 175.401 161.495 175.801C161.195 176.001 160.795 176.101 160.195 176.101L159.495 175.801C159.295 175.401 159.095 175.001 159.095 174.601C159.095 174.501 159.195 173.801 159.395 172.501L151.895 172.601L152.195 175.401L151.895 176.101C151.795 176.101 151.495 176.201 151.095 176.301ZM146.595 197.001C145.795 196.901 145.295 196.401 145.295 195.601C145.295 195.501 145.395 195.201 145.595 194.701C147.195 194.001 148.895 192.701 150.495 191.101C151.495 190.101 152.295 188.901 152.795 187.601L143.195 188.001C142.395 187.901 141.895 187.401 141.895 186.401L142.195 185.801C142.695 185.501 143.295 185.401 143.995 185.401H145.895C145.595 182.301 145.495 180.401 145.495 179.801C145.495 179.101 145.695 178.601 146.095 178.501C146.495 178.301 149.295 178.201 154.595 178.001C154.595 177.701 154.495 177.501 154.495 177.201C154.495 176.501 154.595 175.901 154.895 175.401C155.195 175.201 155.595 175.101 156.195 175.101L156.795 175.401C157.095 175.901 157.195 176.501 157.195 177.201C157.195 177.401 157.195 177.701 157.095 177.901C162.395 177.901 165.295 177.901 165.995 178.001C166.495 178.101 166.795 178.301 166.795 178.801C166.795 178.901 166.795 179.201 166.695 179.601C166.595 180.001 166.395 181.801 166.095 185.001H166.695C167.595 185.001 168.395 185.201 169.095 185.501C169.295 185.801 169.395 186.101 169.395 186.501C169.395 186.601 169.295 186.901 169.095 187.401C168.495 187.601 167.895 187.801 167.195 187.801C166.695 187.801 163.395 187.701 157.295 187.701C160.595 190.901 163.795 192.901 166.895 193.801C167.595 194.001 168.295 194.301 168.995 194.601C169.195 194.901 169.295 195.301 169.295 195.801L168.995 196.401C168.595 196.601 168.295 196.801 167.895 196.801C165.795 196.201 163.795 195.501 161.895 194.501C159.995 193.501 157.695 191.701 154.995 189.201C154.295 190.701 153.195 192.101 151.895 193.401C149.695 195.601 147.895 196.901 146.595 197.001ZM148.795 185.101L153.995 185.001C154.295 183.401 154.495 181.901 154.595 180.501L148.395 180.601C148.395 181.501 148.495 183.101 148.795 185.101ZM163.695 184.901L164.095 180.501L157.195 180.401C157.095 182.401 156.895 183.801 156.595 184.901H163.695Z" fill="#5F3720"/>
<path d="M175.795 191.501H175.595L174.995 191.202C174.795 190.902 174.695 190.501 174.695 189.901C176.295 186.101 177.995 181.002 179.595 174.702H178.995C178.095 174.702 177.195 174.502 176.395 174.202C176.195 173.902 176.095 173.501 176.095 173.001L176.395 172.302C176.795 172.102 177.195 172.001 177.695 172.001L180.295 172.102C180.495 171.302 180.695 170.502 180.695 169.702C180.795 168.902 180.995 168.101 181.295 167.401C181.595 167.201 181.995 167.102 182.595 167.102L183.295 167.401C183.495 167.601 183.595 168.002 183.595 168.602C183.395 169.102 183.295 169.702 183.195 170.202C183.095 170.802 183.095 171.401 182.995 172.001L188.395 171.901L189.095 172.202C189.295 172.502 189.395 172.901 189.395 173.501L189.095 174.102C188.795 174.302 188.495 174.501 188.095 174.501L182.495 174.602C181.695 177.402 180.895 180.201 180.095 183.001C179.295 185.801 178.295 188.502 176.995 191.202C176.595 191.302 176.195 191.501 175.795 191.501ZM188.195 193.202H187.995L187.395 192.901L186.895 191.802L180.295 192.501C179.495 192.501 178.995 192.102 178.995 191.202C178.995 190.702 180.095 187.002 182.195 180.202C182.495 180.002 182.795 179.802 183.195 179.802C183.395 179.802 183.695 179.902 184.195 180.202C184.495 180.502 184.595 180.901 184.595 181.501C183.495 184.701 182.695 187.302 182.195 189.602L185.895 189.202C185.395 188.202 185.095 187.302 184.795 186.302C184.895 185.402 185.395 185.001 186.195 185.001H186.495L187.195 185.401C187.695 186.501 188.095 187.602 188.595 188.802C189.095 190.002 189.395 191.102 189.595 192.302L189.295 193.001C188.895 193.101 188.595 193.202 188.195 193.202ZM193.295 196.102C192.295 196.102 191.795 195.901 191.795 195.401C191.795 192.701 191.895 187.502 191.995 179.802C191.495 180.502 190.895 181.301 190.495 182.001C190.195 182.301 189.695 182.501 189.195 182.501L188.495 182.202C188.295 182.002 188.195 181.601 188.195 181.001C189.395 179.101 190.395 177.101 191.295 175.001C192.095 172.901 192.895 170.902 193.695 168.802C193.895 168.602 194.295 168.501 194.895 168.501L195.495 168.802C195.695 169.102 195.895 169.402 195.895 169.802C195.895 170.002 195.495 171.202 194.695 173.602H198.895C199.195 172.802 199.395 172.102 199.695 171.302C199.895 170.602 200.195 169.802 200.495 169.102C200.795 168.902 201.195 168.802 201.795 168.802L202.395 169.102C202.595 169.402 202.695 169.702 202.695 170.202C202.695 170.302 202.395 171.502 201.695 173.702H203.795C204.395 173.702 204.995 173.802 205.395 174.102C205.595 174.402 205.695 174.802 205.695 175.302L205.395 176.001C204.995 176.201 204.595 176.401 204.095 176.401L201.295 176.302L201.395 179.401H204.095L204.795 179.702C204.995 180.002 205.095 180.401 205.095 180.901L204.795 181.602C204.095 181.902 203.295 182.001 202.495 182.001C202.195 182.001 201.895 182.001 201.595 181.901V184.802H202.295C202.995 184.802 203.595 184.902 204.095 185.202C204.295 185.502 204.395 185.901 204.395 186.401L204.095 187.102C203.595 187.402 202.895 187.501 202.295 187.501H201.695V193.401L204.495 193.302L205.195 193.602C205.395 193.902 205.495 194.302 205.495 194.702C205.495 194.802 205.395 195.102 205.195 195.602C204.195 195.802 200.295 196.002 193.295 196.102ZM194.295 193.501L198.895 193.401V187.501L194.395 187.602L194.295 193.501ZM198.595 179.401L198.495 176.202H194.395V179.401H198.595ZM194.495 184.901L198.695 184.802V181.901H194.495V184.901Z" fill="#5F3720"/>
<path d="M235.902 180.7C235.102 180.6 234.702 180.1 234.702 179.1C234.902 178.6 235.102 177.5 235.402 175.9L212.902 175.6C213.102 177.4 213.302 178.7 213.502 179.6L213.102 180.3C212.802 180.5 212.502 180.6 212.102 180.6C212.002 180.6 211.702 180.5 211.202 180.3C210.802 179.3 210.602 178.3 210.502 177.2C210.402 176.1 210.302 175 210.102 173.9C210.102 173.3 210.602 173 211.602 172.9H215.702L214.802 168.3C214.902 167.5 215.402 167.1 216.402 167.1L217.102 167.4C217.402 168.3 217.702 169.2 217.802 170.2C217.902 171.2 218.102 172.1 218.402 173.1H221.402C221.002 170.7 220.602 169 220.302 167.9L220.602 167.3C220.902 167 221.302 166.9 221.802 166.9L222.402 167.2C222.902 168 223.102 168.9 223.302 169.8C223.502 170.7 223.502 171.8 223.602 173H228.202C228.102 172.7 228.102 172.5 228.102 172.3C228.102 171.9 228.202 171.6 228.402 171.3C228.602 171 229.202 169.7 230.202 167.4C230.402 167.2 230.802 167.1 231.402 167.1L232.002 167.4C232.202 167.6 232.402 167.9 232.402 168.3C232.302 169.3 231.702 170.9 230.502 173C234.102 173.2 236.302 173.3 237.002 173.3C237.802 173.3 238.202 173.6 238.202 174.3C238.202 174.8 238.102 175.7 237.902 177.1C237.702 178.5 237.402 179.5 237.102 180.3C236.602 180.6 236.302 180.7 235.902 180.7ZM224.602 197C224.402 197 224.302 197 224.102 196.9C223.102 196.6 222.302 196.1 221.602 195.3C221.302 195 221.202 194.6 221.202 194.1L221.502 193.5C221.702 193.3 222.102 193.2 222.702 193.2C223.202 193.4 223.602 193.7 224.002 194C224.102 193.2 224.302 192.5 224.402 191.7C224.502 191 224.602 190.2 224.602 189.3L214.102 189.6L213.502 189.3C213.302 189.1 213.202 188.7 213.202 188.1L213.502 187.5C213.902 187.2 214.302 187.1 214.802 187.1L224.102 186.9C223.902 186.2 223.502 185.5 222.902 184.9C222.502 184.5 222.402 184.2 222.402 183.9C222.402 183.7 222.602 183.4 223.002 183.2C223.402 183 223.802 182.6 224.402 182.2C224.902 181.8 225.602 181.1 226.502 180.2L219.902 180.1L219.102 179.7C218.902 179.4 218.802 179.1 218.802 178.7C218.802 178.6 218.902 178.3 219.102 177.9L219.702 177.6L229.302 177.7C230.002 177.7 230.402 178 230.402 178.6C230.402 178.8 230.402 179 230.302 179.2L228.902 181.4C228.102 182.3 227.102 183.3 225.902 184.3C226.402 185.2 226.702 186 226.902 186.8C228.502 186.9 230.102 187 231.702 187.1C233.302 187.2 234.802 187.4 236.402 187.7C236.602 187.9 236.702 188.3 236.702 188.9L236.402 189.5C236.102 189.8 235.702 189.9 235.202 189.9L227.402 189.4C227.302 190.7 227.202 192 227.002 193.3C226.302 195.7 225.602 197 224.602 197Z" fill="#5F3720"/>
<path d="M267.898 196.701C266.598 196.401 265.398 195.801 264.298 195.001C263.998 194.801 263.798 194.501 263.798 194.001C263.998 193.201 264.398 192.801 264.998 192.801C265.198 192.801 265.498 192.901 265.798 193.001L266.998 193.701C267.098 188.801 267.098 185.601 267.098 184.201C267.098 180.701 266.998 175.901 266.798 169.701L247.898 169.901C247.598 169.401 247.398 169.001 247.398 168.601C247.398 168.201 247.598 167.901 247.898 167.601L267.398 167.201C268.498 167.301 269.098 167.701 269.198 168.501C269.298 169.301 269.398 171.201 269.498 174.401C269.598 177.601 269.598 181.201 269.598 185.201C269.598 189.201 269.498 192.701 269.198 195.501C268.898 196.301 268.498 196.601 267.898 196.701ZM252.198 189.201C251.498 189.101 251.098 188.601 251.098 187.901C251.398 187.001 252.098 186.401 253.098 186.201C254.398 185.701 257.398 184.101 262.198 181.501C262.498 181.301 262.798 181.201 263.098 181.201C264.098 181.201 264.598 181.601 264.598 182.401C264.598 182.801 264.298 183.101 263.798 183.401C263.298 183.701 261.598 184.601 258.798 186.101C255.998 187.701 253.798 188.701 252.198 189.201ZM256.598 179.701C256.298 179.701 255.898 179.501 255.598 179.101C253.998 177.901 252.698 176.901 251.898 176.101C251.698 175.801 251.498 175.601 251.498 175.301C251.498 175.001 251.598 174.801 251.898 174.501C252.298 174.301 252.598 174.201 252.998 174.201C253.598 174.201 254.098 174.501 254.598 175.201L255.898 176.201C256.498 176.501 256.998 176.901 257.398 177.501C257.598 177.801 257.698 178.101 257.698 178.301C257.698 178.601 257.598 178.901 257.398 179.301C257.198 179.601 256.898 179.701 256.598 179.701Z" fill="#5F3720"/>
<path d="M14.7983 239.2C13.9983 239.1 13.4984 238.6 13.4984 237.8C13.4984 237.7 13.5983 237.4 13.7983 236.9C15.0983 236.4 16.2984 235.8 17.1984 235.2C18.0984 234.6 19.3984 233.4 20.8984 231.8C18.6984 229.9 16.6984 228.1 15.0984 226.2C13.4984 230.6 11.6984 234.6 9.69836 238.2C9.49836 238.4 9.09841 238.5 8.49841 238.5L7.89844 238.2C7.69844 237.9 7.59839 237.5 7.59839 236.9C11.0984 229.9 13.3983 224 14.2983 219L8.09839 219.1C7.69839 219.1 7.39836 218.9 7.19836 218.7C6.99836 218.5 6.89844 218.1 6.89844 217.7C6.89844 217.4 7.69844 215 9.39844 210.5C9.59844 210.3 9.99839 210.2 10.5984 210.2L11.1984 210.5C11.3984 210.9 11.5984 211.2 11.5984 211.7C11.5984 211.9 11.0984 213.4 9.99841 216.5L14.6984 216.4L14.9984 214.6C15.1984 213.9 15.2983 213.2 15.2983 212.4C15.2983 211.3 15.3984 210.4 15.6984 209.8C15.9984 209.6 16.3984 209.5 16.8984 209.5L17.5984 209.8L17.8984 210.5V213.2C17.6984 214.3 17.5984 215.3 17.3984 216.4C27.3984 216.2 32.6984 216.1 33.0984 216L33.7983 216.4C33.9983 216.7 34.0984 217.1 34.0984 217.6L33.7983 218.2C33.4983 218.4 33.1984 218.5 32.8984 218.6L16.9984 219C16.8984 219.8 16.6984 220.7 16.5984 221.7L29.0984 221.4C29.8984 221.5 30.2983 221.8 30.2983 222.3C30.2983 222.5 30.1984 222.8 30.0984 223.1C29.1984 224.7 28.4984 226.1 27.9984 227.2C27.4984 228.3 26.4984 229.8 25.0984 231.7C25.6984 232 26.1983 232.4 26.7983 232.7C27.3983 233.1 27.9984 233.5 28.6984 233.9C29.3984 234.4 30.1984 234.8 30.9984 235.1C31.8984 235.5 32.6984 235.9 33.5984 236.3C33.7984 236.5 33.8984 236.9 33.8984 237.5L33.5984 238.1C33.2984 238.3 32.8983 238.4 32.2983 238.4C30.5983 237.9 29.0984 237.2 27.5984 236.2C26.0984 235.3 24.6983 234.4 23.2983 233.4C20.8983 235.6 19.2984 237 18.3984 237.6C17.4984 238.2 16.1983 238.8 14.7983 239.2ZM22.6984 229.8L23.9984 228.4C25.0984 226.4 25.7983 224.9 26.2983 223.9L17.0984 224.2C17.5984 224.8 17.9984 225.4 18.4984 225.9C18.9984 226.4 20.3984 227.7 22.6984 229.8ZM29.5984 215.3H29.4984C29.1984 215.3 28.8984 215.2 28.6984 215.1L24.8984 212.9C24.2984 212.6 23.9983 212.1 23.7983 211.4L23.9984 210.7C24.2984 210.4 24.5984 210.2 24.8984 210.2C25.0984 210.2 25.2984 210.2 25.6984 210.3L30.0984 212.9C30.3984 213.2 30.5984 213.5 30.5984 213.9C30.5984 214 30.5984 214.3 30.4984 214.7C30.1984 215 29.8984 215.2 29.5984 215.3Z" fill="#5F3720"/>
<path d="M46.2969 239.601H46.1969C45.2969 239.401 44.4969 238.901 43.7969 238.101C43.0969 237.501 42.7969 236.801 42.6969 236.001L42.9969 235.401C43.1969 235.201 43.5969 235.101 44.0969 235.101L44.897 235.501L44.7969 227.201C43.9969 227.401 43.1969 227.601 42.4969 227.701C41.7969 227.901 41.0969 228.001 40.2969 228.101L39.5969 227.801C39.3969 227.601 39.2969 227.201 39.2969 226.701L39.5969 226.101C40.6969 225.601 42.3969 225.201 44.7969 224.701L44.897 216.201C44.097 216.201 42.7969 216.401 41.1969 216.701C40.3969 216.601 39.9969 216.101 39.9969 215.101L40.2969 214.501C41.3969 214.101 42.897 213.801 44.897 213.701L44.6969 210.901C44.7969 210.101 45.2969 209.701 45.9969 209.701C46.0969 209.701 46.397 209.801 46.897 210.001C47.197 210.501 47.2969 211.101 47.2969 211.701C47.2969 212.301 47.297 213.001 47.397 213.601L49.6969 213.501L50.2969 213.801C50.4969 214.001 50.5969 214.401 50.5969 214.701C50.5969 214.801 50.4969 215.101 50.2969 215.501C49.6969 215.801 48.9969 216.001 48.1969 216.001H47.397V223.601C48.097 223.301 48.7969 223.201 49.4969 223.201L50.0969 223.501C50.2969 223.801 50.397 224.201 50.397 224.701L50.0969 225.301C49.1969 225.801 48.1969 226.101 47.1969 226.401L47.397 238.401C47.397 239.301 46.9969 239.601 46.2969 239.601ZM49.6969 238.901H49.4969L48.897 238.601C48.697 238.301 48.5969 237.901 48.5969 237.401C49.7969 234.601 50.6969 231.701 51.2969 228.601C51.8969 225.601 52.1969 223.001 52.2969 220.801L52.4969 213.401C52.4969 212.401 52.797 211.901 53.397 211.801C53.997 211.701 56.2969 211.701 60.1969 211.701C64.0969 211.701 66.3969 211.801 66.7969 211.901C67.2969 212.001 67.5969 212.401 67.6969 212.901C67.5969 216.401 67.4969 218.401 67.4969 218.901C67.4969 219.401 67.1969 219.601 66.7969 219.601C66.2969 219.601 65.8969 219.601 65.4969 219.701C63.6969 219.701 60.197 219.701 54.897 219.601C54.297 227.101 52.8969 233.401 50.6969 238.501C50.4969 238.701 50.0969 238.901 49.6969 238.901ZM55.4969 238.701C54.8969 238.701 54.497 238.501 54.397 238.101C54.297 237.801 54.1969 236.001 54.0969 232.701L54.397 232.001C54.697 231.801 54.997 231.701 55.397 231.701C55.497 231.701 55.7969 231.801 56.1969 232.001L56.4969 232.601V236.201H59.7969V229.401L56.6969 229.501C56.3969 229.501 56.097 229.301 55.897 229.101C55.697 228.901 55.4969 228.601 55.4969 228.301V224.401C55.4969 223.901 55.597 223.401 55.897 223.001C56.197 222.801 56.5969 222.701 57.0969 222.701L57.6969 223.001C57.8969 223.301 58.0969 223.601 58.0969 224.001L57.897 227.001L59.7969 226.901V222.401C59.8969 221.601 60.397 221.201 61.397 221.201L61.9969 221.501C62.1969 221.801 62.2969 222.101 62.2969 222.501L62.1969 226.901L64.6969 226.801L64.2969 223.701C64.3969 222.901 64.897 222.501 65.897 222.501L66.4969 222.801C66.7969 223.601 66.9969 224.401 67.0969 225.301L67.4969 228.201C67.4969 228.801 67.2969 229.201 66.7969 229.201C66.2969 229.201 64.7969 229.301 62.2969 229.301L62.5969 236.001L65.9969 235.901L65.7969 233.201C65.8969 232.401 66.3969 231.901 67.0969 231.901H67.2969L67.897 232.201C68.097 233.001 68.2969 233.801 68.2969 234.601C68.2969 235.401 68.3969 236.301 68.5969 237.201C68.4969 237.901 68.097 238.201 67.397 238.201L55.4969 238.701ZM65.1969 217.201L65.2969 214.101H54.9969V217.101L65.1969 217.201Z" fill="#5F3720"/>
<path d="M80.6016 240.2H80.4016L79.8015 239.9C79.5015 238.9 79.3015 237.8 79.3015 236.6C79.3015 235.4 79.2016 231.2 79.0016 223.8C77.5016 225.5 76.2015 227.1 75.2015 228.8C74.9015 229 74.5016 229.1 74.0016 229.1L73.4016 228.8C73.2016 228.5 73.1016 228.1 73.1016 227.5C74.6016 225.3 76.3016 223.1 78.0016 221C79.7016 218.9 81.3015 216.6 82.8015 214.3C83.1015 214 83.5016 213.9 84.1016 213.9L84.7015 214.2C84.9015 214.5 85.0016 214.9 85.0016 215.4C84.5016 216.4 83.4015 217.9 81.8015 219.9L82.0016 239.1L81.6016 239.8C81.3016 240.1 81.0016 240.2 80.6016 240.2ZM74.6016 220.3H74.4016L73.7015 220C73.5015 219.7 73.4016 219.3 73.4016 218.8C74.8016 216.8 76.7015 214.2 79.2015 211C79.5015 210.8 79.9015 210.7 80.3015 210.7C80.4015 210.7 80.7015 210.8 81.2015 211C81.4015 211.3 81.5016 211.7 81.5016 212.3C79.7016 214.4 77.8015 217 75.7015 220C75.4015 220.2 75.0016 220.3 74.6016 220.3ZM88.7015 239.2H88.5016L87.8015 238.9C87.6015 238.6 87.5016 238.2 87.5016 237.7C88.0016 236.8 88.7016 235.8 89.5016 234.7C90.3016 233.7 91.2016 232.4 92.1016 231C91.4016 230.3 90.8015 229.5 90.3015 228.7C89.7015 227.9 89.1016 227.1 88.4016 226.4C88.2016 228.4 88.0016 230.4 87.6016 232.3C87.3016 234.2 86.7016 236.1 86.0016 238C85.8016 238.2 85.4015 238.3 84.8015 238.3L84.2015 238C84.0015 237.7 83.9016 237.3 83.9016 236.7C84.6016 234.3 85.2016 231.4 85.6016 227.9C85.9016 225.3 86.1016 222.4 86.1016 219.2C86.1016 218.1 86.1016 216.9 86.0016 215.7C86.0016 214.4 86.5015 213.8 87.3015 213.8C87.5015 213.8 89.1016 213.8 92.1016 213.8V211.8C92.1016 211.3 92.2016 210.8 92.5016 210.3C92.7016 210.1 93.1015 210 93.7015 210L94.3015 210.3L94.6016 210.9V213.8C99.3016 213.8 101.902 213.9 102.402 214C102.702 214 102.802 214.2 102.802 214.6C102.802 214.9 102.702 215.4 102.402 216.1C102.202 216.8 101.902 217.6 101.702 218.4C101.502 219.2 101.202 220 100.902 220.7C100.602 220.9 100.202 221 99.7015 221L99.0016 220.7C98.8016 220.4 98.7015 220.1 98.7015 219.6C98.7015 219.1 99.0016 218 99.6016 216.4L94.6016 216.3L94.7015 220.5H98.1016C98.9016 220.5 99.4016 220.8 99.4016 221.4C99.4016 221.6 99.4015 221.8 99.3015 222.1C98.6015 223.5 98.0016 225 97.4016 226.4C96.8016 227.8 96.1016 229.3 95.4016 230.7C97.0016 232 98.1015 233 98.8015 233.7C99.5015 234.4 100.602 235.3 102.102 236.3C102.302 236.6 102.402 237 102.402 237.5L102.102 238.2C101.802 238.4 101.402 238.6 101.002 238.6H100.702C99.6015 238 98.6015 237.3 97.7015 236.6C96.7015 235.8 95.6016 234.7 94.1016 233.3C91.7016 236.1 90.3016 237.9 89.9016 238.6C89.6016 239 89.2015 239.2 88.7015 239.2ZM88.8015 220.9L92.5016 220.8L92.3015 216.5H88.8015V220.9ZM93.6016 228.5C94.1016 227.7 94.5016 226.8 94.9016 225.9C95.3016 225 95.6016 224.1 96.0016 223.2L89.6016 223.4C90.2016 224.3 90.8016 225.1 91.4016 225.8C92.0016 226.5 92.8016 227.4 93.6016 228.5Z" fill="#5F3720"/>
<path d="M108.698 235.6C107.498 235.6 106.898 235.1 106.898 234.1V233.9L107.198 233.2C107.498 233 107.898 232.8 108.398 232.8C108.698 232.8 109.298 232.8 110.298 232.8L109.898 220.3C109.998 219.5 110.498 219 111.298 219C111.398 219 111.698 219.1 112.198 219.3C112.498 219.7 112.598 220.1 112.598 220.6L112.898 232.2L115.598 231.8L114.998 212.3L115.298 211.7C115.598 211.5 115.998 211.4 116.598 211.4L117.198 211.7C117.498 212.1 117.598 212.6 117.598 213.1L117.898 220.5L120.998 220.4C121.798 220.4 122.498 220.5 123.098 220.8C123.298 221.1 123.398 221.5 123.398 222L123.098 222.7C122.698 223 122.298 223.1 121.698 223.1L117.898 223L118.098 231.3C118.898 231.2 119.598 231.1 120.298 231C120.998 230.9 121.698 230.8 122.398 230.7L122.998 231C123.198 231.3 123.298 231.7 123.298 232.3L122.998 233C119.198 233.9 114.298 234.7 108.698 235.6ZM135.798 238.8C134.598 238.8 132.998 238.6 130.798 238.3C129.298 238.1 127.998 237.2 126.898 235.8C125.898 234.4 125.298 232.8 125.098 231C124.598 223.7 124.198 217.8 124.098 213.2C124.198 212.4 124.698 211.9 125.498 211.9C125.598 211.9 125.898 212 126.398 212.2C126.698 213 126.798 213.9 126.798 214.8C126.798 215.7 126.798 216.6 126.898 217.5L135.398 217.2L135.998 217.5C136.198 217.7 136.298 218.1 136.298 218.7L135.998 219.3C134.698 219.6 133.298 219.8 131.898 219.8C129.998 219.8 128.298 219.9 126.998 220C127.298 225.1 127.498 228.4 127.598 229.9C127.698 231.4 128.098 232.6 128.798 233.6C129.498 234.6 130.298 235.2 131.198 235.4C132.098 235.6 133.098 235.8 134.398 235.9C134.498 235.3 134.598 234.7 134.698 234.1C134.798 233.5 134.898 232.9 135.198 232.4C135.398 232.2 135.798 232.1 136.398 232.1L136.998 232.4C137.198 232.7 137.298 233.1 137.298 233.6C137.098 234.4 136.898 235.2 136.898 236C136.898 236.8 136.798 237.5 136.698 237.9C136.898 238.6 136.498 238.8 135.798 238.8Z" fill="#5F3720"/>
<path d="M150.995 233.501H146.595H142.395C141.895 233.501 141.595 233.302 141.495 232.802C141.395 232.302 141.295 227.401 141.195 217.901C141.195 216.901 141.595 216.302 142.395 216.202C142.595 216.202 142.895 216.202 143.095 216.202C143.695 216.202 144.495 216.301 145.395 216.401C145.595 215.501 145.995 214.701 146.495 214.001C146.995 213.301 147.395 212.502 147.795 211.702C148.095 211.502 148.495 211.401 148.995 211.401L149.695 211.702C149.895 211.902 149.995 212.302 149.995 212.702C149.995 213.202 149.695 213.802 149.195 214.702C148.895 215.302 148.595 215.901 148.295 216.501C150.695 216.501 152.195 216.602 152.595 216.702C153.095 216.802 153.295 217.302 153.295 218.202V218.602C153.095 227.602 152.895 232.401 152.795 232.901C152.495 233.301 151.995 233.501 150.995 233.501ZM143.795 222.802L150.395 222.702L150.495 219.102L143.695 218.901L143.795 222.802ZM144.095 230.901L150.295 230.802L150.395 225.302L143.895 225.401L144.095 230.901ZM167.395 239.602C166.895 239.602 166.395 239.302 165.795 238.702C164.795 237.702 163.895 236.902 163.195 236.302C162.795 235.902 162.595 235.402 162.595 234.802L162.895 234.102C163.195 233.902 163.595 233.802 164.095 233.802C164.695 234.102 165.495 234.901 166.595 236.001C166.995 233.101 167.295 230.202 167.595 227.102C167.895 224.002 168.095 221.101 168.395 218.401L158.595 218.302C158.495 219.302 158.295 220.102 157.995 220.802C157.695 221.502 157.395 222.302 156.995 223.202C156.695 223.402 156.295 223.501 155.795 223.501L155.195 223.202C154.995 222.902 154.795 222.602 154.795 222.202V221.901C155.495 220.301 155.995 218.501 156.295 216.501C156.595 214.401 156.995 212.401 157.695 210.401C157.995 210.201 158.395 210.102 158.895 210.102L159.595 210.401C159.795 210.601 159.895 211.001 159.895 211.401V211.802C159.595 212.902 159.295 214.302 159.095 215.802L169.995 215.901C170.695 215.901 170.995 216.402 170.995 217.302C170.595 222.202 170.195 226.302 169.995 229.602C169.795 232.902 169.395 235.402 168.895 237.302C168.495 238.702 167.895 239.602 167.395 239.602ZM162.695 229.302H162.495L161.795 229.001L159.195 226.102C158.995 225.802 158.895 225.401 158.895 224.901L159.195 224.202C159.495 224.002 159.795 223.802 160.195 223.802C160.395 223.802 160.695 223.902 161.195 224.202L163.495 227.102C163.795 227.402 163.995 227.801 163.995 228.401L163.695 229.102C163.395 229.202 163.095 229.302 162.695 229.302Z" fill="#5F3720"/>
<path d="M201.102 239.001C200.502 239.001 199.802 238.702 198.802 238.102C197.302 237.202 196.602 236.301 196.602 235.401L196.902 234.802C197.202 234.602 197.602 234.501 198.102 234.501C198.802 235.101 199.602 235.601 200.302 236.001C200.602 234.501 200.702 233.102 200.702 231.702C200.702 228.202 200.802 223.601 200.902 218.001L190.302 217.702L189.902 219.102C193.802 222.202 196.202 224.002 197.102 224.302C198.002 224.602 198.702 225.002 199.202 225.302C199.402 225.602 199.502 226.001 199.502 226.401C199.502 226.501 199.402 226.802 199.202 227.302C198.902 227.502 198.602 227.702 198.202 227.702H197.902C196.702 227.202 195.602 226.701 194.502 226.001C193.402 225.301 191.602 223.902 189.002 221.602C187.002 225.702 184.902 227.802 182.502 228.102L181.902 227.802C181.702 227.502 181.502 227.102 181.502 226.602L181.902 225.901C182.502 225.501 183.302 224.902 184.102 224.102C185.602 222.702 186.702 220.602 187.602 217.802L179.902 217.901C180.102 222.501 180.202 226.302 180.302 229.202C180.402 232.102 180.702 235.002 181.102 237.802L180.802 238.401C180.502 238.601 180.102 238.702 179.602 238.702L178.902 238.401C178.202 235.501 177.802 232.602 177.702 229.602C177.602 226.602 177.402 222.502 177.102 217.302V217.001C177.102 215.901 177.402 215.302 178.102 215.202C178.802 215.202 182.202 215.102 188.202 215.102C188.502 214.402 188.702 213.602 188.802 212.802C188.902 212.002 189.002 211.201 189.302 210.401C189.502 210.201 189.902 210.102 190.502 210.102L191.102 210.401C191.402 210.901 191.502 211.401 191.502 211.901C191.502 212.101 191.302 213.202 190.902 215.102C198.102 215.302 201.902 215.301 202.402 215.401C202.902 215.401 203.302 215.802 203.402 216.702C203.202 225.402 203.102 230.702 203.002 232.702C203.002 234.702 202.802 236.302 202.302 237.602C202.102 238.402 201.602 239.001 201.102 239.001Z" fill="#5F3720"/>
<path d="M215.698 239.801H215.498L214.898 239.501C214.598 238.901 214.498 238.301 214.498 237.601V236.901L214.398 230.501L212.698 233.201C212.398 233.401 211.998 233.601 211.498 233.601L210.798 233.201C210.598 232.901 210.498 232.501 210.398 232.101C211.798 229.901 213.198 227.601 214.598 225.401L214.298 221.601C214.398 220.801 214.998 220.301 215.998 220.301L216.898 220.801C217.098 220.201 217.398 219.601 217.598 218.901C217.898 218.301 218.098 217.701 218.298 217.001L211.898 217.101L211.198 216.801C210.898 216.501 210.798 216.101 210.798 215.501L211.098 214.901C211.498 214.601 211.998 214.501 212.398 214.501L219.098 214.401C219.298 213.201 219.798 212.001 220.498 210.701C220.798 210.401 221.198 210.301 221.798 210.301L222.398 210.601C222.598 210.901 222.698 211.301 222.698 211.901C222.298 212.701 221.998 213.501 221.798 214.401L235.098 214.501C235.998 214.501 236.798 214.601 237.498 214.801C237.698 215.001 237.798 215.401 237.798 216.001L237.498 216.701C237.198 216.901 236.798 217.101 236.398 217.101L220.998 217.001C220.398 218.601 219.798 220.201 219.198 221.701C218.598 223.301 217.798 224.801 216.898 226.301C216.998 233.301 216.998 237.101 217.098 237.401C217.098 238.101 216.998 238.801 216.698 239.401C216.398 239.601 216.098 239.801 215.698 239.801ZM235.698 238.001C235.498 238.001 235.198 238.001 234.998 237.901L220.298 237.601C219.898 237.601 219.598 237.401 219.298 237.201C219.098 236.901 218.998 236.501 218.998 236.101C218.998 236.001 219.098 235.701 219.298 235.201L219.998 234.901L227.098 235.001L226.998 228.201H223.498C222.898 228.201 222.398 228.001 221.898 227.701C221.698 227.501 221.598 227.101 221.598 226.501L221.898 225.901C222.298 225.701 222.698 225.501 223.198 225.501C223.498 225.501 224.698 225.601 226.898 225.601L226.698 222.701C226.798 221.801 227.298 221.401 228.098 221.401C228.298 221.401 228.598 221.501 229.098 221.801C229.298 222.101 229.398 222.401 229.398 222.901L229.498 225.501L234.098 225.401L234.698 225.701C234.898 226.001 234.998 226.401 234.998 226.901L234.698 227.601C234.398 227.801 234.098 227.901 233.698 228.001L229.598 228.101L229.698 235.101C230.998 235.201 232.298 235.201 233.598 235.201C234.898 235.201 236.198 235.301 237.398 235.601C237.598 235.901 237.698 236.201 237.698 236.601C237.698 236.701 237.598 237.001 237.398 237.501C236.898 237.901 236.298 238.001 235.698 238.001Z" fill="#5F3720"/>
<path d="M248.698 222.401H248.498C247.798 222.101 246.998 221.901 246.198 221.901C245.398 221.901 244.598 221.801 243.798 221.501C243.598 221.201 243.498 220.801 243.498 220.201L243.798 219.501C244.398 219.301 244.898 219.101 245.498 219.101C245.698 219.101 245.998 219.101 246.498 219.201C247.998 219.401 248.998 219.701 249.598 220.101C249.798 220.401 249.898 220.801 249.898 221.401L249.598 222.101C249.398 222.301 249.098 222.401 248.698 222.401ZM244.698 238.601C243.898 238.501 243.398 238.001 243.398 237.001L244.098 236.001C244.998 235.401 245.898 234.801 246.798 234.101C247.698 233.401 248.598 232.901 249.698 232.601L250.298 232.901C250.498 233.201 250.598 233.601 250.598 234.101L250.098 234.901C249.398 235.501 248.598 236.001 247.798 236.501C246.998 237.001 246.298 237.401 245.898 237.901C245.498 238.301 245.098 238.501 244.698 238.601ZM249.898 215.101C247.398 214.401 245.698 213.901 244.598 213.501C244.398 213.201 244.298 212.801 244.298 212.301L244.598 211.701C244.898 211.501 245.298 211.301 245.698 211.301H246.098C246.898 211.601 247.798 211.801 248.598 212.001C249.398 212.201 250.198 212.501 250.998 212.801C251.198 213.101 251.298 213.501 251.298 214.001L250.998 214.701C250.598 214.901 250.298 215.101 249.898 215.101ZM253.098 223.301L252.398 222.901C252.298 222.701 252.198 222.401 252.198 222.101C253.198 221.101 254.198 219.801 255.098 218.301H254.598C253.898 218.301 253.298 218.101 252.798 217.801C252.698 217.601 252.598 217.401 252.598 217.101C252.598 216.701 252.798 216.401 253.198 216.201L255.898 216.301L256.398 214.101H255.698C254.898 214.101 254.198 213.901 253.598 213.601C253.498 213.401 253.398 213.201 253.398 213.001C253.398 212.601 253.598 212.301 254.098 212.201L256.798 212.301L256.698 211.301C256.798 211.001 257.098 210.801 257.398 210.701H257.998C258.298 210.801 258.498 211.101 258.698 211.301L258.798 212.401H259.298C260.198 212.401 260.998 212.501 261.798 212.801C261.898 213.001 261.998 213.301 261.998 213.501C261.998 213.901 261.798 214.201 261.398 214.401L258.498 214.301L257.998 216.501H261.898C262.198 216.601 262.398 216.901 262.598 217.201V217.801C262.498 218.101 262.198 218.301 261.898 218.401H258.498C259.198 219.101 259.898 219.701 260.598 220.101C261.398 220.601 261.998 221.101 262.598 221.801V222.401C262.498 222.701 262.198 222.901 261.898 223.101H261.398C259.198 221.601 257.598 220.501 256.698 219.801C256.198 220.401 255.798 221.101 255.298 221.701C254.798 222.401 254.298 222.901 253.598 223.401L253.098 223.301ZM256.298 238.601C255.798 238.501 255.498 238.201 255.398 237.701C255.298 237.301 254.998 233.101 254.598 225.201C254.598 224.501 255.098 224.101 255.898 223.901C264.498 223.901 268.998 223.901 269.598 224.001C270.098 224.001 270.398 224.401 270.398 225.101L270.198 236.501C270.198 237.701 269.998 238.401 269.698 238.401C269.398 238.401 264.698 238.401 256.298 238.601ZM267.698 229.401L267.798 226.501L257.298 226.401L257.398 229.201L267.698 229.401ZM267.498 235.801L267.598 231.901L257.498 231.801L257.798 235.801H267.498ZM264.598 223.501C264.298 223.501 263.998 223.301 263.798 222.801V222.301C264.898 220.801 265.598 219.301 266.098 218.101C265.898 218.101 265.698 218.201 265.498 218.201C264.898 218.201 264.398 218.101 263.998 217.801C263.898 217.601 263.798 217.401 263.798 217.101C263.798 216.701 263.998 216.401 264.498 216.201H266.598L266.998 214.001C265.698 214.001 264.598 213.901 263.698 213.601C263.598 213.401 263.498 213.201 263.498 212.901C263.498 212.501 263.698 212.301 264.198 212.101L267.198 212.201V211.901C267.198 211.501 267.298 211.201 267.598 210.901C267.798 210.801 267.998 210.701 268.298 210.701C268.698 210.701 268.898 210.901 269.198 211.301V212.401C270.198 212.401 270.998 212.501 271.598 212.801C271.698 213.001 271.798 213.201 271.798 213.401C271.798 213.801 271.598 214.101 271.198 214.301H269.098L268.898 216.401H269.698C270.598 216.401 271.398 216.601 272.098 216.901C272.198 217.101 272.298 217.301 272.298 217.601C272.298 218.001 272.098 218.201 271.698 218.401L269.398 218.301C270.098 219.001 270.798 219.701 271.498 220.201C272.198 220.701 272.898 221.401 273.498 222.001V222.501C273.398 222.801 273.198 223.001 272.898 223.201H272.298C271.598 222.701 270.898 222.101 270.198 221.501C269.498 220.901 268.798 220.301 268.098 219.801C267.698 220.901 266.998 222.201 265.998 223.501C265.198 223.401 264.898 223.501 264.598 223.501Z" fill="#5F3720"/>
<path d="M292.3 222.201H292.1L291.4 221.901L290.2 219.801C288.1 220.001 286.2 220.201 284.5 220.301C282.8 220.501 281.1 220.601 279.4 220.701C278.5 220.601 278 220.201 278 219.501V219.101L283.2 210.201C283.5 209.901 284 209.801 284.5 209.801L285.2 210.101C285.4 210.401 285.5 210.801 285.5 211.401C285.2 211.901 284 214.101 281.8 218.001C283.1 217.901 284.3 217.801 285.4 217.701C286.5 217.601 287.5 217.501 288.6 217.401C287.9 216.801 287.5 216.001 287.5 215.201L287.8 214.601C288.1 214.401 288.4 214.201 288.8 214.201C289 214.201 289.3 214.301 289.8 214.601C290.8 216.001 291.6 217.201 292.2 218.201C292.8 219.201 293.3 220.301 293.6 221.401L293.3 222.101C293 222.101 292.7 222.201 292.3 222.201ZM289.4 239.601C288.6 239.601 287.4 238.901 285.7 237.501C285.5 237.201 285.4 236.801 285.4 236.301L285.7 235.701C285.9 235.501 286.3 235.401 286.9 235.401C287.3 235.601 287.7 235.901 288.2 236.101L288.1 233.901H282.4V238.401L282.1 239.101C281.9 239.301 281.5 239.401 281.1 239.401C281 239.401 280.7 239.301 280.2 239.101C280 238.701 279.8 238.401 279.8 237.901L279.7 224.201C279.7 223.301 280 222.801 280.7 222.701C281.1 222.701 281.8 222.601 282.9 222.601C286.8 222.601 289.3 222.701 290.2 222.801C290.6 222.801 290.7 223.201 290.7 223.801C290.7 225.901 290.8 230.801 290.9 238.601C290.6 239.201 290.1 239.601 289.4 239.601ZM287.9 226.701L287.8 225.201L282.1 225.301L282.2 226.601L287.9 226.701ZM288 231.201V229.301L282.3 229.201V231.201H288ZM303.5 239.001C302.8 239.001 301.5 238.901 299.5 238.701C298.3 238.601 297.3 238.101 296.3 237.301C295.3 236.501 294.8 235.501 294.6 234.501C294.4 233.501 294.2 230.701 294.2 226.101C294.2 225.201 294.7 224.801 295.6 224.801C295.8 224.801 296.1 224.901 296.6 225.101C296.8 225.401 296.9 225.701 296.9 226.101L296.8 228.301L304.1 228.101L304.7 228.401C304.9 228.701 305 229.101 305 229.601L304.7 230.301C304.4 230.501 304.1 230.601 303.7 230.701L296.7 230.901C296.8 232.101 296.9 233.001 297 233.701C297.1 234.401 297.5 234.901 298.1 235.401C298.7 235.801 299.5 236.101 300.5 236.201C301.5 236.301 302.4 236.301 303.4 236.401V235.801C303.4 235.201 303.5 234.601 303.8 234.101C304 233.901 304.4 233.801 305 233.801L305.6 234.101C305.8 234.601 306 235.101 306 235.701C306 235.801 306 236.001 306 236.401C306 236.801 306 237.301 306 237.901C306 238.501 305.8 238.901 305.3 239.001C305 239.001 304.3 239.001 303.5 239.001ZM304.2 224.501C302.7 224.501 301.1 224.401 299.1 224.201C298 224.101 297 223.601 296.1 222.701C295.2 221.801 294.7 220.701 294.6 219.201C294.5 217.701 294.4 215.201 294.2 211.701C294.3 210.901 294.9 210.401 295.9 210.401L296.6 210.701C296.8 210.901 296.9 211.301 296.9 211.701L296.8 213.301C300.7 213.101 303.3 212.901 304.5 212.801L305.2 213.101C305.4 213.401 305.5 213.801 305.5 214.301L305.2 214.901C304 215.301 301.2 215.601 297 215.801C297.1 217.101 297.1 218.101 297.2 218.801C297.3 219.501 297.7 220.201 298.4 220.701C299.1 221.201 300 221.501 301.1 221.601C301.7 221.601 302.5 221.701 303.3 221.701H305.1L305.7 222.001C305.9 222.301 306 222.701 306 223.201L305.7 223.801C305.3 224.301 304.8 224.501 304.2 224.501Z" fill="#5F3720"/>
</svg>
