<svg width="230" height="99" viewBox="0 0 230 99" fill="none" xmlns="http://www.w3.org/2000/svg">
<path d="M23.9047 95.1006C22.8047 95.1006 22.0047 94.9005 21.3047 94.5005C21.1047 94.2005 21.0047 93.9006 21.0047 93.6006V93.5005L21.3047 92.9004C21.5047 92.7004 21.8047 92.6006 22.1047 92.6006H22.3047C22.9047 92.9006 23.5047 93.1006 24.1047 93.1006C24.2047 93.1006 24.5047 93.1005 25.0047 93.0005C25.4047 93.0005 25.9047 92.9004 26.4047 92.7004C26.9047 92.6004 27.4047 92.2006 28.0047 91.6006C28.5047 91.1006 28.7047 90.5005 28.7047 89.8005C28.7047 89.7005 28.7047 89.4004 28.6047 88.9004C28.5047 88.4004 28.1047 87.9004 27.4047 87.4004C26.7047 86.9004 25.8047 86.4005 25.0047 86.0005C24.1047 85.6005 23.3047 85.1004 22.6047 84.4004C21.4047 83.3004 20.8047 81.9004 20.8047 80.2004C20.8047 80.1004 20.8047 79.8004 20.8047 79.4004C20.8047 78.9004 21.0047 78.4005 21.3047 77.8005C21.6047 77.2005 22.1047 76.6005 22.6047 76.0005C23.3047 75.3005 24.4047 74.9004 25.7047 74.9004C26.7047 74.9004 27.6047 75.1006 28.4047 75.6006C28.6047 75.9006 28.8047 76.2006 28.8047 76.6006V76.8005L28.5047 77.3005C28.3047 77.5005 28.0047 77.6006 27.7047 77.6006H27.5047C26.7047 77.3006 26.1047 77.1006 25.6047 77.1006C24.9047 77.1006 24.4047 77.3005 23.9047 77.8005C23.2047 78.5005 22.8047 79.3004 22.8047 80.2004C22.8047 80.3004 22.8047 80.5004 22.8047 80.7004C22.8047 81.0004 22.9047 81.3005 23.1047 81.8005C23.3047 82.2005 23.6047 82.7004 24.2047 83.2004C24.8047 83.7004 25.5047 84.1005 26.5047 84.5005C27.5047 84.9005 28.3047 85.4004 29.1047 86.2004C29.9047 87.0004 30.4047 87.7005 30.5047 88.5005C30.6047 89.1005 30.7047 89.6006 30.7047 90.1006C30.7047 91.0006 30.6047 91.7004 30.3047 92.4004C30.1047 92.8004 29.7047 93.3005 29.0047 93.8005C28.0047 94.7005 26.2047 95.1006 23.9047 95.1006Z" fill="black"/>
<path d="M43.4016 95.5012H43.2016L42.6016 95.2012C42.3016 94.9012 42.2016 94.5013 42.2016 94.1013V94.0012C42.4016 93.3012 42.5016 92.1011 42.5016 90.4011C42.5016 88.8011 42.4016 87.6011 42.3016 86.9011C42.2016 86.2011 41.9016 85.6013 41.5016 85.1013C41.2016 84.8013 40.8016 84.6013 40.4016 84.6013C40.2016 84.6013 39.8016 84.7013 39.3016 84.8013C38.8016 84.9013 38.4016 85.4012 38.0016 86.2012C37.7016 87.0012 37.4016 87.7012 37.0016 88.5012C36.6016 89.3012 36.5016 90.0013 36.4016 90.8013L36.5016 94.1013L36.2016 94.6013C36.0016 94.8013 35.7016 94.9011 35.4016 94.9011H35.2016L34.7016 94.6013C34.4016 94.1013 34.3016 93.5013 34.2016 92.8013C34.1016 92.1013 34.1016 86.6012 34.1016 76.2012C34.2016 75.5012 34.6016 75.2012 35.2016 75.2012H35.4016L36.0016 75.5012L36.3016 76.0012V84.6013C36.6016 84.2013 37.0016 83.8012 37.3016 83.5012C38.1016 82.7012 38.9016 82.3013 39.9016 82.3013C40.2016 82.3013 40.6016 82.4012 41.2016 82.5012C41.8016 82.6012 42.4016 83.0012 43.0016 83.7012C43.6016 84.3012 44.1016 85.1013 44.3016 86.1013C44.5016 87.0013 44.6016 88.1012 44.6016 89.7012C44.6016 89.8012 44.6016 90.4013 44.6016 91.3013C44.6016 92.2013 44.6016 93.0013 44.6016 93.6013C44.6016 94.2013 44.5016 94.7013 44.2016 95.1013C44.0016 95.4013 43.8016 95.5012 43.4016 95.5012Z" fill="black"/>
<path d="M57.9031 95.3008C57.6031 95.3008 57.4031 95.2007 57.1031 95.0007L56.7031 94.4006C55.5031 95.0006 54.3031 95.2007 53.3031 95.2007C53.2031 95.2007 53.0031 95.2007 52.6031 95.2007C52.2031 95.2007 51.7031 95.0007 51.1031 94.7007C50.5031 94.4007 49.9031 94.0007 49.4031 93.5007C48.6031 92.7007 48.2031 91.7008 48.2031 90.3008C48.2031 90.1008 48.2031 89.8008 48.3031 89.3008C48.4031 88.1008 48.9031 87.1007 49.8031 86.2007C50.6031 85.4007 51.6031 85.0007 52.9031 85.0007C53.7031 85.0007 54.5031 85.1006 55.2031 85.4006C55.2031 84.7006 55.0031 84.2008 54.5031 83.8008C53.6031 83.2008 52.8031 82.9006 52.0031 82.9006C51.8031 82.9006 51.4031 83.0008 51.0031 83.1008C50.6031 83.2008 50.2031 83.3008 49.7031 83.3008L49.1031 83.0007C48.9031 82.8007 48.8031 82.5007 48.8031 82.2007V82.0007L49.1031 81.4006C49.7031 81.0006 50.5031 80.8008 51.4031 80.8008C51.8031 80.8008 52.3031 80.8006 52.8031 80.9006C53.3031 81.0006 54.1031 81.3007 55.0031 81.7007C55.9031 82.2007 56.6031 82.9008 57.0031 83.8008C57.4031 84.7008 57.6031 86.2008 57.6031 88.3008C57.6031 90.4008 58.0031 92.4008 58.8031 94.3008L58.5031 94.8008C58.5031 95.2008 58.2031 95.3008 57.9031 95.3008ZM53.5031 93.1008C54.1031 93.1008 54.7031 93.0007 55.3031 92.7007L56.1031 92.1008C56.0031 91.4008 55.9031 90.3007 55.8031 88.7007C55.0031 87.8007 54.2031 87.3008 53.4031 87.3008C53.4031 87.3008 53.1031 87.3008 52.7031 87.3008C52.2031 87.3008 51.8031 87.5006 51.5031 87.9006C50.9031 88.5006 50.7031 89.3008 50.7031 90.3008C50.7031 90.5008 50.7031 90.7008 50.7031 91.1008C50.7031 91.4008 50.9031 91.8008 51.3031 92.1008C51.7031 92.4008 52.1031 92.7006 52.6031 92.9006C52.7031 93.0006 53.1031 93.1008 53.5031 93.1008Z" fill="black"/>
<path d="M64.8031 95.1013H64.6031L64.1031 94.8013C63.6031 92.8013 63.3031 90.8013 63.2031 88.8013C63.1031 86.7013 62.9031 84.7012 62.7031 82.7012C62.8031 82.0012 63.2031 81.7012 63.8031 81.7012H64.0031L64.5031 82.0012C64.7031 82.8012 64.9031 83.7013 64.9031 84.6013C65.0031 85.5013 65.0031 86.4012 65.1031 87.2012C65.5031 86.6012 65.9031 86.1012 66.4031 85.7012C66.9031 85.2012 67.4031 84.9012 68.0031 84.7012C68.6031 84.5012 69.1031 84.3013 69.7031 84.3013C70.3031 84.3013 70.9031 84.3012 71.5031 84.2012L72.1031 84.4011C72.3031 84.6011 72.4031 84.9012 72.4031 85.2012V85.4011L72.1031 85.9011C71.4031 86.0011 70.7031 86.1013 69.9031 86.1013C68.6031 86.2013 67.5031 87.3012 66.6031 89.2012C66.1031 90.2012 65.9031 91.3012 65.9031 92.7012L66.0031 94.3013L65.7031 94.8013C65.4031 95.0013 65.1031 95.1013 64.8031 95.1013Z" fill="black"/>
<path d="M80.7078 81.5015C80.3078 81.4015 79.9078 81.2015 79.5078 80.8015C79.2078 80.4015 79.0078 80.0015 79.0078 79.5015C79.0078 79.4015 79.0078 79.3015 79.0078 79.0015C79.0078 78.7015 79.2078 78.4015 79.6078 78.0015C79.9078 77.7015 80.2078 77.6016 80.6078 77.6016C81.2078 77.6016 81.7078 77.9014 82.2078 78.4014C82.5078 78.7014 82.6078 79.1015 82.6078 79.5015C82.6078 79.6015 82.6078 79.8016 82.5078 80.1016C82.4078 80.4016 82.2078 80.7015 81.9078 81.0015C81.7078 81.3015 81.2078 81.5015 80.7078 81.5015ZM81.3078 94.8015H81.1078L80.5078 94.6016C80.1078 92.1016 79.9078 88.7016 79.8078 84.6016C79.9078 83.9016 80.3078 83.6016 81.0078 83.6016H81.2078L81.7078 83.9014C82.1078 87.2014 82.3078 90.6016 82.4078 94.1016L82.1078 94.7014C81.9078 94.7014 81.6078 94.8015 81.3078 94.8015Z" fill="black"/>
<path d="M98.9047 95.2004H98.7047L98.1047 94.9004C97.9047 94.6004 97.7047 94.2005 97.7047 93.8005C97.7047 93.7005 97.7047 93.5005 97.8047 93.3005L98.0047 91.1006C98.0047 90.6006 98.1047 90.1005 98.1047 89.5005C98.1047 88.6005 98.0047 87.8006 97.8047 87.1006C97.3047 85.8006 96.7047 85.2004 95.8047 85.2004C95.7047 85.2004 95.5047 85.2005 95.2047 85.3005C94.9047 85.3005 94.6047 85.6006 94.2047 86.1006C93.8047 86.6006 93.4047 87.2004 92.9047 87.9004C92.5047 88.6004 92.2047 89.3006 92.1047 90.1006C92.1047 91.9006 92.1047 93.0005 92.1047 93.5005L91.8047 94.0005C91.6047 94.2005 91.3047 94.3005 91.0047 94.3005H90.8047L90.2047 94.0005C89.8047 92.2005 89.6047 90.4005 89.6047 88.5005C89.5047 86.7005 89.4047 84.8005 89.3047 83.0005C89.4047 82.3005 89.8047 81.9004 90.4047 81.9004H90.6047L91.1047 82.2004C91.3047 82.7004 91.4047 83.3004 91.4047 83.9004C91.4047 84.5004 91.5047 85.1004 91.5047 85.7004C91.9047 85.2004 92.3047 84.7005 92.7047 84.3005C93.5047 83.4005 94.5047 82.9004 95.5047 82.9004C95.7047 82.9004 96.1047 82.9005 96.5047 83.0005C97.0047 83.1005 97.5047 83.4005 98.2047 84.0005C98.8047 84.6005 99.3047 85.3006 99.6047 86.1006C99.9047 86.8006 100.005 87.7004 100.005 88.9004C100.005 89.1004 100.005 89.7005 99.9047 90.5005C99.9047 91.4005 99.8047 92.1005 99.8047 92.8005C99.8047 93.5005 99.7047 94.1006 99.5047 94.6006C99.5047 95.1006 99.2047 95.2004 98.9047 95.2004Z" fill="black"/>
<path d="M108.106 98.9011C107.306 98.8011 106.706 98.5012 106.306 98.0012C105.506 97.1012 105.106 96.2012 105.106 95.2012C105.106 95.1012 105.106 94.9012 105.106 94.5012C105.106 94.2012 105.506 93.7012 106.106 93.2012C106.806 92.7012 107.406 92.2012 108.106 92.0012C108.806 91.7012 109.506 91.6012 110.206 91.5012L110.106 90.0012C108.906 90.7012 108.006 91.1013 107.406 91.1013C107.306 91.1013 107.006 91.1012 106.706 91.0012C106.306 91.0012 105.906 90.7012 105.506 90.2012C104.806 89.4012 104.406 88.6013 104.406 87.6013C104.406 87.4013 104.406 87.1013 104.506 86.6013C104.606 86.1013 104.706 85.6013 105.006 84.8013C105.306 84.1013 105.706 83.5012 106.106 83.0012C106.506 82.5012 107.006 82.3012 107.506 82.2012C107.706 82.2012 107.906 82.2012 108.106 82.2012C108.406 82.2012 108.906 82.2013 109.406 82.3013C110.006 82.4013 110.806 82.9012 112.006 84.0012C112.206 84.4012 112.306 84.9011 112.306 85.4011C112.306 85.6011 112.306 85.8012 112.206 86.0012L112.306 91.1013C112.606 91.0013 112.906 90.9011 113.106 90.9011C113.206 90.9011 113.506 91.0012 113.906 91.2012C114.106 91.5012 114.106 91.7013 114.106 92.1013V92.3013L113.906 92.8013C113.406 93.1013 112.906 93.2012 112.306 93.2012V94.0012C112.306 94.4012 112.306 94.9012 112.206 95.5012C112.106 96.1012 111.606 96.8013 110.806 97.6013C110.006 98.4013 109.106 98.9011 108.106 98.9011ZM107.406 88.7012C107.806 88.7012 108.206 88.6011 108.506 88.4011C109.006 88.0011 109.406 87.6013 109.606 87.1013C109.806 86.6013 110.006 86.0013 110.006 85.3013C109.806 85.0013 109.506 84.7012 109.106 84.5012C108.906 84.4012 108.706 84.4011 108.506 84.4011C107.706 84.4011 107.206 84.9013 106.806 85.8013C106.706 86.2013 106.606 86.6013 106.606 87.1013C106.606 87.3013 106.606 87.6012 106.706 88.0012C106.806 88.4012 107.006 88.7012 107.406 88.7012ZM108.406 96.7012C108.706 96.7012 108.906 96.6012 109.006 96.5012C109.906 95.9012 110.306 95.0013 110.306 94.1013V93.6013C109.006 93.8013 108.006 94.3012 107.506 95.0012C107.406 95.2012 107.306 95.4013 107.306 95.6013C107.306 95.8013 107.406 96.0013 107.706 96.3013C107.906 96.5013 108.206 96.7012 108.406 96.7012Z" fill="black"/>
<path d="M137.303 95.1013C137.003 95.1013 136.703 95.0013 136.503 94.8013C136.203 94.0013 135.903 87.9013 135.703 76.6013L132.103 76.7012L131.503 76.4011C131.303 76.2011 131.203 75.9012 131.203 75.5012C131.203 75.2012 131.303 75.0012 131.503 74.7012C131.903 74.5012 132.403 74.3013 132.803 74.3013L140.103 74.2012C140.703 74.2012 141.303 74.3013 141.903 74.6013C142.103 74.8013 142.203 75.1012 142.203 75.5012V75.7012L141.903 76.2012C141.603 76.4012 141.303 76.5012 141.003 76.5012L137.903 76.3013C138.103 87.4013 138.303 93.3013 138.403 94.1013L138.103 94.6013C137.903 95.0013 137.603 95.1013 137.303 95.1013Z" fill="black"/>
<path d="M150.405 95.1006C149.605 95.1006 148.805 95.0004 148.205 94.7004C147.705 94.5004 147.205 94.1005 146.705 93.5005C145.805 92.4005 145.305 90.9006 145.305 89.1006V88.1006C145.405 86.2006 145.905 84.7005 147.005 83.5005C148.205 82.1005 149.605 81.4004 151.205 81.4004C151.405 81.4004 151.905 81.4005 152.505 81.5005C153.105 81.6005 153.805 82.1004 154.605 82.9004C155.405 83.8004 155.905 84.5006 156.005 85.1006C156.205 86.4006 156.305 87.3005 156.305 88.0005C156.305 88.4005 156.305 88.9006 156.205 89.6006C156.105 91.2006 155.505 92.6004 154.405 93.7004C153.505 94.6004 152.105 95.1006 150.405 95.1006ZM150.405 92.9004C151.205 92.9004 151.905 92.7004 152.505 92.4004C153.105 92.1004 153.505 91.6005 153.705 91.0005C154.005 90.1005 154.105 89.2006 154.105 88.1006C154.105 87.7006 154.105 87.3004 154.005 86.7004C154.005 86.1004 153.705 85.5004 153.305 84.9004C152.905 84.3004 152.405 83.8004 152.005 83.7004C151.805 83.6004 151.605 83.6006 151.305 83.6006C151.005 83.6006 150.605 83.7005 150.105 83.8005C149.605 83.9005 149.105 84.3006 148.505 85.1006C147.905 85.8006 147.505 86.5005 147.405 87.3005C147.305 87.9005 147.305 88.4004 147.305 88.9004C147.305 89.6004 147.405 90.4005 147.705 91.3005C148.005 92.4005 148.905 92.9004 150.405 92.9004Z" fill="black"/>
<path d="M160.703 98.7012H160.503L160.003 98.4011C159.803 98.1011 159.603 97.8011 159.603 97.4011L159.203 83.4011C159.203 83.1011 159.303 82.9013 159.503 82.6013C159.803 82.4013 160.003 82.3013 160.403 82.3013H160.603L161.203 82.6013L161.303 82.9011C162.703 82.1011 164.103 81.7012 165.403 81.7012C165.603 81.7012 166.003 81.7013 166.603 81.8013C167.503 81.9013 168.403 82.6011 169.503 83.9011C170.203 84.7011 170.503 86.1012 170.503 88.2012C170.503 89.2012 170.403 90.2012 170.103 91.2012C169.903 91.9012 169.403 92.6012 168.703 93.2012C167.503 94.1012 166.103 94.6013 164.703 94.6013C163.803 94.6013 162.803 94.5012 161.803 94.2012L161.903 97.9011L161.603 98.4011C161.303 98.7011 161.003 98.7012 160.703 98.7012ZM164.603 92.5012C165.103 92.5012 165.603 92.4012 166.103 92.2012C166.503 92.0012 166.903 91.7012 167.303 91.2012C167.703 90.7012 168.103 90.2012 168.203 89.5012C168.303 89.0012 168.303 88.4011 168.303 87.9011C168.303 87.7011 168.303 87.4012 168.303 87.0012C168.303 86.6012 168.203 86.1013 168.003 85.6013C167.803 85.1013 167.503 84.7012 167.003 84.2012C166.603 83.8012 166.103 83.7012 165.603 83.7012C165.503 83.7012 165.203 83.7013 164.903 83.8013C164.503 83.8013 164.103 84.0012 163.603 84.2012C163.103 84.4012 162.503 84.9013 161.703 85.8013L161.803 91.8013C162.703 92.3013 163.703 92.5012 164.603 92.5012Z" fill="black"/>
<path d="M178.005 81.5015C177.605 81.4015 177.205 81.2015 176.805 80.8015C176.505 80.4015 176.305 80.0015 176.305 79.5015C176.305 79.4015 176.305 79.3015 176.305 79.0015C176.305 78.7015 176.505 78.4015 176.905 78.0015C177.205 77.7015 177.505 77.6016 177.905 77.6016C178.505 77.6016 179.005 77.9014 179.505 78.4014C179.805 78.7014 179.905 79.1015 179.905 79.5015C179.905 79.6015 179.905 79.8016 179.805 80.1016C179.705 80.4016 179.505 80.7015 179.205 81.0015C179.005 81.3015 178.505 81.5015 178.005 81.5015ZM178.605 94.8015H178.405L177.805 94.6016C177.405 92.1016 177.205 88.7016 177.105 84.6016C177.205 83.9016 177.605 83.6016 178.305 83.6016H178.505L179.005 83.9014C179.405 87.2014 179.605 90.6016 179.705 94.1016L179.405 94.7014C179.205 94.7014 178.905 94.8015 178.605 94.8015Z" fill="black"/>
<path d="M192.908 94.9004C192.108 94.9004 191.408 94.7005 190.608 94.3005C190.108 94.0005 189.508 93.5004 188.808 92.7004C188.208 91.9004 187.708 90.9006 187.408 89.6006C187.208 88.7006 187.008 87.8006 187.008 87.1006C187.008 86.9006 187.008 86.5004 187.108 85.9004C187.208 84.7004 187.808 83.5005 188.808 82.3005C189.908 81.0005 191.208 80.4004 192.908 80.4004C193.008 80.4004 193.408 80.4005 193.908 80.5005C194.408 80.6005 195.008 80.8004 195.508 81.2004C195.808 81.5004 195.908 81.9004 195.908 82.2004V82.3005L195.608 82.9004C195.408 83.1004 195.108 83.2004 194.708 83.2004H194.608C194.108 82.8004 193.608 82.6006 193.008 82.6006C192.908 82.6006 192.608 82.6004 192.208 82.7004C191.108 82.9004 190.308 83.4005 189.808 84.3005C189.308 85.2005 189.008 86.2005 189.008 87.3005C189.008 87.9005 189.108 88.6004 189.308 89.4004C189.508 90.1004 189.808 90.8004 190.308 91.4004C191.008 92.3004 191.808 92.8005 192.908 92.8005C193.008 92.8005 193.308 92.8004 193.608 92.7004C193.908 92.7004 194.308 92.5005 194.708 92.3005C195.108 92.1005 195.608 91.9004 196.208 91.9004L196.808 92.2004C197.008 92.4004 197.108 92.7005 197.108 93.0005V93.2004L196.808 93.7004C195.508 94.4004 194.208 94.9004 192.908 94.9004Z" fill="black"/>
<path d="M205.803 95.4011C205.203 95.4011 204.603 95.2011 204.003 94.9011C203.603 94.7011 203.103 94.4013 202.703 94.3013C202.503 94.0013 202.303 93.7013 202.303 93.3013C202.403 92.6013 202.803 92.2012 203.403 92.2012H203.603C204.103 92.4012 204.503 92.7012 205.003 93.0012C205.303 93.2012 205.703 93.3013 206.103 93.3013C207.103 93.3013 207.903 93.0012 208.403 92.5012C208.803 92.2012 208.903 91.8012 208.903 91.5012C208.903 91.4012 208.903 91.2012 208.803 91.0012C208.703 90.7012 208.403 90.5011 207.703 90.4011C207.003 90.2011 206.203 90.0012 205.303 89.7012C204.403 89.4012 203.603 89.0011 203.103 88.4011C202.203 87.5011 201.703 86.5011 201.703 85.4011L201.803 84.7012C201.903 83.9012 202.403 83.0013 203.403 82.1013C204.403 81.2013 205.403 80.7012 206.603 80.7012C206.803 80.7012 207.103 80.7013 207.603 80.8013C208.103 80.9013 208.503 81.1013 209.103 81.6013C209.603 82.0013 209.803 82.5011 209.803 82.9011C209.803 83.0011 209.703 83.2013 209.503 83.6013C209.303 83.8013 209.003 83.9011 208.703 83.9011H208.503C207.703 83.3011 207.003 83.0012 206.503 83.0012C206.403 83.0012 206.303 83.0013 206.003 83.1013C205.703 83.1013 205.403 83.3012 205.003 83.7012C204.603 84.0012 204.303 84.5013 204.103 85.1013C204.003 85.3013 204.003 85.6013 204.003 85.8013C204.003 86.2013 204.203 86.5011 204.503 86.9011C204.803 87.3011 205.203 87.5012 205.603 87.7012C206.003 87.9012 206.703 88.1012 207.603 88.2012C208.503 88.3012 209.303 88.7012 210.003 89.2012C210.603 89.7012 211.003 90.3011 211.103 90.9011C211.203 91.2011 211.203 91.5012 211.203 91.7012C211.203 92.0012 211.103 92.4011 211.003 92.9011C210.903 93.4011 210.603 93.8013 210.003 94.3013C209.103 94.9013 207.703 95.4011 205.803 95.4011Z" fill="black"/>
<path d="M44.9031 53.1006L2.00311 52.7004L0.803101 52.1006C0.403101 51.6006 0.303101 50.8004 0.303101 49.9004L0.803101 48.8005L2.00311 48.2004L23.4031 48.3005V33.5005L9.20312 33.4004C7.70312 33.2004 6.90314 32.4004 6.90314 30.9004V30.5005L7.50311 29.3005L8.60309 28.8005L23.2031 28.9004L22.8031 17.0005L2.00311 17.5005L0.803101 16.9004C0.403101 16.3004 0.203125 15.6004 0.203125 14.7004L0.803101 13.5005L2.00311 12.9004C22.7031 12.7004 35.6031 12.5005 40.5031 12.5005C41.7031 12.5005 42.6031 12.5006 43.3031 12.6006C44.0031 12.6006 44.8031 12.9005 45.7031 13.5005C46.1031 14.0005 46.3031 14.7004 46.3031 15.7004L45.7031 16.8005C45.2031 17.2005 44.5031 17.5005 43.8031 17.5005C40.2031 17.2005 34.7031 17.1006 27.4031 17.1006L27.7031 29.2004C33.3031 29.3004 36.6031 29.3004 37.8031 29.4004C39.0031 29.4004 40.1031 29.7005 41.0031 30.3005C41.4031 30.8005 41.6031 31.5004 41.6031 32.4004L41.0031 33.6006C40.6031 34.0006 40.0031 34.2004 39.3031 34.2004C38.9031 34.2004 35.0031 34.0005 27.8031 33.8005V48.4004H45.2031L46.5031 49.1006C47.0031 49.6006 47.2031 50.4005 47.2031 51.3005L46.6031 52.4004C46.2031 52.7004 45.6031 53.0006 44.9031 53.1006ZM27.7031 11.2004C26.0031 10.2004 24.2031 9.20044 22.5031 8.20044C20.7031 7.10044 19.0031 6.20049 17.2031 5.50049C16.8031 5.00049 16.6031 4.30039 16.6031 3.40039L17.2031 2.20044C17.8031 1.70044 18.4031 1.40039 19.2031 1.40039L19.7031 1.50049C23.1031 3.10049 26.4031 5.00059 29.5031 7.10059C29.9031 7.70059 30.1031 8.40054 30.1031 9.30054L29.5031 10.5005C28.9031 10.9005 28.3031 11.1004 27.7031 11.2004Z" fill="black"/>
<path d="M102.303 54.3005L97.2031 54.2004C93.0031 53.8004 88.7031 53.3004 84.6031 52.7004C80.4031 52.1004 76.7031 51.4004 73.5031 50.4004C70.3031 49.4004 67.6031 48.5005 65.3031 47.5005C64.4031 50.3005 63.6031 52.3005 62.9031 53.5005C62.5031 53.9005 61.9031 54.1006 61.2031 54.1006C61.0031 54.1006 60.5031 53.9005 59.7031 53.5005C59.3031 53.0005 59.1031 52.2005 59.1031 51.3005C60.3031 48.9005 61.1031 46.3004 61.5031 43.7004C61.9031 41.1004 62.5031 38.4005 63.1031 35.8005C63.6031 35.4005 64.3031 35.2004 65.3031 35.2004L66.4031 35.8005C66.8031 36.3005 67.1031 36.9005 67.1031 37.5005L66.4031 42.8005C68.0031 43.6005 69.7031 44.2004 71.5031 44.7004L70.7031 29.8005C63.8031 29.8005 60.1031 29.8004 59.4031 29.7004C58.9031 29.2004 58.7031 28.4004 58.7031 27.4004L59.3031 26.3005C60.3031 25.7005 61.5031 25.3005 62.8031 25.3005L84.2031 25.1006L85.4031 25.7004C85.8031 26.2004 86.0031 26.8004 86.0031 27.4004C86.0031 27.6004 85.8031 28.2005 85.4031 29.0005C84.0031 29.5005 82.5031 29.7004 80.8031 29.7004C78.2031 29.7004 76.4031 29.7005 75.3031 29.8005L75.7031 34.4004L83.4031 34.3005C84.0031 34.4005 84.6031 34.6005 85.2031 35.0005C85.6031 35.5005 85.8031 36.1004 85.8031 36.7004C85.8031 36.9004 85.6031 37.5005 85.2031 38.3005C84.6031 38.7005 83.8031 38.9004 83.0031 38.9004L75.9031 39.0005L76.1031 46.4004C78.9031 47.2004 81.7031 47.7006 84.6031 48.1006C93.3031 49.1006 101.103 49.7004 107.803 49.7004L108.903 50.3005C109.303 50.8005 109.503 51.5004 109.503 52.4004L108.903 53.6006C108.303 54.0006 107.803 54.2005 107.203 54.3005C105.503 54.2005 103.903 54.3005 102.303 54.3005ZM75.1031 23.3005C72.5031 23.3005 68.9031 23.3004 64.3031 23.2004C62.8031 23.1004 61.9031 22.5006 61.6031 21.6006C61.3031 20.6006 61.1031 16.0004 61.0031 7.70044C61.1031 5.60044 61.7031 4.50049 62.9031 4.50049L79.7031 4.60059C81.0031 4.60059 81.8031 5.20049 82.0031 6.50049C82.1031 11.5005 82.1031 15.3004 82.1031 17.9004C82.1031 20.2004 82.0031 21.6004 81.9031 22.2004C81.8031 22.8004 81.3031 23.2005 80.3031 23.3005C79.8031 23.2005 78.0031 23.3005 75.1031 23.3005ZM77.3031 11.4004V8.90039L65.5031 9.00049V11.3005L77.3031 11.4004ZM77.5031 18.5005V16.2004L65.7031 16.1006L65.8031 18.4004L77.5031 18.5005ZM90.2031 34.0005L89.8031 33.9004L88.7031 33.3005C88.1031 30.4005 87.8031 27.1004 87.8031 23.2004C87.8031 19.0004 87.8031 16.3004 87.8031 15.2004C87.8031 14.1004 88.3031 13.5004 89.4031 13.4004C90.0031 13.3004 90.5031 13.2004 91.1031 13.2004C91.7031 13.2004 92.2031 13.2005 92.8031 13.3005L95.2031 8.90039H89.6031C88.1031 8.70039 87.4031 7.80059 87.4031 6.10059L88.0031 5.00049L89.1031 4.40039C98.1031 4.60039 103.303 4.80054 104.703 4.80054C106.103 4.80054 107.403 5.00049 108.603 5.50049C109.003 6.00049 109.203 6.60054 109.203 7.30054C109.203 7.50054 109.003 8.00054 108.603 8.80054C107.903 9.30054 107.103 9.50049 106.303 9.50049L100.903 9.10059L98.1031 13.4004C101.903 13.2004 104.703 13.2004 106.403 13.2004C107.203 13.2004 108.003 13.2005 108.603 13.3005C109.203 13.4005 109.503 14.3005 109.603 16.0005V31.9004L109.103 33.0005C108.603 33.4005 108.003 33.7004 107.303 33.7004C107.103 33.7004 106.603 33.4005 105.803 33.0005C105.203 32.0005 105.003 31.0005 105.003 29.8005V18.0005L92.9031 18.1006L92.7031 32.2004L92.1031 33.3005C91.5031 33.8005 91.0031 34.0005 90.2031 34.0005ZM92.1031 47.8005H91.7031L90.6031 47.2004C90.2031 46.7004 90.0031 46.0006 90.0031 45.1006C91.5031 42.8006 92.8031 40.4005 93.9031 38.0005C95.5031 34.4005 96.3031 30.7005 96.3031 26.8005C96.3031 25.1005 96.2031 23.3005 95.9031 21.5005C96.1031 20.0005 97.1031 19.2004 98.8031 19.2004L99.9031 19.8005C100.503 21.1005 100.903 22.6004 100.903 24.4004C100.903 25.5004 100.803 28.0005 100.503 32.0005L105.703 38.2004C108.103 41.2004 109.403 43.5006 109.403 45.1006L108.903 46.3005C108.303 46.7005 107.703 46.9004 107.003 46.9004C106.803 46.9004 106.203 46.6004 105.403 46.2004C104.603 44.7004 103.703 43.2005 102.803 41.8005C101.803 40.3005 100.603 39.0004 99.2031 37.9004C97.8031 41.4004 96.1031 44.5006 94.2031 47.1006C93.5031 47.6006 92.8031 47.8005 92.1031 47.8005Z" fill="black"/>
<path d="M121.505 31.0012C120.005 30.8012 119.305 29.9012 119.305 28.2012C122.705 24.2012 125.405 20.2012 127.105 16.2012C128.905 12.2012 130.405 8.30117 131.505 4.20117C132.005 3.80117 132.605 3.70117 133.205 3.70117C133.405 3.70117 133.905 3.90117 134.805 4.20117C135.205 4.80117 135.405 5.50127 135.405 6.30127L135.305 7.00122C134.105 11.2012 132.505 15.3013 130.605 19.3013C128.705 23.3013 126.205 27.0012 123.205 30.2012C122.705 30.6012 122.105 30.9012 121.505 31.0012ZM151.905 55.0012C150.705 54.6012 149.705 54.0012 148.705 53.2012C147.705 52.4012 146.705 51.6011 145.705 50.9011C145.305 50.4011 145.205 49.8012 145.205 49.2012C145.205 49.0012 145.405 48.5013 145.705 47.6013C146.205 47.2013 146.905 47.0012 147.905 47.0012C149.105 47.9012 150.405 48.7013 151.705 49.6013C152.605 46.6013 153.505 40.4011 154.405 30.9011L143.105 31.0012C142.105 38.2012 139.705 44.2011 135.805 48.9011C135.405 49.3011 134.705 49.4011 133.705 49.4011L132.605 48.9011C132.205 48.3011 132.005 47.6013 132.005 46.6013C135.405 42.1013 137.605 36.8011 138.505 30.9011L132.805 31.0012C131.305 30.8012 130.505 30.0012 130.505 28.5012V28.1013L131.105 26.9011C132.005 26.4011 133.005 26.2012 134.005 26.2012C134.605 26.2012 142.005 26.3013 156.405 26.3013C158.005 26.3013 158.905 26.7011 159.205 27.4011C159.205 27.6011 159.305 27.9011 159.305 28.4011C159.305 30.0011 158.905 33.8013 158.205 39.8013C157.505 45.8013 156.505 49.8011 155.305 51.9011C154.105 54.0011 152.905 55.0012 151.905 55.0012ZM167.905 29.5012C167.205 29.3012 166.605 29.0013 166.005 28.6013C163.605 25.0013 161.205 21.3013 158.905 17.6013C156.505 13.9013 154.405 10.1013 152.505 6.30127L153.005 5.10132C153.505 4.70132 154.205 4.50122 155.205 4.50122L156.305 5.10132C158.505 8.50132 160.705 11.9011 162.905 15.4011C165.005 18.9011 166.805 21.6011 168.205 23.4011C169.605 25.3011 170.305 26.6012 170.305 27.5012L169.705 28.8013C169.305 29.2013 168.605 29.4012 167.905 29.5012Z" fill="black"/>
<path d="M181.802 11.2007C180.302 11.0007 179.602 10.1006 179.602 8.40063L180.202 7.20068C181.002 6.60068 181.902 6.40063 183.002 6.40063C183.502 6.40063 189.302 6.50073 200.502 6.50073L200.402 5.00073C200.402 3.60073 200.602 2.20063 201.102 0.900635C201.602 0.500635 202.302 0.300781 203.202 0.300781L204.402 0.900635C205.002 2.10063 205.202 3.50073 205.202 5.00073L205.102 6.50073L226.402 6.40063L227.602 6.90063C228.002 7.40063 228.102 8.00083 228.102 8.60083C228.102 8.80083 227.902 9.30068 227.602 10.2007C226.902 10.7007 226.102 11.0007 225.402 11.0007L181.802 11.2007ZM204.302 55.3008C203.102 55.0008 201.402 53.7008 199.002 51.3008C198.602 50.8008 198.402 50.1008 198.402 49.1008L199.002 48.0007C199.502 47.6007 200.202 47.4006 201.102 47.4006C202.102 48.0006 203.102 48.6008 203.902 49.3008L204.002 44.6008L183.202 44.8008L182.102 44.2007C181.602 43.7007 181.402 42.9007 181.402 42.0007L182.002 40.8008L183.102 40.2007L201.802 40.0007C201.302 39.3007 201.102 38.6007 201.102 38.0007C201.102 37.4007 201.302 36.9006 201.702 36.4006L205.502 32.9006L195.202 32.8008L194.002 32.2007C193.602 31.7007 193.402 30.9007 193.402 30.0007L194.002 28.9006L195.202 28.3008C206.202 28.3008 212.202 28.4007 213.102 28.7007C213.702 28.9007 214.002 29.3008 214.002 30.1008C214.002 30.5008 213.902 30.9006 213.802 31.4006L206.802 38.2007L207.402 39.9006L227.802 40.3008L228.902 40.9006C229.302 41.3006 229.502 42.1008 229.502 43.1008L228.902 44.2007C228.102 44.7007 227.202 45.0007 226.302 45.0007L208.602 44.6008C208.702 51.3008 207.202 55.0008 204.302 55.3008ZM193.102 27.0007C191.002 27.0007 189.802 26.5006 189.602 25.4006C189.402 24.3006 189.202 21.0008 189.002 15.3008C189.002 14.1008 189.302 13.4007 189.902 13.2007C190.502 13.0007 191.302 12.9006 192.202 12.9006L216.402 13.3008C217.802 13.6008 218.602 14.6008 218.602 16.3008C218.602 16.6008 218.202 19.5008 217.502 25.1008C217.302 26.3008 216.702 27.0007 215.602 27.0007C215.402 27.0007 215.102 27.0006 214.802 26.9006L193.102 27.0007ZM213.502 22.3008L213.702 18.0007L193.902 17.6008L194.002 22.3008H213.502Z" fill="black"/>
</svg>
