<svg width="424" height="190" viewBox="0 0 424 190" fill="none" xmlns="http://www.w3.org/2000/svg">
<path d="M228.698 48.6671C237.984 40.6608 239.022 26.6425 231.016 17.3562C223.009 8.06993 208.991 7.03232 199.705 15.0386C190.419 23.0448 189.381 37.0631 197.387 46.3494C205.393 55.6357 219.412 56.6733 228.698 48.6671Z" fill="#393939"/>
<path opacity="0.45" d="M215.897 13.1013C224.397 13.1013 231.697 17.8013 235.497 24.8013C232.497 16.0013 224.197 9.70117 214.497 9.70117C202.197 9.70117 192.297 19.6011 192.297 31.9011C192.297 35.7011 193.297 39.3011 194.897 42.4011C194.097 40.2011 193.697 37.7012 193.697 35.2012C193.697 23.0012 203.697 13.1013 215.897 13.1013Z" fill="#B17F55"/>
<path opacity="0.5" d="M226.82 46.8026C235.08 39.7208 236.036 27.2838 228.954 19.0237C221.872 10.7636 209.435 9.80835 201.175 16.8902C192.915 23.972 191.96 36.409 199.041 44.6691C206.123 52.9292 218.56 53.8844 226.82 46.8026Z" stroke="#393939" stroke-width="0.8656" stroke-miterlimit="10"/>
<path opacity="0.5" d="M214.094 49.5C223.759 49.5 231.594 41.665 231.594 32C231.594 22.335 223.759 14.5 214.094 14.5C204.429 14.5 196.594 22.335 196.594 32C196.594 41.665 204.429 49.5 214.094 49.5Z" fill="#393939"/>
<path d="M218.688 26.7004L214.388 18.9004L214.188 31.6006L218.688 26.7004Z" fill="#A11B00"/>
<path d="M214.188 31.9011V32.0012H227.688L218.888 27.1013L218.688 26.7012L214.188 31.6013V31.9011Z" fill="#EEDFA5"/>
<path d="M214.194 31.6016L214.094 31.8015L214.194 31.9014V31.6016Z" fill="#EEDFA5"/>
<path d="M214.091 31.8008L213.891 32.0007H214.191V31.9006L214.091 31.8008Z" fill="#EEDFA5"/>
<path d="M214.192 31.6008L214.392 18.9006L214.092 18.3008L209.492 26.7007L214.092 31.8008L214.192 31.6008Z" fill="#D23D14"/>
<path d="M214.192 32L213.992 45.3999L214.092 45.6001L218.792 37.1001L214.192 32Z" fill="#EEDFA5"/>
<path d="M227.688 32H214.188L218.787 37.1001L218.888 36.8L227.688 32Z" fill="#CEC095"/>
<path d="M213.891 32L209.391 37L213.991 45.3999L214.191 32H213.891Z" fill="#CEC095"/>
<path d="M200.491 32H200.391L209.291 36.8L209.391 37L213.891 32H200.491Z" fill="#EEDFA5"/>
<path d="M214.092 31.8013L209.492 26.7012L209.292 27.1013L200.492 32.0012H213.892L214.092 31.8013Z" fill="#CEC095"/>
<path d="M214.095 33.7004C215.145 33.7004 215.995 32.8499 215.995 31.8005C215.995 30.7512 215.145 29.9004 214.095 29.9004C213.046 29.9004 212.195 30.7512 212.195 31.8005C212.195 32.8499 213.046 33.7004 214.095 33.7004Z" fill="white"/>
<path d="M214.091 5.09961C199.291 5.09961 187.391 17.0996 187.391 31.7996C187.391 46.4996 199.391 58.4995 214.091 58.4995C228.791 58.4995 240.791 46.4996 240.791 31.7996C240.791 17.0996 228.891 5.09961 214.091 5.09961ZM214.091 53.8994C201.891 53.8994 191.991 43.9996 191.991 31.7996C191.991 19.5996 201.891 9.69946 214.091 9.69946C226.291 9.69946 236.191 19.5996 236.191 31.7996C236.191 43.9996 226.291 53.8994 214.091 53.8994Z" fill="#B17F55"/>
<path d="M194.492 19.1995C195.492 16.4995 197.592 14.2996 200.092 13.0996C198.192 15.2996 196.392 17.1995 194.492 19.1995Z" fill="#B17F55"/>
<path d="M190.893 31.5989C190.293 27.9989 191.193 24.1988 193.293 21.2988C192.193 24.7988 191.493 28.0989 190.893 31.5989Z" fill="#B17F55"/>
<path d="M197.391 47.6987C193.891 44.9987 191.591 40.6988 191.391 36.2988C192.791 40.4988 194.791 44.1987 197.391 47.6987Z" fill="#B17F55"/>
<path d="M210.095 54.3994C206.395 54.3994 202.695 52.7996 200.195 50.0996C203.395 51.8996 206.595 53.1994 210.095 54.3994Z" fill="#B17F55"/>
<path d="M229.592 48.6992C225.792 52.9992 219.692 55.3992 213.992 54.6992C219.692 54.1992 224.992 52.0992 229.592 48.6992Z" fill="#B17F55"/>
<path d="M236.991 34C237.191 38.6 235.191 43.2 231.891 46.3C234.291 42.4 235.991 38.4 236.991 34Z" fill="#B17F55"/>
<path d="M231.992 17C235.792 20.7 237.792 26.3001 237.192 31.6001C236.492 26.3001 234.792 21.5 231.992 17Z" fill="#B17F55"/>
<path d="M216.492 8.59839C221.792 8.49839 227.292 11.1982 230.492 15.3982C226.392 12.0982 221.692 9.79839 216.492 8.59839Z" fill="#B17F55"/>
<path d="M202.094 11.7991C205.394 9.09912 209.894 7.89907 213.994 8.49907C209.794 9.09907 205.994 10.0991 202.094 11.7991Z" fill="#B17F55"/>
<path d="M206.695 8.19973C212.095 5.89973 218.695 6.19988 223.795 9.09988C218.195 7.39988 212.495 7.09973 206.695 8.19973Z" fill="#B17F55"/>
<path d="M193.789 17.7988C196.089 13.3988 200.389 9.89883 205.289 8.79883C200.889 11.0988 197.089 13.9988 193.789 17.7988Z" fill="#B17F55"/>
<path d="M189.595 29.0996C189.295 25.6996 190.395 22.1996 192.595 19.5996C191.495 22.8996 190.595 25.8996 189.595 29.0996Z" fill="#B17F55"/>
<path d="M196.096 48.3994C191.396 44.2994 188.796 37.7996 189.496 31.5996C190.096 37.7996 192.396 43.4994 196.096 48.3994Z" fill="#B17F55"/>
<path d="M212.795 56.0986C207.495 56.4986 201.895 54.2984 198.195 50.3984C202.695 53.2984 207.495 55.1986 212.795 56.0986Z" fill="#B17F55"/>
<path d="M224.391 53.7988C221.691 55.6988 218.191 56.5989 214.891 56.0989C218.091 55.3989 221.091 54.6988 224.391 53.7988Z" fill="#B17F55"/>
<path d="M232.395 47.7988C231.495 49.7988 229.695 51.2988 227.695 51.9988C229.095 50.2988 230.595 48.9988 232.395 47.7988Z" fill="#B17F55"/>
<path d="M238.394 33.7988C238.594 38.0988 236.994 42.4987 234.094 45.6987C235.994 41.7987 237.394 37.9988 238.394 33.7988Z" fill="#B17F55"/>
<path d="M237.289 24C238.689 26.3 239.089 29.1001 238.489 31.6001C237.889 29.0001 237.489 26.6 237.289 24Z" fill="#B17F55"/>
<path d="M226.695 10.6992C231.495 12.8992 235.395 17.3993 236.795 22.4993C234.195 17.7993 230.895 13.8992 226.695 10.6992Z" fill="#B17F55"/>
<path d="M202.391 8.69885C205.291 6.49885 209.191 5.4988 212.791 5.8988C209.191 6.6988 205.891 7.59885 202.391 8.69885Z" fill="#B17F55"/>
<path d="M195.492 13.7993C196.592 11.7993 198.492 10.2992 200.692 9.69922C199.092 11.2992 197.492 12.5993 195.492 13.7993Z" fill="#B17F55"/>
<path d="M189.492 23.8992C189.892 20.5992 191.692 17.3992 194.192 15.1992C192.592 18.1992 191.092 20.8992 189.492 23.8992Z" fill="#B17F55"/>
<path d="M188.292 31.6001C187.692 29.6001 187.992 27.4 188.992 25.5C189.092 27.7 188.892 29.6001 188.292 31.6001Z" fill="#B17F55"/>
<path d="M194.592 48.3992C190.792 44.9992 188.492 39.7992 188.492 34.6992C189.692 39.5992 191.692 44.1992 194.592 48.3992Z" fill="#B17F55"/>
<path d="M202.895 54.7996C200.195 54.0996 197.695 52.3996 196.195 50.0996C198.495 51.5996 200.695 52.9996 202.895 54.7996Z" fill="#B17F55"/>
<path d="M213.989 57.2988C210.989 57.8988 207.789 57.2988 205.289 55.7988C208.289 56.1988 210.989 56.6988 213.989 57.2988Z" fill="#B17F55"/>
<path d="M229.691 52C226.391 55.3 221.591 57.3 216.891 57.2C221.491 56 225.591 54.3 229.691 52Z" fill="#B17F55"/>
<path d="M238.994 37.5996C238.494 42.3996 235.894 46.9994 232.094 49.8994C234.994 46.0994 237.294 42.0996 238.994 37.5996Z" fill="#B17F55"/>
<path d="M229.094 10.8984C235.994 15.0984 240.294 23.5986 239.594 31.5986C239.094 23.4986 235.294 16.0984 229.094 10.8984Z" fill="#B17F55"/>
<path d="M216.492 6.1002C219.992 5.8002 223.692 7.00006 226.392 9.20006C223.092 8.00006 219.892 7.0002 216.492 6.1002Z" fill="#B17F55"/>
<path opacity="0.6" d="M230.695 10.9004C235.095 15.6004 237.795 21.9004 237.795 28.9004C237.795 43.5004 225.995 55.3005 211.395 55.3005C202.995 55.3005 195.595 51.4005 190.695 45.3005C195.395 53.2005 203.895 58.4004 213.695 58.4004C228.495 58.4004 240.395 46.4004 240.395 31.7004C240.495 23.3004 236.695 15.8004 230.695 10.9004Z" fill="#B17F55"/>
<path d="M218.638 8.9328C219.169 6.67467 217.769 4.41386 215.511 3.88313C213.252 3.35241 210.992 4.75277 210.461 7.0109C209.93 9.26902 211.331 11.5298 213.589 12.0606C215.847 12.5913 218.108 11.1909 218.638 8.9328Z" fill="#C38F73"/>
<path d="M214.487 11.2993C216.31 11.2993 217.787 9.82181 217.787 7.99927C217.787 6.17673 216.31 4.69922 214.487 4.69922C212.665 4.69922 211.188 6.17673 211.188 7.99927C211.188 9.82181 212.665 11.2993 214.487 11.2993Z" fill="white"/>
<path d="M212.789 10.0005V6.40039H213.289L214.489 8.20044C214.789 8.60044 214.989 9.00039 215.089 9.40039C215.089 8.90039 214.989 8.50039 214.989 7.90039V6.40039H215.389V10.0005H214.989L213.889 8.20044C213.589 7.80044 213.389 7.40049 213.189 7.00049C213.189 7.50049 213.189 7.90049 213.189 8.50049V10.0005H212.789Z" fill="#393939"/>
<path d="M218.654 56.5227C219.185 54.2646 217.785 52.0038 215.526 51.473C213.268 50.9423 211.007 52.3426 210.477 54.6007C209.946 56.8589 211.346 59.1197 213.605 59.6505C215.863 60.1812 218.123 58.7808 218.654 56.5227Z" fill="#C38F73"/>
<path d="M214.495 58.8987C216.318 58.8987 217.795 57.4214 217.795 55.5989C217.795 53.7763 216.318 52.2988 214.495 52.2988C212.673 52.2988 211.195 53.7763 211.195 55.5989C211.195 57.4214 212.673 58.8987 214.495 58.8987Z" fill="white"/>
<path d="M213.091 56.9985C213.291 57.0985 213.591 57.1985 213.891 57.1985C214.391 57.1985 214.691 56.8986 214.691 56.5986C214.691 56.2986 214.491 56.0984 213.991 55.8984C213.391 55.6984 212.991 55.3984 212.991 54.8984C212.991 54.2984 213.491 53.8984 214.191 53.8984C214.591 53.8984 214.791 53.9986 214.991 54.0986L214.891 54.4985C214.791 54.3985 214.491 54.2986 214.191 54.2986C213.691 54.2986 213.491 54.5986 213.491 54.7986C213.491 55.0986 213.691 55.2985 214.191 55.4985C214.791 55.6985 215.091 55.9986 215.091 56.5986C215.091 57.1986 214.691 57.5986 213.791 57.5986C213.491 57.5986 213.091 57.4984 212.891 57.3984L213.091 56.9985Z" fill="#393939"/>
<path d="M190.294 35.8999C192.613 35.8999 194.494 34.0195 194.494 31.7C194.494 29.3804 192.613 27.5 190.294 27.5C187.974 27.5 186.094 29.3804 186.094 31.7C186.094 34.0195 187.974 35.8999 190.294 35.8999Z" fill="#C38F73"/>
<path d="M190.292 35.0005C192.115 35.0005 193.592 33.523 193.592 31.7004C193.592 29.8779 192.115 28.4004 190.292 28.4004C188.47 28.4004 186.992 29.8779 186.992 31.7004C186.992 33.523 188.47 35.0005 190.292 35.0005Z" fill="white"/>
<path d="M188.697 33.6006L187.797 30.0005H188.297L188.697 31.8005C188.797 32.3005 188.897 32.7006 188.997 33.1006C189.097 32.7006 189.197 32.3005 189.297 31.8005L189.797 30.0005H190.297L190.697 31.8005C190.797 32.2005 190.897 32.7005 190.997 33.0005C191.097 32.6005 191.197 32.2004 191.297 31.7004L191.797 29.9004H192.297L191.297 33.5005H190.797L190.297 31.6006C190.197 31.1006 190.097 30.8004 190.097 30.4004C189.997 30.8004 189.997 31.1006 189.797 31.6006L189.297 33.5005H188.697V33.6006Z" fill="#393939"/>
<path d="M237.895 35.8999C240.215 35.8999 242.095 34.0195 242.095 31.7C242.095 29.3804 240.215 27.5 237.895 27.5C235.576 27.5 233.695 29.3804 233.695 31.7C233.695 34.0195 235.576 35.8999 237.895 35.8999Z" fill="#C38F73"/>
<path d="M237.894 35.0005C239.716 35.0005 241.194 33.523 241.194 31.7004C241.194 29.8779 239.716 28.4004 237.894 28.4004C236.071 28.4004 234.594 29.8779 234.594 31.7004C234.594 33.523 236.071 35.0005 237.894 35.0005Z" fill="white"/>
<path d="M238.495 31.8999H237.095V33.2H238.695V33.6001H236.695V30H238.695V30.3999H237.195V31.5H238.595V31.8999H238.495Z" fill="#393939"/>
<path d="M2.09689 186.499L1.49689 186.199C1.19689 184.399 0.796875 177.898 0.296875 166.698V166.599C0.296875 165.699 0.596893 165.099 1.09689 164.999C1.59689 164.899 2.39689 164.898 3.59689 164.898C3.79689 164.898 4.39688 164.898 5.39688 164.898C6.39688 164.898 7.09689 165.099 7.59689 165.299C8.09689 165.499 8.69687 165.998 9.29688 166.698C10.1969 167.598 10.6969 168.798 10.6969 170.198C10.6969 170.498 10.6969 170.799 10.5969 171.299C10.4969 171.799 10.3969 172.298 10.0969 172.898C9.79689 173.498 9.29689 174.199 8.49689 174.999C7.69689 175.799 7.09689 176.399 6.59689 176.599C6.19689 176.799 5.6969 176.999 5.1969 177.199L10.3969 183.199C10.6969 183.499 10.8969 183.898 10.8969 184.398V184.499L10.5969 185.099C10.3969 185.299 10.0969 185.298 9.79688 185.298H9.59689L2.6969 178.099C2.7969 179.499 2.89688 180.698 2.89688 181.898C2.89688 183.098 2.99689 184.299 3.09689 185.499L2.79688 186.099C2.69688 186.399 2.39689 186.499 2.09689 186.499ZM2.6969 175.799C3.3969 175.699 3.99689 175.599 4.49689 175.499C4.99689 175.399 5.49688 175.198 5.89688 174.898C6.69688 174.498 7.2969 173.999 7.6969 173.299C7.9969 172.699 8.29689 172.099 8.49689 171.599C8.59689 171.299 8.6969 170.898 8.6969 170.398C8.6969 170.198 8.69689 169.899 8.59689 169.499C8.59689 169.099 8.2969 168.599 7.6969 167.999C6.9969 167.399 6.09688 166.999 4.89688 166.999C4.29688 166.999 3.49689 167.098 2.59689 167.198L2.6969 175.799Z" fill="black"/>
<path d="M19.2984 185.899C18.6984 185.799 17.9984 185.599 17.3984 185.299C16.7984 184.999 16.1984 184.499 15.4984 183.799C14.8984 183.099 14.3985 182.099 14.1985 180.899C13.9985 179.899 13.8984 178.9 13.8984 178V177C13.9984 175.4 14.3984 174.2 15.2984 173.3C16.3984 172.2 17.5984 171.6 18.8984 171.6C18.9984 171.6 19.2985 171.599 19.6985 171.699C20.0985 171.699 20.5984 171.9 21.0984 172.1C21.5984 172.3 22.2984 172.799 22.9984 173.699C23.7984 174.599 24.1984 175.6 24.3984 176.7C24.5984 177.8 24.5984 178.6 24.5984 179C24.5984 179.5 24.4985 179.699 24.1985 179.799C23.8985 179.899 21.1984 180 16.0984 180.1C16.2984 181.4 16.6984 182.299 17.3984 182.899C18.1984 183.599 18.9984 183.899 19.8984 183.899C19.9984 183.899 20.1984 183.899 20.4984 183.899C20.7984 183.899 21.1984 183.699 21.7984 183.399C22.2984 183.099 22.7984 182.8 23.3984 182.7L23.9984 183C24.1984 183.2 24.2984 183.499 24.2984 183.899V184.1L23.9984 184.6C23.1984 185.3 22.3985 185.699 21.6985 185.899C20.8985 185.799 20.0984 185.899 19.2984 185.899ZM15.8984 177.899L22.4984 177.6C22.3984 176.2 22.0984 175.2 21.3984 174.6C20.6984 174 19.8984 173.699 18.9984 173.699C18.7984 173.699 18.4984 173.7 18.0984 173.8C17.6984 173.9 17.3984 174.1 16.9984 174.5C16.5984 174.9 16.2985 175.399 16.1985 175.899C16.0985 176.399 15.9984 177.099 15.8984 177.899Z" fill="black"/>
<path d="M31.9 186.099H31.7L31.2 185.799C30.9 184.299 30.7 182.699 30.6 180.999C30.5 179.299 30.5 177.699 30.4 176.099H27.9L27.3 175.799C27.1 175.599 27 175.299 27 174.999V174.799L27.3 174.199L27.9 173.899H30.4C30.3 172.899 30.3 171.899 30.3 171.099C30.3 169.399 30.4 168.099 30.7 167.099C31.2 165.199 32.3 164.299 33.9 164.299C33.9 164.299 34.2 164.299 34.7 164.299C35.2 164.299 35.7 164.599 36.4 165.099C37 165.599 37.3 166.199 37.3 166.799L37.1 167.299C36.9 167.499 36.6 167.599 36.3 167.599H36.1C35.3 166.799 34.7 166.299 34.2 166.299C33.9 166.299 33.7 166.399 33.4 166.599C33.1 166.799 32.9 167.199 32.8 167.799C32.7 168.399 32.6 169.099 32.6 169.999C32.6 170.899 32.6 172.099 32.6 173.699C33.5 173.699 34.3 173.699 35.1 173.699C35.9 173.699 36.7 173.899 37.4 174.199C37.6 174.399 37.7 174.699 37.7 174.999V175.199L37.4 175.799C37.2 175.999 36.9 176.099 36.5 176.099L35.9 175.999C34.8 175.899 34 175.799 33.5 175.799H32.8C32.9 177.599 33 180.699 33.3 185.099L33 185.599C32.5 185.999 32.2 186.099 31.9 186.099Z" fill="black"/>
<path d="M44.2953 185.798H44.0953L43.5953 185.499C43.0953 183.599 42.7953 181.599 42.6953 179.499C42.5953 177.499 42.3953 175.398 42.1953 173.398C42.2953 172.698 42.6953 172.398 43.2953 172.398H43.4953L43.9953 172.698C44.1953 173.498 44.3953 174.398 44.3953 175.198C44.4953 176.098 44.4953 176.998 44.5953 177.798C44.8953 177.198 45.3953 176.698 45.8953 176.298C46.3953 175.898 46.8953 175.499 47.4953 175.299C48.0953 175.099 48.5953 174.898 49.1953 174.898C49.7953 174.898 50.3953 174.899 50.9953 174.799L51.5953 174.999C51.7953 175.199 51.8953 175.499 51.8953 175.799V175.999L51.5953 176.499C50.8953 176.599 50.1953 176.699 49.3953 176.699C48.0953 176.799 46.9953 177.898 46.0953 179.798C45.5953 180.798 45.3953 181.898 45.3953 183.298L45.4953 184.898L45.1953 185.398C44.8953 185.698 44.6953 185.798 44.2953 185.798Z" fill="black"/>
<path d="M65.1 186C64.8 186 64.6 185.9 64.4 185.7L64 185.1C62.8 185.7 61.7 185.899 60.6 185.899C60.5 185.899 60.3 185.899 59.9 185.899C59.5 185.899 59 185.699 58.4 185.399C57.8 185.099 57.2 184.7 56.7 184.2C55.9 183.4 55.5 182.4 55.5 181C55.5 180.8 55.5 180.5 55.6 180C55.7 178.8 56.2 177.799 57.1 176.899C57.9 176.099 58.9 175.699 60.2 175.699C61 175.699 61.7 175.8 62.5 176.1C62.5 175.4 62.3 174.9 61.8 174.6C60.9 174 60.1 173.699 59.3 173.699C59.1 173.699 58.7 173.799 58.4 173.899C58 173.999 57.6 174.1 57.1 174.1L56.5 173.8C56.3 173.6 56.2 173.3 56.2 173V172.8L56.5 172.199C57.1 171.799 57.9 171.6 58.8 171.6C59.2 171.6 59.7 171.599 60.2 171.699C60.7 171.799 61.4 172.1 62.4 172.5C63.3 173 64 173.7 64.4 174.6C64.8 175.5 65 177 65 179.1C65 181.2 65.4 183.2 66.2 185L65.9 185.5C65.6 185.9 65.3 186 65.1 186ZM60.6 183.799C61.2 183.799 61.8 183.699 62.4 183.399L63.2 182.799C63.1 182.099 63 181 62.9 179.5C62.1 178.6 61.3 178.1 60.5 178.1C60.5 178.1 60.2 178.1 59.8 178.1C59.3 178.1 58.9 178.3 58.6 178.7C58 179.3 57.8 180 57.8 181.1C57.8 181.3 57.8 181.499 57.8 181.799C57.8 182.099 58 182.499 58.4 182.799C58.7 183.099 59.2 183.4 59.7 183.6C59.9 183.7 60.3 183.799 60.6 183.799Z" fill="black"/>
<path d="M74.5 186H74.3L73.7 185.7C73.5 185.3 73.3 184.8 73.3 184.2C73.3 184 73.3 183.7 73.4 183.1C73.5 182.5 73.5 181.799 73.6 180.799C73.7 179.799 73.7 178.799 73.7 177.899C73.7 176.599 73.5 175.899 73.2 175.899C73.1 175.899 72.9 176.099 72.7 176.399C72.5 176.699 72.2 177.3 71.8 178.1C71.4 178.9 71.1 179.9 71.1 181.2C71 182.5 70.9 183.8 70.7 185.2C70.5 185.4 70.2 185.399 69.9 185.399C69.8 185.399 69.6 185.3 69.2 185.2C68.9 183.3 68.6 181.399 68.4 179.399C68.2 177.399 68.1 175.5 68 173.5L68.2 172.899C68.5 172.699 68.8 172.6 69.1 172.6H69.2L69.8 172.899C70 173.399 70.1 174 70.2 174.6C70.3 175.2 70.3 175.799 70.3 176.399C70.6 175.599 71.1 174.9 71.7 174.3C72.2 173.8 72.7 173.5 73.1 173.5C73.2 173.5 73.4 173.5 73.8 173.6C74.1 173.7 74.5 173.899 74.7 174.199C75 174.499 75.2 174.899 75.5 175.199C76.2 174.299 77.1 173.899 78 173.899C78.5 173.899 78.9 174.099 79.3 174.399C80.1 175.099 80.5 176.6 80.5 179C80.5 179.6 80.5 180.5 80.4 181.6C80.4 182.7 80.3 183.6 80.3 184.1C80.3 184.6 80.2 185.1 80 185.5C79.8 185.7 79.5 185.799 79.2 185.799H79L78.4 185.5C78.2 185.2 78 184.9 78 184.5L78.1 184.1C78.2 181.2 78.3 179.199 78.3 178.299C78.3 177.399 78.2 176.799 78 176.399C77.9 176.199 77.8 176.1 77.6 176.1C77.5 176.1 77.3 176.199 77.1 176.399C76.9 176.599 76.6 177.099 76.3 177.899C76 178.699 75.8 179.899 75.7 181.299C75.5 182.799 75.4 184.2 75.1 185.6C75.1 185.9 74.8 186 74.5 186Z" fill="black"/>
<path d="M87.6 172.299C87.2 172.199 86.8 171.999 86.5 171.599C86.2 171.199 86 170.799 86 170.299C86 170.199 86 170.099 86 169.799C86 169.499 86.2 169.199 86.6 168.799C86.9 168.499 87.2 168.398 87.6 168.398C88.2 168.398 88.7 168.698 89.2 169.198C89.5 169.498 89.6 169.899 89.6 170.299C89.6 170.399 89.6 170.598 89.5 170.898C89.4 171.198 89.2 171.499 88.9 171.799C88.6 172.099 88.1 172.299 87.6 172.299ZM88.2 185.499H88L87.4 185.298C87 182.798 86.8 179.498 86.7 175.398C86.8 174.698 87.2 174.398 87.9 174.398H88.1L88.6 174.698C89 177.998 89.2 181.398 89.3 184.798L89 185.398C88.8 185.398 88.5 185.499 88.2 185.499Z" fill="black"/>
<path d="M105.697 185.9H105.497L104.897 185.6C104.697 185.3 104.497 184.9 104.497 184.5C104.497 184.4 104.497 184.2 104.597 184L104.797 181.9C104.797 181.4 104.897 180.9 104.897 180.4C104.897 179.5 104.797 178.7 104.597 178.1C104.097 176.8 103.497 176.2 102.597 176.2C102.497 176.2 102.297 176.2 101.997 176.3C101.697 176.3 101.397 176.6 100.997 177.1C100.597 177.6 100.197 178.2 99.7969 178.8C99.3969 179.5 99.0969 180.2 98.9969 180.9C98.9969 182.7 98.9969 183.8 98.9969 184.3L98.7969 184.8C98.5969 185 98.2969 185.1 97.9969 185.1H97.7969L97.1969 184.8C96.8969 183 96.5969 181.2 96.5969 179.4C96.4969 177.6 96.3969 175.8 96.2969 174C96.3969 173.3 96.7969 173 97.3969 173H97.5969L98.0969 173.3C98.2969 173.8 98.3969 174.4 98.3969 175C98.3969 175.6 98.4969 176.2 98.4969 176.8C98.8969 176.3 99.2969 175.8 99.6969 175.4C100.497 174.5 101.497 174 102.497 174C102.697 174 102.997 174 103.497 174.1C103.997 174.2 104.497 174.5 105.097 175.1C105.697 175.7 106.197 176.4 106.497 177.2C106.797 177.9 106.897 178.8 106.897 180C106.897 180.2 106.897 180.8 106.797 181.6C106.797 182.5 106.697 183.2 106.697 183.9C106.697 184.6 106.597 185.1 106.397 185.7C106.197 185.8 105.997 185.9 105.697 185.9Z" fill="black"/>
<path d="M114.794 189.499C113.994 189.399 113.394 189.099 112.994 188.599C112.194 187.699 111.794 186.798 111.794 185.798C111.794 185.698 111.794 185.499 111.794 185.099C111.794 184.799 112.194 184.298 112.794 183.798C113.494 183.298 114.094 182.899 114.794 182.599C115.494 182.299 116.194 182.199 116.894 182.099L116.794 180.599C115.594 181.299 114.694 181.699 114.094 181.699C113.994 181.699 113.694 181.699 113.394 181.599C112.994 181.599 112.594 181.298 112.194 180.798C111.494 179.998 111.094 179.199 111.094 178.199C111.094 177.999 111.094 177.699 111.194 177.199C111.294 176.699 111.394 176.199 111.694 175.499C111.994 174.799 112.394 174.198 112.794 173.698C113.294 173.198 113.694 172.998 114.194 172.898C114.394 172.898 114.494 172.898 114.794 172.898C115.094 172.898 115.594 172.899 116.094 172.999C116.694 173.099 117.494 173.598 118.594 174.698C118.794 175.098 118.894 175.599 118.894 176.099C118.894 176.299 118.894 176.499 118.794 176.699L118.894 181.699C119.194 181.599 119.494 181.499 119.694 181.499C119.794 181.499 119.994 181.598 120.494 181.798C120.694 182.098 120.694 182.299 120.694 182.699V182.898L120.494 183.398C119.994 183.698 119.494 183.798 118.894 183.798V184.599C118.894 184.999 118.894 185.499 118.794 186.099C118.694 186.699 118.194 187.299 117.394 188.199C116.594 189.099 115.694 189.499 114.794 189.499ZM114.094 179.398C114.494 179.398 114.894 179.299 115.194 179.199C115.694 178.799 116.094 178.398 116.294 177.898C116.494 177.398 116.594 176.799 116.694 176.099C116.494 175.799 116.194 175.599 115.794 175.299C115.594 175.199 115.394 175.198 115.194 175.198C114.394 175.198 113.894 175.699 113.494 176.599C113.394 176.999 113.294 177.398 113.294 177.898C113.294 178.098 113.294 178.398 113.394 178.798C113.494 179.198 113.694 179.398 114.094 179.398ZM115.094 187.398C115.394 187.398 115.594 187.299 115.694 187.199C116.494 186.599 116.994 185.798 116.994 184.798V184.298C115.694 184.498 114.794 184.999 114.194 185.699C114.094 185.899 113.994 186.098 113.994 186.298C113.994 186.498 114.094 186.699 114.394 186.999C114.494 187.199 114.794 187.398 115.094 187.398Z" fill="black"/>
<path d="M138.6 186.099C138 185.999 137.6 185.699 137.5 184.999L137.7 166.799C137.7 165.799 138 165.199 138.5 165.099C139 164.999 139.6 164.898 140.3 164.898C141.9 164.898 143.4 165.098 144.6 165.398C145.3 165.598 146 165.998 146.8 166.698C147.5 167.298 148 167.898 148.3 168.398C148.6 169.098 148.8 170.098 148.8 171.398C148.8 172.498 148.6 173.498 148.3 174.398C148.1 174.998 147.4 175.699 146.4 176.599C144.6 178.199 142.7 179.099 140.6 179.099C140.3 179.099 140 179.099 139.6 178.999V185.199L139.3 185.699C139.2 185.999 138.9 186.099 138.6 186.099ZM139.7 176.999C141.1 176.999 142 176.899 142.5 176.699C143 176.499 143.4 176.399 143.7 176.099C144.8 175.499 145.7 174.799 146.3 173.799C146.6 173.199 146.8 172.599 146.8 171.799C146.8 171.299 146.7 170.798 146.6 170.198C146.5 169.598 146 168.998 145.2 168.398C144.4 167.798 143.6 167.398 142.8 167.198C142.4 167.098 141.9 167.099 141.3 167.099C140.8 167.099 140.3 167.098 139.8 167.198L139.7 176.999Z" fill="black"/>
<path d="M161.397 186C161.097 186 160.897 185.9 160.697 185.7L160.297 185.1C159.097 185.7 157.997 185.899 156.897 185.899C156.797 185.899 156.597 185.899 156.197 185.899C155.797 185.899 155.297 185.699 154.697 185.399C154.097 185.099 153.497 184.7 152.997 184.2C152.197 183.4 151.797 182.4 151.797 181C151.797 180.8 151.797 180.5 151.897 180C151.997 178.8 152.497 177.799 153.397 176.899C154.197 176.099 155.197 175.699 156.497 175.699C157.297 175.699 157.997 175.8 158.797 176.1C158.797 175.4 158.597 174.9 158.097 174.6C157.197 174 156.397 173.699 155.597 173.699C155.397 173.699 154.997 173.799 154.697 173.899C154.297 173.999 153.897 174.1 153.397 174.1L152.797 173.8C152.597 173.6 152.497 173.3 152.497 173V172.8L152.797 172.199C153.397 171.799 154.197 171.6 155.097 171.6C155.497 171.6 155.997 171.599 156.497 171.699C156.997 171.799 157.697 172.1 158.697 172.5C159.597 173 160.297 173.7 160.697 174.6C161.097 175.5 161.297 177 161.297 179.1C161.297 181.2 161.697 183.2 162.497 185L162.197 185.5C161.997 185.9 161.697 186 161.397 186ZM156.997 183.799C157.597 183.799 158.197 183.699 158.797 183.399L159.597 182.799C159.497 182.099 159.397 181 159.297 179.5C158.497 178.6 157.697 178.1 156.897 178.1C156.897 178.1 156.597 178.1 156.197 178.1C155.697 178.1 155.297 178.3 154.997 178.7C154.397 179.3 154.197 180 154.197 181.1C154.197 181.3 154.197 181.499 154.197 181.799C154.197 182.099 154.397 182.499 154.797 182.799C155.097 183.099 155.597 183.4 156.097 183.6C156.297 183.7 156.597 183.799 156.997 183.799Z" fill="black"/>
<path d="M168.194 185.798H167.994L167.494 185.499C166.994 183.599 166.694 181.599 166.594 179.499C166.494 177.499 166.294 175.398 166.094 173.398C166.194 172.698 166.594 172.398 167.194 172.398H167.394L167.894 172.698C168.094 173.498 168.294 174.398 168.294 175.198C168.394 176.098 168.394 176.998 168.494 177.798C168.794 177.198 169.294 176.698 169.794 176.298C170.294 175.898 170.794 175.499 171.394 175.299C171.994 175.099 172.494 174.898 173.094 174.898C173.694 174.898 174.294 174.899 174.894 174.799L175.494 174.999C175.694 175.199 175.794 175.499 175.794 175.799V175.999L175.494 176.499C174.794 176.599 174.094 176.699 173.294 176.699C171.994 176.799 170.894 177.898 169.994 179.798C169.494 180.798 169.294 181.898 169.294 183.298L169.394 184.898L169.094 185.398C168.794 185.698 168.494 185.798 168.194 185.798Z" fill="black"/>
<path d="M184.494 185.899C183.894 185.799 183.194 185.599 182.594 185.299C181.994 184.999 181.394 184.499 180.694 183.799C180.094 183.099 179.594 182.099 179.394 180.899C179.194 179.899 179.094 178.9 179.094 178V177C179.194 175.4 179.594 174.2 180.494 173.3C181.594 172.2 182.794 171.6 184.094 171.6C184.194 171.6 184.494 171.599 184.894 171.699C185.294 171.699 185.794 171.9 186.294 172.1C186.794 172.3 187.494 172.799 188.194 173.699C188.994 174.599 189.394 175.6 189.594 176.7C189.794 177.8 189.794 178.6 189.794 179C189.794 179.5 189.694 179.699 189.394 179.799C189.094 179.899 186.394 180 181.294 180.1C181.494 181.4 181.894 182.299 182.594 182.899C183.394 183.599 184.194 183.899 185.094 183.899C185.194 183.899 185.394 183.899 185.694 183.899C185.994 183.899 186.394 183.699 186.994 183.399C187.494 183.099 187.994 182.8 188.594 182.7L189.194 183C189.394 183.2 189.494 183.499 189.494 183.899V184.1L189.194 184.6C188.394 185.3 187.594 185.699 186.894 185.899C186.094 185.799 185.294 185.899 184.494 185.899ZM181.094 177.899L187.694 177.6C187.594 176.2 187.294 175.2 186.594 174.6C185.894 174 185.094 173.699 184.194 173.699C183.994 173.699 183.694 173.7 183.294 173.8C182.894 173.9 182.594 174.1 182.194 174.5C181.794 174.9 181.494 175.399 181.394 175.899C181.294 176.399 181.194 177.099 181.094 177.899Z" fill="black"/>
<path d="M201.994 185.9H201.794L201.194 185.6C200.994 185.3 200.794 184.9 200.794 184.5C200.794 184.4 200.794 184.2 200.894 184L201.094 181.9C201.094 181.4 201.194 180.9 201.194 180.4C201.194 179.5 201.094 178.7 200.894 178.1C200.394 176.8 199.794 176.2 198.894 176.2C198.794 176.2 198.594 176.2 198.294 176.3C197.994 176.3 197.694 176.6 197.294 177.1C196.894 177.6 196.494 178.2 196.094 178.8C195.694 179.5 195.394 180.2 195.294 180.9C195.294 182.7 195.294 183.8 195.294 184.3L195.094 184.8C194.894 185 194.594 185.1 194.294 185.1H194.094L193.494 184.8C193.194 183 192.894 181.2 192.894 179.4C192.794 177.6 192.694 175.8 192.594 174C192.694 173.3 193.094 173 193.694 173H193.894L194.394 173.3C194.594 173.8 194.694 174.4 194.694 175C194.694 175.6 194.794 176.2 194.794 176.8C195.194 176.3 195.594 175.8 195.994 175.4C196.794 174.5 197.794 174 198.794 174C198.994 174 199.294 174 199.794 174.1C200.294 174.2 200.794 174.5 201.394 175.1C201.994 175.7 202.494 176.4 202.794 177.2C203.094 177.9 203.194 178.8 203.194 180C203.194 180.2 203.194 180.8 203.094 181.6C203.094 182.5 202.994 183.2 202.994 183.9C202.994 184.6 202.894 185.1 202.694 185.7C202.594 185.8 202.294 185.9 201.994 185.9Z" fill="black"/>
<path d="M212.997 186C212.197 186 211.497 185.6 210.697 184.9C210.097 184.2 209.597 183.3 209.497 182.2C209.297 181 209.197 179 209.097 176.2L207.097 176.3L206.597 176C206.397 175.7 206.297 175.4 206.297 175.1V175L206.597 174.4C206.897 174.2 207.297 174 207.797 174H208.397H209.297V172.7C209.297 171.3 209.397 170.3 209.597 169.8C209.797 169.6 210.097 169.5 210.397 169.5H210.597L211.197 169.8C211.397 170.1 211.497 170.4 211.497 170.8V171.1L211.597 174L215.997 173.9L216.497 174.1C216.697 174.3 216.797 174.6 216.797 174.9V175.1L216.497 175.6C215.797 175.8 214.997 176 214.197 176H213.597C212.797 176 212.097 176 211.397 176.1C211.497 178.7 211.597 180.4 211.697 181.3C211.797 182.2 211.997 182.8 212.197 183.3C212.397 183.6 212.797 183.8 213.197 183.8C213.797 183.8 214.797 183.6 216.097 183.1L216.697 183.3C216.897 183.5 216.997 183.8 216.997 184.1V184.3L216.597 185C215.397 185.7 214.297 186 212.997 186Z" fill="black"/>
<path d="M225.295 186.1C224.695 186.1 224.095 185.9 223.595 185.6C223.195 185.4 222.795 185.2 222.295 185C222.095 184.7 221.995 184.4 221.895 184C221.995 183.3 222.395 183 222.995 183H223.195C223.695 183.2 224.095 183.499 224.495 183.799C224.795 183.999 225.195 184.1 225.595 184.1C226.595 184.1 227.295 183.799 227.895 183.299C228.195 182.999 228.395 182.599 228.395 182.299C228.395 182.199 228.395 181.999 228.295 181.799C228.195 181.499 227.895 181.3 227.195 181.2C226.495 181 225.795 180.8 224.795 180.6C223.795 180.4 223.195 179.899 222.595 179.299C221.695 178.399 221.195 177.399 221.195 176.299L221.295 175.6C221.395 174.8 221.895 173.9 222.895 173C223.895 172.1 224.895 171.6 226.095 171.6C226.295 171.6 226.595 171.599 227.095 171.699C227.495 171.799 227.995 172 228.595 172.5C229.095 172.9 229.295 173.3 229.295 173.8C229.295 173.9 229.195 174.1 228.995 174.5C228.795 174.7 228.495 174.8 228.195 174.8H227.995C227.195 174.2 226.495 173.899 225.995 173.899C225.895 173.899 225.795 173.9 225.495 174C225.195 174 224.895 174.2 224.495 174.6C224.095 174.9 223.795 175.4 223.595 176C223.495 176.2 223.495 176.5 223.495 176.7C223.495 177 223.695 177.4 223.995 177.7C224.295 178 224.695 178.3 225.095 178.5C225.495 178.7 226.195 178.9 227.095 179C227.995 179.1 228.795 179.5 229.495 180C230.095 180.5 230.495 181.1 230.595 181.7C230.695 182 230.695 182.3 230.695 182.5C230.695 182.8 230.595 183.2 230.495 183.6C230.395 184.1 230.095 184.5 229.595 185C228.495 185.6 227.095 186.1 225.295 186.1Z" fill="black"/>
<path d="M236.394 170.699L235.794 170.399L235.594 169.799L235.894 169.199C236.694 169.099 237.594 168.699 238.494 167.899C237.594 167.899 236.994 167.699 236.694 167.299C236.394 166.899 236.194 166.299 236.194 165.499C236.194 164.899 236.394 164.299 236.894 163.799C237.294 163.399 237.694 163.199 238.194 163.199C238.994 163.199 239.694 163.499 240.194 163.999C240.694 164.499 240.894 165.199 240.894 165.899C240.894 166.299 240.794 166.699 240.694 167.299C240.594 167.899 240.194 168.399 239.594 168.899C238.994 169.399 238.394 169.799 237.894 169.999C237.494 170.499 236.894 170.599 236.394 170.699Z" fill="black"/>
<path d="M276.194 186.099C275.594 185.999 275.194 185.699 275.094 184.999L275.294 166.799C275.294 165.799 275.594 165.199 276.094 165.099C276.594 164.999 277.194 164.898 277.894 164.898C279.494 164.898 280.994 165.098 282.194 165.398C282.894 165.598 283.594 165.998 284.394 166.698C285.094 167.298 285.594 167.898 285.894 168.398C286.194 169.098 286.394 170.098 286.394 171.398C286.394 172.498 286.194 173.498 285.894 174.398C285.694 174.998 284.994 175.699 283.994 176.599C282.194 178.199 280.294 179.099 278.194 179.099C277.894 179.099 277.594 179.099 277.194 178.999V185.199L276.894 185.699C276.794 185.999 276.494 186.099 276.194 186.099ZM277.394 176.999C278.794 176.999 279.694 176.899 280.194 176.699C280.694 176.499 281.094 176.399 281.394 176.099C282.494 175.499 283.394 174.799 283.994 173.799C284.294 173.199 284.494 172.599 284.494 171.799C284.494 171.299 284.394 170.798 284.294 170.198C284.194 169.598 283.694 168.998 282.894 168.398C282.094 167.798 281.294 167.398 280.494 167.198C280.094 167.098 279.594 167.099 278.994 167.099C278.494 167.099 277.994 167.098 277.494 167.198L277.394 176.999Z" fill="black"/>
<path d="M294.595 185.899C293.995 185.799 293.295 185.599 292.695 185.299C292.095 184.999 291.495 184.499 290.795 183.799C290.195 183.099 289.695 182.099 289.495 180.899C289.295 179.899 289.195 178.9 289.195 178V177C289.295 175.4 289.695 174.2 290.595 173.3C291.695 172.2 292.895 171.6 294.195 171.6C294.295 171.6 294.595 171.599 294.995 171.699C295.395 171.699 295.895 171.9 296.395 172.1C296.895 172.3 297.595 172.799 298.295 173.699C299.095 174.599 299.495 175.6 299.695 176.7C299.895 177.8 299.895 178.6 299.895 179C299.895 179.5 299.795 179.699 299.495 179.799C299.195 179.899 296.495 180 291.395 180.1C291.595 181.4 291.995 182.299 292.695 182.899C293.495 183.599 294.295 183.899 295.195 183.899C295.295 183.899 295.495 183.899 295.795 183.899C296.095 183.899 296.495 183.699 297.095 183.399C297.595 183.099 298.095 182.8 298.695 182.7L299.295 183C299.495 183.2 299.595 183.499 299.595 183.899V184.1L299.295 184.6C298.495 185.3 297.695 185.699 296.995 185.899C296.195 185.799 295.395 185.899 294.595 185.899ZM291.295 177.899L297.895 177.6C297.795 176.2 297.495 175.2 296.795 174.6C296.095 174 295.295 173.699 294.395 173.699C294.195 173.699 293.895 173.7 293.495 173.8C293.095 173.9 292.795 174.1 292.395 174.5C291.995 174.9 291.695 175.399 291.595 175.899C291.495 176.399 291.295 177.099 291.295 177.899Z" fill="black"/>
<path d="M305.897 185.798H305.697L305.197 185.499C304.697 183.599 304.397 181.599 304.297 179.499C304.197 177.499 303.997 175.398 303.797 173.398C303.897 172.698 304.297 172.398 304.897 172.398H305.097L305.597 172.698C305.797 173.498 305.997 174.398 305.997 175.198C306.097 176.098 306.097 176.998 306.197 177.798C306.497 177.198 306.997 176.698 307.497 176.298C307.997 175.898 308.497 175.499 309.097 175.299C309.697 175.099 310.197 174.898 310.797 174.898C311.397 174.898 311.997 174.899 312.597 174.799L313.197 174.999C313.397 175.199 313.497 175.499 313.497 175.799V175.999L313.197 176.499C312.497 176.599 311.797 176.699 310.997 176.699C309.697 176.799 308.597 177.898 307.697 179.798C307.197 180.798 306.997 181.898 306.997 183.298L307.097 184.898L306.797 185.398C306.497 185.698 306.197 185.798 305.897 185.798Z" fill="black"/>
<path d="M321.6 186.1C321 186.1 320.4 185.9 319.9 185.6C319.5 185.4 319.1 185.2 318.6 185C318.4 184.7 318.3 184.4 318.2 184C318.3 183.3 318.7 183 319.3 183H319.5C320 183.2 320.4 183.499 320.8 183.799C321.1 183.999 321.5 184.1 321.9 184.1C322.9 184.1 323.6 183.799 324.2 183.299C324.5 182.999 324.7 182.599 324.7 182.299C324.7 182.199 324.7 181.999 324.6 181.799C324.5 181.499 324.2 181.3 323.5 181.2C322.8 181 322.1 180.8 321.1 180.6C320.1 180.4 319.5 179.899 318.9 179.299C318 178.399 317.5 177.399 317.5 176.299L317.6 175.6C317.7 174.8 318.2 173.9 319.2 173C320.2 172.1 321.2 171.6 322.4 171.6C322.6 171.6 322.9 171.599 323.4 171.699C323.8 171.799 324.3 172 324.9 172.5C325.4 172.9 325.6 173.3 325.6 173.8C325.6 173.9 325.5 174.1 325.3 174.5C325.1 174.7 324.8 174.8 324.5 174.8H324.3C323.5 174.2 322.8 173.899 322.3 173.899C322.2 173.899 322.1 173.9 321.8 174C321.5 174 321.2 174.2 320.8 174.6C320.4 174.9 320.1 175.4 319.9 176C319.8 176.2 319.8 176.5 319.8 176.7C319.8 177 320 177.4 320.3 177.7C320.6 178 321 178.3 321.4 178.5C321.8 178.7 322.5 178.9 323.4 179C324.3 179.1 325.1 179.5 325.8 180C326.4 180.5 326.8 181.1 326.9 181.7C327 182 327 182.3 327 182.5C327 182.8 326.9 183.2 326.8 183.6C326.7 184.1 326.4 184.5 325.9 185C324.9 185.6 323.5 186.1 321.6 186.1Z" fill="black"/>
<path d="M332 189.399H331.8L331.3 189.099C331.1 188.799 331 188.499 330.9 188.099L330.5 174.299C330.5 173.999 330.6 173.799 330.8 173.599C331.1 173.399 331.3 173.299 331.7 173.299H331.9L332.5 173.599L332.6 173.899C334 173.099 335.4 172.699 336.7 172.699C336.9 172.699 337.3 172.699 337.9 172.799C338.8 172.899 339.7 173.599 340.8 174.799C341.5 175.599 341.8 176.999 341.8 178.999C341.8 179.999 341.7 180.999 341.4 181.999C341.2 182.699 340.7 183.399 340 183.999C338.8 184.899 337.5 185.399 336 185.399C335.1 185.399 334.1 185.299 333.2 184.999L333.3 188.699L333.1 189.199C332.6 189.299 332.3 189.399 332 189.399ZM335.9 183.299C336.4 183.299 336.9 183.199 337.4 182.999C337.7 182.799 338.2 182.499 338.6 182.099C339.1 181.699 339.4 181.099 339.5 180.399C339.6 179.899 339.6 179.399 339.6 178.899C339.6 178.699 339.6 178.399 339.6 177.999C339.6 177.599 339.5 177.099 339.3 176.699C339.1 176.199 338.8 175.799 338.3 175.299C337.9 174.999 337.4 174.799 336.9 174.799C336.8 174.799 336.6 174.799 336.2 174.899C335.8 174.899 335.4 175.099 334.9 175.299C334.4 175.499 333.8 175.999 333.1 176.899L333.2 182.799C334 183.099 335 183.299 335.9 183.299Z" fill="black"/>
<path d="M349.595 185.899C348.995 185.799 348.295 185.599 347.695 185.299C347.095 184.999 346.495 184.499 345.795 183.799C345.195 183.099 344.695 182.099 344.495 180.899C344.295 179.899 344.195 178.9 344.195 178V177C344.295 175.4 344.695 174.2 345.595 173.3C346.695 172.2 347.895 171.6 349.195 171.6C349.295 171.6 349.595 171.599 349.995 171.699C350.395 171.699 350.895 171.9 351.395 172.1C351.895 172.3 352.595 172.799 353.295 173.699C354.095 174.599 354.495 175.6 354.695 176.7C354.895 177.8 354.895 178.6 354.895 179C354.895 179.5 354.795 179.699 354.495 179.799C354.195 179.899 351.495 180 346.395 180.1C346.595 181.4 346.995 182.299 347.695 182.899C348.495 183.599 349.295 183.899 350.195 183.899C350.295 183.899 350.495 183.899 350.795 183.899C351.095 183.899 351.495 183.699 352.095 183.399C352.595 183.099 353.095 182.8 353.695 182.7L354.295 183C354.495 183.2 354.595 183.499 354.595 183.899V184.1L354.295 184.6C353.495 185.3 352.695 185.699 351.995 185.899C351.295 185.799 350.495 185.899 349.595 185.899ZM346.295 177.899L352.895 177.6C352.795 176.2 352.495 175.2 351.795 174.6C351.095 174 350.295 173.699 349.395 173.699C349.195 173.699 348.895 173.7 348.495 173.8C348.095 173.9 347.795 174.1 347.395 174.5C346.995 174.9 346.695 175.399 346.595 175.899C346.495 176.399 346.395 177.099 346.295 177.899Z" fill="black"/>
<path d="M363.894 185.599C363.094 185.599 362.394 185.399 361.694 184.999C361.194 184.699 360.594 184.199 359.894 183.399C359.294 182.599 358.794 181.599 358.494 180.399C358.294 179.499 358.094 178.599 358.094 177.899C358.094 177.699 358.094 177.299 358.194 176.699C358.294 175.499 358.894 174.399 359.894 173.099C360.894 171.799 362.294 171.199 363.894 171.199C363.994 171.199 364.394 171.199 364.894 171.299C365.394 171.299 365.894 171.599 366.494 171.999C366.794 172.299 366.894 172.699 366.894 172.999V173.099L366.594 173.699C366.394 173.899 366.094 173.999 365.694 173.999H365.594C365.094 173.599 364.594 173.399 363.994 173.399C363.894 173.399 363.594 173.399 363.194 173.499C362.094 173.699 361.394 174.199 360.794 175.099C360.194 175.999 359.994 176.899 359.994 178.099C359.994 178.699 360.094 179.399 360.294 180.199C360.494 180.899 360.794 181.599 361.294 182.199C361.994 183.099 362.794 183.599 363.894 183.599C363.994 183.599 364.294 183.599 364.594 183.499C364.894 183.399 365.294 183.299 365.694 183.099C366.094 182.899 366.594 182.699 367.094 182.699L367.694 182.999C367.894 183.199 367.994 183.499 367.994 183.799V183.999L367.694 184.499C366.494 185.099 365.194 185.599 363.894 185.599Z" fill="black"/>
<path d="M378.2 186C377.4 186 376.7 185.6 375.9 184.9C375.3 184.2 374.8 183.3 374.7 182.2C374.5 181 374.4 179 374.3 176.2L372.3 176.3L371.8 176C371.6 175.7 371.5 175.4 371.5 175.1V175L371.8 174.4C372.1 174.2 372.5 174 373 174H373.6H374.5V172.7C374.5 171.3 374.6 170.3 374.8 169.8C375 169.6 375.3 169.5 375.6 169.5H375.8L376.4 169.8C376.6 170.1 376.7 170.4 376.7 170.8V171.1L376.8 174L381.2 173.9L381.7 174.1C381.9 174.3 382 174.6 382 174.9V175.1L381.7 175.6C381 175.8 380.2 176 379.4 176H378.8C378 176 377.3 176 376.6 176.1C376.7 178.7 376.8 180.4 376.9 181.3C377 182.2 377.2 182.8 377.4 183.3C377.6 183.6 378 183.8 378.4 183.8C379 183.8 380 183.6 381.3 183.1L381.9 183.3C382.1 183.5 382.2 183.8 382.2 184.1V184.3L381.8 185C380.6 185.7 379.5 186 378.2 186Z" fill="black"/>
<path d="M390.397 172.299C389.997 172.199 389.597 171.999 389.297 171.599C388.997 171.199 388.797 170.799 388.797 170.299C388.797 170.199 388.797 170.099 388.797 169.799C388.797 169.499 388.997 169.199 389.397 168.799C389.697 168.499 389.997 168.398 390.397 168.398C390.997 168.398 391.497 168.698 391.997 169.198C392.297 169.498 392.397 169.899 392.397 170.299C392.397 170.399 392.397 170.598 392.297 170.898C392.197 171.198 391.997 171.499 391.697 171.799C391.397 172.099 390.997 172.299 390.397 172.299ZM391.097 185.499H390.897L390.297 185.298C389.897 182.798 389.697 179.498 389.597 175.398C389.697 174.698 390.097 174.398 390.797 174.398H390.997L391.497 174.698C391.897 177.998 392.097 181.398 392.197 184.798L391.897 185.398C391.697 185.398 391.397 185.499 391.097 185.499Z" fill="black"/>
<path d="M404.495 186.399C404.095 186.399 403.595 186.099 403.195 185.499C401.495 182.099 400.195 178.199 399.195 173.699C399.195 173.399 399.295 173.099 399.495 172.899C399.795 172.699 399.995 172.699 400.395 172.699H400.595L401.095 172.899C401.495 174.599 401.995 176.399 402.495 178.099C402.995 179.799 403.695 181.499 404.495 183.199C405.195 181.599 405.895 179.999 406.595 178.399C407.295 176.799 407.995 175.299 408.595 173.599C408.795 173.399 409.095 173.299 409.495 173.299H409.595L410.095 173.599C410.295 173.799 410.395 174.099 410.395 174.499V174.699C409.695 176.599 408.995 178.399 408.095 180.199C407.195 181.999 406.395 183.899 405.495 185.699C405.295 186.199 404.895 186.399 404.495 186.399Z" fill="black"/>
<path d="M418.494 185.899C417.894 185.799 417.194 185.599 416.594 185.299C415.994 184.999 415.394 184.499 414.694 183.799C414.094 183.099 413.594 182.099 413.394 180.899C413.194 179.899 413.094 178.9 413.094 178V177C413.194 175.4 413.594 174.2 414.494 173.3C415.594 172.2 416.794 171.6 418.094 171.6C418.194 171.6 418.494 171.599 418.894 171.699C419.294 171.699 419.794 171.9 420.294 172.1C420.794 172.3 421.494 172.799 422.194 173.699C422.994 174.599 423.394 175.6 423.594 176.7C423.794 177.8 423.794 178.6 423.794 179C423.794 179.5 423.694 179.699 423.394 179.799C423.094 179.899 420.394 180 415.294 180.1C415.494 181.4 415.894 182.299 416.594 182.899C417.394 183.599 418.194 183.899 419.094 183.899C419.194 183.899 419.394 183.899 419.694 183.899C419.994 183.899 420.394 183.699 420.994 183.399C421.494 183.099 421.994 182.8 422.594 182.7L423.194 183C423.394 183.2 423.494 183.499 423.494 183.899V184.1L423.194 184.6C422.394 185.3 421.594 185.699 420.894 185.899C420.094 185.799 419.294 185.899 418.494 185.899ZM415.094 177.899L421.694 177.6C421.594 176.2 421.294 175.2 420.594 174.6C419.894 174 419.094 173.699 418.194 173.699C417.994 173.699 417.694 173.7 417.294 173.8C416.894 173.9 416.594 174.1 416.194 174.5C415.794 174.9 415.494 175.399 415.394 175.899C415.294 176.399 415.194 177.099 415.094 177.899Z" fill="black"/>
<path d="M23.4937 146.801L22.9937 146.701C21.5937 146.101 20.2938 145.301 19.1938 144.201C18.0938 143.101 16.8938 142.001 15.6938 140.901C15.2938 140.401 14.9937 139.701 14.9937 138.701L15.4937 137.601C15.9937 137.201 16.6937 137.001 17.5938 137.001C18.5938 137.601 19.4937 138.301 20.4937 139.101L20.5938 125.401C19.1938 125.801 17.8938 126.101 16.5938 126.401C15.2937 126.701 13.9937 127.001 12.7937 127.401C11.2937 127.201 10.5938 126.401 10.5938 125.001C10.5938 124.801 10.7937 124.301 11.0938 123.501C12.5938 122.801 14.0938 122.301 15.6938 122.001C17.2938 121.701 18.8937 121.301 20.4937 120.801V107.101L12.8937 107.301C11.3937 107.101 10.5938 106.201 10.5938 104.401L11.1938 103.201C11.7938 102.801 12.3937 102.501 12.9937 102.501L20.3937 102.401V96.0007C20.5937 94.5007 21.4937 93.8008 23.2937 93.8008L24.4937 94.4006L25.0938 95.5007V102.301H30.4937L31.6938 102.901C32.0938 103.301 32.2937 104.001 32.2937 105.001L31.6938 106.201C31.0938 106.601 30.5937 106.801 29.9937 106.901H25.0938V119.201L27.3937 119.101L28.4937 119.701C28.8937 120.101 29.0938 120.801 29.0938 121.801L28.4937 122.901C27.3937 123.501 26.2938 123.801 25.1938 124.001L25.3937 144.901C25.0937 146.201 24.3937 146.801 23.4937 146.801ZM47.9937 147.301H47.5938L46.3937 146.701C45.8937 145.801 45.5938 144.901 45.5938 143.801L46.0938 134.201L37.6938 142.101C36.9938 142.901 35.9937 143.301 34.7937 143.301L33.5938 142.701C33.1938 142.301 32.9937 141.601 32.9937 140.601C34.7937 138.601 38.6937 134.501 44.7937 128.501H35.7937L34.6938 127.901C34.1938 127.401 33.9937 126.701 33.9937 125.701L34.5938 124.601L35.6938 124.001H46.1938L45.9937 120.401C46.1937 118.901 47.0937 118.201 48.7937 118.201L49.9937 118.801C50.5937 120.201 50.7937 122.001 50.7937 124.001C54.2937 124.001 56.3937 124.001 57.0938 123.901C58.6937 123.901 60.1937 124.201 61.5938 124.801C61.9938 125.201 62.1938 125.901 62.1938 126.901L61.5938 128.001C60.9938 128.401 60.2938 128.601 59.5938 128.701L52.6938 128.501C57.4938 133.201 60.7937 136.201 62.3937 137.501C63.1937 138.401 63.5938 139.501 63.5938 140.701L62.9937 141.901C62.4937 142.301 61.7937 142.501 60.8937 142.501L59.7937 141.901C58.4937 140.401 55.4937 137.501 50.7937 133.501C50.3937 140.201 49.9938 144.601 49.5938 146.701C49.2938 147.101 48.6937 147.301 47.9937 147.301ZM36.5938 111.901C35.9937 111.801 35.3937 111.601 34.9937 111.201C34.3937 109.301 34.0937 107.201 33.9937 105.101C33.8937 103.001 33.6937 100.801 33.4937 98.7007V98.2007C33.4937 97.0007 33.9937 96.3008 34.9937 96.1008C35.9937 95.9008 44.5938 95.6006 60.6938 95.4006C61.7938 95.6006 62.3937 96.2008 62.4937 97.1008V104.801C62.4937 106.301 62.1937 107.601 61.4937 108.801C60.8937 109.201 60.1937 109.401 59.2937 109.401L58.0938 108.801C57.6937 108.301 57.3937 107.701 57.3937 107.001L57.7937 100.001L37.9937 100.201L38.7937 110.101L38.1938 111.201C37.7938 111.601 37.1938 111.901 36.5938 111.901ZM39.2937 117.901C37.7937 117.701 37.0938 116.801 37.0938 115.201L37.6938 114.001C39.8938 112.901 41.0937 110.701 41.3937 107.501C41.4937 106.501 41.6938 105.501 42.0938 104.501C42.4937 104.101 43.1938 103.901 44.1938 103.901L45.3937 104.501C45.8937 105.201 46.0938 106.001 46.0938 106.901C46.0938 107.301 45.9937 107.901 45.7937 108.801C45.5937 109.701 45.2937 110.801 44.7937 112.201C44.2937 113.501 43.4937 114.801 42.3937 116.001C41.1937 117.201 40.1937 117.801 39.2937 117.901ZM59.6938 118.701C58.1938 118.601 56.5938 118.401 55.1938 118.101C53.6938 117.801 52.3937 117.001 51.3937 115.801C50.2937 114.601 49.7937 113.101 49.7937 111.501C49.7937 109.701 49.6937 108.001 49.5938 106.301C49.7938 104.801 50.6937 104.001 52.4937 104.001L53.5938 104.601L54.1938 105.801L54.0938 108.101C54.0938 109.101 54.1937 110.101 54.2937 111.201C54.3937 112.301 54.7937 113.101 55.3937 113.401C55.9937 113.801 56.9937 113.901 58.3937 113.901C59.6937 113.901 60.9938 114.201 62.1938 114.701C62.5938 115.201 62.7937 115.901 62.7937 116.801L62.1938 117.901C61.3938 118.401 60.5938 118.701 59.6938 118.701Z" fill="black"/>
<path d="M76.6969 119.401C76.0969 119.301 75.5969 119.101 75.0969 118.701C74.4969 117.801 74.1969 116.701 74.1969 115.501V109.901C74.1969 108.901 74.4969 108.201 75.1969 108.001C75.8969 107.801 76.7969 107.701 77.9969 107.701C79.1969 107.701 84.5969 107.501 94.1969 107.201L93.9969 102.301L75.7969 103.101L74.3969 102.401C73.9969 101.901 73.7969 101.301 73.7969 100.401L74.3969 99.2007C76.4969 98.7007 78.6969 98.4008 81.0969 98.3008C83.3969 98.2008 87.5969 98.0008 93.5969 97.8008L93.4969 95.1008L94.0969 93.9006C94.5969 93.5006 95.2969 93.3008 96.2969 93.3008L97.3969 93.9006C97.8969 94.8006 98.1969 95.8006 98.1969 96.9006L98.0969 97.7007L114.497 97.6008C115.397 97.6008 116.197 97.8008 116.897 98.3008C117.297 98.9008 117.397 99.5008 117.397 100.101C117.397 100.301 117.197 100.801 116.897 101.601C116.297 102.101 115.597 102.301 114.797 102.301C114.497 102.301 114.197 102.301 113.797 102.201H98.4969L98.6969 107.101L116.897 106.901C117.697 107.201 118.297 107.801 118.597 108.601V116.101L117.997 117.301C117.397 117.701 116.697 117.801 115.797 117.801L114.697 117.301L114.197 116.101V111.401L78.5969 112.201L79.0969 117.601L78.4969 118.701C77.9969 119.101 77.3969 119.301 76.6969 119.401ZM83.8969 144.901C82.4969 144.701 81.7969 143.901 81.7969 142.501C81.7969 142.301 81.9969 141.801 82.2969 141.001C84.2969 138.301 85.7969 136.701 86.7969 136.101L88.2969 136.001L89.4969 136.601C89.8969 137.101 89.9969 137.701 89.9969 138.301C89.9969 138.501 89.7969 139.001 89.4969 139.801L85.5969 144.301C85.0969 144.601 84.4969 144.801 83.8969 144.901ZM97.7969 147.501H97.5969L96.4969 146.901C95.8969 145.901 95.6969 144.901 95.6969 143.701V134.201C88.3969 134.301 84.4969 134.301 84.1969 134.401C83.5969 134.401 83.0969 134.201 82.7969 133.801C82.5969 133.601 82.4969 133.301 82.4969 133.001C82.4969 132.601 82.6969 132.101 82.9969 131.501C83.2969 130.801 83.9969 130.201 85.0969 129.401C86.1969 128.701 88.9969 126.901 93.4969 124.101C90.3969 122.501 88.8969 121.201 88.8969 120.201C88.8969 119.701 89.2969 119.001 90.1969 118.101C91.0969 117.201 92.0969 116.201 93.2969 114.901C94.4969 113.601 95.8969 112.901 97.5969 112.701L98.6969 113.301C99.0969 113.801 99.1969 114.401 99.1969 115.001C99.1969 115.201 98.9969 115.701 98.6969 116.501L94.8969 119.401L98.2969 121.601C99.5969 120.901 100.797 120.101 101.997 119.201C103.197 118.301 104.497 117.801 105.997 117.701L107.197 118.301C107.597 118.901 107.697 119.501 107.697 120.101C107.697 120.301 107.497 120.801 107.197 121.601C104.897 122.801 102.597 124.101 100.297 125.501C97.9969 126.901 95.6969 128.201 93.2969 129.501L105.297 129.401C104.597 128.701 104.297 127.901 104.297 127.101C104.297 126.801 104.497 126.201 104.897 125.401C105.297 125.001 105.897 124.801 106.597 124.801C106.997 124.801 107.597 125.001 108.397 125.401C109.697 127.401 111.897 129.901 114.997 132.901C115.397 133.401 115.597 134.101 115.597 135.001L114.997 136.201C114.497 136.601 113.797 136.801 112.797 136.801L111.197 135.801L109.197 133.701L100.297 134.001L100.397 145.401L99.8969 146.601C99.1969 147.301 98.5969 147.501 97.7969 147.501ZM112.297 144.901H111.897C110.597 144.201 109.197 143.501 107.897 142.601C106.597 141.701 105.297 140.901 103.997 140.101C103.597 139.701 103.397 139.001 103.397 138.101L103.997 137.001C104.397 136.601 104.997 136.301 105.697 136.301C106.197 136.301 107.697 137.101 110.197 138.601C111.397 139.401 112.697 140.201 113.997 140.901C114.397 141.501 114.597 142.201 114.597 143.101L113.997 144.301C113.497 144.801 112.897 144.901 112.297 144.901Z" fill="black"/>
<path d="M140.691 146.4H140.291L139.091 145.8C138.591 145.1 138.291 144.3 138.291 143.4C138.691 138.8 138.791 131.2 138.791 120.7L132.491 129.4C131.991 129.9 131.191 130.1 130.191 130.1L129.091 129.5C128.691 129 128.391 128.4 128.391 127.7C128.391 127.5 128.691 126.9 129.091 126.2C131.291 123.2 133.491 120.2 135.791 117.1C137.991 114 140.391 111 142.891 108.1L130.891 108.6L129.691 108C129.291 107.5 128.991 106.8 128.991 105.8L129.591 104.7C131.091 104 132.691 103.6 134.391 103.6H139.991C138.091 101 136.391 98.9 134.691 97.2L134.591 95.7L135.191 94.6001C135.691 94.2001 136.391 94 137.291 94L139.091 95.1001C139.991 96.4001 140.991 97.6 142.191 98.8C143.491 100.2 144.191 101.4 144.191 102.4C144.191 102.8 144.091 103.3 143.991 103.7H148.591C149.891 104 150.591 104.6 150.591 105.4C150.591 105.7 150.491 106.1 150.291 106.5L143.491 115.4C145.291 116.5 146.891 117.6 148.291 118.8C149.691 120 151.391 121.1 153.091 122.2C153.491 122.7 153.691 123.4 153.691 124.3L153.091 125.4C152.591 125.8 151.991 126.1 151.291 126.1L150.891 126C149.391 125.2 148.291 124.6 147.491 124C146.691 123.4 145.291 122.3 143.391 120.8L143.491 132.2C143.491 136.7 143.391 139.7 143.391 141.2C143.291 142.7 142.991 144.3 142.391 146C141.991 146.2 141.391 146.4 140.691 146.4ZM181.091 145.3H175.191C173.791 145.1 172.391 145 170.991 144.7C169.591 144.5 168.391 143.6 167.391 142.1C166.391 140.6 165.891 138.6 165.891 136.2C165.891 133.8 165.691 131.5 165.491 129.2C164.791 131.3 163.991 133.4 163.091 135.4C162.191 137.5 161.191 139.2 160.091 140.5C158.991 141.8 158.091 142.9 157.291 143.8C156.491 144.6 155.591 145 154.691 145C154.391 145 153.891 144.8 153.091 144.4C152.691 143.9 152.491 143.2 152.491 142.3L153.091 141.1C154.391 140.4 155.491 139.4 156.391 138.2C161.191 131.4 164.391 119.9 165.891 103.8C166.391 103.4 167.091 103.2 167.991 103.2L169.191 103.8C169.691 104.4 169.891 105 169.891 105.8C169.891 107.7 169.691 109.9 169.291 112.6L168.291 119L168.691 118.9C169.491 118.9 169.991 119.5 170.191 120.7C170.391 129.8 170.391 135 170.391 136.2C170.391 137.4 170.791 138.4 171.491 139.2C172.191 140 173.191 140.4 174.491 140.5C175.791 140.6 177.091 140.6 178.391 140.6L178.291 138.6L178.891 137.4C179.291 137 179.891 136.8 180.591 136.8C180.791 136.8 181.291 137 182.091 137.4C182.591 138.3 182.991 140.4 183.291 143.6C183.291 144.8 182.491 145.3 181.091 145.3ZM156.691 127.8H156.391L155.191 127.2C154.691 126.2 154.391 125.1 154.391 123.8C154.391 123 154.491 114.3 154.491 97.8999C154.491 96.8999 154.791 96.4001 155.391 96.1001C155.791 95.9001 157.591 95.8 160.891 95.8C162.391 95.8 165.391 95.7999 169.791 95.8999C174.191 95.9999 176.791 96 177.691 96C178.591 96 179.091 96.4 179.191 97.3C179.191 97.7 179.291 100 179.291 104.1L179.191 125.3C178.991 126.8 178.091 127.6 176.391 127.6L175.191 127C174.791 126.4 174.591 125.7 174.491 125V100.5L159.191 100.2L159.291 125.8L158.691 127C157.991 127.5 157.391 127.8 156.691 127.8Z" fill="black"/>
<path d="M232.392 146.8C231.792 146.8 231.192 146.6 230.392 146.3C228.692 145.9 227.092 145.1 225.792 143.9C225.392 143.4 225.292 142.9 225.292 142.3C225.292 142.1 225.492 141.6 225.792 140.8C226.192 140.4 226.892 140.2 227.792 140.2L229.892 141.4L229.792 131.7L218.592 131.8V139C218.192 139.8 217.692 140.2 216.992 140.2H215.492C214.792 140 214.392 139.6 214.292 139V131.9L200.592 132.1C199.592 136.5 198.192 140.6 196.292 144.5C195.792 145 195.092 145.2 194.392 145.2C194.192 145.2 193.692 145 192.992 144.7C192.592 144.3 192.492 143.6 192.492 142.7C195.792 135.6 197.492 129.1 197.792 123.1C197.992 118.2 198.092 114.1 198.092 111C198.092 109.6 198.792 108.8 200.292 108.6L213.192 108.2C216.192 105.3 218.292 102.4 219.592 99.6001L210.092 99.5C208.992 101 208.192 102.6 207.592 104.3C207.092 104.7 206.492 104.8 205.892 104.8C205.692 104.8 205.192 104.6 204.392 104.3C203.992 103.7 203.792 103.1 203.792 102.5C204.092 101.3 204.692 99.9 205.592 98.5C206.492 97.1 207.092 96.1 207.592 95.5C207.892 95.2 208.392 95 209.092 95C209.592 95 210.092 95.1 210.792 95.2C218.492 95.3 222.992 95.5 224.192 95.8C224.992 96 225.392 96.5 225.392 97.2C225.392 97.6 225.192 98.2 224.692 99.2C224.192 100.2 223.692 101.5 222.992 103C222.292 104.5 221.192 106.2 219.792 108.1C226.992 108.1 230.992 108.1 231.792 108.1C232.592 108.1 233.092 108.6 233.292 109.4C233.492 110.3 233.892 121.9 234.392 144.3C234.092 146.1 233.492 146.8 232.392 146.8ZM201.792 127.8L214.192 127.6V122.7L202.392 122.5L201.792 127.8ZM213.892 118.2V112.7L202.192 113L202.292 118L213.892 118.2ZM228.992 118.5L228.792 112.7L218.292 112.6V118.4L228.992 118.5ZM229.492 127.4L229.192 122.8L218.492 122.7V127.4H229.492Z" fill="black"/>
<path d="M265.691 135.401L257.991 135.301L250.591 135.401C249.591 135.401 249.091 135.001 248.991 134.201C248.891 133.401 248.691 124.701 248.391 108.101C248.391 106.301 249.091 105.301 250.391 105.101C250.791 105.101 251.191 105.001 251.691 105.001C252.791 105.001 254.191 105.101 255.791 105.401C256.191 103.901 256.891 102.401 257.691 101.201C258.491 99.9007 259.291 98.6007 259.891 97.2007C260.391 96.8007 261.091 96.6008 261.991 96.6008L263.191 97.2007C263.591 97.6007 263.791 98.2006 263.791 98.9006C263.791 99.7006 263.291 100.901 262.291 102.501C261.691 103.501 261.191 104.501 260.791 105.601C264.991 105.601 267.591 105.701 268.391 105.901C269.191 106.101 269.591 107.001 269.591 108.501V109.201C269.291 125.001 268.991 133.301 268.691 134.201C268.391 134.901 267.391 135.401 265.691 135.401ZM252.991 116.601L264.491 116.501L264.691 110.101L252.791 109.701L252.991 116.601ZM253.491 130.701L264.391 130.601L264.491 121.001L253.191 121.101L253.491 130.701ZM294.291 146.001C293.491 146.001 292.591 145.501 291.591 144.501C289.891 142.801 288.291 141.301 287.091 140.201C286.291 139.601 285.991 138.701 285.991 137.501L286.591 136.301C287.091 135.901 287.791 135.701 288.691 135.701C289.691 136.301 291.191 137.501 293.191 139.601C293.891 134.601 294.391 129.401 294.891 124.001C295.391 118.601 295.791 113.501 296.291 108.801L279.191 108.701C278.991 110.401 278.591 111.901 278.191 113.101C277.691 114.301 277.191 115.701 276.391 117.301C275.891 117.701 275.191 117.901 274.291 117.901L273.191 117.301C272.791 116.801 272.491 116.301 272.491 115.601L272.591 115.001C273.791 112.301 274.691 109.101 275.191 105.501C275.691 101.901 276.491 98.3006 277.591 94.9006C278.091 94.5006 278.791 94.3008 279.691 94.3008L280.891 94.9006C281.291 95.3006 281.491 95.9008 281.491 96.6008L281.391 97.3008C280.791 99.3008 280.391 101.601 279.991 104.301L298.991 104.401C300.091 104.401 300.691 105.201 300.791 106.901C299.991 115.501 299.491 122.701 299.091 128.401C298.691 134.101 298.091 138.601 297.191 141.801C296.191 144.501 295.291 146.001 294.291 146.001ZM286.091 127.901H285.691L284.491 127.401L279.991 122.301C279.591 121.801 279.391 121.101 279.391 120.201L279.991 119.001C280.491 118.601 281.091 118.301 281.691 118.301C281.991 118.301 282.591 118.501 283.391 119.001L287.491 124.001C288.091 124.601 288.291 125.301 288.291 126.201L287.691 127.401C287.291 127.801 286.691 127.901 286.091 127.901Z" fill="black"/>
<path d="M321.592 130.101C320.192 130.101 319.392 129.801 319.292 129.301C319.092 128.801 318.792 122.4 318.292 109.9L312.892 116.7C312.392 117.1 311.692 117.301 310.792 117.301L309.692 116.7C309.292 116.2 308.992 115.6 308.992 114.9L309.092 114.4C311.392 111.3 313.792 108.301 316.192 105.301C318.592 102.301 320.892 99.2005 322.992 96.0005C323.392 95.6005 323.992 95.3005 324.692 95.3005C325.092 95.3005 325.592 95.5005 326.392 95.8005C326.792 96.4005 326.992 97.1005 326.992 98.0005L326.392 99.1006C325.092 100.101 324.192 101.4 323.492 102.9H337.692C338.292 101.7 338.792 100.5 339.392 99.2004C339.992 97.9004 340.492 96.6005 341.192 95.5005C341.692 95.1005 342.292 94.9004 343.192 94.9004L344.392 95.5005C344.792 95.9005 345.092 96.5004 345.092 97.2004C345.092 97.5004 344.292 99.5006 342.792 103.101L353.092 103L354.292 103.601C354.692 104.101 354.892 104.601 354.892 105.301C354.892 105.501 354.692 106 354.292 106.9C353.492 107.4 352.692 107.601 351.892 107.601L341.692 107.7V110.101C343.592 110.201 345.492 110.2 347.392 110.2C349.292 110.2 351.092 110.4 352.792 110.9C353.092 111.3 353.292 111.901 353.292 112.601C353.292 112.801 353.092 113.301 352.792 114.101C351.792 114.601 350.692 114.9 349.492 114.9L341.492 114.601V116.7L350.392 116.801C351.492 116.801 352.392 117 353.292 117.5C353.692 118 353.892 118.701 353.892 119.601L353.292 120.7C352.692 121.2 351.892 121.4 351.092 121.4C350.792 121.4 350.392 121.401 350.092 121.301H341.692L341.792 125.601L353.492 125.5L354.792 126.2C355.192 126.6 355.292 127.2 355.292 127.9C355.292 128.1 355.092 128.6 354.792 129.4C354.192 129.8 353.592 130.001 352.992 130.101H321.592ZM314.192 145C312.692 144.8 311.992 143.801 311.992 142.101C312.592 140.801 313.092 139.4 313.492 138C313.992 136.6 314.392 135.2 314.892 133.7C315.292 133.3 315.992 133.101 316.992 133.101L318.092 133.7C318.492 134.3 318.792 134.9 318.792 135.7C318.792 136.9 317.792 139.801 315.892 144.301C315.392 144.701 314.792 144.9 314.192 145ZM336.992 110.101V107.5H322.592L322.692 110.101H336.992ZM322.892 117.2L336.992 117L336.892 114.601H322.892V117.2ZM323.292 125.601L337.192 125.5L337.092 121.301L323.392 121.5V125.601H323.292ZM328.192 145.2C327.592 145.1 327.092 144.9 326.592 144.5C325.992 143 325.592 141.5 325.392 139.9C325.292 138.3 324.992 136.7 324.492 135.2C324.692 133.7 325.492 132.9 326.892 132.9H327.292L328.392 133.5C329.092 135 329.592 136.601 329.792 138.301C329.992 140.001 330.292 141.6 330.592 143.2L329.892 144.5C329.392 144.9 328.792 145.1 328.192 145.2ZM340.692 145C340.092 144.9 339.592 144.701 339.092 144.301C338.492 142.901 338.092 141.5 337.892 139.9C337.592 138.4 337.392 136.9 336.992 135.4L337.592 134.2C338.092 133.8 338.792 133.601 339.792 133.601L340.892 134.2C341.492 135.6 341.992 137.101 342.292 138.601C342.592 140.101 342.892 141.601 343.292 143.101L342.792 144.301C342.092 144.701 341.392 144.9 340.692 145ZM356.492 145C355.892 144.9 355.292 144.701 354.892 144.301C352.992 140.801 351.592 137.5 350.592 134.2L351.192 133C351.792 132.6 352.392 132.5 352.992 132.5C353.192 132.5 353.692 132.7 354.492 133C355.292 134.7 356.092 136.3 356.892 137.9C357.692 139.5 358.292 141.2 358.792 143L358.192 144.2C357.692 144.7 357.092 144.9 356.492 145Z" fill="black"/>
<path d="M373.092 144.5H372.692L371.592 143.9C371.192 143.3 370.992 142.6 370.992 141.7C371.592 140.7 371.892 139.6 372.192 138.5C372.392 137.4 372.792 136.3 373.192 135.3C373.692 134.9 374.392 134.7 375.292 134.7L376.492 135.3C376.892 135.9 377.192 136.5 377.192 137.1L377.092 137.7C376.492 140.5 375.792 142.5 374.892 143.9C374.392 144.3 373.792 144.5 373.092 144.5ZM380.292 130.4C379.092 130.4 378.492 129.6 378.292 127.9C378.092 126.3 377.892 124.1 377.692 121.6L376.992 113.5C376.992 112.4 377.392 111.7 378.292 111.5C379.192 111.3 383.292 111.2 390.692 111.2L389.892 95.7C390.092 94.2 390.992 93.5 392.692 93.5L393.892 94.1001L394.492 95.3V100.7C396.592 100.9 398.792 100.9 400.992 100.9C403.192 100.9 405.292 101.1 407.292 101.6C407.692 102.1 407.892 102.8 407.892 103.7L407.292 104.9C406.292 105.4 405.292 105.7 404.092 105.7C403.692 105.7 403.192 105.7 402.792 105.6L394.692 105.3L395.192 111.2H406.492C407.492 111.2 407.992 112.1 407.992 113.8C407.592 123.5 407.292 128.5 407.292 128.8C407.192 129.6 406.492 130.1 405.392 130.2L380.292 130.4ZM402.792 125.7L403.192 115.7H381.692L382.792 125.6L402.792 125.7ZM386.592 145.4H386.192L384.992 144.9C384.292 143.6 383.792 140.8 383.492 136.4L384.092 135.2C384.492 134.8 385.192 134.6 386.192 134.6L387.292 135.2C387.892 136.5 388.292 137.8 388.392 139.3C388.492 140.8 388.692 142.2 388.892 143.6L388.192 144.9C387.892 145.2 387.292 145.4 386.592 145.4ZM400.092 145.2C399.492 145.1 398.992 144.9 398.492 144.5C397.592 142.2 396.892 139.6 396.192 136.8L396.792 135.6C397.192 135.2 397.892 135.1 398.892 135.1L399.992 135.6C400.992 137.2 401.792 139.7 402.592 143.3L402.092 144.5C401.392 144.9 400.792 145.1 400.092 145.2ZM412.992 144.2C412.392 144.1 411.892 143.9 411.392 143.5C410.592 142.3 409.792 141.1 408.892 139.8C407.992 138.6 407.392 137.3 407.092 135.9L407.692 134.7C408.292 134.3 408.992 134.1 409.992 134.1L411.192 134.7C411.892 136 412.692 137.2 413.492 138.4C414.392 139.6 414.992 140.9 415.292 142.3L414.692 143.4C414.192 143.9 413.692 144.1 412.992 144.2Z" fill="black"/>
</svg>
