<svg width="354" height="200" viewBox="0 0 354 200" fill="none" xmlns="http://www.w3.org/2000/svg">
<path d="M191.729 48.6671C201.016 40.6608 202.053 26.6425 194.047 17.3562C186.041 8.06995 172.022 7.03234 162.736 15.0386C153.45 23.0448 152.412 37.0631 160.418 46.3494C168.425 55.6357 182.443 56.6733 191.729 48.6671Z" fill="#393939"/>
<path opacity="0.45" d="M178.991 12.9995C187.491 12.9995 194.791 17.6995 198.591 24.6995C195.591 15.8995 187.291 9.59961 177.591 9.59961C165.291 9.59961 155.391 19.4996 155.391 31.7996C155.391 35.5996 156.391 39.1996 157.991 42.2996C157.191 40.0996 156.791 37.5996 156.791 35.0996C156.691 22.9996 166.691 12.9995 178.991 12.9995Z" fill="#B17F55"/>
<path opacity="0.5" d="M189.844 46.8104C198.104 39.7286 199.059 27.2916 191.977 19.0315C184.896 10.7714 172.459 9.81617 164.198 16.898C155.938 23.9798 154.983 36.4168 162.065 44.6769C169.147 52.937 181.584 53.8922 189.844 46.8104Z" stroke="#393939" stroke-width="0.8656" stroke-miterlimit="10"/>
<path opacity="0.5" d="M177.094 49.4004C186.759 49.4004 194.594 41.5654 194.594 31.9004C194.594 22.2354 186.759 14.4004 177.094 14.4004C167.429 14.4004 159.594 22.2354 159.594 31.9004C159.594 41.5654 167.429 49.4004 177.094 49.4004Z" fill="#393939"/>
<path d="M181.689 26.6006L177.489 18.9004L177.289 31.6006L181.689 26.6006Z" fill="#A11B00"/>
<path d="M177.195 31.9014H177.295H190.795L181.995 27.1016L181.695 26.6016L177.295 31.6016L177.195 31.9014Z" fill="#EEDFA5"/>
<path d="M177.294 31.6016L177.094 31.8015L177.194 31.9014L177.294 31.6016Z" fill="#EEDFA5"/>
<path d="M177.092 31.8008L176.992 31.9006H177.192L177.092 31.8008Z" fill="#EEDFA5"/>
<path d="M177.294 31.6008L177.494 18.9006L177.094 18.3008L172.594 26.7007L177.094 31.8008L177.294 31.6008Z" fill="#D23D14"/>
<path d="M177.192 31.9004L176.992 45.4004L177.092 45.6006L181.792 37.0005L177.292 31.9004H177.192Z" fill="#EEDFA5"/>
<path d="M190.789 31.9004H177.289L181.789 37.0005L181.989 36.8005L190.789 31.9004Z" fill="#CEC095"/>
<path d="M176.991 31.9004L172.391 37.0005L176.991 45.4004L177.191 31.9004H176.991Z" fill="#CEC095"/>
<path d="M163.492 31.9004L172.292 36.8005L172.392 37.0005L176.992 31.9004H163.492Z" fill="#EEDFA5"/>
<path d="M177.092 31.8013L172.592 26.7012L172.292 27.1013L163.492 31.9011H176.992L177.092 31.8013Z" fill="#CEC095"/>
<path d="M177.095 33.7004C178.145 33.7004 178.995 32.8499 178.995 31.8005C178.995 30.7512 178.145 29.9004 177.095 29.9004C176.046 29.9004 175.195 30.7512 175.195 31.8005C175.195 32.8499 176.046 33.7004 177.095 33.7004Z" fill="white"/>
<path d="M177.091 5.09961C162.291 5.09961 150.391 17.0996 150.391 31.7996C150.391 46.5996 162.391 58.4995 177.091 58.4995C191.791 58.4995 203.791 46.4996 203.791 31.7996C203.891 16.9996 191.891 5.09961 177.091 5.09961ZM177.091 53.8994C164.891 53.8994 154.991 43.9996 154.991 31.7996C154.991 19.5996 164.891 9.69946 177.091 9.69946C189.291 9.69946 199.191 19.5996 199.191 31.7996C199.191 43.9996 189.291 53.8994 177.091 53.8994Z" fill="#B17F55"/>
<path d="M157.492 19.1995C158.492 16.4995 160.592 14.2996 163.092 13.0996C161.292 15.2996 159.492 17.1995 157.492 19.1995Z" fill="#B17F55"/>
<path d="M153.893 31.5989C153.293 27.9989 154.193 24.1988 156.293 21.2988C155.293 24.6988 154.493 27.9989 153.893 31.5989Z" fill="#B17F55"/>
<path d="M160.391 47.6987C156.891 44.9987 154.591 40.6988 154.391 36.2988C155.791 40.4988 157.791 44.0987 160.391 47.6987Z" fill="#B17F55"/>
<path d="M173.095 54.3994C169.395 54.3994 165.695 52.7996 163.195 50.0996C166.395 51.7996 169.595 53.1994 173.095 54.3994Z" fill="#B17F55"/>
<path d="M192.592 48.6992C188.792 52.9992 182.692 55.3992 176.992 54.6992C182.692 54.0992 187.992 52.0992 192.592 48.6992Z" fill="#B17F55"/>
<path d="M200.092 34C200.292 38.6 198.292 43.2 194.992 46.3C197.292 42.4 198.992 38.4 200.092 34Z" fill="#B17F55"/>
<path d="M194.992 17C198.792 20.7 200.792 26.3001 200.192 31.6001C199.592 26.3001 197.892 21.5 194.992 17Z" fill="#B17F55"/>
<path d="M179.594 8.59839C184.894 8.49839 190.394 11.1982 193.594 15.3982C189.394 11.9982 184.794 9.79839 179.594 8.59839Z" fill="#B17F55"/>
<path d="M165.094 11.7991C168.394 9.09912 172.894 7.89907 176.994 8.49907C172.894 9.09907 168.994 10.0991 165.094 11.7991Z" fill="#B17F55"/>
<path d="M169.695 8.19973C175.095 5.89973 181.695 6.19988 186.795 9.09988C181.195 7.39988 175.495 7.09973 169.695 8.19973Z" fill="#B17F55"/>
<path d="M156.797 17.7988C159.097 13.3988 163.397 9.89883 168.297 8.79883C163.897 10.9988 160.097 13.9988 156.797 17.7988Z" fill="#B17F55"/>
<path d="M152.697 29.0996C152.397 25.6996 153.497 22.1996 155.697 19.5996C154.497 22.8996 153.597 25.8996 152.697 29.0996Z" fill="#B17F55"/>
<path d="M159.197 48.3994C154.497 44.2994 151.897 37.7996 152.597 31.5996C153.097 37.7996 155.397 43.4994 159.197 48.3994Z" fill="#B17F55"/>
<path d="M175.795 56.0986C170.495 56.4986 164.895 54.2984 161.195 50.3984C165.695 53.2984 170.495 55.1986 175.795 56.0986Z" fill="#B17F55"/>
<path d="M187.391 53.7988C184.691 55.6988 181.191 56.5989 177.891 56.0989C181.191 55.3989 184.191 54.6988 187.391 53.7988Z" fill="#B17F55"/>
<path d="M195.395 47.7988C194.495 49.7988 192.695 51.2988 190.695 51.9988C192.095 50.2988 193.595 48.9988 195.395 47.7988Z" fill="#B17F55"/>
<path d="M201.394 33.7988C201.594 38.0988 199.994 42.4987 197.094 45.6987C199.094 41.7987 200.494 37.9988 201.394 33.7988Z" fill="#B17F55"/>
<path d="M200.297 24C201.697 26.3 202.097 29.1001 201.497 31.6001C200.897 29.0001 200.597 26.6 200.297 24Z" fill="#B17F55"/>
<path d="M189.695 10.5996C194.495 12.7996 198.395 17.2994 199.795 22.3994C197.195 17.7994 193.895 13.8996 189.695 10.5996Z" fill="#B17F55"/>
<path d="M165.391 8.69885C168.291 6.49885 172.191 5.4988 175.791 5.8988C172.191 6.6988 168.891 7.59885 165.391 8.69885Z" fill="#B17F55"/>
<path d="M158.594 13.7993C159.694 11.7993 161.594 10.2992 163.794 9.69922C162.094 11.2992 160.494 12.5993 158.594 13.7993Z" fill="#B17F55"/>
<path d="M152.492 23.8992C152.892 20.5992 154.692 17.3992 157.192 15.1992C155.592 18.0992 154.092 20.8992 152.492 23.8992Z" fill="#B17F55"/>
<path d="M151.394 31.6001C150.794 29.6001 151.094 27.4 152.094 25.5C152.194 27.7 151.894 29.6001 151.394 31.6001Z" fill="#B17F55"/>
<path d="M157.592 48.3992C153.792 44.9992 151.492 39.7992 151.492 34.6992C152.692 39.5992 154.692 44.0992 157.592 48.3992Z" fill="#B17F55"/>
<path d="M165.895 54.7996C163.195 54.0996 160.695 52.3996 159.195 50.0996C161.595 51.4996 163.695 52.9996 165.895 54.7996Z" fill="#B17F55"/>
<path d="M176.997 57.2988C173.997 57.8988 170.797 57.2988 168.297 55.7988C171.297 56.1988 174.097 56.6988 176.997 57.2988Z" fill="#B17F55"/>
<path d="M192.691 52C189.391 55.3 184.591 57.3 179.891 57.2C184.491 56 188.591 54.3 192.691 52Z" fill="#B17F55"/>
<path d="M201.994 37.5996C201.494 42.3996 198.894 46.9994 195.094 49.8994C197.994 46.0994 200.294 42.0996 201.994 37.5996Z" fill="#B17F55"/>
<path d="M192.195 10.8984C199.095 15.0984 203.395 23.5986 202.695 31.5986C202.095 23.4986 198.295 16.0984 192.195 10.8984Z" fill="#B17F55"/>
<path d="M179.594 6.1002C183.094 5.8002 186.794 7.00006 189.494 9.20006C186.094 8.00006 182.994 7.0002 179.594 6.1002Z" fill="#B17F55"/>
<path opacity="0.6" d="M193.695 10.9004C198.095 15.6004 200.795 21.9004 200.795 28.9004C200.795 43.5004 188.995 55.3005 174.395 55.3005C165.995 55.3005 158.595 51.4005 153.695 45.3005C158.395 53.2005 166.895 58.4004 176.695 58.4004C191.495 58.4004 203.395 46.4004 203.395 31.7004C203.595 23.3004 199.695 15.8004 193.695 10.9004Z" fill="#B17F55"/>
<path d="M181.685 8.9367C182.216 6.67857 180.816 4.41776 178.557 3.88704C176.299 3.35632 174.039 4.75668 173.508 7.0148C172.977 9.27293 174.377 11.5337 176.636 12.0645C178.894 12.5952 181.154 11.1948 181.685 8.9367Z" fill="#C38F73"/>
<path d="M177.495 11.3013C179.318 11.3013 180.795 9.82376 180.795 8.00122C180.795 6.17868 179.318 4.70117 177.495 4.70117C175.673 4.70117 174.195 6.17868 174.195 8.00122C174.195 9.82376 175.673 11.3013 177.495 11.3013Z" fill="white"/>
<path d="M175.797 10.0005V6.40039H176.297L177.497 8.20044C177.797 8.60044 177.997 9.00039 178.097 9.40039C178.097 8.90039 177.997 8.50039 177.997 7.90039V6.40039H178.397V10.0005H177.897L176.797 8.20044C176.497 7.80044 176.297 7.40049 176.097 7.00049C176.097 7.50049 176.097 7.90049 176.097 8.50049V10.0005H175.797Z" fill="#393939"/>
<path d="M181.701 56.5266C182.232 54.2685 180.831 52.0077 178.573 51.4769C176.315 50.9462 174.054 52.3465 173.523 54.6046C172.993 56.8628 174.393 59.1236 176.651 59.6544C178.91 60.1851 181.17 58.7847 181.701 56.5266Z" fill="#C38F73"/>
<path d="M177.495 58.8987C179.318 58.8987 180.795 57.4214 180.795 55.5989C180.795 53.7763 179.318 52.2988 177.495 52.2988C175.673 52.2988 174.195 53.7763 174.195 55.5989C174.195 57.4214 175.673 58.8987 177.495 58.8987Z" fill="white"/>
<path d="M176.098 56.9985C176.298 57.0985 176.598 57.1985 176.898 57.1985C177.398 57.1985 177.698 56.8986 177.698 56.5986C177.698 56.2986 177.498 56.0984 176.998 55.8984C176.398 55.6984 175.998 55.3984 175.998 54.8984C175.998 54.2984 176.498 53.8984 177.198 53.8984C177.598 53.8984 177.798 53.9986 177.998 54.0986L177.898 54.4985C177.798 54.3985 177.498 54.2986 177.198 54.2986C176.698 54.2986 176.498 54.5986 176.498 54.7986C176.498 55.0986 176.698 55.2985 177.198 55.4985C177.798 55.6985 178.098 55.9986 178.098 56.5986C178.098 57.1986 177.698 57.5986 176.798 57.5986C176.498 57.5986 176.098 57.4984 175.898 57.3984L176.098 56.9985Z" fill="#393939"/>
<path d="M153.294 35.8999C155.613 35.8999 157.494 34.0195 157.494 31.7C157.494 29.3804 155.613 27.5 153.294 27.5C150.974 27.5 149.094 29.3804 149.094 31.7C149.094 34.0195 150.974 35.8999 153.294 35.8999Z" fill="#C38F73"/>
<path d="M153.292 35.0005C155.115 35.0005 156.592 33.523 156.592 31.7004C156.592 29.8779 155.115 28.4004 153.292 28.4004C151.47 28.4004 149.992 29.8779 149.992 31.7004C149.992 33.523 151.47 35.0005 153.292 35.0005Z" fill="white"/>
<path d="M151.791 33.6006L150.891 30.0005H151.391L151.791 31.8005C151.891 32.3005 151.991 32.7006 152.091 33.1006C152.191 32.7006 152.291 32.3005 152.391 31.8005L152.891 30.0005H153.391L153.791 31.8005C153.891 32.2005 153.991 32.7005 154.091 33.0005C154.191 32.6005 154.291 32.2004 154.391 31.7004L154.891 29.9004H155.391L154.391 33.5005H153.891L153.391 31.6006C153.291 31.1006 153.191 30.8004 153.191 30.4004C153.091 30.8004 153.091 31.1006 152.891 31.6006L152.391 33.5005H151.791V33.6006Z" fill="#393939"/>
<path d="M200.997 35.8999C203.316 35.8999 205.197 34.0195 205.197 31.7C205.197 29.3804 203.316 27.5 200.997 27.5C198.677 27.5 196.797 29.3804 196.797 31.7C196.797 34.0195 198.677 35.8999 200.997 35.8999Z" fill="#C38F73"/>
<path d="M200.995 35.0005C202.818 35.0005 204.295 33.523 204.295 31.7004C204.295 29.8779 202.818 28.4004 200.995 28.4004C199.173 28.4004 197.695 29.8779 197.695 31.7004C197.695 33.523 199.173 35.0005 200.995 35.0005Z" fill="white"/>
<path d="M201.495 31.8999H200.095V33.2H201.695V33.6001H199.695V30H201.695V30.3999H200.195V31.5H201.595V31.8999H201.495Z" fill="#393939"/>
<path d="M3.1969 195.699C2.0969 195.699 1.2969 195.499 0.696899 195.099C0.496899 194.799 0.396912 194.599 0.396912 194.199V194.099L0.696899 193.499C0.896899 193.299 1.19689 193.199 1.49689 193.199H1.6969C2.2969 193.499 2.89689 193.699 3.49689 193.699C3.59689 193.699 3.89691 193.699 4.39691 193.599C4.89691 193.499 5.29688 193.499 5.79688 193.299C6.29688 193.199 6.79691 192.799 7.39691 192.199C7.89691 191.699 8.09686 191.099 8.09686 190.499C8.09686 190.399 8.09689 190.099 7.99689 189.599C7.89689 189.099 7.49687 188.599 6.79688 188.099C6.09688 187.599 5.29691 187.099 4.39691 186.699C3.49691 186.299 2.69686 185.799 2.09686 185.099C0.896863 183.999 0.296875 182.599 0.296875 180.899C0.296875 180.799 0.296875 180.499 0.296875 180.099C0.296875 179.699 0.496875 179.099 0.796875 178.499C1.09688 177.899 1.59686 177.299 2.09686 176.799C2.79686 176.099 3.8969 175.699 5.1969 175.699C6.1969 175.699 7.09691 175.899 7.89691 176.399C8.09691 176.699 8.29688 176.999 8.29688 177.399V177.599L7.99689 178.099C7.79689 178.299 7.4969 178.399 7.1969 178.399H6.99689C6.19689 178.099 5.59686 177.899 5.09686 177.899C4.39686 177.899 3.89691 178.099 3.39691 178.599C2.69691 179.299 2.39691 180.099 2.39691 180.899C2.39691 180.999 2.39691 181.199 2.39691 181.399C2.39691 181.699 2.4969 181.999 2.6969 182.499C2.8969 182.899 3.19688 183.399 3.79688 183.899C4.39687 184.399 5.09689 184.799 5.99689 185.199C6.89689 185.599 7.79689 186.099 8.49689 186.899C9.29689 187.599 9.69691 188.399 9.89691 189.199C9.99691 189.799 10.0969 190.299 10.0969 190.799C10.0969 191.599 9.9969 192.399 9.6969 193.099C9.4969 193.499 9.09689 193.999 8.49689 194.499C7.29689 195.199 5.5969 195.699 3.1969 195.699Z" fill="black"/>
<path d="M19.7 195.9C18.9 195.9 18.2 195.5 17.4 194.8C16.8 194.1 16.3 193.201 16.2 192.101C16 190.901 15.9 188.901 15.8 186.101L13.8 186.201L13.3 185.9C13.1 185.6 13 185.3 13 185V184.9L13.3 184.301C13.6 184.101 14 183.9 14.5 183.9H15.1H16V182.601C16 181.201 16.1 180.2 16.3 179.7C16.5 179.5 16.8 179.4 17.1 179.4H17.3L17.9 179.7C18.1 180 18.2 180.3 18.2 180.7V181L18.3 183.9L22.7 183.801L23.2 184C23.4 184.2 23.5 184.501 23.5 184.801V185L23.2 185.5C22.5 185.7 21.7 185.9 20.9 185.9H20.3C19.5 185.9 18.8 185.9 18.1 186C18.2 188.6 18.3 190.301 18.4 191.201C18.5 192.101 18.7 192.701 18.9 193.201C19.1 193.501 19.5 193.701 19.9 193.701C20.5 193.701 21.5 193.5 22.8 193L23.4 193.201C23.6 193.401 23.7 193.7 23.7 194V194.201L23.3 194.9C22.1 195.5 21 195.9 19.7 195.9Z" fill="black"/>
<path d="M29.9984 195.701H29.7984L29.2984 195.401C28.7984 193.501 28.4984 191.501 28.3984 189.401C28.2984 187.401 28.0984 185.301 27.8984 183.301C27.9984 182.601 28.3984 182.301 28.9984 182.301H29.1984L29.6984 182.601C29.8984 183.401 30.0984 184.301 30.0984 185.101C30.1984 186.001 30.1984 186.901 30.2984 187.701C30.5984 187.101 31.0984 186.601 31.5984 186.201C32.0984 185.801 32.5984 185.401 33.1984 185.201C33.7984 185.001 34.2984 184.801 34.8984 184.801C35.4984 184.801 36.0984 184.801 36.6984 184.701L37.2984 184.901C37.4984 185.101 37.5984 185.401 37.5984 185.701V185.901L37.2984 186.401C36.5984 186.501 35.8984 186.601 35.0984 186.601C33.7984 186.701 32.6984 187.801 31.7984 189.701C31.2984 190.701 31.0984 191.801 31.0984 193.201L31.1984 194.801L30.8984 195.301C30.5984 195.601 30.2984 195.701 29.9984 195.701Z" fill="black"/>
<path d="M46.1969 195.8C45.5969 195.7 44.8969 195.5 44.2969 195.2C43.6969 194.9 43.0969 194.4 42.3969 193.7C41.7969 193 41.2969 192 41.0969 190.8C40.8969 189.8 40.7969 188.8 40.7969 187.9V186.9C40.8969 185.3 41.2969 184.1 42.1969 183.2C43.2969 182.1 44.4969 181.5 45.7969 181.5C45.8969 181.5 46.1969 181.5 46.5969 181.6C46.9969 181.6 47.4969 181.8 47.9969 182C48.4969 182.2 49.1969 182.7 49.8969 183.6C50.6969 184.5 51.0969 185.5 51.2969 186.6C51.4969 187.7 51.4969 188.5 51.4969 188.9C51.4969 189.4 51.3969 189.6 51.0969 189.7C50.7969 189.8 48.0969 189.9 42.9969 190C43.1969 191.3 43.5969 192.2 44.2969 192.8C45.0969 193.5 45.8969 193.8 46.7969 193.8C46.8969 193.8 47.0969 193.8 47.3969 193.8C47.6969 193.8 48.0969 193.6 48.6969 193.3C49.1969 193 49.6969 192.7 50.2969 192.6L50.8969 192.9C51.0969 193.1 51.1969 193.4 51.1969 193.8V194L50.8969 194.5C50.0969 195.2 49.2969 195.6 48.5969 195.8C47.8969 195.7 47.0969 195.8 46.1969 195.8ZM42.8969 187.8L49.4969 187.5C49.3969 186.1 49.0969 185.1 48.3969 184.5C47.6969 183.9 46.8969 183.6 45.9969 183.6C45.7969 183.6 45.4969 183.6 45.0969 183.7C44.6969 183.8 44.3969 184 43.9969 184.4C43.5969 184.8 43.2969 185.3 43.1969 185.8C43.0969 186.3 42.9969 187 42.8969 187.8Z" fill="black"/>
<path d="M63.7984 195.701H63.5984L62.9984 195.401C62.7984 195.101 62.5984 194.701 62.5984 194.301C62.5984 194.201 62.5984 194.001 62.6984 193.801L62.8984 191.701C62.8984 191.201 62.9984 190.701 62.9984 190.201C62.9984 189.301 62.8984 188.501 62.6984 187.901C62.1984 186.601 61.5984 186.001 60.6984 186.001C60.5984 186.001 60.3984 186.001 60.0984 186.101C59.7984 186.101 59.4984 186.401 59.0984 186.901C58.6984 187.401 58.2984 188.001 57.8984 188.601C57.4984 189.301 57.1984 190.001 57.0984 190.701C57.0984 192.501 57.0984 193.601 57.0984 194.101L56.8984 194.601C56.6984 194.801 56.3984 194.901 56.0984 194.901H55.8984L55.2984 194.601C54.9984 192.801 54.6984 191.001 54.6984 189.201C54.5984 187.401 54.4984 185.601 54.3984 183.801C54.4984 183.101 54.8984 182.801 55.4984 182.801H55.6984L56.1984 183.101C56.3984 183.601 56.4984 184.201 56.4984 184.801C56.4984 185.401 56.5984 186.001 56.5984 186.601C56.9984 186.101 57.3984 185.601 57.7984 185.201C58.5984 184.301 59.5984 183.801 60.5984 183.801C60.7984 183.801 61.0984 183.801 61.5984 183.901C62.0984 184.001 62.5984 184.301 63.1984 184.901C63.7984 185.501 64.2984 186.201 64.5984 187.001C64.8984 187.701 64.9984 188.601 64.9984 189.801C64.9984 190.001 64.9984 190.601 64.8984 191.401C64.8984 192.301 64.7984 193.001 64.7984 193.701C64.7984 194.401 64.6984 194.901 64.4984 195.501C64.3984 195.601 64.0984 195.701 63.7984 195.701Z" fill="black"/>
<path d="M72.8953 199.401C72.0953 199.301 71.4953 199.001 71.0953 198.501C70.2953 197.601 69.8953 196.701 69.8953 195.701C69.8953 195.601 69.8953 195.401 69.8953 195.001C69.8953 194.701 70.2953 194.201 70.8953 193.701C71.5953 193.201 72.1953 192.801 72.8953 192.501C73.5953 192.201 74.2953 192.101 74.9953 192.001L74.8953 190.501C73.6953 191.201 72.7953 191.601 72.1953 191.601C72.0953 191.601 71.7953 191.601 71.4953 191.501C71.0953 191.501 70.6953 191.201 70.2953 190.701C69.5953 189.901 69.1953 189.101 69.1953 188.101C69.1953 187.901 69.1953 187.601 69.2953 187.101C69.3953 186.601 69.4953 186.101 69.7953 185.401C70.0953 184.701 70.4953 184.101 70.8953 183.601C71.3953 183.101 71.7953 182.901 72.2953 182.801C72.4953 182.801 72.5953 182.801 72.8953 182.801C73.1953 182.801 73.6953 182.801 74.1953 182.901C74.7953 183.001 75.5953 183.501 76.6953 184.601C76.8953 185.001 76.9953 185.501 76.9953 186.001C76.9953 186.201 76.9953 186.401 76.8953 186.601L76.9953 191.601C77.2953 191.501 77.5953 191.401 77.7953 191.401C77.8953 191.401 78.0953 191.501 78.5953 191.701C78.7953 192.001 78.7953 192.201 78.7953 192.601V192.801L78.5953 193.301C78.0953 193.601 77.5953 193.701 76.9953 193.701V194.501C76.9953 194.901 76.9953 195.401 76.8953 196.001C76.7953 196.601 76.2953 197.201 75.4953 198.101C74.6953 199.001 73.7953 199.401 72.8953 199.401ZM72.1953 189.301C72.5953 189.301 72.9953 189.201 73.2953 189.101C73.7953 188.701 74.1953 188.301 74.3953 187.801C74.5953 187.301 74.6953 186.701 74.7953 186.001C74.5953 185.701 74.2953 185.501 73.8953 185.201C73.6953 185.101 73.4953 185.101 73.2953 185.101C72.4953 185.101 71.9953 185.601 71.5953 186.501C71.4953 186.901 71.3953 187.301 71.3953 187.801C71.3953 188.001 71.3953 188.301 71.4953 188.701C71.5953 189.101 71.7953 189.301 72.1953 189.301ZM73.1953 197.201C73.4953 197.201 73.6953 197.101 73.7953 197.001C74.5953 196.401 75.0953 195.601 75.0953 194.601V194.101C73.7953 194.301 72.8953 194.801 72.2953 195.501C72.1953 195.701 72.0953 195.901 72.0953 196.101C72.0953 196.301 72.1953 196.501 72.4953 196.801C72.6953 197.101 72.8953 197.201 73.1953 197.201Z" fill="black"/>
<path d="M88.4969 195.9C87.6969 195.9 86.9969 195.5 86.1969 194.8C85.5969 194.1 85.0969 193.201 84.9969 192.101C84.7969 190.901 84.6969 188.901 84.5969 186.101L82.5969 186.201L82.0969 185.9C81.8969 185.6 81.7969 185.3 81.7969 185V184.9L82.0969 184.301C82.3969 184.101 82.7969 183.9 83.2969 183.9H83.8969H84.7969V182.601C84.7969 181.201 84.8969 180.2 85.0969 179.7C85.2969 179.5 85.5969 179.4 85.8969 179.4H86.0969L86.6969 179.7C86.8969 180 86.9969 180.3 86.9969 180.7V181L87.0969 183.9L91.4969 183.801L91.9969 184C92.1969 184.2 92.2969 184.501 92.2969 184.801V185L91.9969 185.5C91.2969 185.7 90.4969 185.9 89.6969 185.9H89.0969C88.2969 185.9 87.5969 185.9 86.8969 186C86.9969 188.6 87.0969 190.301 87.1969 191.201C87.2969 192.101 87.4969 192.701 87.6969 193.201C87.8969 193.501 88.2969 193.701 88.6969 193.701C89.2969 193.701 90.2969 193.5 91.5969 193L92.1969 193.201C92.3969 193.401 92.4969 193.7 92.4969 194V194.201L92.0969 194.9C90.9969 195.5 89.7969 195.9 88.4969 195.9Z" fill="black"/>
<path d="M105.194 196.099H104.994L104.394 195.799C104.094 195.499 103.994 195.099 103.994 194.799V194.699C104.194 193.999 104.294 192.799 104.294 191.199C104.294 189.599 104.194 188.399 104.094 187.799C103.994 187.099 103.694 186.499 103.294 185.999C102.994 185.699 102.594 185.499 102.194 185.499C101.994 185.499 101.594 185.599 101.094 185.699C100.594 185.799 100.194 186.299 99.7938 187.099C99.4938 187.899 99.1938 188.599 98.8938 189.299C98.5938 189.999 98.3938 190.799 98.2938 191.599L98.3938 194.899L98.1938 195.399C97.9938 195.599 97.6938 195.699 97.3938 195.699H97.1938L96.6938 195.399C96.3938 194.899 96.2938 194.299 96.1938 193.699C96.0938 193.099 96.0938 187.599 96.0938 177.199C96.1938 176.499 96.5938 176.199 97.1938 176.199H97.3938L97.9938 176.499L98.2938 176.999V185.499C98.5938 185.099 98.9938 184.699 99.2938 184.399C100.094 183.599 100.894 183.199 101.794 183.199C102.094 183.199 102.494 183.299 102.994 183.399C103.594 183.499 104.094 183.899 104.794 184.499C105.394 185.099 105.894 185.899 106.094 186.799C106.294 187.599 106.394 188.799 106.394 190.399C106.394 190.499 106.394 191.099 106.394 191.999C106.394 192.899 106.394 193.699 106.394 194.199C106.394 194.799 106.294 195.299 105.994 195.699C105.794 195.999 105.494 196.099 105.194 196.099Z" fill="black"/>
<path d="M115.095 195.8C114.495 195.7 113.795 195.5 113.195 195.2C112.595 194.9 111.995 194.4 111.295 193.7C110.695 193 110.195 192 109.995 190.8C109.795 189.8 109.695 188.8 109.695 187.9V186.9C109.795 185.3 110.195 184.1 111.095 183.2C112.195 182.1 113.395 181.5 114.695 181.5C114.795 181.5 115.095 181.5 115.495 181.6C115.895 181.6 116.395 181.8 116.895 182C117.395 182.2 118.095 182.7 118.795 183.6C119.595 184.5 119.995 185.5 120.195 186.6C120.395 187.7 120.395 188.5 120.395 188.9C120.395 189.4 120.295 189.6 119.995 189.7C119.695 189.8 116.995 189.9 111.895 190C112.095 191.3 112.495 192.2 113.195 192.8C113.995 193.5 114.795 193.8 115.695 193.8C115.795 193.8 115.995 193.8 116.295 193.8C116.595 193.8 116.995 193.6 117.595 193.3C118.095 193 118.595 192.7 119.195 192.6L119.795 192.9C119.995 193.1 120.095 193.4 120.095 193.8V194L119.795 194.5C118.995 195.2 118.195 195.6 117.495 195.8C116.695 195.7 115.895 195.8 115.095 195.8ZM111.695 187.8L118.295 187.5C118.195 186.1 117.895 185.1 117.195 184.5C116.495 183.9 115.695 183.6 114.795 183.6C114.595 183.6 114.295 183.6 113.895 183.7C113.495 183.8 113.195 184 112.795 184.4C112.395 184.8 112.095 185.3 111.995 185.8C111.895 186.3 111.795 187 111.695 187.8Z" fill="black"/>
<path d="M132.595 195.701H132.395L131.795 195.401C131.595 195.101 131.395 194.701 131.395 194.301C131.395 194.201 131.395 194.001 131.495 193.801L131.695 191.701C131.695 191.201 131.795 190.701 131.795 190.201C131.795 189.301 131.695 188.501 131.495 187.901C130.995 186.601 130.395 186.001 129.495 186.001C129.395 186.001 129.195 186.001 128.895 186.101C128.595 186.101 128.295 186.401 127.895 186.901C127.495 187.401 127.095 188.001 126.695 188.601C126.295 189.301 125.995 190.001 125.895 190.701C125.895 192.501 125.895 193.601 125.895 194.101L125.695 194.601C125.495 194.801 125.195 194.901 124.895 194.901H124.695L124.095 194.601C123.795 192.801 123.495 191.001 123.495 189.201C123.395 187.401 123.295 185.601 123.195 183.801C123.295 183.101 123.695 182.801 124.295 182.801H124.495L124.995 183.101C125.195 183.601 125.295 184.201 125.295 184.801C125.295 185.401 125.395 186.001 125.395 186.601C125.795 186.101 126.195 185.601 126.595 185.201C127.395 184.301 128.395 183.801 129.395 183.801C129.595 183.801 129.895 183.801 130.395 183.901C130.895 184.001 131.395 184.301 131.995 184.901C132.595 185.501 133.095 186.201 133.395 187.001C133.695 187.701 133.795 188.601 133.795 189.801C133.795 190.001 133.795 190.601 133.695 191.401C133.695 192.301 133.595 193.001 133.595 193.701C133.595 194.401 133.495 194.901 133.295 195.501C133.195 195.601 132.895 195.701 132.595 195.701Z" fill="black"/>
<path d="M142.1 182.201C141.7 182.101 141.3 181.901 141 181.501C140.7 181.101 140.5 180.701 140.5 180.201C140.5 180.101 140.5 180.001 140.5 179.701C140.5 179.401 140.7 179.101 141.1 178.701C141.4 178.401 141.7 178.301 142.1 178.301C142.7 178.301 143.2 178.601 143.7 179.101C144 179.401 144.1 179.801 144.1 180.201C144.1 180.301 144.1 180.501 144 180.801C143.9 181.101 143.7 181.401 143.4 181.701C143.1 182.001 142.6 182.201 142.1 182.201ZM142.7 195.301H142.5L141.9 195.101C141.5 192.601 141.3 189.301 141.2 185.201C141.3 184.501 141.7 184.201 142.4 184.201H142.6L143.1 184.501C143.5 187.801 143.7 191.201 143.8 194.601L143.5 195.201C143.3 195.301 143 195.301 142.7 195.301Z" fill="black"/>
<path d="M160.197 195.701H159.997L159.397 195.401C159.197 195.101 158.997 194.701 158.997 194.301C158.997 194.201 158.997 194.001 159.097 193.801L159.297 191.701C159.297 191.201 159.397 190.701 159.397 190.201C159.397 189.301 159.297 188.501 159.097 187.901C158.597 186.601 157.997 186.001 157.097 186.001C156.997 186.001 156.797 186.001 156.497 186.101C156.197 186.101 155.897 186.401 155.497 186.901C155.097 187.401 154.697 188.001 154.297 188.601C153.897 189.301 153.597 190.001 153.497 190.701C153.497 192.501 153.497 193.601 153.497 194.101L153.297 194.601C153.097 194.801 152.797 194.901 152.497 194.901H152.297L151.697 194.601C151.397 192.801 151.097 191.001 151.097 189.201C150.997 187.401 150.897 185.601 150.797 183.801C150.897 183.101 151.297 182.801 151.897 182.801H152.097L152.597 183.101C152.797 183.601 152.897 184.201 152.897 184.801C152.897 185.401 152.997 186.001 152.997 186.601C153.397 186.101 153.797 185.601 154.197 185.201C154.997 184.301 155.997 183.801 156.997 183.801C157.197 183.801 157.497 183.801 157.997 183.901C158.497 184.001 158.997 184.301 159.597 184.901C160.197 185.501 160.697 186.201 160.997 187.001C161.297 187.701 161.397 188.601 161.397 189.801C161.397 190.001 161.397 190.601 161.297 191.401C161.297 192.301 161.197 193.001 161.197 193.701C161.197 194.401 161.097 194.901 160.897 195.501C160.697 195.601 160.497 195.701 160.197 195.701Z" fill="black"/>
<path d="M169.294 199.401C168.494 199.301 167.894 199.001 167.494 198.501C166.694 197.601 166.294 196.701 166.294 195.701C166.294 195.601 166.294 195.401 166.294 195.001C166.294 194.701 166.694 194.201 167.294 193.701C167.994 193.201 168.594 192.801 169.294 192.501C169.994 192.201 170.694 192.101 171.394 192.001L171.294 190.501C170.094 191.201 169.194 191.601 168.594 191.601C168.494 191.601 168.194 191.601 167.894 191.501C167.494 191.501 167.094 191.201 166.694 190.701C165.994 189.901 165.594 189.101 165.594 188.101C165.594 187.901 165.594 187.601 165.694 187.101C165.794 186.601 165.894 186.101 166.194 185.401C166.494 184.701 166.894 184.101 167.294 183.601C167.794 183.101 168.194 182.901 168.694 182.801C168.894 182.801 168.994 182.801 169.294 182.801C169.594 182.801 170.094 182.801 170.594 182.901C171.194 183.001 171.994 183.501 173.094 184.601C173.294 185.001 173.394 185.501 173.394 186.001C173.394 186.201 173.394 186.401 173.294 186.601L173.394 191.601C173.694 191.501 173.994 191.401 174.194 191.401C174.294 191.401 174.494 191.501 174.994 191.701C175.194 192.001 175.194 192.201 175.194 192.601V192.801L174.994 193.301C174.494 193.601 173.994 193.701 173.394 193.701V194.501C173.394 194.901 173.394 195.401 173.294 196.001C173.194 196.601 172.694 197.201 171.894 198.101C171.094 199.001 170.194 199.401 169.294 199.401ZM168.594 189.301C168.994 189.301 169.394 189.201 169.694 189.101C170.194 188.701 170.594 188.301 170.794 187.801C170.994 187.301 171.094 186.701 171.194 186.001C170.994 185.701 170.694 185.501 170.294 185.201C170.094 185.101 169.894 185.101 169.694 185.101C168.894 185.101 168.394 185.601 167.994 186.501C167.894 186.901 167.794 187.301 167.794 187.801C167.794 188.001 167.794 188.301 167.894 188.701C167.894 189.101 168.194 189.301 168.594 189.301ZM169.594 197.201C169.894 197.201 170.094 197.101 170.194 197.001C170.994 196.401 171.494 195.601 171.494 194.601V194.101C170.194 194.301 169.294 194.801 168.694 195.501C168.594 195.701 168.494 195.901 168.494 196.101C168.494 196.301 168.594 196.501 168.894 196.801C168.994 197.101 169.294 197.201 169.594 197.201Z" fill="black"/>
<path d="M193.695 195.6H193.495L192.895 195.3C192.595 194.5 192.395 193.6 192.395 192.6C192.395 191.6 192.295 185.9 192.195 175.4C192.295 174.8 192.595 174.5 193.095 174.5L202.295 174.6L202.795 174.9C202.995 175.1 203.095 175.4 203.095 175.7V175.9L202.795 176.5C202.595 176.7 202.295 176.8 201.995 176.8L194.395 176.7V182.2C196.595 182.3 198.095 182.3 198.895 182.3H199.595C200.195 182.3 200.695 182.4 201.295 182.7C201.495 182.9 201.595 183.2 201.595 183.5V183.7L201.295 184.2C200.995 184.4 200.595 184.5 200.195 184.5L194.395 184.3L194.695 194.8L194.495 195.3C194.295 195.5 193.995 195.6 193.695 195.6Z" fill="black"/>
<path d="M215.897 195.9C215.597 195.9 215.397 195.8 215.197 195.6L214.797 195C213.597 195.6 212.497 195.8 211.397 195.8C211.297 195.8 211.097 195.8 210.697 195.8C210.297 195.8 209.797 195.6 209.197 195.3C208.597 195 207.997 194.6 207.497 194.1C206.697 193.3 206.297 192.3 206.297 190.9C206.297 190.7 206.297 190.4 206.397 189.9C206.497 188.7 206.997 187.7 207.897 186.8C208.697 186 209.697 185.6 210.997 185.6C211.797 185.6 212.497 185.7 213.297 186C213.297 185.3 213.097 184.8 212.597 184.5C211.697 183.9 210.897 183.6 210.097 183.6C209.897 183.6 209.497 183.7 209.197 183.8C208.797 183.9 208.397 184 207.897 184L207.297 183.7C207.097 183.5 206.997 183.2 206.997 182.9V182.7L207.297 182.1C207.897 181.7 208.697 181.5 209.597 181.5C209.997 181.5 210.497 181.5 210.997 181.6C211.497 181.7 212.197 182 213.197 182.4C214.097 182.9 214.797 183.6 215.197 184.5C215.597 185.4 215.797 186.9 215.797 189C215.797 191.1 216.197 193.1 216.997 194.9L216.697 195.4C216.497 195.7 216.197 195.9 215.897 195.9ZM211.497 193.7C212.097 193.7 212.697 193.6 213.297 193.3L214.097 192.7C213.997 192 213.897 190.9 213.797 189.4C212.997 188.5 212.197 188 211.397 188C211.397 188 211.097 188 210.697 188C210.197 188 209.797 188.2 209.497 188.6C208.897 189.2 208.697 189.9 208.697 191C208.697 191.2 208.697 191.4 208.697 191.7C208.697 192 208.897 192.4 209.297 192.7C209.597 193 210.097 193.3 210.597 193.5C210.697 193.6 211.097 193.7 211.497 193.7Z" fill="black"/>
<path d="M225.398 195.9H225.198L224.598 195.6C224.398 195.2 224.198 194.7 224.198 194.1C224.198 193.9 224.198 193.6 224.298 193C224.398 192.4 224.398 191.7 224.498 190.7C224.598 189.7 224.598 188.7 224.598 187.8C224.598 186.5 224.398 185.8 224.098 185.8C223.998 185.8 223.798 186 223.598 186.3C223.398 186.6 223.098 187.2 222.698 188C222.298 188.8 221.998 189.8 221.998 191.1C221.898 192.4 221.798 193.7 221.598 195.1C221.398 195.3 221.098 195.3 220.798 195.3C220.698 195.3 220.498 195.2 220.098 195.1C219.798 193.2 219.498 191.3 219.298 189.3C219.098 187.3 218.998 185.4 218.898 183.4L219.098 182.8C219.398 182.6 219.698 182.5 219.998 182.5H220.098L220.698 182.8C220.898 183.3 220.998 183.9 221.098 184.5C221.198 185.1 221.198 185.7 221.198 186.3C221.498 185.5 221.998 184.8 222.598 184.2C223.098 183.7 223.598 183.4 223.998 183.4C224.098 183.4 224.298 183.4 224.698 183.5C224.998 183.6 225.398 183.8 225.598 184.1C225.898 184.4 226.098 184.8 226.398 185.1C227.098 184.2 227.998 183.8 228.898 183.8C229.398 183.8 229.798 184 230.198 184.3C230.998 185 231.398 186.5 231.398 188.9C231.398 189.5 231.398 190.4 231.298 191.5C231.298 192.6 231.198 193.5 231.198 194C231.198 194.5 231.098 195 230.898 195.4C230.698 195.6 230.398 195.7 230.098 195.7H229.898L229.298 195.4C229.098 195.1 228.898 194.8 228.898 194.4L228.998 194C229.098 191.1 229.198 189.1 229.198 188.2C229.198 187.3 229.098 186.7 228.898 186.3C228.798 186.1 228.698 186 228.498 186C228.398 186 228.198 186.1 227.998 186.3C227.798 186.5 227.498 187 227.198 187.8C226.898 188.6 226.698 189.8 226.598 191.2C226.398 192.7 226.298 194.1 225.998 195.5C225.998 195.8 225.698 195.9 225.398 195.9Z" fill="black"/>
<path d="M238.498 182.201C238.098 182.101 237.698 181.901 237.398 181.501C237.098 181.101 236.898 180.701 236.898 180.201C236.898 180.101 236.898 180.001 236.898 179.701C236.898 179.401 237.098 179.101 237.498 178.701C237.798 178.401 238.098 178.301 238.498 178.301C239.098 178.301 239.598 178.601 240.098 179.101C240.398 179.401 240.498 179.801 240.498 180.201C240.498 180.301 240.498 180.501 240.398 180.801C240.298 181.101 240.098 181.401 239.798 181.701C239.398 182.001 238.998 182.201 238.498 182.201ZM239.098 195.301H238.898L238.298 195.101C237.898 192.601 237.698 189.301 237.598 185.201C237.698 184.501 238.098 184.201 238.798 184.201H238.998L239.498 184.501C239.898 187.801 240.098 191.201 240.198 194.601L239.898 195.201C239.698 195.301 239.398 195.301 239.098 195.301Z" fill="black"/>
<path d="M254.597 196.2C253.797 196.2 253.097 195.8 252.297 195.1C251.697 194.4 251.197 193.499 251.097 192.299C250.897 191.499 250.797 189.799 250.797 187.399V178.8C250.797 177.8 250.797 177 250.797 176.5C250.997 175.9 251.297 175.6 251.797 175.6C252.397 175.6 252.797 175.9 252.897 176.6V188.1C252.897 189.6 252.997 190.699 253.097 191.399C253.197 193.099 253.797 193.899 254.697 193.899C255.297 193.899 256.297 193.7 257.597 193.2L258.197 193.399C258.397 193.599 258.497 193.9 258.497 194.2V194.399L258.097 195.1C256.997 195.8 255.797 196.2 254.597 196.2Z" fill="black"/>
<path d="M263.2 199.201H263.1L262.5 198.9C262.3 198.6 262.2 198.3 262.2 198C263.5 196 264.7 193.6 265.9 191C265 190 264.1 189.001 263.3 188.101C262.5 187.201 261.7 186.201 261.1 185.101L261 184.5L261.3 183.9C261.5 183.7 261.8 183.7 262.1 183.7H262.3L262.8 183.9C263.8 185.5 265.2 187.2 267 189C267.6 188 268.1 187.001 268.7 186.101C269.3 185.101 269.8 184.1 270.4 183.2C270.6 183 270.9 182.9 271.3 182.9H271.5L272 183.2C272.2 183.4 272.3 183.7 272.3 184V184.2C270.8 186.6 269.5 189.101 268.2 191.601C266.9 194.101 265.6 196.6 264.2 199C263.8 199.1 263.5 199.201 263.2 199.201Z" fill="black"/>
<path d="M291.194 195.7C290.594 195.7 290.294 195.3 290.094 194.5C289.994 193.8 289.794 188.1 289.594 177.4V176.9C289.594 176.1 289.794 175.7 290.294 175.4C290.894 175.1 291.694 175 292.994 175C293.994 175 294.794 175.1 295.494 175.3C295.994 175.4 296.394 175.7 296.894 176.2C297.994 177.3 298.594 178.4 298.594 179.5C298.594 181.1 297.794 182.9 296.294 184.9C296.694 185 297.294 185.4 297.894 186.1C298.494 186.8 298.994 187.5 299.194 188.2C299.294 188.7 299.394 189.2 299.394 189.7C299.394 190 299.394 190.4 299.294 190.9C299.194 191.4 298.694 192.2 297.894 193.2C296.994 194.2 295.994 194.7 294.794 195C293.594 195.3 292.394 195.4 291.194 195.7ZM291.694 184.1L293.194 183.8C294.494 183.5 295.294 182.9 295.694 182C296.094 181 296.294 180.3 296.294 179.9C296.294 179.6 296.194 179.3 296.094 178.9C295.694 177.7 294.694 177.1 292.894 177.1C292.594 177.1 292.194 177.1 291.794 177.2L291.694 184.1ZM292.094 193.3C292.894 193.2 293.494 193.1 293.994 193C294.494 192.9 294.994 192.7 295.494 192.4C296.594 191.8 297.094 190.9 297.094 189.8C297.094 189.6 297.094 189.3 296.994 188.9C296.894 188.5 296.594 188 296.094 187.4C295.594 186.9 294.894 186.5 294.094 186.4C293.294 186.3 292.494 186.2 291.594 186.2L292.094 193.3Z" fill="black"/>
<path d="M307.397 195.601C306.597 195.601 305.797 195.501 305.197 195.201C304.697 195.001 304.197 194.6 303.697 194C302.797 192.9 302.297 191.401 302.297 189.601V188.601C302.397 186.701 302.897 185.2 303.997 184C305.197 182.6 306.597 181.9 308.197 181.9C308.397 181.9 308.897 181.9 309.497 182C310.097 182.1 310.797 182.5 311.597 183.4C312.397 184.2 312.897 185.001 312.997 185.601C313.197 186.901 313.297 187.8 313.297 188.5C313.297 188.9 313.297 189.4 313.197 190C313.097 191.6 312.497 193 311.397 194C310.497 195.2 309.197 195.601 307.397 195.601ZM307.497 193.5C308.297 193.5 308.997 193.3 309.597 193C310.197 192.7 310.597 192.201 310.797 191.601C311.097 190.801 311.197 189.8 311.197 188.8C311.197 188.5 311.197 188 311.097 187.4C311.097 186.8 310.797 186.201 310.397 185.601C309.997 184.901 309.597 184.6 309.097 184.4C308.897 184.3 308.697 184.301 308.397 184.301C308.097 184.301 307.697 184.4 307.197 184.5C306.697 184.6 306.197 185 305.597 185.8C304.997 186.6 304.697 187.2 304.497 187.9C304.397 188.5 304.397 189 304.397 189.5C304.397 190.2 304.497 191 304.797 191.9C305.197 193 305.997 193.5 307.497 193.5Z" fill="black"/>
<path d="M325.298 195.701H325.098L324.498 195.401C324.298 195.101 324.098 194.701 324.098 194.301C324.098 194.201 324.098 194.001 324.198 193.801L324.398 191.701C324.398 191.201 324.498 190.701 324.498 190.201C324.498 189.301 324.398 188.501 324.198 187.901C323.698 186.601 323.098 186.001 322.198 186.001C322.098 186.001 321.898 186.001 321.598 186.101C321.298 186.101 320.998 186.401 320.598 186.901C320.198 187.401 319.798 188.001 319.398 188.601C318.998 189.301 318.698 190.001 318.598 190.701C318.598 192.501 318.598 193.601 318.598 194.101L318.398 194.601C318.198 194.801 317.898 194.901 317.598 194.901H317.398L316.798 194.601C316.498 192.801 316.198 191.001 316.198 189.201C316.098 187.401 315.998 185.601 315.898 183.801C315.998 183.101 316.398 182.801 316.998 182.801H317.198L317.698 183.101C317.898 183.601 317.998 184.201 317.998 184.801C317.998 185.401 318.098 186.001 318.098 186.601C318.498 186.101 318.898 185.601 319.298 185.201C320.098 184.301 321.098 183.801 322.098 183.801C322.298 183.801 322.598 183.801 323.098 183.901C323.598 184.001 324.098 184.301 324.698 184.901C325.298 185.501 325.798 186.201 326.098 187.001C326.398 187.701 326.498 188.601 326.498 189.801C326.498 190.001 326.498 190.601 326.398 191.401C326.398 192.301 326.298 193.001 326.298 193.701C326.298 194.401 326.198 194.901 325.998 195.501C325.898 195.601 325.698 195.701 325.298 195.701Z" fill="black"/>
<path d="M339.6 195.701H339.5L339 195.4C338.8 195.1 338.7 194.8 338.7 194.4C337.5 194.8 336.5 195 335.8 195C333.8 195 332.3 194.401 331.3 193.201C330.4 192.201 330 190.801 330 189.201C330 187.101 330.6 185.5 331.7 184.4C332.7 183.5 333.9 183.101 335.4 183.101C336.4 183.101 337.4 183.2 338.1 183.5L337.9 175.9C338 175.2 338.4 174.9 339 174.9H339.2L339.7 175.2C339.9 175.6 340 176 340 176.5C340 177 340.2 183.1 340.7 194.9L340.4 195.4C340.2 195.6 339.9 195.701 339.6 195.701ZM335.4 192.9C335.6 192.9 336 192.9 336.4 192.8C336.8 192.7 337.5 192.5 338.4 192L338.2 186.101C337 185.501 336.1 185.201 335.3 185.201C334.4 185.201 333.6 185.5 333.1 186C332.3 186.8 331.9 187.801 331.9 189.101C331.9 190.301 332.2 191.2 332.8 191.9C333.5 192.6 334.4 192.9 335.4 192.9Z" fill="black"/>
<path d="M348.6 195.9C348 195.9 347.4 195.7 346.9 195.4C346.5 195.2 346.1 195 345.6 194.8C345.4 194.5 345.3 194.2 345.2 193.8C345.3 193.1 345.7 192.8 346.3 192.8H346.5C347 193 347.4 193.301 347.8 193.601C348.1 193.801 348.5 193.9 348.9 193.9C349.9 193.9 350.6 193.601 351.2 193.101C351.5 192.801 351.7 192.401 351.7 192.101C351.7 192.001 351.7 191.801 351.6 191.601C351.5 191.301 351.2 191.1 350.5 191C349.8 190.8 349.1 190.6 348.1 190.4C347.1 190.2 346.5 189.701 345.9 189.101C345 188.201 344.5 187.201 344.5 186.101L344.6 185.4C344.7 184.6 345.2 183.701 346.2 182.801C347.2 181.901 348.2 181.4 349.4 181.4C349.6 181.4 349.9 181.4 350.4 181.5C350.8 181.6 351.3 181.801 351.9 182.301C352.4 182.701 352.6 183.101 352.6 183.601C352.6 183.701 352.5 183.901 352.3 184.301C352.1 184.501 351.8 184.601 351.5 184.601H351.3C350.5 184.001 349.8 183.7 349.3 183.7C349.2 183.7 349.1 183.701 348.8 183.801C348.5 183.801 348.2 184 347.8 184.4C347.4 184.7 347.1 185.2 346.9 185.8C346.8 186 346.8 186.3 346.8 186.5C346.8 186.8 347 187.2 347.3 187.5C347.6 187.8 348 188.1 348.4 188.3C348.8 188.5 349.5 188.7 350.4 188.8C351.3 188.9 352.1 189.3 352.8 189.8C353.4 190.3 353.8 190.9 353.9 191.5C354 191.8 354 192.1 354 192.3C354 192.6 353.9 193 353.8 193.4C353.7 193.9 353.4 194.3 352.9 194.8C351.9 195.5 350.4 195.9 348.6 195.9Z" fill="black"/>
<path d="M39.8953 124.4H39.4953L38.2953 123.801C37.5953 121.901 37.1953 119.801 37.0953 117.601C36.8953 115.401 36.7953 113.2 36.6953 111C36.9953 109.7 37.8953 109.1 39.4953 109L57.7953 109.5L57.6953 106.2C57.6953 105.2 57.9953 104.4 58.4953 103.5C58.9953 103.1 59.6953 102.9 60.5953 102.9L61.7953 103.5L62.3953 104.7V109.7H83.6953C84.6953 110 85.2953 110.5 85.4953 111.2C85.5953 111.6 85.6953 112.001 85.6953 112.601C85.6953 113.201 85.5953 114.001 85.3953 115.101C85.1953 116.201 85.0953 117.4 84.8953 118.5C84.6953 119.6 84.3953 120.701 83.7953 121.601C83.2953 122.001 82.5953 122.2 81.6953 122.2L80.4953 121.601C80.0953 121.001 79.8953 120.3 79.8953 119.4C80.4953 117.9 80.7953 116.201 80.8953 114.301L41.3953 113.601L42.1953 122.601L41.5953 123.7C41.1953 124.2 40.5953 124.4 39.8953 124.4ZM66.4953 156.801C64.7953 156.801 62.1953 154.8 58.4953 150.9L58.3953 149.5L58.9953 148.301C59.4953 147.901 60.1953 147.7 61.0953 147.7C62.2953 148.5 63.5953 149.5 64.8953 150.9C65.0953 150 65.0953 149 65.0953 148C65.0953 147 64.9953 145.001 64.7953 142.101C58.9953 146.801 52.6953 149.901 45.7953 151.301C44.2953 151.101 43.5953 150.2 43.5953 148.5L44.1953 147.4C47.4953 146.4 50.6953 145.2 53.9953 143.7C57.1953 142.2 60.1953 140.1 62.8953 137.4L62.1953 136C59.2953 138.2 56.5953 139.8 53.9953 140.9C51.3953 142 48.7953 142.9 46.0953 143.7L44.9953 143.101C44.5953 142.701 44.3953 142 44.3953 141L44.9953 139.9C47.4953 138.6 50.0953 137.5 52.6953 136.4C55.2953 135.4 57.6953 133.8 59.8953 131.7L57.4953 129.7C55.6953 131 53.8953 132.2 52.0953 133.4C50.2953 134.6 48.2953 135.401 46.2953 136.101L45.1953 135.5C44.7953 135.1 44.5953 134.4 44.5953 133.4L45.1953 132.301C47.4953 130.901 49.7953 129.5 52.0953 128C54.2953 126.6 56.3953 124.9 58.3953 122.9L50.2953 122.801C48.8953 122.801 47.6953 122.5 46.5953 121.9C46.1953 121.4 45.8953 120.701 45.8953 119.801L46.5953 118.601C47.1953 118.201 47.8953 117.9 48.5953 117.9C48.9953 117.9 58.2953 118.101 76.3953 118.301L77.4953 118.9C77.8953 119.4 78.0953 120.1 78.0953 121L77.4953 122.2C76.9953 122.6 76.3953 122.8 75.6953 122.9H64.8953C63.3953 124.4 62.1953 125.701 61.3953 126.801C62.8953 128.001 64.4953 130.3 66.3953 134L72.4953 129.2C73.4953 128.1 74.8953 127.601 76.4953 127.601L77.5953 128.101C77.9953 128.601 78.1953 129.3 78.1953 130.2L77.5953 131.4L70.7953 136.9C72.2953 138.6 73.8953 140.2 75.5953 141.7C77.3953 143.2 80.3953 145.301 84.6953 148.101C85.0953 148.601 85.2953 149.3 85.2953 150.2L84.6953 151.4C84.1953 151.8 83.4953 152 82.4953 152C78.2953 149.8 73.9953 146.6 69.4953 142.4C69.6953 144.8 69.7953 146.7 69.7953 148.2C69.7953 148.6 69.7953 149.3 69.6953 150.2C69.5953 151.1 69.4953 152 69.0953 153C68.7953 154 68.3953 154.901 67.9953 155.801C67.6953 156.401 67.1953 156.801 66.4953 156.801Z" fill="black"/>
<path d="M100.098 152.701C98.5984 152.501 97.8984 151.601 97.8984 150.001L98.4984 148.802C99.7984 148.002 101.098 147.101 102.198 145.901C106.798 141.601 110.998 135.101 114.698 126.401C117.098 120.701 118.698 114.801 119.598 108.701C120.098 108.301 120.798 108.102 121.698 108.102L122.798 108.701C123.298 109.401 123.498 110.101 123.498 111.001C123.498 111.301 123.498 111.601 123.398 112.001C122.498 117.001 121.198 122.102 119.498 127.302C120.698 129.302 122.198 131.101 123.998 132.701C125.798 134.301 127.698 136.102 129.698 138.102C131.698 140.102 133.798 141.802 135.998 143.302C138.098 144.802 140.798 146.602 144.098 148.802C144.498 149.302 144.698 150.001 144.698 150.901L144.098 152.102C143.598 152.502 142.898 152.602 141.898 152.602C133.998 147.802 125.698 141.002 117.098 132.102C113.898 137.802 111.098 142.301 108.498 145.501C105.098 150.001 102.198 152.401 100.098 152.701Z" fill="black"/>
<path d="M157.695 140.101H157.495L156.395 139.5C155.995 139 155.695 138.501 155.695 137.801L155.795 137.2C156.695 134.6 157.295 131.901 157.595 129.101C157.895 126.301 158.495 123.5 159.295 120.9C159.895 120.5 160.595 120.2 161.595 120.2L162.695 120.7C163.095 121.3 163.295 121.9 163.295 122.7C162.695 125.6 162.195 128.4 161.795 131.2C161.495 134 160.695 136.8 159.495 139.4C159.095 139.9 158.395 140.101 157.695 140.101ZM201.695 152.4C196.995 152.4 192.495 151.5 188.195 149.7C183.895 147.9 179.995 145.301 176.595 141.801C173.195 138.301 170.595 134.201 168.795 129.601C166.995 125.001 165.895 120.2 165.395 115.2L165.995 114C166.395 113.6 167.095 113.4 168.095 113.4L169.195 114C171.195 124.2 173.995 131.401 177.395 135.601C184.095 143.701 192.795 148 203.595 148.5C203.995 149 204.195 149.701 204.195 150.601L203.595 151.801C203.095 152.101 202.395 152.3 201.695 152.4ZM185.895 131.601H185.495L184.295 131C183.695 129.1 183.095 127.3 182.495 125.4C181.895 123.5 181.295 121.6 180.895 119.7L181.395 118.5C181.895 118.1 182.595 117.9 183.495 117.9L184.595 118.5C186.295 122 187.495 125.8 188.095 129.9L187.495 131C187.095 131.4 186.595 131.601 185.895 131.601ZM198.995 129.4H198.595L197.395 128.801C196.795 127.201 196.295 125.501 195.895 123.801C195.495 122.101 195.095 120.4 194.595 118.7C194.795 117.2 195.695 116.5 197.495 116.5L198.695 117.101C200.095 121.201 200.995 124.7 201.295 127.7L200.795 128.801C200.195 129.201 199.595 129.4 198.995 129.4Z" fill="black"/>
<path d="M256.498 156.401H254.798C248.998 156.201 243.298 155.501 237.698 154.401C229.698 152.901 224.598 152.201 222.198 152.201C220.998 152.201 218.898 152.502 215.898 153.102L214.698 152.501C214.298 152.001 214.098 151.302 214.098 150.302L214.698 149.201C215.798 148.601 217.098 148.101 218.398 147.701C219.698 147.401 220.798 146.501 221.898 145.201C222.698 144.101 223.098 143.101 223.098 142.001C223.098 141.101 222.698 139.501 221.998 137.201C221.598 135.901 221.398 134.601 221.398 133.401C221.398 133.201 221.398 132.701 221.498 131.901C221.498 131.101 221.798 130.202 222.298 129.302C222.798 128.402 223.298 127.501 223.798 126.701H216.098C214.598 126.501 213.898 125.601 213.898 123.901L214.498 122.802L215.698 122.201L229.598 122.102C230.998 122.202 231.698 122.801 231.698 123.901C231.698 124.201 231.598 124.601 231.498 125.001C229.798 126.701 228.698 127.901 228.098 128.701C227.598 129.501 227.098 130.301 226.598 131.201C226.298 131.801 226.198 132.502 226.198 133.302C226.198 134.702 226.698 136.701 227.598 139.201C227.998 140.201 228.098 141.102 228.098 142.102C228.098 144.302 227.398 146.102 226.098 147.602C236.598 150.302 246.498 151.602 255.798 151.602C258.298 151.602 260.798 151.502 263.398 151.302L264.598 151.901C264.998 152.301 265.198 153.001 265.198 154.001L264.498 155.201C262.198 156.001 259.498 156.401 256.498 156.401ZM226.598 115.602C224.898 114.902 223.298 114.101 221.698 113.201C220.098 112.301 218.498 111.402 216.898 110.602C216.398 110.102 216.198 109.401 216.198 108.401L216.798 107.302C217.298 106.902 217.898 106.602 218.498 106.602C219.098 106.602 220.798 107.401 223.698 109.001L228.198 111.401C228.698 112.001 228.898 112.602 228.898 113.302C228.898 113.502 228.698 114.002 228.298 114.802C227.898 115.302 227.298 115.502 226.598 115.602ZM250.098 149.001L249.698 148.901L248.598 148.401C248.098 147.101 247.798 145.601 247.798 144.201C247.698 142.701 247.698 141.302 247.698 139.802L233.798 139.901C232.298 139.701 231.498 138.901 231.498 137.501C231.498 137.201 231.798 136.701 232.198 136.001C233.498 135.501 234.998 135.201 236.498 135.201C236.898 135.201 237.298 135.202 237.598 135.302H247.698V130.201C241.398 130.101 237.898 130.002 237.198 129.802C236.798 129.602 236.698 129.301 236.698 128.701C236.698 128.301 236.798 127.901 236.898 127.401C237.698 125.801 239.198 122.401 241.298 117.201H234.498C233.898 117.101 233.298 116.901 232.798 116.501C232.398 116.001 232.198 115.301 232.198 114.401L232.798 113.302L233.998 112.701H242.698C243.198 111.701 243.598 110.701 243.798 109.501C244.098 108.401 244.498 107.302 244.998 106.302C245.498 105.902 246.098 105.602 246.798 105.602C246.998 105.602 247.498 105.902 248.298 106.302C248.698 106.802 248.998 107.501 248.998 108.201C248.998 108.601 248.498 110.101 247.598 112.701L255.498 112.602C257.198 112.602 259.198 112.801 261.298 113.201C261.698 113.701 261.898 114.402 261.898 115.302L261.298 116.501C260.298 117.001 259.298 117.302 258.298 117.302C257.898 117.302 257.498 117.301 257.098 117.201L246.198 117.302L242.998 125.701H247.498L247.398 124.501C247.398 123.301 247.698 122.301 248.198 121.401C248.698 121.001 249.298 120.701 249.998 120.701C250.198 120.701 250.798 121.001 251.598 121.401C252.098 121.901 252.298 122.501 252.298 123.201L251.998 126.001C252.998 126.101 254.098 126.102 255.098 126.102C256.198 126.102 257.098 126.302 257.898 126.802C258.298 127.302 258.498 128.001 258.498 128.901L257.898 130.001C257.198 130.501 256.398 130.701 255.398 130.701L252.198 130.501V135.302L261.698 135.201L263.198 135.901C263.598 136.301 263.798 137.001 263.798 138.001L263.198 139.201C262.598 139.601 262.098 139.801 261.498 139.901H252.198L252.598 147.102L251.898 148.501C251.398 148.801 250.798 149.001 250.098 149.001Z" fill="black"/>
<path d="M276.594 140.101H276.394L275.294 139.5C274.894 139 274.594 138.501 274.594 137.801L274.694 137.2C275.594 134.6 276.194 131.901 276.494 129.101C276.794 126.301 277.394 123.5 278.194 120.9C278.794 120.5 279.494 120.2 280.494 120.2L281.594 120.7C281.994 121.3 282.194 121.9 282.194 122.7C281.594 125.6 281.094 128.4 280.694 131.2C280.394 134 279.594 136.8 278.394 139.4C277.994 139.9 277.394 140.101 276.594 140.101ZM320.694 152.4C315.994 152.4 311.494 151.5 307.194 149.7C302.894 147.9 298.994 145.301 295.594 141.801C292.194 138.301 289.594 134.201 287.794 129.601C285.994 125.001 284.894 120.2 284.394 115.2L284.994 114C285.394 113.6 286.094 113.4 287.094 113.4L288.194 114C290.194 124.2 292.994 131.401 296.394 135.601C303.094 143.701 311.794 148 322.594 148.5C322.994 149 323.194 149.701 323.194 150.601L322.594 151.801C321.994 152.101 321.394 152.3 320.694 152.4ZM304.794 131.601H304.394L303.194 131C302.594 129.1 301.994 127.3 301.394 125.4C300.794 123.5 300.194 121.6 299.794 119.7L300.294 118.5C300.794 118.1 301.494 117.9 302.394 117.9L303.494 118.5C305.194 122 306.394 125.8 306.994 129.9L306.394 131C306.094 131.4 305.494 131.601 304.794 131.601ZM317.894 129.4H317.494L316.294 128.801C315.694 127.201 315.194 125.501 314.794 123.801C314.394 122.101 313.994 120.4 313.494 118.7C313.694 117.2 314.594 116.5 316.394 116.5L317.594 117.101C318.994 121.201 319.894 124.7 320.194 127.7L319.694 128.801C319.194 129.201 318.594 129.4 317.894 129.4Z" fill="black"/>
</svg>
