<svg width="408" height="194" viewBox="0 0 408 194" fill="none" xmlns="http://www.w3.org/2000/svg">
<path d="M214.932 48.5557C224.219 40.5494 225.256 26.5311 217.25 17.2449C209.244 7.95858 195.226 6.92093 185.939 14.9272C176.653 22.9334 175.615 36.9518 183.622 46.2381C191.628 55.5243 205.646 56.5619 214.932 48.5557Z" fill="#393939"/>
<path opacity="0.45" d="M202.202 12.8999C210.702 12.8999 218.002 17.6001 221.802 24.6001C218.802 15.8001 210.502 9.5 200.802 9.5C188.502 9.5 178.602 19.4 178.602 31.7C178.602 35.5 179.602 39.1 181.202 42.2C180.402 40 180.002 37.5 180.002 35C179.902 22.9 189.902 12.8999 202.202 12.8999Z" fill="#B17F55"/>
<path opacity="0.5" d="M213.055 46.701C221.315 39.6192 222.27 27.1822 215.188 18.9221C208.107 10.662 195.669 9.70683 187.409 16.7886C179.149 23.8704 178.194 36.3074 185.276 44.5675C192.358 52.8276 204.795 53.7828 213.055 46.701Z" stroke="#393939" stroke-width="0.8656" stroke-miterlimit="10"/>
<path opacity="0.5" d="M200.297 49.3984C209.962 49.3984 217.797 41.5634 217.797 31.8984C217.797 22.2335 209.962 14.3984 200.297 14.3984C190.632 14.3984 182.797 22.2335 182.797 31.8984C182.797 41.5634 190.632 49.3984 200.297 49.3984Z" fill="#393939"/>
<path d="M204.892 26.4988L200.692 18.7988L200.492 31.4988L204.892 26.4988Z" fill="#A11B00"/>
<path d="M200.398 31.8H200.498H213.998L205.198 27L204.898 26.5L200.498 31.5L200.398 31.8Z" fill="#EEDFA5"/>
<path d="M200.497 31.5L200.297 31.7L200.397 31.8L200.497 31.5Z" fill="#EEDFA5"/>
<path d="M200.295 31.6992L200.195 31.7993H200.395L200.295 31.6992Z" fill="#EEDFA5"/>
<path d="M200.497 31.4993L200.697 18.7993L200.297 18.1992L195.797 26.5994L200.297 31.6992L200.497 31.4993Z" fill="#D23D14"/>
<path d="M200.395 31.7988L200.195 45.2988L200.295 45.4988L204.995 36.9988L200.495 31.7988H200.395Z" fill="#EEDFA5"/>
<path d="M213.992 31.8987V31.7988H200.492L204.992 36.9988L205.192 36.6987L213.992 31.8987Z" fill="#CEC095"/>
<path d="M200.194 31.7988L195.594 36.8987L200.194 45.2988L200.394 31.7988H200.194Z" fill="#CEC095"/>
<path d="M186.695 31.7988V31.8987L195.495 36.6987L195.595 36.8987L200.195 31.7988H186.695Z" fill="#EEDFA5"/>
<path d="M200.295 31.6995L195.795 26.5996L195.495 26.9995L186.695 31.7996H200.195L200.295 31.6995Z" fill="#CEC095"/>
<path d="M200.298 33.5989C201.348 33.5989 202.198 32.7481 202.198 31.6987C202.198 30.6494 201.348 29.7988 200.298 29.7988C199.249 29.7988 198.398 30.6494 198.398 31.6987C198.398 32.7481 199.249 33.5989 200.298 33.5989Z" fill="white"/>
<path d="M200.302 5C185.502 5 173.602 17 173.602 31.7C173.602 46.4 185.602 58.3999 200.302 58.3999C215.002 58.3999 227.002 46.4 227.002 31.7C227.002 17 215.102 5 200.302 5ZM200.302 53.8C188.102 53.8 178.202 43.9 178.202 31.7C178.202 19.5 188.102 9.6001 200.302 9.6001C212.502 9.6001 222.402 19.5 222.402 31.7C222.402 43.9 212.502 53.8 200.302 53.8Z" fill="#B17F55"/>
<path d="M180.703 19.1001C181.703 16.4001 183.803 14.2 186.303 13C184.503 15.2 182.703 17.1001 180.703 19.1001Z" fill="#B17F55"/>
<path d="M177.104 31.4993C176.504 27.8993 177.404 24.0992 179.504 21.1992C178.504 24.6992 177.704 27.8993 177.104 31.4993Z" fill="#B17F55"/>
<path d="M183.602 47.5994C180.102 44.8994 177.802 40.5992 177.602 36.1992C179.002 40.3992 181.002 44.0994 183.602 47.5994Z" fill="#B17F55"/>
<path d="M196.306 54.3C192.606 54.3 188.906 52.7 186.406 50C189.606 51.8 192.806 53.1 196.306 54.3Z" fill="#B17F55"/>
<path d="M215.803 48.5996C212.003 52.8996 205.903 55.2996 200.203 54.5996C205.903 54.0996 211.203 51.9996 215.803 48.5996Z" fill="#B17F55"/>
<path d="M223.303 33.8984C223.503 38.4984 221.503 43.0985 218.203 46.1985C220.503 42.2985 222.203 38.2984 223.303 33.8984Z" fill="#B17F55"/>
<path d="M218.203 16.8984C222.003 20.5984 224.003 26.1985 223.403 31.4985C222.803 26.1985 221.103 21.3984 218.203 16.8984Z" fill="#B17F55"/>
<path d="M202.805 8.49878C208.105 8.39878 213.605 11.0988 216.805 15.2988C212.605 11.9988 208.005 9.69878 202.805 8.49878Z" fill="#B17F55"/>
<path d="M188.305 11.6995C191.605 8.99951 196.105 7.79946 200.205 8.39946C196.105 8.99946 192.205 9.99951 188.305 11.6995Z" fill="#B17F55"/>
<path d="M192.906 8.10022C198.306 5.80022 204.906 6.10012 210.006 9.00012C204.406 7.30012 198.706 7.00022 192.906 8.10022Z" fill="#B17F55"/>
<path d="M180.008 17.6992C182.308 13.2992 186.608 9.79922 191.508 8.69922C187.108 10.9992 183.308 13.8992 180.008 17.6992Z" fill="#B17F55"/>
<path d="M175.908 29C175.608 25.6 176.708 22.1 178.908 19.5C177.708 22.8 176.808 25.8 175.908 29Z" fill="#B17F55"/>
<path d="M182.408 48.3C177.708 44.2 175.108 37.7 175.808 31.5C176.308 37.7 178.608 43.4 182.408 48.3Z" fill="#B17F55"/>
<path d="M199.006 55.9988C193.706 56.3988 188.106 54.1988 184.406 50.2988C188.906 53.1988 193.706 55.0988 199.006 55.9988Z" fill="#B17F55"/>
<path d="M210.602 53.6992C207.902 55.5992 204.402 56.4993 201.102 55.9993C204.402 55.2993 207.402 54.5992 210.602 53.6992Z" fill="#B17F55"/>
<path d="M218.606 47.6992C217.706 49.6992 215.906 51.1992 213.906 51.8992C215.306 50.1992 216.806 48.8992 218.606 47.6992Z" fill="#B17F55"/>
<path d="M224.605 33.6992C224.805 37.9992 223.205 42.3994 220.305 45.5994C222.305 41.6994 223.705 37.8992 224.605 33.6992Z" fill="#B17F55"/>
<path d="M223.508 23.8984C224.908 26.1984 225.308 28.9985 224.708 31.4985C224.108 28.8985 223.808 26.4984 223.508 23.8984Z" fill="#B17F55"/>
<path d="M212.906 10.5C217.706 12.7 221.606 17.2 223.006 22.3C220.406 17.7 217.106 13.8 212.906 10.5Z" fill="#B17F55"/>
<path d="M188.602 8.59924C191.502 6.39924 195.402 5.39919 199.002 5.79919C195.402 6.59919 192.102 7.49924 188.602 8.59924Z" fill="#B17F55"/>
<path d="M181.805 13.6995C182.905 11.6995 184.805 10.1996 187.005 9.59961C185.305 11.1996 183.705 12.4995 181.805 13.6995Z" fill="#B17F55"/>
<path d="M175.703 23.7996C176.103 20.4996 177.903 17.2996 180.403 15.0996C178.803 18.0996 177.303 20.7996 175.703 23.7996Z" fill="#B17F55"/>
<path d="M174.605 31.4985C174.005 29.4985 174.305 27.2984 175.305 25.3984C175.405 27.5984 175.105 29.4985 174.605 31.4985Z" fill="#B17F55"/>
<path d="M180.803 48.2996C177.003 44.8996 174.703 39.6996 174.703 34.5996C175.903 39.4996 177.903 43.9996 180.803 48.2996Z" fill="#B17F55"/>
<path d="M189.106 54.7C186.406 54 183.906 52.3 182.406 50C184.806 51.4 186.906 52.9 189.106 54.7Z" fill="#B17F55"/>
<path d="M200.208 57.1992C197.208 57.7992 194.008 57.1992 191.508 55.6992C194.508 56.0992 197.308 56.5992 200.208 57.1992Z" fill="#B17F55"/>
<path d="M215.902 51.8984C212.602 55.1984 207.802 57.1986 203.102 57.0986C207.702 55.8986 211.802 54.1984 215.902 51.8984Z" fill="#B17F55"/>
<path d="M225.205 37.5C224.705 42.3 222.105 46.9 218.305 49.8C221.205 46 223.505 42 225.205 37.5Z" fill="#B17F55"/>
<path d="M215.406 10.7988C222.306 14.9988 226.606 23.4988 225.906 31.4988C225.306 23.3988 221.506 15.9988 215.406 10.7988Z" fill="#B17F55"/>
<path d="M202.805 5.99864C206.305 5.69864 210.005 6.89873 212.705 9.09873C209.305 7.89873 206.205 6.89864 202.805 5.99864Z" fill="#B17F55"/>
<path opacity="0.6" d="M216.898 10.7988C221.298 15.4988 223.998 21.7988 223.998 28.7988C223.998 43.3988 212.198 55.1987 197.598 55.1987C189.198 55.1987 181.798 51.2987 176.898 45.1987C181.598 53.0987 190.098 58.2988 199.898 58.2988C214.698 58.2988 226.598 46.2989 226.598 31.5989C226.798 23.1989 222.898 15.6988 216.898 10.7988Z" fill="#B17F55"/>
<path d="M204.873 8.83135C205.404 6.57322 204.003 4.3123 201.745 3.78157C199.487 3.25085 197.226 4.65127 196.695 6.90939C196.165 9.16752 197.565 11.4283 199.823 11.959C202.081 12.4897 204.342 11.0895 204.873 8.83135Z" fill="#C38F73"/>
<path d="M200.698 11.1995C202.521 11.1995 203.998 9.72195 203.998 7.89941C203.998 6.07687 202.521 4.59961 200.698 4.59961C198.876 4.59961 197.398 6.07687 197.398 7.89941C197.398 9.72195 198.876 11.1995 200.698 11.1995Z" fill="white"/>
<path d="M199 9.89868V6.29883H199.5L200.7 8.09888C201 8.49888 201.2 8.89883 201.4 9.29883C201.4 8.79883 201.3 8.39883 201.3 7.79883V6.29883H201.7V9.89868H201.2L200.1 8.09888C199.8 7.69888 199.6 7.29868 199.4 6.89868C199.4 7.39868 199.4 7.79868 199.4 8.39868V9.89868H199Z" fill="#393939"/>
<path d="M204.888 56.4211C205.419 54.163 204.019 51.9021 201.761 51.3714C199.502 50.8407 197.242 52.2411 196.711 54.4992C196.18 56.7574 197.581 59.0181 199.839 59.5488C202.097 60.0796 204.358 58.6793 204.888 56.4211Z" fill="#C38F73"/>
<path d="M200.698 58.7993C202.521 58.7993 203.998 57.3218 203.998 55.4993C203.998 53.6767 202.521 52.1992 200.698 52.1992C198.876 52.1992 197.398 53.6767 197.398 55.4993C197.398 57.3218 198.876 58.7993 200.698 58.7993Z" fill="white"/>
<path d="M199.302 56.8987C199.502 56.9987 199.802 57.0989 200.102 57.0989C200.602 57.0989 200.902 56.7988 200.902 56.4988C200.902 56.1988 200.702 55.9988 200.202 55.7988C199.602 55.5988 199.202 55.2988 199.202 54.7988C199.202 54.1988 199.702 53.7988 200.402 53.7988C200.802 53.7988 201.002 53.8988 201.202 53.9988L201.102 54.3987C201.002 54.2987 200.702 54.1987 200.402 54.1987C199.902 54.1987 199.702 54.4987 199.702 54.6987C199.702 54.9987 199.902 55.1987 200.402 55.3987C201.002 55.5987 201.302 55.8988 201.302 56.4988C201.302 57.0988 200.902 57.4988 200.002 57.4988C199.702 57.4988 199.302 57.3988 199.102 57.2988L199.302 56.8987Z" fill="#393939"/>
<path d="M176.497 35.8005C178.816 35.8005 180.697 33.9202 180.697 31.6006C180.697 29.281 178.816 27.4004 176.497 27.4004C174.177 27.4004 172.297 29.281 172.297 31.6006C172.297 33.9202 174.177 35.8005 176.497 35.8005Z" fill="#C38F73"/>
<path d="M176.495 34.9006C178.318 34.9006 179.795 33.4234 179.795 31.6008C179.795 29.7783 178.318 28.3008 176.495 28.3008C174.673 28.3008 173.195 29.7783 173.195 31.6008C173.195 33.4234 174.673 34.9006 176.495 34.9006Z" fill="white"/>
<path d="M174.994 33.5007L174.094 29.9006H174.594L174.994 31.7007C175.094 32.2007 175.194 32.6007 175.294 33.0007C175.394 32.6007 175.494 32.2007 175.594 31.7007L176.094 29.9006H176.594L176.994 31.7007C177.094 32.1007 177.194 32.6006 177.294 32.9006C177.394 32.5006 177.494 32.1008 177.594 31.6008L178.094 29.8008H178.594L177.594 33.4006H177.094L176.594 31.5007C176.494 31.0007 176.394 30.7008 176.394 30.3008C176.294 30.7008 176.294 31.0007 176.094 31.5007L175.594 33.4006H174.994V33.5007Z" fill="#393939"/>
<path d="M224.2 35.8005C226.52 35.8005 228.4 33.9202 228.4 31.6006C228.4 29.281 226.52 27.4004 224.2 27.4004C221.88 27.4004 220 29.281 220 31.6006C220 33.9202 221.88 35.8005 224.2 35.8005Z" fill="#C38F73"/>
<path d="M224.198 34.9006C226.021 34.9006 227.498 33.4234 227.498 31.6008C227.498 29.7783 226.021 28.3008 224.198 28.3008C222.376 28.3008 220.898 29.7783 220.898 31.6008C220.898 33.4234 222.376 34.9006 224.198 34.9006Z" fill="white"/>
<path d="M224.698 31.8005H223.298V33.1006H224.898V33.5005H222.898V29.9004H224.898V30.3005H223.398V31.4004H224.798V31.8005H224.698Z" fill="#393939"/>
<path d="M11.5032 190.7L10.9032 190.399C10.6032 188.599 10.2031 182.099 9.70312 170.899V170.8C9.70312 169.9 10.0032 169.299 10.5032 169.199C11.0032 169.099 11.8032 169.1 13.0032 169.1C13.2032 169.1 13.8032 169.1 14.8032 169.1C15.8032 169.1 16.5032 169.3 17.0032 169.5C17.5032 169.8 18.1031 170.199 18.7031 170.899C19.6031 171.799 20.1031 172.999 20.1031 174.399C20.1031 174.699 20.1032 175 20.0032 175.5C19.9032 176 19.8032 176.5 19.5032 177.1C19.2032 177.7 18.7032 178.4 17.9032 179.2C17.1032 180.1 16.5032 180.599 16.0032 180.799C15.6032 180.999 15.1031 181.199 14.6031 181.399L19.8032 187.399C20.1032 187.699 20.3032 188.1 20.3032 188.6V188.7L20.0032 189.299C19.8032 189.499 19.5031 189.5 19.2031 189.5H19.0032L12.1031 182.299C12.2031 183.699 12.3032 184.9 12.3032 186.1C12.3032 187.3 12.4032 188.5 12.5032 189.7L12.2031 190.299C12.2031 190.599 11.9032 190.7 11.5032 190.7ZM12.1031 179.899C12.8031 179.799 13.4032 179.7 13.9032 179.6C14.4032 179.5 14.9032 179.3 15.3032 179C16.1032 178.6 16.7031 178.099 17.1031 177.399C17.5031 176.699 17.7032 176.199 17.9032 175.699C18.0032 175.399 18.1031 175 18.1031 174.5C18.1031 174.3 18.1032 174 18.0032 173.6C18.0032 173.2 17.7031 172.7 17.1031 172.1C16.4031 171.5 15.5032 171.1 14.3032 171.1C13.7032 171.1 12.9032 171.2 12.0032 171.3L12.1031 179.899Z" fill="black"/>
<path d="M28.7046 190.099C28.1046 189.999 27.4047 189.799 26.8047 189.499C26.2047 189.199 25.6047 188.699 24.9047 187.999C24.2047 187.299 23.8046 186.299 23.6046 185.099C23.4046 184.099 23.3047 183.099 23.3047 182.199V181.199C23.4047 179.599 23.8046 178.399 24.7046 177.499C25.8046 176.399 27.0047 175.799 28.3047 175.799C28.4047 175.799 28.7046 175.799 29.1046 175.899C29.5046 175.899 30.0046 176.099 30.5046 176.299C31.0046 176.499 31.7047 176.999 32.4047 177.899C33.1047 178.799 33.6047 179.799 33.8047 180.899C34.0047 181.999 34.0046 182.799 34.0046 183.199C34.0046 183.699 33.9046 183.899 33.6046 183.999C33.3046 184.099 30.6046 184.199 25.5046 184.299C25.7046 185.599 26.1047 186.499 26.8047 187.099C27.6047 187.799 28.4047 188.099 29.3047 188.099C29.4047 188.099 29.6047 188.099 29.9047 188.099C30.2047 188.099 30.6046 187.899 31.2046 187.599C31.7046 187.299 32.2047 186.999 32.8047 186.899L33.4047 187.199C33.6047 187.399 33.7046 187.699 33.7046 188.099V188.299L33.4047 188.799C32.6047 189.499 31.8046 189.899 31.1046 190.099C30.3046 189.999 29.6046 190.099 28.7046 190.099ZM25.4047 182.099L32.0046 181.799C31.9046 180.399 31.6047 179.399 30.9047 178.799C30.2047 178.199 29.4046 177.899 28.5046 177.899C28.3046 177.899 28.0046 177.899 27.6046 177.999C27.2046 178.099 26.9046 178.299 26.5046 178.699C26.1046 179.099 25.8046 179.599 25.7046 180.099C25.5046 180.599 25.4047 181.299 25.4047 182.099Z" fill="black"/>
<path d="M43.0032 189.699C42.2032 189.699 41.5032 189.499 40.8032 189.099C40.3032 188.799 39.7032 188.299 39.0032 187.499C38.3032 186.699 37.9031 185.699 37.6031 184.499C37.4031 183.599 37.2031 182.699 37.2031 181.999C37.2031 181.799 37.2032 181.399 37.3032 180.799C37.4032 179.599 38.0032 178.499 39.0032 177.199C40.0032 175.899 41.4032 175.299 43.0032 175.299C43.1032 175.299 43.5032 175.299 44.0032 175.399C44.5032 175.499 45.0031 175.699 45.6031 176.099C45.9031 176.399 46.0032 176.799 46.0032 177.099V177.199L45.7031 177.799C45.5031 177.999 45.2032 178.099 44.8032 178.099H44.7031C44.2031 177.699 43.7031 177.499 43.1031 177.499C43.0031 177.499 42.7032 177.499 42.3032 177.599C41.2032 177.799 40.5032 178.299 39.9032 179.199C39.4032 180.099 39.1031 180.999 39.1031 182.199C39.1031 182.799 39.2032 183.499 39.4032 184.299C39.6032 184.999 39.9032 185.699 40.4032 186.299C41.1032 187.199 41.9032 187.699 43.0032 187.699C43.1032 187.699 43.4031 187.699 43.7031 187.599C44.0031 187.499 44.4032 187.399 44.8032 187.199C45.2032 186.999 45.7031 186.799 46.2031 186.799L46.8032 187.099C47.0032 187.299 47.1031 187.599 47.1031 187.899V188.099L46.8032 188.599C45.6032 189.299 44.3032 189.699 43.0032 189.699Z" fill="black"/>
<path d="M55.9047 189.899C55.1047 189.899 54.3046 189.799 53.7046 189.499C53.2046 189.299 52.7046 188.899 52.2046 188.299C51.3046 187.199 50.8047 185.699 50.8047 183.899V182.899C50.9047 180.999 51.4046 179.499 52.5046 178.299C53.7046 176.899 55.1046 176.199 56.7046 176.199C56.9046 176.199 57.4046 176.199 58.0046 176.299C58.6046 176.399 59.3046 176.799 60.1046 177.699C60.9046 178.499 61.4046 179.299 61.5046 179.899C61.7046 181.199 61.8047 182.099 61.8047 182.799C61.8047 183.199 61.8046 183.699 61.7046 184.299C61.6046 185.899 61.0047 187.299 59.9047 188.299C59.0047 189.499 57.7047 189.899 55.9047 189.899ZM55.9047 187.799C56.7047 187.799 57.4046 187.599 58.0046 187.299C58.6046 186.999 59.0046 186.499 59.2046 185.899C59.5046 185.099 59.6046 184.099 59.6046 183.099C59.6046 182.799 59.6046 182.299 59.5046 181.699C59.5046 181.099 59.2047 180.499 58.8047 179.899C58.4047 179.199 58.0046 178.899 57.5046 178.699C57.3046 178.599 57.1047 178.599 56.8047 178.599C56.5047 178.599 56.1046 178.699 55.6046 178.799C55.1046 178.899 54.6046 179.299 54.0046 180.099C53.4046 180.799 53.1047 181.499 52.9047 182.199C52.8047 182.799 52.8047 183.299 52.8047 183.799C52.8047 184.499 52.9046 185.299 53.2046 186.199C53.6046 187.299 54.5047 187.799 55.9047 187.799Z" fill="black"/>
<path d="M69.2 193.7C68.4 193.6 67.8 193.299 67.4 192.799C66.6 191.899 66.2 191 66.2 190C66.2 189.9 66.2 189.699 66.2 189.299C66.2 188.999 66.6 188.5 67.2 188C67.9 187.5 68.5 187.099 69.2 186.799C69.9 186.499 70.6 186.399 71.3 186.299L71.2 184.799C70 185.499 69.1 185.899 68.5 185.899C68.4 185.899 68.1 185.899 67.8 185.799C67.4 185.799 67 185.5 66.6 185C65.9 184.2 65.5 183.399 65.5 182.399C65.5 182.199 65.5 181.899 65.6 181.399C65.7 180.899 65.8 180.4 66.1 179.7C66.4 179 66.8 178.399 67.2 177.899C67.7 177.399 68.1 177.2 68.6 177.1C68.8 177.1 68.9 177.1 69.2 177.1C69.5 177.1 70 177.099 70.5 177.199C71 177.299 71.9 177.799 73 178.899C73.2 179.299 73.3 179.799 73.3 180.299C73.3 180.499 73.3 180.699 73.2 180.899L73.3 185.899C73.6 185.799 73.9 185.7 74.1 185.7C74.2 185.7 74.4 185.8 74.9 186C75.1 186.3 75.1 186.499 75.1 186.899V187.1L74.9 187.6C74.4 187.9 73.9 188 73.3 188V188.799C73.3 189.199 73.3 189.699 73.2 190.299C73.1 190.899 72.6 191.499 71.8 192.399C71 193.299 70.1 193.7 69.2 193.7ZM68.5 183.6C68.9 183.6 69.3 183.499 69.6 183.399C70.1 182.999 70.5 182.6 70.7 182.1C70.9 181.6 71 180.999 71.1 180.299C70.9 179.999 70.6 179.8 70.2 179.5C70 179.4 69.8 179.399 69.6 179.399C68.8 179.399 68.3 179.899 67.9 180.799C67.8 181.199 67.7 181.6 67.7 182.1C67.7 182.3 67.7 182.6 67.8 183C67.8 183.4 68.1 183.6 68.5 183.6ZM69.5 191.5C69.8 191.5 70 191.399 70.1 191.299C70.9 190.699 71.4 189.899 71.4 188.899V188.399C70.1 188.599 69.2 189.099 68.6 189.799C68.5 189.999 68.4 190.199 68.4 190.399C68.4 190.599 68.5 190.8 68.8 191.1C69.1 191.4 69.2 191.5 69.5 191.5Z" fill="black"/>
<path d="M87.6031 190H87.4032L86.8032 189.7C86.6032 189.4 86.4032 189 86.4032 188.6C86.4032 188.5 86.4032 188.3 86.5032 188.1L86.7031 186C86.7031 185.5 86.8032 185 86.8032 184.5C86.8032 183.6 86.7032 182.8 86.5032 182.2C86.0032 180.9 85.4032 180.299 84.5032 180.299C84.4032 180.299 84.2032 180.299 83.9032 180.399C83.6032 180.399 83.3032 180.7 82.9032 181.2C82.5032 181.7 82.1031 182.299 81.7031 182.899C81.3031 183.599 81.0032 184.3 80.9032 185C80.9032 186.8 80.9032 187.899 80.9032 188.399L80.7031 188.899C80.5031 189.099 80.2032 189.2 79.9032 189.2H79.7031L79.1031 188.899C78.8031 187.099 78.5032 185.3 78.5032 183.5C78.5032 181.7 78.3031 179.9 78.2031 178.1C78.3031 177.4 78.7032 177.1 79.3032 177.1H79.5032L80.0032 177.399C80.2032 177.899 80.3032 178.5 80.3032 179.1C80.3032 179.7 80.4032 180.299 80.4032 180.899C80.8032 180.399 81.2031 179.9 81.6031 179.5C82.4031 178.6 83.4032 178.1 84.4032 178.1C84.6032 178.1 84.9032 178.1 85.4032 178.2C85.9032 178.3 86.4032 178.6 87.0032 179.2C87.6032 179.8 88.1032 180.499 88.4032 181.299C88.7032 181.999 88.8032 182.9 88.8032 184.1C88.8032 184.3 88.8031 184.9 88.7031 185.7C88.7031 186.6 88.6031 187.3 88.6031 188C88.6031 188.7 88.5032 189.199 88.3032 189.799C88.1032 189.899 87.9031 190 87.6031 190Z" fill="black"/>
<path d="M97.0062 176.5C96.6062 176.4 96.2063 176.2 95.9062 175.8C95.6062 175.4 95.4062 175 95.4062 174.5C95.4062 174.4 95.4062 174.3 95.4062 174C95.4062 173.7 95.6062 173.4 96.0062 173C96.3062 172.7 96.6062 172.6 97.0062 172.6C97.6062 172.6 98.1062 172.899 98.6062 173.399C98.9062 173.699 99.0062 174.1 99.0062 174.5C99.0062 174.6 99.0062 174.8 98.9062 175.1C98.8063 175.4 98.6063 175.7 98.3063 176C98.0063 176.3 97.6062 176.5 97.0062 176.5ZM97.7062 189.6H97.5062L96.9062 189.399C96.5063 186.899 96.3062 183.6 96.2062 179.5C96.3062 178.8 96.7062 178.5 97.4062 178.5H97.6062L98.1062 178.799C98.5062 182.099 98.7063 185.499 98.8063 188.899L98.5062 189.5C98.3062 189.6 98.0062 189.6 97.7062 189.6Z" fill="black"/>
<path d="M114.9 189.999L107.3 189.899C107 189.899 106.7 189.799 106.5 189.699C106.3 189.599 106.2 189.499 106.2 189.199C106.2 188.999 106.2 188.799 106.3 188.599C107.8 186.999 110 183.899 112.9 179.399L106.8 179.599L106.3 179.299C106.1 179.099 106 178.799 106 178.399V178.199L106.2 177.699L106.8 177.399L115 177.199C115.3 177.199 115.6 177.399 115.8 177.599C116 177.799 116.1 178.099 116.1 178.399V178.599C114.7 180.699 113.7 182.199 113 183.099C112.3 183.999 111.3 185.599 109.7 187.799H116L116.5 188.099C116.7 188.299 116.8 188.599 116.8 188.899V189.099L116.5 189.599C116 189.899 115.5 189.999 114.9 189.999Z" fill="black"/>
<path d="M125.103 190.099C124.503 189.999 123.803 189.799 123.203 189.499C122.603 189.199 122.003 188.699 121.303 187.999C120.603 187.299 120.203 186.299 120.003 185.099C119.803 184.099 119.703 183.099 119.703 182.199V181.199C119.803 179.599 120.203 178.399 121.103 177.499C122.203 176.399 123.403 175.799 124.703 175.799C124.803 175.799 125.103 175.799 125.503 175.899C125.903 175.899 126.403 176.099 126.903 176.299C127.403 176.499 128.103 176.999 128.803 177.899C129.503 178.799 130.003 179.799 130.203 180.899C130.403 181.999 130.403 182.799 130.403 183.199C130.403 183.699 130.303 183.899 130.003 183.999C129.703 184.099 127.003 184.199 121.903 184.299C122.103 185.599 122.503 186.499 123.203 187.099C124.003 187.799 124.803 188.099 125.703 188.099C125.803 188.099 126.003 188.099 126.303 188.099C126.603 188.099 127.003 187.899 127.603 187.599C128.103 187.299 128.603 186.999 129.203 186.899L129.803 187.199C130.003 187.399 130.103 187.699 130.103 188.099V188.299L129.803 188.799C129.003 189.499 128.203 189.899 127.503 190.099C126.703 189.999 125.903 190.099 125.103 190.099ZM121.703 182.099L128.303 181.799C128.203 180.399 127.903 179.399 127.203 178.799C126.503 178.199 125.703 177.899 124.803 177.899C124.603 177.899 124.303 177.899 123.903 177.999C123.503 178.099 123.203 178.299 122.803 178.699C122.403 179.099 122.103 179.599 122.003 180.099C121.903 180.599 121.803 181.299 121.703 182.099Z" fill="black"/>
<path d="M148.006 190.299C147.406 190.199 147.006 189.9 146.906 189.2L147.106 171C147.106 170 147.406 169.4 147.906 169.3C148.406 169.2 149.006 169.1 149.706 169.1C151.306 169.1 152.806 169.3 154.006 169.6C154.706 169.8 155.406 170.199 156.206 170.899C156.906 171.499 157.406 172.1 157.706 172.6C158.006 173.3 158.206 174.3 158.206 175.6C158.206 176.7 158.006 177.7 157.706 178.6C157.506 179.2 156.806 179.899 155.806 180.799C154.006 182.399 152.106 183.299 150.006 183.299C149.706 183.299 149.406 183.3 149.006 183.2V189.399L148.706 189.899C148.606 190.199 148.306 190.299 148.006 190.299ZM149.206 181.1C150.606 181.1 151.506 180.999 152.006 180.799C152.406 180.599 152.906 180.5 153.206 180.2C154.306 179.6 155.206 178.899 155.806 177.899C156.106 177.299 156.306 176.699 156.306 175.899C156.306 175.399 156.206 174.9 156.106 174.3C156.006 173.7 155.506 173.1 154.706 172.5C153.906 171.9 153.106 171.5 152.306 171.3C151.906 171.2 151.406 171.199 150.806 171.199C150.306 171.199 149.806 171.2 149.306 171.3L149.206 181.1Z" fill="black"/>
<path d="M166.006 189.899C165.206 189.899 164.406 189.799 163.806 189.499C163.306 189.299 162.806 188.899 162.306 188.299C161.406 187.199 160.906 185.699 160.906 183.899V182.899C161.006 180.999 161.506 179.499 162.606 178.299C163.806 176.899 165.206 176.199 166.806 176.199C167.006 176.199 167.506 176.199 168.106 176.299C168.706 176.399 169.406 176.799 170.206 177.699C171.006 178.499 171.506 179.299 171.606 179.899C171.806 181.199 171.906 182.099 171.906 182.799C171.906 183.199 171.906 183.699 171.806 184.299C171.706 185.899 171.106 187.299 170.006 188.299C169.106 189.499 167.806 189.899 166.006 189.899ZM166.106 187.799C166.906 187.799 167.606 187.599 168.206 187.299C168.806 186.999 169.206 186.499 169.406 185.899C169.706 185.099 169.806 184.099 169.806 183.099C169.806 182.799 169.806 182.299 169.706 181.699C169.706 181.099 169.406 180.499 169.006 179.899C168.606 179.199 168.206 178.899 167.706 178.699C167.506 178.599 167.306 178.599 167.006 178.599C166.706 178.599 166.306 178.699 165.806 178.799C165.306 178.899 164.806 179.299 164.206 180.099C163.606 180.799 163.306 181.499 163.106 182.199C163.006 182.799 163.006 183.299 163.006 183.799C163.006 184.499 163.106 185.299 163.406 186.199C163.706 187.299 164.606 187.799 166.106 187.799Z" fill="black"/>
<path d="M179.6 190.199C179 190.199 178.4 189.999 177.9 189.699C177.5 189.499 177.1 189.299 176.6 189.099C176.4 188.799 176.3 188.499 176.2 188.099C176.3 187.399 176.7 187.099 177.3 187.099H177.5C178 187.299 178.4 187.599 178.8 187.899C179.1 188.099 179.5 188.199 179.9 188.199C180.9 188.199 181.6 187.899 182.2 187.399C182.5 187.099 182.7 186.699 182.7 186.399C182.7 186.299 182.7 186.099 182.6 185.899C182.5 185.699 182.2 185.399 181.5 185.299C180.8 185.099 180.1 184.899 179.1 184.699C178.2 184.399 177.5 183.999 176.9 183.399C176 182.499 175.5 181.499 175.5 180.399L175.6 179.699C175.7 178.899 176.2 177.999 177.2 177.099C178.2 176.199 179.2 175.699 180.4 175.699C180.6 175.699 180.9 175.699 181.4 175.799C181.8 175.899 182.3 176.099 182.9 176.599C183.4 176.999 183.6 177.399 183.6 177.899C183.6 177.999 183.5 178.199 183.3 178.599C183.1 178.799 182.8 178.899 182.5 178.899H182.3C181.5 178.299 180.8 177.999 180.3 177.999C180.2 177.999 180.1 177.999 179.8 178.099C179.5 178.099 179.2 178.299 178.8 178.699C178.4 178.999 178.1 179.499 177.9 180.099C177.8 180.299 177.8 180.599 177.8 180.799C177.8 181.099 178 181.499 178.3 181.799C178.6 182.099 179 182.399 179.4 182.599C179.8 182.799 180.5 182.999 181.4 183.099C182.3 183.199 183.1 183.599 183.8 184.099C184.4 184.599 184.8 185.199 184.9 185.799C185 186.099 185 186.399 185 186.599C185 186.899 184.9 187.299 184.8 187.699C184.7 188.199 184.4 188.599 183.8 189.099C182.9 189.799 181.5 190.199 179.6 190.199Z" fill="black"/>
<path d="M193.405 176.5C193.005 176.4 192.605 176.2 192.305 175.8C192.005 175.4 191.805 175 191.805 174.5C191.805 174.4 191.805 174.3 191.805 174C191.805 173.7 192.005 173.4 192.405 173C192.705 172.7 193.005 172.6 193.405 172.6C194.005 172.6 194.505 172.899 195.005 173.399C195.305 173.699 195.405 174.1 195.405 174.5C195.405 174.6 195.405 174.8 195.305 175.1C195.205 175.4 195.005 175.7 194.705 176C194.405 176.3 193.905 176.5 193.405 176.5ZM194.005 189.6H193.805L193.205 189.399C192.805 186.899 192.605 183.6 192.505 179.5C192.605 178.8 193.005 178.5 193.705 178.5H193.905L194.405 178.799C194.805 182.099 195.005 185.499 195.105 188.899L194.805 189.5C194.605 189.6 194.305 189.6 194.005 189.6Z" fill="black"/>
<path d="M208.7 190.199C207.9 190.199 207.2 189.799 206.4 189.099C205.8 188.399 205.3 187.499 205.2 186.399C205 185.199 204.9 183.199 204.8 180.399L202.8 180.499L202.3 180.199C202.1 179.899 202 179.599 202 179.299V179.199L202.3 178.599C202.6 178.399 203 178.199 203.5 178.199H204.1H205V176.899C205 175.499 205.1 174.499 205.3 173.999C205.5 173.799 205.8 173.699 206.1 173.699H206.3L206.9 173.999C207.1 174.299 207.2 174.599 207.2 174.999V175.299L207.3 178.199L211.7 178.099L212.2 178.299C212.4 178.499 212.5 178.799 212.5 179.099V179.299L212.2 179.799C211.5 179.999 210.7 180.199 209.9 180.199H209.3C208.5 180.199 207.8 180.199 207.1 180.299C207.2 182.899 207.3 184.599 207.4 185.499C207.5 186.399 207.7 186.999 207.9 187.499C208.1 187.799 208.4 187.999 208.9 187.999C209.5 187.999 210.5 187.799 211.8 187.299L212.4 187.499C212.6 187.699 212.7 187.999 212.7 188.299V188.499L212.3 189.199C211.1 189.799 210 190.199 208.7 190.199Z" fill="black"/>
<path d="M220.905 176.5C220.505 176.4 220.105 176.2 219.805 175.8C219.505 175.4 219.305 175 219.305 174.5C219.305 174.4 219.305 174.3 219.305 174C219.305 173.7 219.505 173.4 219.905 173C220.205 172.7 220.505 172.6 220.905 172.6C221.505 172.6 222.005 172.899 222.505 173.399C222.805 173.699 222.905 174.1 222.905 174.5C222.905 174.6 222.905 174.8 222.805 175.1C222.705 175.4 222.505 175.7 222.205 176C221.905 176.3 221.505 176.5 220.905 176.5ZM221.605 189.6H221.405L220.805 189.399C220.405 186.899 220.205 183.6 220.105 179.5C220.205 178.8 220.605 178.5 221.305 178.5H221.505L222.005 178.799C222.405 182.099 222.605 185.499 222.705 188.899L222.405 189.5C222.105 189.6 221.905 189.6 221.605 189.6Z" fill="black"/>
<path d="M235.003 190.499C234.603 190.499 234.103 190.199 233.703 189.599C232.003 186.199 230.703 182.299 229.703 177.799C229.703 177.499 229.803 177.199 230.003 176.999C230.303 176.799 230.503 176.799 230.903 176.799H231.103L231.603 176.999C232.003 178.699 232.503 180.499 233.003 182.199C233.503 183.899 234.203 185.599 235.003 187.299C235.703 185.699 236.403 184.099 237.103 182.499C237.803 180.899 238.503 179.399 239.103 177.699C239.303 177.499 239.603 177.399 240.003 177.399H240.103L240.603 177.699C240.803 177.899 240.903 178.199 240.903 178.599V178.799C240.203 180.699 239.503 182.499 238.603 184.299C237.803 186.099 236.903 187.999 236.003 189.799C235.803 190.299 235.403 190.499 235.003 190.499Z" fill="black"/>
<path d="M249.002 190.099C248.402 189.999 247.702 189.799 247.102 189.499C246.502 189.199 245.902 188.699 245.202 187.999C244.502 187.299 244.102 186.299 243.902 185.099C243.702 184.099 243.602 183.099 243.602 182.199V181.199C243.702 179.599 244.102 178.399 245.002 177.499C246.102 176.399 247.302 175.799 248.602 175.799C248.702 175.799 249.002 175.799 249.402 175.899C249.802 175.899 250.302 176.099 250.802 176.299C251.302 176.499 252.002 176.999 252.702 177.899C253.402 178.799 253.902 179.799 254.102 180.899C254.302 181.999 254.302 182.799 254.302 183.199C254.302 183.699 254.202 183.899 253.902 183.999C253.602 184.099 250.902 184.199 245.802 184.299C246.002 185.599 246.402 186.499 247.102 187.099C247.902 187.799 248.702 188.099 249.602 188.099C249.702 188.099 249.902 188.099 250.202 188.099C250.502 188.099 250.902 187.899 251.502 187.599C252.002 187.299 252.502 186.999 253.102 186.899L253.702 187.199C253.902 187.399 254.002 187.699 254.002 188.099V188.299L253.702 188.799C252.902 189.499 252.102 189.899 251.402 190.099C250.602 189.999 249.802 190.099 249.002 190.099ZM245.602 182.099L252.202 181.799C252.102 180.399 251.802 179.399 251.102 178.799C250.402 178.199 249.602 177.899 248.702 177.899C248.502 177.899 248.202 177.899 247.802 177.999C247.402 178.099 247.102 178.299 246.702 178.699C246.302 179.099 246.002 179.599 245.902 180.099C245.802 180.599 245.702 181.299 245.602 182.099Z" fill="black"/>
<path d="M277.205 190.4C276.405 190.3 275.705 190.2 274.905 190.2C274.105 190.1 273.405 190 272.705 189.7C272.505 189.5 272.505 189.2 272.505 188.9V188.7L272.705 188.2C273.005 188 273.305 187.9 273.705 187.9L275.405 188.1L275.305 172.3H272.805L272.105 172C271.905 171.7 271.805 171.5 271.805 171.1V170.9L272.105 170.3C272.705 170.1 273.305 170 274.005 170L280.205 170.2L280.705 170.5C280.905 170.7 281.005 171 281.005 171.3V171.5L280.705 172.1C280.505 172.3 280.205 172.4 279.905 172.4L277.405 172.3L277.505 188.3L280.505 188.1L281.005 188.4C281.205 188.6 281.305 188.9 281.305 189.2V189.4L281.005 189.9C280.405 190.2 279.805 190.3 279.205 190.3C278.605 190.3 277.905 190.4 277.205 190.4Z" fill="black"/>
<path d="M294.103 190H293.903L293.303 189.7C293.103 189.4 292.903 189 292.903 188.6C292.903 188.5 292.903 188.3 293.003 188.1L293.203 186C293.203 185.5 293.303 185 293.303 184.5C293.303 183.6 293.203 182.8 293.003 182.2C292.503 180.9 291.903 180.299 291.003 180.299C290.903 180.299 290.703 180.299 290.403 180.399C290.103 180.399 289.803 180.7 289.403 181.2C289.003 181.7 288.603 182.299 288.203 182.899C287.803 183.599 287.503 184.3 287.403 185C287.403 186.8 287.403 187.899 287.403 188.399L287.203 188.899C287.003 189.099 286.703 189.2 286.403 189.2H286.203L285.603 188.899C285.303 187.099 285.003 185.3 285.003 183.5C285.003 181.7 284.803 179.9 284.703 178.1C284.803 177.4 285.203 177.1 285.803 177.1H286.003L286.503 177.399C286.703 177.899 286.803 178.5 286.803 179.1C286.803 179.7 286.903 180.299 286.903 180.899C287.303 180.399 287.703 179.9 288.103 179.5C288.903 178.6 289.903 178.1 290.903 178.1C291.103 178.1 291.403 178.1 291.903 178.2C292.403 178.3 292.903 178.6 293.503 179.2C294.103 179.8 294.603 180.499 294.903 181.299C295.203 181.999 295.303 182.9 295.303 184.1C295.303 184.3 295.303 184.9 295.203 185.7C295.203 186.6 295.103 187.3 295.103 188C295.103 188.7 295.003 189.199 294.803 189.799C294.603 189.899 294.403 190 294.103 190Z" fill="black"/>
<path d="M305.005 190.199C304.205 190.199 303.505 189.799 302.705 189.099C302.105 188.399 301.605 187.499 301.505 186.399C301.305 185.199 301.205 183.199 301.105 180.399L299.105 180.499L298.605 180.199C298.405 179.899 298.305 179.599 298.305 179.299V179.199L298.605 178.599C298.905 178.399 299.305 178.199 299.805 178.199H300.405H301.305V176.899C301.305 175.499 301.405 174.499 301.605 173.999C301.805 173.799 302.105 173.699 302.405 173.699H302.605L303.205 173.999C303.405 174.299 303.505 174.599 303.505 174.999V175.299L303.605 178.199L308.005 178.099L308.505 178.299C308.705 178.499 308.805 178.799 308.805 179.099V179.299L308.505 179.799C307.805 179.999 307.005 180.199 306.205 180.199H305.605C304.805 180.199 304.105 180.199 303.405 180.299C303.505 182.899 303.605 184.599 303.705 185.499C303.805 186.399 304.005 186.999 304.205 187.499C304.405 187.799 304.705 187.999 305.205 187.999C305.805 187.999 306.805 187.799 308.105 187.299L308.705 187.499C308.905 187.699 309.005 187.999 309.005 188.299V188.499L308.605 189.199C307.505 189.799 306.305 190.199 305.005 190.199Z" fill="black"/>
<path d="M317.806 190.099C317.206 189.999 316.506 189.799 315.906 189.499C315.306 189.199 314.706 188.699 314.006 187.999C313.306 187.299 312.906 186.299 312.706 185.099C312.506 184.099 312.406 183.099 312.406 182.199V181.199C312.506 179.599 312.906 178.399 313.806 177.499C314.906 176.399 316.106 175.799 317.406 175.799C317.506 175.799 317.806 175.799 318.206 175.899C318.606 175.899 319.106 176.099 319.606 176.299C320.106 176.499 320.806 176.999 321.506 177.899C322.206 178.799 322.706 179.799 322.906 180.899C323.106 181.999 323.106 182.799 323.106 183.199C323.106 183.699 323.006 183.899 322.706 183.999C322.406 184.099 319.706 184.199 314.606 184.299C314.806 185.599 315.206 186.499 315.906 187.099C316.706 187.799 317.506 188.099 318.406 188.099C318.506 188.099 318.706 188.099 319.006 188.099C319.306 188.099 319.706 187.899 320.306 187.599C320.806 187.299 321.306 186.999 321.906 186.899L322.506 187.199C322.706 187.399 322.806 187.699 322.806 188.099V188.299L322.506 188.799C321.706 189.499 320.906 189.899 320.206 190.099C319.406 189.999 318.606 190.099 317.806 190.099ZM314.506 182.099L321.106 181.799C321.006 180.399 320.706 179.399 320.006 178.799C319.306 178.199 318.506 177.899 317.606 177.899C317.406 177.899 317.106 177.899 316.706 177.999C316.306 178.099 316.006 178.299 315.606 178.699C315.206 179.099 314.906 179.599 314.806 180.099C314.606 180.599 314.506 181.299 314.506 182.099Z" fill="black"/>
<path d="M335.4 190H335.2L334.6 189.7C334.4 189.4 334.2 189 334.2 188.6C334.2 188.5 334.2 188.3 334.3 188.1L334.5 186C334.5 185.5 334.6 185 334.6 184.5C334.6 183.6 334.5 182.8 334.3 182.2C333.8 180.9 333.2 180.299 332.3 180.299C332.2 180.299 332 180.299 331.7 180.399C331.4 180.399 331.1 180.7 330.7 181.2C330.3 181.7 329.9 182.299 329.5 182.899C329.1 183.599 328.8 184.3 328.7 185C328.7 186.8 328.7 187.899 328.7 188.399L328.5 188.899C328.3 189.099 328 189.2 327.7 189.2H327.5L326.9 188.899C326.6 187.099 326.3 185.3 326.3 183.5C326.3 181.7 326.1 179.9 326 178.1C326.1 177.4 326.5 177.1 327.1 177.1H327.3L327.8 177.399C328 177.899 328.1 178.5 328.1 179.1C328.1 179.7 328.2 180.299 328.2 180.899C328.6 180.399 329 179.9 329.4 179.5C330.2 178.6 331.2 178.1 332.2 178.1C332.4 178.1 332.7 178.1 333.2 178.2C333.7 178.3 334.2 178.6 334.8 179.2C335.4 179.8 335.9 180.499 336.2 181.299C336.5 181.999 336.6 182.9 336.6 184.1C336.6 184.3 336.6 184.9 336.5 185.7C336.5 186.6 336.4 187.3 336.4 188C336.4 188.7 336.3 189.199 336.1 189.799C335.9 189.899 335.7 190 335.4 190Z" fill="black"/>
<path d="M346.302 190.199C345.502 190.199 344.802 189.799 344.002 189.099C343.402 188.399 342.902 187.499 342.802 186.399C342.602 185.199 342.502 183.199 342.402 180.399L340.402 180.499L339.902 180.199C339.702 179.899 339.602 179.599 339.602 179.299V179.199L339.902 178.599C340.202 178.399 340.602 178.199 341.102 178.199H341.702H342.602V176.899C342.602 175.499 342.702 174.499 342.902 173.999C343.102 173.799 343.402 173.699 343.702 173.699H343.902L344.502 173.999C344.702 174.299 344.802 174.599 344.802 174.999V175.299L344.902 178.199L349.302 178.099L349.802 178.299C350.002 178.499 350.102 178.799 350.102 179.099V179.299L349.802 179.799C349.102 179.999 348.302 180.199 347.502 180.199H346.902C346.102 180.199 345.402 180.199 344.702 180.299C344.802 182.899 344.902 184.599 345.002 185.499C345.102 186.399 345.302 186.999 345.502 187.499C345.702 187.799 346.002 187.999 346.502 187.999C347.102 187.999 348.102 187.799 349.402 187.299L350.002 187.499C350.202 187.699 350.302 187.999 350.302 188.299V188.499L349.902 189.199C348.802 189.799 347.602 190.199 346.302 190.199Z" fill="black"/>
<path d="M358.6 176.5C358.2 176.4 357.8 176.2 357.5 175.8C357.2 175.4 357 175 357 174.5C357 174.4 357 174.3 357 174C357 173.7 357.2 173.4 357.6 173C357.9 172.7 358.2 172.6 358.6 172.6C359.2 172.6 359.7 172.899 360.2 173.399C360.5 173.699 360.6 174.1 360.6 174.5C360.6 174.6 360.6 174.8 360.5 175.1C360.4 175.4 360.2 175.7 359.9 176C359.6 176.3 359.1 176.5 358.6 176.5ZM359.2 189.6H359L358.4 189.399C358 186.899 357.8 183.6 357.7 179.5C357.8 178.8 358.2 178.5 358.9 178.5H359.1L359.6 178.799C360 182.099 360.2 185.499 360.3 188.899L360 189.5C359.8 189.6 359.5 189.6 359.2 189.6Z" fill="black"/>
<path d="M372.506 189.899C371.706 189.899 370.906 189.799 370.306 189.499C369.806 189.299 369.306 188.899 368.806 188.299C367.906 187.199 367.406 185.699 367.406 183.899V182.899C367.506 180.999 368.006 179.499 369.106 178.299C370.306 176.899 371.706 176.199 373.306 176.199C373.506 176.199 374.006 176.199 374.606 176.299C375.206 176.399 375.906 176.799 376.706 177.699C377.506 178.499 378.006 179.299 378.106 179.899C378.306 181.199 378.406 182.099 378.406 182.799C378.406 183.199 378.406 183.699 378.306 184.299C378.206 185.899 377.606 187.299 376.506 188.299C375.606 189.499 374.306 189.899 372.506 189.899ZM372.506 187.799C373.306 187.799 374.006 187.599 374.606 187.299C375.206 186.999 375.606 186.499 375.806 185.899C376.106 185.099 376.206 184.099 376.206 183.099C376.206 182.799 376.206 182.299 376.106 181.699C376.106 181.099 375.806 180.499 375.406 179.899C375.006 179.199 374.606 178.899 374.106 178.699C373.906 178.599 373.706 178.599 373.406 178.599C373.106 178.599 372.706 178.699 372.206 178.799C371.706 178.899 371.206 179.299 370.606 180.099C370.006 180.799 369.706 181.499 369.506 182.199C369.406 182.799 369.406 183.299 369.406 183.799C369.406 184.499 369.506 185.299 369.806 186.199C370.206 187.299 371.106 187.799 372.506 187.799Z" fill="black"/>
<path d="M390.4 190H390.2L389.6 189.7C389.4 189.4 389.2 189 389.2 188.6C389.2 188.5 389.2 188.3 389.3 188.1L389.5 186C389.5 185.5 389.6 185 389.6 184.5C389.6 183.6 389.5 182.8 389.3 182.2C388.8 180.9 388.2 180.299 387.3 180.299C387.2 180.299 387 180.299 386.7 180.399C386.4 180.399 386.1 180.7 385.7 181.2C385.3 181.7 384.9 182.299 384.5 182.899C384.1 183.599 383.8 184.3 383.7 185C383.7 186.8 383.7 187.899 383.7 188.399L383.5 188.899C383.3 189.099 383 189.2 382.7 189.2H382.5L381.9 188.899C381.6 187.099 381.3 185.3 381.3 183.5C381.3 181.7 381.1 179.9 381 178.1C381.1 177.4 381.5 177.1 382.1 177.1H382.3L382.8 177.399C383 177.899 383.1 178.5 383.1 179.1C383.1 179.7 383.2 180.299 383.2 180.899C383.6 180.399 384 179.9 384.4 179.5C385.2 178.6 386.2 178.1 387.2 178.1C387.4 178.1 387.7 178.1 388.2 178.2C388.7 178.3 389.2 178.6 389.8 179.2C390.4 179.8 390.9 180.499 391.2 181.299C391.5 181.999 391.6 182.9 391.6 184.1C391.6 184.3 391.6 184.9 391.5 185.7C391.5 186.6 391.4 187.3 391.4 188C391.4 188.7 391.3 189.199 391.1 189.799C391 189.899 390.7 190 390.4 190Z" fill="black"/>
<path d="M12.7 150.099C12.5 150.099 12.3 150.099 12 149.999C10.7 149.699 9.49998 148.898 8.59998 147.698C7.59998 146.998 7.19995 145.998 7.19995 144.698L7.80005 143.599C8.30005 143.199 9.00002 142.999 9.90002 142.999L11.4 143.698C11.6 140.598 11.7 137.598 11.7 134.698C11.7 133.298 11.7 131.899 11.6 130.599C9.69998 131.099 8 131.499 6.5 131.999C5 132.499 3.40005 132.799 1.80005 132.999L0.599976 132.398C0.199976 131.898 0 131.198 0 130.198L0.599976 129.099C2.39998 128.499 4.2 127.898 6 127.398C7.8 126.898 9.60002 126.399 11.4 125.799C10.9 122.099 9.90002 118.998 8.40002 116.398C8.00002 115.898 7.90002 115.399 7.90002 114.999C7.90002 114.499 8.20005 113.998 8.80005 113.398C9.40005 112.798 11.2 110.499 14.3 106.599L2.30005 106.999L1.09998 106.299C0.599976 105.699 0.400024 104.999 0.400024 103.999L1 102.799C1.9 102.299 2.9 102.099 4 102.099C4.6 102.099 9.79995 102.198 19.7 102.198C21.2 102.398 21.9 102.898 21.9 103.698C21.9 104.098 21.8 104.498 21.5 104.898C17.7 109.298 15 112.599 13.4 114.799C14.5 118.199 15.3 121.499 15.8 124.599C17.6 124.199 19.3 123.998 20.8 123.898L21.9 124.499C22.3 124.899 22.5 125.599 22.5 126.599L21.9 127.698C21 128.198 20 128.499 19 128.599C18 128.699 17 128.899 16 129.299L16.1 135.698C16.1 137.598 16 139.499 15.9 141.599C15.8 143.699 15.6 145.199 15.4 146.299C15.2 147.299 14.8 148.298 14.3 149.198C13.9 149.698 13.3 150.099 12.7 150.099ZM26.9 141.299C25.4 141.099 24.7 140.098 24.7 138.398C26.8 135.998 28.5 133.998 29.9 132.398C31.2 130.798 32.5 128.999 33.6 126.999C30.4 124.499 28.3 122.999 27.3 122.499C26.6 122.099 26.3 121.599 26.3 120.999C26.3 120.499 27.8 116.999 30.9 110.499L22.4 110.698L21.3 110.099C20.8 109.499 20.6 108.799 20.6 107.799L21.2 106.698C23.3 106.198 25.5 105.999 27.8 105.999C30.1 105.999 32.4 105.899 34.5 105.599L34.2 101.099C34.2999 99.5986 35.2 98.8984 36.9 98.8984L38.1 99.4985C38.6 100.299 38.9 101.199 38.9 102.099C38.9 103.599 39 104.699 39.1 105.499L49.6 105.599L50.8 106.198C51.2001 106.698 51.4 107.399 51.4 108.299L50.8 109.499L49.5 110.198L35.9 110.099L31.8 119.799L36.5 123.198C37.6 121.798 38.9 119.799 40.1 116.999C40.6 116.599 41.2001 116.499 41.8 116.499C42 116.499 42.5 116.699 43.3 116.999C43.7001 117.599 44 118.199 44 118.799L43.9 119.398C42.7 121.898 41.3 124.299 39.6 126.499C37.9 128.699 36.4 130.898 35.1 132.898C33.8 134.898 31.7 137.499 28.9 140.499C28.2 140.999 27.6 141.199 26.9 141.299ZM28.2 149.499L27 148.999C26.6 148.399 26.5 147.798 26.5 147.198C26.5 146.998 26.7 146.498 27 145.698C28 145.098 29 144.499 29.8 143.599C30.6 142.699 31.8 141.598 33.1 140.198C37.5 135.398 40.5 131.099 42.3 127.099L44.7 121.698C45.2 121.298 45.9 121.099 46.8 121.099L48 121.698C48.4 122.198 48.7 122.899 48.7 123.599C48.7 124.299 47.8 126.598 46.1 130.398C45.1 132.398 44 134.299 42.6 136.099C43.6 137.399 44.5 138.598 45.5 139.898C46.5 141.198 47.5 142.299 48.6 143.299C49.6 144.299 50.2001 145.498 50.3 146.898L49.7 147.999C49.2 148.399 48.5 148.599 47.5 148.599C45.2 146.299 42.5 143.298 39.5 139.898C38.2 141.998 35.6 144.799 31.8 147.999C30.8 148.899 29.6 149.399 28.2 149.499Z" fill="black"/>
<path d="M85.0984 149.898C82.8984 149.098 80.3984 147.298 77.4984 144.498C77.0984 144.098 76.8984 143.398 76.8984 142.398L77.4984 141.298C77.9984 140.898 78.4984 140.698 79.1984 140.698C79.8984 140.698 80.7984 141.298 81.9984 142.398C82.6984 143.198 83.4985 143.798 84.2985 144.198L85.3984 140.798C85.8984 139.198 86.0984 137.098 86.0984 134.398C86.0984 132.498 85.9985 130.298 85.7985 127.698L62.1984 128.098L61.0984 127.498C60.5984 126.998 60.3984 126.298 60.3984 125.298L60.9984 124.198C61.9984 123.698 63.1984 123.398 64.4984 123.398L65.4984 123.498L84.7985 123.098C84.2985 121.998 83.8984 120.898 83.5984 119.898C83.2984 118.898 82.3984 117.698 81.0984 116.298C80.6984 115.698 80.3984 115.098 80.3984 114.498C80.3984 113.898 80.5984 113.398 81.0984 112.898C82.5984 111.998 84.0984 110.798 85.3984 109.398C86.6984 107.998 87.9985 106.698 89.2985 105.498L71.5984 105.898C70.0984 105.698 69.2985 104.898 69.2985 103.498V103.098L69.9984 101.998C71.3984 101.398 72.8984 101.098 74.3984 100.998H95.0984C96.4984 101.198 97.1984 101.798 97.1984 102.698C97.1984 103.098 97.0985 103.498 96.7985 103.898C94.4985 106.798 92.4984 108.998 90.8984 110.298C89.2984 111.598 87.6985 113.098 86.2985 114.698L89.6984 122.998L107.798 122.898L108.998 123.598C109.398 124.198 109.598 124.898 109.598 125.798L108.998 126.998C107.798 127.498 106.398 127.698 104.998 127.698C104.198 127.698 99.3984 127.598 90.3984 127.598C90.5984 129.598 90.6984 131.498 90.6984 133.298C90.6984 134.498 90.5984 135.998 90.3984 137.898C90.1984 139.798 89.8985 141.798 89.2985 143.698C88.6985 145.598 88.0984 147.098 87.1984 148.198C86.5984 149.198 85.7984 149.798 85.0984 149.898Z" fill="black"/>
<path d="M135.597 139.499L127.897 139.398L120.497 139.499C119.497 139.499 118.997 139.099 118.897 138.299C118.797 137.499 118.597 128.798 118.297 112.198C118.297 110.398 118.997 109.398 120.297 109.198C120.697 109.198 121.097 109.099 121.597 109.099C122.697 109.099 124.097 109.199 125.697 109.499C126.097 107.999 126.797 106.499 127.597 105.299C128.397 103.999 129.197 102.699 129.797 101.299C130.297 100.899 130.997 100.698 131.897 100.698L133.097 101.299C133.497 101.699 133.697 102.299 133.697 102.999C133.697 103.799 133.197 104.999 132.197 106.599C131.597 107.599 131.097 108.598 130.697 109.698C134.897 109.698 137.497 109.799 138.297 109.999C139.097 110.199 139.497 111.099 139.497 112.599V113.299C139.197 129.099 138.897 137.399 138.597 138.299C138.197 139.099 137.197 139.499 135.597 139.499ZM122.797 120.698L134.297 120.599L134.497 114.198L122.597 113.799L122.797 120.698ZM123.397 134.898L134.297 134.799L134.397 125.198L123.097 125.299L123.397 134.898ZM164.097 150.099C163.297 150.099 162.397 149.599 161.397 148.599C159.697 146.899 158.097 145.399 156.897 144.299C156.097 143.699 155.797 142.799 155.797 141.599L156.397 140.398C156.897 139.998 157.597 139.799 158.497 139.799C159.497 140.399 160.997 141.598 162.997 143.698C163.697 138.698 164.197 133.499 164.697 128.099C165.197 122.699 165.597 117.598 166.097 112.898L148.997 112.799C148.797 114.499 148.397 115.998 147.997 117.198C147.497 118.398 146.997 119.798 146.197 121.398C145.697 121.798 144.997 121.999 144.097 121.999L142.997 121.398C142.597 120.898 142.297 120.398 142.297 119.698L142.397 119.099C143.597 116.399 144.497 113.199 144.997 109.599C145.497 105.999 146.297 102.399 147.397 98.9985C147.897 98.5985 148.597 98.3984 149.497 98.3984L150.697 98.9985C151.097 99.3985 151.297 99.9985 151.297 100.698L151.197 101.398C150.597 103.398 150.197 105.698 149.797 108.398L168.797 108.499C169.897 108.499 170.497 109.299 170.597 110.999C169.797 119.599 169.297 126.799 168.897 132.499C168.497 138.199 167.897 142.698 166.997 145.898C166.097 148.698 165.097 150.099 164.097 150.099ZM155.897 132.099H155.497L154.297 131.599L149.797 126.499C149.397 125.999 149.197 125.298 149.197 124.398L149.797 123.198C150.297 122.798 150.797 122.499 151.497 122.499C151.797 122.499 152.397 122.698 153.197 123.198L157.297 128.198C157.897 128.798 158.097 129.498 158.097 130.398L157.497 131.599C157.097 131.899 156.597 132.099 155.897 132.099Z" fill="black"/>
<path d="M180.497 146.699L179.397 146.099C178.997 145.499 178.797 144.799 178.797 143.899L179.397 142.699L180.497 142.099L188.997 142.199C188.697 137.599 188.297 132.199 187.797 125.899C187.897 124.399 188.797 123.699 190.497 123.699L191.697 124.299C192.397 127.099 192.797 129.999 192.897 132.999C193.097 135.999 193.297 138.999 193.497 142.099L202.497 141.699L202.897 106.999L185.697 107.099L184.597 106.599C184.097 105.999 183.897 105.299 183.897 104.399L184.497 103.199C185.697 102.699 186.997 102.399 188.397 102.399C189.797 102.299 200.697 102.299 221.197 102.299C222.397 102.299 223.497 102.499 224.497 102.999C224.897 103.499 224.997 104.099 224.997 104.699C224.997 104.899 224.797 105.399 224.497 106.199C223.797 106.699 222.997 106.899 221.997 106.899L207.497 106.999L207.397 120.099H219.397L220.597 120.699C220.997 121.199 221.197 121.899 221.197 122.799L220.597 123.999C219.997 124.399 219.397 124.599 218.797 124.699H207.197L207.097 141.699L226.897 141.599L228.297 142.299C228.697 142.799 228.897 143.499 228.897 144.399L228.297 145.599C227.397 146.099 226.497 146.399 225.397 146.399L224.597 146.299L180.497 146.699Z" fill="black"/>
<path d="M244.498 148.799H244.098L242.898 148.198C242.098 143.098 241.498 137.899 241.098 132.599C240.398 123.499 239.998 116.398 239.898 111.398C239.898 110.298 240.298 109.599 240.998 109.299C241.498 109.099 242.898 108.999 245.198 108.999L249.398 109.099C253.598 103.799 256.298 100.599 257.498 99.4985L258.998 99.3984L260.098 99.8984C260.498 100.498 260.698 101.198 260.698 102.198L260.098 103.299L255.298 108.999L283.498 109.099C285.298 109.299 286.198 110.099 286.198 111.599C286.198 111.699 286.198 112.199 286.098 113.099C285.998 113.999 285.898 119.299 285.798 128.999C285.598 138.699 285.498 144.099 285.398 145.099C285.198 147.399 284.398 148.499 282.898 148.499C282.598 148.499 282.098 148.398 281.298 148.198C280.498 147.998 279.398 147.198 278.098 145.898C277.598 145.298 277.398 144.598 277.398 143.698L277.998 142.499C278.598 142.099 279.198 141.898 279.998 141.898C280.098 141.898 280.498 141.999 281.098 142.299L281.498 113.799H244.398C244.798 120.899 245.198 126.999 245.598 132.099C246.098 137.099 246.498 142.198 246.798 147.198L246.198 148.398C245.698 148.598 245.098 148.799 244.498 148.799ZM257.098 137.898C255.598 137.898 254.798 137.599 254.598 136.999C254.398 136.399 253.898 131.498 252.998 122.198C253.198 121.398 253.698 120.799 254.698 120.499L261.298 120.398C266.998 120.398 270.298 120.499 271.098 120.799C271.898 120.999 272.298 121.598 272.398 122.398L272.498 124.099C272.498 125.299 272.498 127.399 272.398 130.299C272.298 133.299 272.098 135.198 271.898 136.198C271.698 137.098 270.798 137.599 269.098 137.599C267.398 137.599 263.398 137.698 257.098 137.898ZM258.398 133.299L267.298 133.099L267.498 125.198L257.598 125.099L258.398 133.299Z" fill="black"/>
<path d="M300.302 119.099L299.202 118.499C298.802 117.999 298.602 117.299 298.602 116.399L299.202 115.199C299.602 114.799 300.202 114.599 300.802 114.499L314.002 114.699L313.902 107.899L304.702 107.999L303.602 107.399C303.202 106.999 303.002 106.299 303.002 105.299L303.602 104.199C304.202 103.599 304.902 103.399 305.702 103.399L320.402 103.899L319.802 98.4988L320.402 97.2988C321.002 96.8988 321.602 96.7988 322.202 96.7988C322.402 96.7988 322.902 96.9988 323.702 97.2988C324.202 98.2988 324.502 99.2987 324.602 100.399C324.702 101.499 324.802 102.599 325.002 103.699L341.102 103.299L342.202 103.899C342.602 104.299 342.802 104.999 342.802 105.999L342.202 107.099C341.702 107.499 341.102 107.699 340.502 107.799H331.802L331.902 113.999L345.502 113.899L346.702 114.599C347.102 115.099 347.302 115.799 347.302 116.699L346.702 117.799C346.102 118.299 345.402 118.499 344.502 118.499L300.302 119.099ZM303.402 149.599H303.002L301.802 149.099C301.402 148.599 301.202 147.999 301.202 147.399L301.302 146.799C301.702 145.399 302.002 143.899 302.102 142.299C302.202 140.799 302.602 139.299 303.302 137.999C303.802 137.599 304.402 137.299 305.002 137.299C305.302 137.299 305.902 137.499 306.702 137.999C307.102 138.499 307.302 139.199 307.302 140.099C306.802 141.499 306.402 142.999 306.202 144.599C306.002 146.199 305.602 147.699 305.002 149.099C304.602 149.399 304.102 149.599 303.402 149.599ZM311.702 134.899C310.602 134.799 310.002 134.199 310.002 133.099L309.402 123.599C309.402 121.999 309.902 121.199 310.802 121.199L336.502 121.099C338.002 121.199 338.702 121.999 338.702 123.399L338.802 132.099C338.802 132.599 338.802 133.099 338.702 133.499C338.602 134.199 337.802 134.599 336.302 134.599L311.702 134.899ZM334.402 150.799C324.902 149.999 318.502 148.199 315.102 145.399C313.202 143.899 312.002 142.699 311.302 141.999C310.602 141.299 310.302 140.299 310.302 139.099L310.902 137.899C311.402 137.499 312.102 137.299 313.102 137.299L314.202 137.899C316.102 140.799 318.102 142.599 320.002 143.299C324.902 145.199 330.202 146.099 336.102 146.099C339.702 146.099 342.002 145.999 343.102 145.899C344.102 145.699 345.202 145.499 346.302 145.299L347.502 145.999C347.902 146.499 348.102 147.199 348.102 148.199L347.502 149.299C346.302 149.899 345.102 150.199 343.802 150.299C342.402 150.399 339.302 150.499 334.402 150.799ZM334.002 126.199V124.499L314.102 124.599V126.299H334.002V126.199ZM314.502 131.399L333.902 131.199L334.002 129.499H314.302L314.502 131.399ZM327.402 114.499V108.399H318.402L318.802 114.499H327.402ZM330.902 145.199C330.302 145.099 329.702 144.899 329.202 144.499C328.402 143.399 327.802 142.399 327.302 141.499C326.802 140.599 326.502 139.499 326.502 138.299L327.002 137.099C327.502 136.699 328.002 136.599 328.702 136.599C328.902 136.599 329.402 136.799 330.202 137.099C330.802 138.399 331.402 139.499 332.202 140.499C333.002 141.499 333.402 142.399 333.402 143.399L332.802 144.499C332.302 144.899 331.602 145.099 330.902 145.199ZM340.002 143.899H339.602L338.502 143.299C338.002 142.299 337.402 141.399 336.702 140.599C336.002 139.699 335.602 138.699 335.502 137.599L336.102 136.499C336.602 136.099 337.402 135.899 338.402 135.899L339.502 136.499C341.202 138.599 342.102 140.499 342.302 142.199L341.702 143.399C341.302 143.699 340.702 143.899 340.002 143.899Z" fill="black"/>
<path d="M403.697 150.999C402.997 150.999 402.097 150.998 401.097 150.898C373.697 150.098 359.997 149.698 359.897 149.698C359.297 149.598 358.897 148.699 358.797 146.999L359.097 101.398C359.097 99.2984 359.797 98.1984 360.997 97.8984C387.797 98.3984 401.897 98.5986 403.297 98.5986C404.697 98.5986 405.697 98.6985 406.597 98.9985C407.497 99.1985 407.897 100.299 407.997 102.299C407.597 132.999 407.297 148.799 406.997 149.599C406.697 150.499 406.097 150.899 405.197 151.099C404.697 150.999 404.297 150.999 403.697 150.999ZM402.697 146.299L403.197 103.099L363.697 102.398L363.497 145.398L402.697 146.299ZM396.397 129.999C393.997 128.999 391.697 127.799 389.597 126.299C387.397 124.799 385.197 123.498 382.997 122.198C377.797 125.898 373.097 128.399 368.797 129.799C368.197 129.699 367.697 129.499 367.197 129.099C366.797 128.499 366.597 127.898 366.497 127.198C366.597 126.598 366.797 126.099 367.197 125.599C371.297 124.199 375.397 121.999 379.497 118.999L376.297 115.698L375.197 116.799C374.597 117.199 373.997 117.299 373.397 117.299C373.197 117.299 372.697 117.099 371.897 116.799C371.497 116.199 371.297 115.499 371.297 114.499L371.897 113.398C375.297 110.898 377.397 109.098 377.997 108.198C378.997 106.798 379.897 106.099 380.797 106.099C381.297 106.099 381.997 106.199 382.997 106.499C383.997 106.699 385.497 106.999 387.597 107.299C389.697 107.599 391.697 108.098 393.697 108.898C394.097 109.198 394.397 109.698 394.397 110.198C394.397 110.698 394.197 111.398 393.697 112.198L386.897 119.099C390.097 121.199 392.397 122.699 393.897 123.599C395.397 124.599 396.997 125.399 398.597 126.099C398.997 126.599 399.297 127.298 399.297 128.198L398.597 129.398C397.897 129.798 397.197 129.999 396.397 129.999ZM385.397 141.898H384.997C383.797 141.498 382.497 141.099 381.197 140.799C379.897 140.499 378.697 140.098 377.497 139.698C376.997 139.198 376.797 138.398 376.797 137.398L377.397 136.299C377.997 135.899 378.597 135.599 379.297 135.599L379.997 135.698C381.197 136.098 382.297 136.398 383.597 136.698C384.897 136.998 385.997 137.398 387.097 137.898C387.497 138.498 387.697 139.198 387.697 140.198L387.097 141.398C386.697 141.698 386.097 141.898 385.397 141.898ZM386.197 134.198C384.997 133.598 383.697 133.199 382.397 132.799C381.097 132.399 379.797 131.799 378.697 131.099C378.297 130.599 378.197 130.098 378.197 129.398C378.197 129.198 378.397 128.698 378.697 127.898C379.297 127.498 379.997 127.299 380.997 127.299C382.097 127.899 383.297 128.499 384.497 128.799C385.697 129.199 386.897 129.698 388.097 130.198C388.497 130.798 388.797 131.399 388.797 131.999C388.797 132.199 388.597 132.699 388.297 133.499C387.497 133.899 386.897 134.198 386.197 134.198ZM383.097 116.099L384.197 114.898C385.697 113.698 386.797 112.599 387.197 111.799L381.697 110.599L379.997 112.799L383.097 116.099Z" fill="black"/>
</svg>
