<svg width="383" height="179" viewBox="0 0 383 179" fill="none" xmlns="http://www.w3.org/2000/svg">
<path d="M204.807 48.126C214.094 40.1198 215.131 26.1015 207.125 16.8152C199.119 7.52892 185.101 6.4913 175.814 14.4976C166.528 22.5038 165.49 36.5221 173.497 45.8084C181.503 55.0947 195.521 56.1323 204.807 48.126Z" fill="#393939"/>
<path opacity="0.45" d="M192.006 12.5603C200.506 12.5603 207.806 17.2603 211.606 24.2603C208.606 15.4603 200.306 9.16016 190.606 9.16016C178.306 9.16016 168.406 19.0601 168.406 31.3601C168.406 35.1601 169.406 38.7601 171.006 41.8601C170.206 39.6601 169.806 37.1602 169.806 34.6602C169.806 22.4602 179.806 12.5603 192.006 12.5603Z" fill="#B17F55"/>
<path opacity="0.5" d="M202.93 46.2615C211.19 39.1797 212.145 26.7427 205.063 18.4826C197.981 10.2225 185.544 9.26734 177.284 16.3491C169.024 23.4309 168.069 35.868 175.151 44.1281C182.233 52.3882 194.67 53.3433 202.93 46.2615Z" stroke="#393939" stroke-width="0.8656" stroke-miterlimit="10"/>
<path opacity="0.5" d="M190.203 48.959C199.868 48.959 207.703 41.124 207.703 31.459C207.703 21.794 199.868 13.959 190.203 13.959C180.538 13.959 172.703 21.794 172.703 31.459C172.703 41.124 180.538 48.959 190.203 48.959Z" fill="#393939"/>
<path d="M194.797 26.1594L190.497 18.3594L190.297 31.0596L194.797 26.1594Z" fill="#A11B00"/>
<path d="M190.297 31.3601V31.4602H203.797L194.997 26.5603L194.797 26.1602L190.297 31.0603V31.3601Z" fill="#EEDFA5"/>
<path d="M190.303 31.0605L190.203 31.2605L190.303 31.3604V31.0605Z" fill="#EEDFA5"/>
<path d="M190.2 31.2598L190 31.4597H190.3V31.3596L190.2 31.2598Z" fill="#EEDFA5"/>
<path d="M190.302 31.0598L190.502 18.3596L190.202 17.7598L185.602 26.1597L190.202 31.2598L190.302 31.0598Z" fill="#D23D14"/>
<path d="M190.302 31.459L190.102 44.8589L190.202 45.0591L194.902 36.5591L190.302 31.459Z" fill="#EEDFA5"/>
<path d="M203.797 31.459H190.297L194.897 36.5591L194.997 36.259L203.797 31.459Z" fill="#CEC095"/>
<path d="M190 31.459L185.5 36.459L190.1 44.8589L190.3 31.459H190Z" fill="#CEC095"/>
<path d="M176.6 31.459H176.5L185.4 36.259L185.5 36.459L190 31.459H176.6Z" fill="#EEDFA5"/>
<path d="M190.202 31.2603L185.602 26.1602L185.402 26.5603L176.602 31.4602H190.002L190.202 31.2603Z" fill="#CEC095"/>
<path d="M190.205 33.1594C191.254 33.1594 192.105 32.3089 192.105 31.2595C192.105 30.2102 191.254 29.3594 190.205 29.3594C189.155 29.3594 188.305 30.2102 188.305 31.2595C188.305 32.3089 189.155 33.1594 190.205 33.1594Z" fill="white"/>
<path d="M190.2 4.55859C175.4 4.55859 163.5 16.5585 163.5 31.2585C163.5 45.9585 175.5 57.9585 190.2 57.9585C204.9 57.9585 216.9 45.9585 216.9 31.2585C216.9 16.5585 205 4.55859 190.2 4.55859ZM190.2 53.3584C178 53.3584 168.1 43.4585 168.1 31.2585C168.1 19.0585 178 9.15845 190.2 9.15845C202.4 9.15845 212.3 19.0585 212.3 31.2585C212.3 43.4585 202.4 53.3584 190.2 53.3584Z" fill="#B17F55"/>
<path d="M170.602 18.6584C171.602 15.9584 173.702 13.7586 176.202 12.5586C174.302 14.7586 172.502 16.6584 170.602 18.6584Z" fill="#B17F55"/>
<path d="M167.003 31.0579C166.403 27.4579 167.303 23.6578 169.403 20.7578C168.303 24.2578 167.603 27.5579 167.003 31.0579Z" fill="#B17F55"/>
<path d="M173.5 47.1577C170 44.4577 167.7 40.1578 167.5 35.7578C168.9 39.9578 170.9 43.6577 173.5 47.1577Z" fill="#B17F55"/>
<path d="M186.205 53.8584C182.505 53.8584 178.805 52.2586 176.305 49.5586C179.505 51.3586 182.705 52.6584 186.205 53.8584Z" fill="#B17F55"/>
<path d="M205.702 48.1582C201.902 52.4582 195.802 54.8582 190.102 54.1582C195.802 53.6582 201.102 51.5582 205.702 48.1582Z" fill="#B17F55"/>
<path d="M213.1 33.457C213.3 38.057 211.3 42.6571 208 45.7571C210.4 41.8571 212.1 37.857 213.1 33.457Z" fill="#B17F55"/>
<path d="M208.102 16.457C211.902 20.157 213.902 25.7571 213.302 31.0571C212.602 25.7571 210.902 20.957 208.102 16.457Z" fill="#B17F55"/>
<path d="M192.602 8.05737C197.902 7.95737 203.402 10.6572 206.602 14.8572C202.502 11.5572 197.802 9.25737 192.602 8.05737Z" fill="#B17F55"/>
<path d="M178.203 11.2581C181.503 8.5581 186.003 7.35806 190.103 7.95806C185.903 8.55806 182.103 9.5581 178.203 11.2581Z" fill="#B17F55"/>
<path d="M182.805 7.65871C188.205 5.35871 194.805 5.65886 199.905 8.55886C194.305 6.85886 188.605 6.55871 182.805 7.65871Z" fill="#B17F55"/>
<path d="M169.898 17.2578C172.198 12.8578 176.498 9.35781 181.398 8.25781C176.998 10.5578 173.198 13.4578 169.898 17.2578Z" fill="#B17F55"/>
<path d="M165.705 28.5586C165.405 25.1586 166.505 21.6586 168.705 19.0586C167.605 22.3586 166.705 25.3586 165.705 28.5586Z" fill="#B17F55"/>
<path d="M172.205 47.8584C167.505 43.7584 164.905 37.2586 165.605 31.0586C166.205 37.2586 168.505 42.9584 172.205 47.8584Z" fill="#B17F55"/>
<path d="M188.905 55.5576C183.605 55.9576 178.005 53.7574 174.305 49.8574C178.805 52.7574 183.605 54.6576 188.905 55.5576Z" fill="#B17F55"/>
<path d="M200.5 53.2578C197.8 55.1578 194.3 56.0579 191 55.5579C194.2 54.8579 197.2 54.1578 200.5 53.2578Z" fill="#B17F55"/>
<path d="M208.505 47.2578C207.605 49.2578 205.805 50.7578 203.805 51.4578C205.205 49.7578 206.705 48.4578 208.505 47.2578Z" fill="#B17F55"/>
<path d="M214.503 33.2578C214.703 37.5578 213.103 41.9577 210.203 45.1577C212.103 41.2577 213.503 37.4578 214.503 33.2578Z" fill="#B17F55"/>
<path d="M213.398 23.457C214.798 25.757 215.198 28.5571 214.598 31.0571C213.998 28.4571 213.598 26.057 213.398 23.457Z" fill="#B17F55"/>
<path d="M202.805 10.1582C207.605 12.3582 211.505 16.8583 212.905 21.9583C210.305 17.2583 207.005 13.3582 202.805 10.1582Z" fill="#B17F55"/>
<path d="M178.5 8.15784C181.4 5.95784 185.3 4.95779 188.9 5.35779C185.3 6.15779 182 7.05784 178.5 8.15784Z" fill="#B17F55"/>
<path d="M171.602 13.2583C172.702 11.2583 174.602 9.7582 176.802 9.1582C175.202 10.7582 173.602 12.0583 171.602 13.2583Z" fill="#B17F55"/>
<path d="M165.602 23.3582C166.002 20.0582 167.802 16.8582 170.302 14.6582C168.702 17.6582 167.202 20.3582 165.602 23.3582Z" fill="#B17F55"/>
<path d="M164.402 31.0571C163.802 29.0571 164.102 26.857 165.102 24.957C165.202 27.157 165.002 29.0571 164.402 31.0571Z" fill="#B17F55"/>
<path d="M170.702 47.8582C166.902 44.4582 164.602 39.2582 164.602 34.1582C165.802 39.0582 167.802 43.6582 170.702 47.8582Z" fill="#B17F55"/>
<path d="M179.005 54.2585C176.305 53.5585 173.805 51.8586 172.305 49.5586C174.605 51.0586 176.805 52.4585 179.005 54.2585Z" fill="#B17F55"/>
<path d="M190.098 56.7578C187.098 57.3578 183.898 56.7578 181.398 55.2578C184.398 55.6578 187.098 56.1578 190.098 56.7578Z" fill="#B17F55"/>
<path d="M205.8 51.457C202.5 54.757 197.7 56.757 193 56.657C197.6 55.457 201.7 53.757 205.8 51.457Z" fill="#B17F55"/>
<path d="M215.103 37.0586C214.603 41.8586 212.003 46.4584 208.203 49.3584C211.103 45.5584 213.403 41.5586 215.103 37.0586Z" fill="#B17F55"/>
<path d="M205.203 10.3574C212.103 14.5574 216.403 23.0576 215.703 31.0576C215.203 22.9576 211.403 15.5574 205.203 10.3574Z" fill="#B17F55"/>
<path d="M192.602 5.55724C196.102 5.25724 199.802 6.45709 202.502 8.65709C199.202 7.45709 196.002 6.45724 192.602 5.55724Z" fill="#B17F55"/>
<path opacity="0.6" d="M206.805 10.3594C211.205 15.0594 213.905 21.3594 213.905 28.3594C213.905 42.9594 202.105 54.7595 187.505 54.7595C179.105 54.7595 171.705 50.8595 166.805 44.7595C171.505 52.6595 180.005 57.8594 189.805 57.8594C204.605 57.8594 216.505 45.8594 216.505 31.1594C216.605 22.7594 212.805 15.2594 206.805 10.3594Z" fill="#B17F55"/>
<path d="M194.748 8.39178C195.278 6.13365 193.878 3.87284 191.62 3.34212C189.362 2.8114 187.101 4.21175 186.57 6.46988C186.04 8.72801 187.44 10.9888 189.698 11.5195C191.956 12.0503 194.217 10.6499 194.748 8.39178Z" fill="#C38F73"/>
<path d="M190.597 10.7583C192.419 10.7583 193.897 9.28079 193.897 7.45825C193.897 5.63571 192.419 4.1582 190.597 4.1582C188.774 4.1582 187.297 5.63571 187.297 7.45825C187.297 9.28079 188.774 10.7583 190.597 10.7583Z" fill="white"/>
<path d="M188.898 9.45947V5.85938H189.398L190.598 7.65942C190.898 8.05942 191.098 8.45937 191.198 8.85938C191.198 8.35938 191.098 7.95938 191.098 7.35938V5.85938H191.498V9.45947H191.098L189.998 7.65942C189.698 7.25942 189.498 6.85947 189.298 6.45947C189.298 6.95947 189.298 7.35947 189.298 7.95947V9.45947H188.898Z" fill="#393939"/>
<path d="M194.764 55.9817C195.294 53.7236 193.894 51.4627 191.636 50.932C189.378 50.4013 187.117 51.8016 186.586 54.0597C186.055 56.3179 187.456 58.5787 189.714 59.1094C191.972 59.6402 194.233 58.2398 194.764 55.9817Z" fill="#C38F73"/>
<path d="M190.605 58.3577C192.427 58.3577 193.905 56.8804 193.905 55.0579C193.905 53.2353 192.427 51.7578 190.605 51.7578C188.782 51.7578 187.305 53.2353 187.305 55.0579C187.305 56.8804 188.782 58.3577 190.605 58.3577Z" fill="white"/>
<path d="M189.2 56.4575C189.4 56.5575 189.7 56.6575 190 56.6575C190.5 56.6575 190.8 56.3576 190.8 56.0576C190.8 55.7576 190.6 55.5574 190.1 55.3574C189.5 55.1574 189.1 54.8574 189.1 54.3574C189.1 53.7574 189.6 53.3574 190.3 53.3574C190.7 53.3574 190.9 53.4576 191.1 53.5576L191 53.9575C190.9 53.8575 190.6 53.7576 190.3 53.7576C189.8 53.7576 189.6 54.0576 189.6 54.2576C189.6 54.5576 189.8 54.7575 190.3 54.9575C190.9 55.1575 191.2 55.4576 191.2 56.0576C191.2 56.6576 190.8 57.0576 189.9 57.0576C189.6 57.0576 189.2 56.9574 189 56.8574L189.2 56.4575Z" fill="#393939"/>
<path d="M166.403 35.3589C168.723 35.3589 170.603 33.4785 170.603 31.1589C170.603 28.8393 168.723 26.959 166.403 26.959C164.084 26.959 162.203 28.8393 162.203 31.1589C162.203 33.4785 164.084 35.3589 166.403 35.3589Z" fill="#C38F73"/>
<path d="M166.402 34.4595C168.224 34.4595 169.702 32.982 169.702 31.1594C169.702 29.3369 168.224 27.8594 166.402 27.8594C164.579 27.8594 163.102 29.3369 163.102 31.1594C163.102 32.982 164.579 34.4595 166.402 34.4595Z" fill="white"/>
<path d="M164.806 33.0596L163.906 29.4595H164.406L164.806 31.2595C164.906 31.7595 165.006 32.1596 165.106 32.5596C165.206 32.1596 165.306 31.7595 165.406 31.2595L165.906 29.4595H166.406L166.806 31.2595C166.906 31.6595 167.006 32.1595 167.106 32.4595C167.206 32.0595 167.306 31.6594 167.406 31.1594L167.906 29.3594H168.406L167.406 32.9595H166.906L166.406 31.0596C166.306 30.5596 166.206 30.2594 166.206 29.8594C166.106 30.2594 166.106 30.5596 165.906 31.0596L165.406 32.9595H164.806V33.0596Z" fill="#393939"/>
<path d="M214.005 35.3589C216.324 35.3589 218.205 33.4785 218.205 31.1589C218.205 28.8393 216.324 26.959 214.005 26.959C211.685 26.959 209.805 28.8393 209.805 31.1589C209.805 33.4785 211.685 35.3589 214.005 35.3589Z" fill="#C38F73"/>
<path d="M214.003 34.4595C215.826 34.4595 217.303 32.982 217.303 31.1594C217.303 29.3369 215.826 27.8594 214.003 27.8594C212.181 27.8594 210.703 29.3369 210.703 31.1594C210.703 32.982 212.181 34.4595 214.003 34.4595Z" fill="white"/>
<path d="M214.605 31.3589H213.205V32.6589H214.805V33.0591H212.805V29.459H214.805V29.8589H213.305V30.959H214.705V31.3589H214.605Z" fill="#393939"/>
<path d="M31.3047 177.5C30.7047 177.5 30.4047 177.1 30.3047 176.4C30.2047 175.7 30.0047 170.3 29.8047 160.3V159.8C29.8047 159.1 30.0047 158.6 30.4047 158.4C30.9047 158.1 31.8047 158 32.9047 158C33.8047 158 34.6047 158.1 35.2047 158.3C35.6047 158.4 36.1047 158.7 36.5047 159.2C37.6047 160.3 38.1047 161.3 38.1047 162.3C38.1047 163.8 37.4047 165.5 35.9047 167.3C36.3047 167.4 36.8047 167.8 37.4047 168.5C38.0047 169.1 38.4047 169.8 38.6047 170.5C38.7047 171 38.8047 171.4 38.8047 171.9C38.8047 172.1 38.8047 172.5 38.7047 173C38.6047 173.5 38.2047 174.2 37.4047 175.1C36.6047 176 35.6047 176.6 34.5047 176.8C33.5047 177.1 32.4047 177.3 31.3047 177.5ZM31.8047 166.7L33.2047 166.4C34.4047 166.1 35.2047 165.6 35.5047 164.7C35.9047 163.7 36.1047 163.1 36.1047 162.8C36.1047 162.6 36.0047 162.2 35.9047 161.8C35.6047 160.7 34.5047 160.1 32.9047 160.1C32.6047 160.1 32.2047 160.1 31.8047 160.2V166.7ZM32.2047 175.3C32.9047 175.2 33.5047 175.1 34.0047 175C34.5047 174.9 35.0047 174.7 35.4047 174.4C36.4047 173.8 36.9047 173 36.9047 171.9C36.9047 171.7 36.9047 171.4 36.8047 171C36.7047 170.6 36.5047 170.1 36.0047 169.6C35.5047 169.1 34.9047 168.8 34.1047 168.7C33.3047 168.6 32.6047 168.5 31.8047 168.5L32.2047 175.3Z" fill="black"/>
<path d="M46.9078 177.601C46.3078 177.501 45.7078 177.301 45.2078 177.101C44.7078 176.901 44.1078 176.401 43.5078 175.701C42.9078 175.001 42.5078 174.101 42.3078 173.001C42.1078 172.001 42.0078 171.101 42.0078 170.301V169.301C42.1078 167.801 42.5078 166.701 43.3078 165.801C44.3078 164.701 45.4078 164.201 46.7078 164.201C46.8078 164.201 47.1078 164.201 47.5078 164.301C47.9078 164.301 48.3078 164.401 48.8078 164.601C49.3078 164.801 49.9078 165.301 50.6078 166.101C51.3078 166.901 51.8078 167.901 51.9078 168.901C52.1078 169.901 52.1078 170.601 52.1078 171.101C52.1078 171.501 52.0078 171.801 51.7078 171.901C51.5078 172.001 48.9078 172.101 44.0078 172.201C44.2078 173.401 44.6078 174.301 45.2078 174.801C45.9078 175.501 46.7078 175.801 47.5078 175.801C47.6078 175.801 47.8078 175.801 48.1078 175.801C48.4078 175.801 48.8078 175.601 49.3078 175.301C49.8078 175.001 50.3078 174.801 50.8078 174.601L51.3078 174.901C51.5078 175.101 51.6078 175.401 51.6078 175.701V175.901L51.3078 176.401C50.5078 177.001 49.8078 177.401 49.1078 177.601C48.5078 177.601 47.7078 177.601 46.9078 177.601ZM43.8078 170.101L50.0078 169.801C49.9078 168.501 49.6078 167.501 49.0078 166.901C48.4078 166.301 47.6078 166.101 46.8078 166.101C46.6078 166.101 46.3078 166.101 46.0078 166.201C45.7078 166.301 45.3078 166.501 44.9078 166.901C44.5078 167.301 44.3078 167.701 44.1078 168.201C43.9078 168.701 43.8078 169.401 43.8078 170.101Z" fill="black"/>
<path d="M61.6078 178.001C60.9078 178.001 60.2078 177.601 59.5078 176.901C58.9078 176.301 58.5078 175.401 58.3078 174.301C58.1078 173.501 58.0078 172.001 58.0078 169.701V161.601C58.0078 160.601 58.0078 159.901 58.0078 159.501C58.2078 158.901 58.5078 158.701 58.9078 158.701C59.5078 158.701 59.8078 159.001 60.0078 159.601V170.401C60.0078 171.801 60.1078 172.801 60.2078 173.501C60.3078 175.101 60.8078 175.801 61.7078 175.801C62.3078 175.801 63.2078 175.601 64.4078 175.201L64.9078 175.401C65.1078 175.601 65.2078 175.901 65.2078 176.201V176.401L64.8078 177.001C63.9078 177.701 62.8078 178.001 61.6078 178.001Z" fill="black"/>
<path d="M72.3031 164.901C71.9031 164.801 71.5031 164.601 71.2031 164.301C70.9031 164.001 70.7031 163.501 70.7031 163.101C70.7031 163.001 70.7031 162.901 70.7031 162.601C70.7031 162.301 70.9031 162.001 71.3031 161.701C71.6031 161.401 71.9031 161.301 72.2031 161.301C72.7031 161.301 73.2031 161.501 73.7031 162.001C74.0031 162.301 74.1031 162.701 74.1031 163.001C74.1031 163.101 74.1031 163.301 74.0031 163.601C73.9031 163.901 73.8031 164.201 73.4031 164.501C73.2031 164.701 72.8031 164.901 72.3031 164.901ZM72.9031 177.201H72.7031L72.2031 177.001C71.9031 174.601 71.6031 171.501 71.6031 167.701C71.7031 167.101 72.0031 166.701 72.7031 166.701H72.9031L73.4031 167.001C73.7031 170.101 74.0031 173.301 74.0031 176.501L73.7031 177.001C73.5031 177.201 73.2031 177.201 72.9031 177.201Z" fill="black"/>
<path d="M85.7047 177.601C85.1047 177.501 84.5047 177.301 84.0047 177.101C83.5047 176.901 82.9047 176.401 82.3047 175.701C81.7047 175.001 81.3047 174.101 81.1047 173.001C80.9047 172.001 80.8047 171.101 80.8047 170.301V169.301C80.9047 167.801 81.3047 166.701 82.1047 165.801C83.1047 164.701 84.2047 164.201 85.5047 164.201C85.6047 164.201 85.9047 164.201 86.3047 164.301C86.7047 164.301 87.1047 164.401 87.6047 164.601C88.1047 164.801 88.7047 165.301 89.4047 166.101C90.1047 166.901 90.6047 167.901 90.7047 168.901C90.9047 169.901 90.9047 170.601 90.9047 171.101C90.9047 171.501 90.8047 171.801 90.5047 171.901C90.3047 172.001 87.7047 172.101 82.8047 172.201C83.0047 173.401 83.4047 174.301 84.0047 174.801C84.7047 175.501 85.5047 175.801 86.3047 175.801C86.4047 175.801 86.6047 175.801 86.9047 175.801C87.2047 175.801 87.6047 175.601 88.1047 175.301C88.6047 175.001 89.1047 174.801 89.6047 174.601L90.1047 174.901C90.3047 175.101 90.4047 175.401 90.4047 175.701V175.901L90.1047 176.401C89.3047 177.001 88.6047 177.401 87.9047 177.601C87.3047 177.601 86.5047 177.601 85.7047 177.601ZM82.6047 170.101L88.8047 169.801C88.7047 168.501 88.4047 167.501 87.8047 166.901C87.2047 166.301 86.4047 166.101 85.6047 166.101C85.4047 166.101 85.1047 166.101 84.8047 166.201C84.5047 166.301 84.1047 166.501 83.7047 166.901C83.3047 167.301 83.1047 167.701 82.9047 168.201C82.7047 168.701 82.7047 169.401 82.6047 170.101Z" fill="black"/>
<path d="M98.5016 178.101C98.1016 178.101 97.7015 177.801 97.3015 177.301C95.7015 174.101 94.5016 170.501 93.6016 166.201C93.6016 165.901 93.7016 165.701 93.9016 165.501C94.1016 165.301 94.4016 165.301 94.7016 165.301H94.9016L95.4016 165.501C95.8016 167.101 96.3016 168.701 96.7016 170.401C97.1016 172.101 97.8016 173.601 98.6016 175.201C99.2016 173.701 99.9016 172.201 100.602 170.701C101.302 169.201 101.902 167.701 102.502 166.201C102.702 166.001 103.002 165.901 103.302 165.901H103.402L103.902 166.201C104.102 166.401 104.202 166.701 104.202 167.001V167.201C103.602 168.901 102.802 170.701 102.102 172.401C101.302 174.101 100.502 175.901 99.7016 177.601C99.2016 177.901 98.9016 178.101 98.5016 178.101Z" fill="black"/>
<path d="M111.603 177.601C111.003 177.501 110.403 177.301 109.903 177.101C109.403 176.901 108.803 176.401 108.203 175.701C107.603 175.001 107.203 174.101 107.003 173.001C106.803 172.001 106.703 171.101 106.703 170.301V169.301C106.803 167.801 107.203 166.701 108.003 165.801C109.003 164.701 110.103 164.201 111.403 164.201C111.503 164.201 111.803 164.201 112.203 164.301C112.603 164.301 113.003 164.401 113.503 164.601C114.003 164.801 114.603 165.301 115.303 166.101C116.003 166.901 116.503 167.901 116.603 168.901C116.803 169.901 116.803 170.601 116.803 171.101C116.803 171.501 116.703 171.801 116.403 171.901C116.203 172.001 113.603 172.101 108.703 172.201C108.903 173.401 109.303 174.301 109.903 174.801C110.603 175.501 111.403 175.801 112.203 175.801C112.303 175.801 112.503 175.801 112.803 175.801C113.103 175.801 113.503 175.601 114.003 175.301C114.503 175.001 115.003 174.801 115.503 174.601L116.003 174.901C116.203 175.101 116.303 175.401 116.303 175.701V175.901L116.003 176.401C115.203 177.001 114.503 177.401 113.803 177.601C113.203 177.601 112.403 177.601 111.603 177.601ZM108.503 170.101L114.703 169.801C114.603 168.501 114.303 167.501 113.703 166.901C113.103 166.301 112.303 166.101 111.503 166.101C111.303 166.101 111.003 166.101 110.703 166.201C110.403 166.301 110.003 166.501 109.603 166.901C109.203 167.301 109.003 167.701 108.803 168.201C108.603 168.701 108.503 169.401 108.503 170.101Z" fill="black"/>
<path d="M137.006 164.901C136.606 164.801 136.206 164.601 135.906 164.301C135.606 164.001 135.406 163.501 135.406 163.101C135.406 163.001 135.406 162.901 135.406 162.601C135.406 162.301 135.606 162.001 136.006 161.701C136.306 161.401 136.606 161.301 136.906 161.301C137.406 161.301 137.906 161.501 138.406 162.001C138.706 162.301 138.806 162.701 138.806 163.001C138.806 163.101 138.806 163.301 138.706 163.601C138.606 163.901 138.506 164.201 138.106 164.501C137.906 164.701 137.506 164.901 137.006 164.901ZM137.606 177.201H137.406L136.906 177.001C136.606 174.601 136.306 171.501 136.306 167.701C136.406 167.101 136.706 166.701 137.406 166.701H137.606L138.106 167.001C138.406 170.101 138.706 173.301 138.706 176.501L138.406 177.001C138.206 177.201 137.906 177.201 137.606 177.201Z" fill="black"/>
<path d="M154.003 177.601H153.803L153.303 177.3C153.103 177 153.003 176.601 153.003 176.201C153.003 176.101 153.003 175.9 153.103 175.8L153.303 173.8C153.303 173.3 153.403 172.8 153.403 172.4C153.403 171.5 153.303 170.801 153.103 170.201C152.703 169.001 152.003 168.4 151.203 168.4C151.103 168.4 150.903 168.4 150.703 168.5C150.503 168.6 150.103 168.8 149.703 169.3C149.303 169.8 148.903 170.3 148.503 170.9C148.103 171.5 147.803 172.2 147.803 172.9C147.803 174.6 147.803 175.601 147.803 176.101L147.603 176.601C147.403 176.801 147.103 176.9 146.803 176.9H146.603L146.103 176.601C145.803 174.901 145.603 173.2 145.503 171.5C145.403 169.8 145.303 168.1 145.203 166.4C145.303 165.7 145.603 165.4 146.303 165.4H146.503L147.003 165.701C147.203 166.201 147.303 166.7 147.303 167.3C147.303 167.9 147.403 168.4 147.403 169C147.803 168.5 148.103 168.101 148.503 167.701C149.303 166.801 150.103 166.4 151.103 166.4C151.303 166.4 151.603 166.4 152.103 166.5C152.603 166.6 153.103 166.9 153.603 167.5C154.103 168.1 154.603 168.7 154.903 169.5C155.103 170.1 155.303 171.001 155.303 172.101C155.303 172.301 155.303 172.801 155.203 173.601C155.203 174.401 155.103 175.101 155.103 175.701C155.103 176.301 155.003 176.9 154.803 177.4C154.503 177.5 154.303 177.601 154.003 177.601Z" fill="black"/>
<path d="M172.008 177.8C171.408 177.7 171.108 177.4 171.008 176.8L171.208 159.701C171.208 158.801 171.408 158.201 171.908 158.101C172.408 158.001 173.008 157.9 173.608 157.9C175.108 157.9 176.508 158.1 177.608 158.4C178.308 158.6 179.008 159.001 179.608 159.601C180.308 160.201 180.808 160.701 181.008 161.201C181.308 161.901 181.508 162.8 181.508 164C181.508 165.1 181.308 166 181.008 166.8C180.808 167.3 180.208 168 179.208 168.9C177.508 170.4 175.708 171.201 173.808 171.201C173.508 171.201 173.208 171.201 172.908 171.101V176.9L172.608 177.4C172.508 177.7 172.308 177.8 172.008 177.8ZM173.108 169.201C174.408 169.201 175.308 169.1 175.708 168.9C176.108 168.7 176.508 168.6 176.908 168.4C178.008 167.9 178.808 167.101 179.308 166.201C179.608 165.701 179.708 165 179.708 164.3C179.708 163.9 179.608 163.4 179.508 162.8C179.408 162.3 179.008 161.701 178.208 161.101C177.408 160.501 176.708 160.1 175.908 160C175.508 159.9 175.008 159.9 174.508 159.9C174.108 159.9 173.608 159.9 173.108 160V169.201Z" fill="black"/>
<path d="M188.902 177.5C188.102 177.5 187.402 177.401 186.802 177.201C186.302 177.001 185.902 176.701 185.402 176.101C184.502 175.001 184.102 173.7 184.102 172V171.101C184.202 169.301 184.702 167.9 185.702 166.8C186.802 165.5 188.102 164.9 189.602 164.9C189.802 164.9 190.202 164.9 190.802 165C191.402 165.1 192.002 165.5 192.802 166.3C193.602 167.1 194.002 167.8 194.102 168.3C194.302 169.5 194.402 170.4 194.402 171C194.402 171.3 194.402 171.8 194.302 172.4C194.202 173.9 193.602 175.201 192.602 176.201C191.802 177.101 190.602 177.5 188.902 177.5ZM189.002 175.5C189.702 175.5 190.402 175.3 191.002 175C191.602 174.7 191.902 174.201 192.202 173.701C192.502 172.901 192.602 172 192.602 171C192.602 170.7 192.602 170.201 192.502 169.701C192.402 169.201 192.202 168.6 191.902 168C191.602 167.4 191.102 167 190.702 166.9C190.502 166.8 190.302 166.8 190.102 166.8C189.802 166.8 189.402 166.9 189.002 167C188.502 167.1 188.002 167.501 187.502 168.201C186.902 168.901 186.602 169.501 186.502 170.201C186.402 170.701 186.402 171.201 186.402 171.701C186.402 172.401 186.502 173.1 186.802 173.9C186.802 175 187.602 175.5 189.002 175.5Z" fill="black"/>
<path d="M204.308 177.801C204.108 177.801 203.808 177.601 203.508 177.301C203.108 176.601 202.708 175.801 202.508 174.901C202.208 174.101 202.008 173.201 201.808 172.401C201.508 173.101 201.208 173.901 200.908 174.701C200.608 175.501 200.408 176.201 200.108 177.001C199.908 177.401 199.708 177.601 199.408 177.601C199.208 177.601 198.908 177.401 198.608 177.101C197.508 174.801 196.608 171.701 196.008 168.001C196.008 167.701 196.108 167.501 196.308 167.301C196.508 167.101 196.808 167.001 197.108 167.001H197.308L197.808 167.301C198.208 169.301 198.708 171.401 199.308 173.401C199.908 171.701 200.608 170.001 201.408 168.401C201.608 168.101 201.808 167.901 202.008 167.901C202.208 167.901 202.508 168.101 202.808 168.401L204.108 173.501C204.508 172.301 204.908 171.301 205.308 170.301C205.708 169.301 206.108 168.301 206.508 167.101C206.708 166.901 207.008 166.801 207.308 166.801H207.508L208.008 167.101C208.208 167.301 208.308 167.601 208.308 167.901C208.308 168.201 207.808 169.801 206.708 172.801C206.208 174.301 205.708 175.801 205.108 177.501C204.808 177.601 204.608 177.801 204.308 177.801Z" fill="black"/>
<path d="M215.103 177.601C214.503 177.501 213.903 177.301 213.403 177.101C212.903 176.901 212.303 176.401 211.703 175.701C211.103 175.001 210.703 174.101 210.503 173.001C210.303 172.001 210.203 171.101 210.203 170.301V169.301C210.303 167.801 210.703 166.701 211.503 165.801C212.503 164.701 213.603 164.201 214.903 164.201C215.003 164.201 215.303 164.201 215.703 164.301C216.103 164.301 216.503 164.401 217.003 164.601C217.503 164.801 218.103 165.301 218.803 166.101C219.503 166.901 220.003 167.901 220.103 168.901C220.303 169.901 220.303 170.601 220.303 171.101C220.303 171.501 220.203 171.801 219.903 171.901C219.703 172.001 217.103 172.101 212.203 172.201C212.403 173.401 212.803 174.301 213.403 174.801C214.103 175.501 214.903 175.801 215.703 175.801C215.803 175.801 216.003 175.801 216.303 175.801C216.603 175.801 217.003 175.601 217.503 175.301C218.003 175.001 218.503 174.801 219.003 174.601L219.503 174.901C219.703 175.101 219.803 175.401 219.803 175.701V175.901L219.503 176.401C218.703 177.001 218.003 177.401 217.303 177.601C216.703 177.601 215.903 177.601 215.103 177.601ZM212.003 170.101L218.203 169.801C218.103 168.501 217.803 167.501 217.203 166.901C216.603 166.301 215.803 166.101 215.003 166.101C214.803 166.101 214.503 166.101 214.203 166.201C213.903 166.301 213.503 166.501 213.103 166.901C212.703 167.301 212.503 167.701 212.303 168.201C212.103 168.701 212.003 169.401 212.003 170.101Z" fill="black"/>
<path d="M225.702 177.5H225.502L225.002 177.201C224.602 175.401 224.302 173.501 224.102 171.601C223.902 169.701 223.802 167.8 223.602 165.9C223.702 165.3 224.002 164.9 224.702 164.9H224.902L225.402 165.201C225.602 166.001 225.702 166.801 225.802 167.601C225.902 168.401 225.902 169.201 226.002 170.101C226.302 169.601 226.702 169.101 227.202 168.701C227.702 168.301 228.102 168.001 228.702 167.701C229.302 167.401 229.802 167.4 230.302 167.4C230.902 167.4 231.402 167.4 232.002 167.3L232.502 167.5C232.702 167.7 232.802 168 232.802 168.3V168.5L232.502 169C231.902 169.1 231.202 169.201 230.502 169.201C229.302 169.301 228.202 170.301 227.402 172.101C227.002 173.001 226.702 174.1 226.702 175.4L226.802 176.9L226.502 177.4C226.302 177.5 226.002 177.5 225.702 177.5Z" fill="black"/>
<path d="M253.605 177.5C252.805 177.5 252.105 177.401 251.505 177.201C251.005 177.001 250.605 176.701 250.105 176.101C249.205 175.001 248.805 173.7 248.805 172V171.101C248.905 169.301 249.405 167.9 250.405 166.8C251.505 165.5 252.805 164.9 254.305 164.9C254.505 164.9 254.905 164.9 255.505 165C256.105 165.1 256.705 165.5 257.505 166.3C258.305 167.1 258.705 167.8 258.805 168.3C259.005 169.5 259.105 170.4 259.105 171C259.105 171.3 259.105 171.8 259.005 172.4C258.905 173.9 258.305 175.201 257.305 176.201C256.505 177.101 255.305 177.5 253.605 177.5ZM253.605 175.5C254.305 175.5 255.005 175.3 255.605 175C256.205 174.7 256.505 174.201 256.805 173.701C257.105 172.901 257.205 172 257.205 171C257.205 170.7 257.205 170.201 257.105 169.701C257.005 169.201 256.805 168.6 256.505 168C256.205 167.4 255.705 167 255.305 166.9C255.105 166.8 254.905 166.8 254.705 166.8C254.405 166.8 254.005 166.9 253.605 167C253.105 167.1 252.605 167.501 252.105 168.201C251.505 168.901 251.205 169.501 251.105 170.201C251.005 170.701 251.005 171.201 251.005 171.701C251.005 172.401 251.105 173.1 251.405 173.9C251.505 175 252.305 175.5 253.605 175.5Z" fill="black"/>
<path d="M265.802 177.801H265.602L265.102 177.501C264.802 176.101 264.602 174.501 264.602 173.001C264.502 171.401 264.502 169.901 264.402 168.401H262.002L261.402 168.101C261.202 167.901 261.102 167.601 261.102 167.301V167.101L261.402 166.601L261.902 166.301H264.202C264.102 165.301 264.102 164.501 264.102 163.701C264.102 162.101 264.202 160.801 264.502 159.901C264.902 158.201 266.002 157.301 267.502 157.301C267.502 157.301 267.802 157.301 268.202 157.301C268.602 157.301 269.202 157.601 269.802 158.101C270.402 158.601 270.702 159.101 270.702 159.701L270.502 160.201C270.302 160.401 270.002 160.501 269.702 160.501H269.502C268.802 159.701 268.202 159.301 267.702 159.301C267.502 159.301 267.202 159.401 266.902 159.601C266.602 159.801 266.402 160.201 266.302 160.701C266.202 161.201 266.202 161.901 266.102 162.801C266.102 163.701 266.102 164.801 266.102 166.201C266.902 166.201 267.702 166.201 268.502 166.201C269.302 166.201 270.002 166.401 270.702 166.701C270.902 166.901 271.002 167.201 271.002 167.501V167.701L270.702 168.201C270.502 168.401 270.202 168.501 269.902 168.501L269.302 168.401C268.302 168.301 267.502 168.201 267.002 168.201H266.302C266.402 169.901 266.502 172.801 266.802 177.001L266.502 177.501C266.402 177.801 266.102 177.801 265.802 177.801Z" fill="black"/>
<path d="M289.402 177.801C289.202 177.801 288.902 177.701 288.602 177.401C288.002 174.201 287.602 171.101 287.202 168.301C286.802 165.501 286.602 162.602 286.602 159.702C286.702 159.102 287.002 158.702 287.602 158.702H287.802L288.302 158.901C288.502 160.801 288.702 162.702 288.802 164.702C288.902 166.602 289.102 168.601 289.502 170.501C289.802 169.501 290.102 168.501 290.402 167.401C290.702 166.401 291.002 165.401 291.302 164.401C291.502 164.101 291.802 164.001 292.002 164.001C292.302 164.001 292.502 164.101 292.802 164.401C293.202 167.401 293.702 170.001 294.402 172.401C295.002 170.101 295.402 167.701 295.802 165.401C296.102 163.001 296.502 160.701 297.002 158.401C297.202 158.201 297.502 158.102 297.902 158.102H298.102L298.602 158.401C298.802 158.601 298.802 158.902 298.802 159.202V159.401C297.802 166.601 296.702 172.601 295.502 177.301C295.202 177.701 295.002 177.901 294.702 177.901C294.502 177.901 294.202 177.701 294.002 177.301C293.402 176.301 292.902 175.201 292.702 174.001C292.502 172.801 292.202 171.601 291.902 170.401C291.502 171.401 291.102 172.601 290.902 174.001C290.702 175.301 290.402 176.502 290.202 177.602C289.902 177.702 289.702 177.801 289.402 177.801Z" fill="black"/>
<path d="M305.402 177.5C304.602 177.5 303.902 177.401 303.302 177.201C302.802 177.001 302.402 176.701 301.902 176.101C301.002 175.001 300.602 173.7 300.602 172V171.101C300.702 169.301 301.202 167.9 302.202 166.8C303.302 165.5 304.602 164.9 306.102 164.9C306.302 164.9 306.702 164.9 307.302 165C307.902 165.1 308.502 165.5 309.302 166.3C310.102 167.1 310.502 167.8 310.602 168.3C310.802 169.5 310.902 170.4 310.902 171C310.902 171.3 310.902 171.8 310.802 172.4C310.702 173.9 310.102 175.201 309.102 176.201C308.302 177.101 307.002 177.5 305.402 177.5ZM305.402 175.5C306.102 175.5 306.802 175.3 307.402 175C308.002 174.7 308.302 174.201 308.602 173.701C308.902 172.901 309.002 172 309.002 171C309.002 170.7 309.002 170.201 308.902 169.701C308.802 169.201 308.602 168.6 308.302 168C308.002 167.4 307.502 167 307.102 166.9C306.902 166.8 306.702 166.8 306.502 166.8C306.202 166.8 305.802 166.9 305.402 167C304.902 167.1 304.402 167.501 303.902 168.201C303.302 168.901 303.002 169.501 302.902 170.201C302.802 170.701 302.802 171.201 302.802 171.701C302.802 172.401 302.902 173.1 303.202 173.9C303.202 175 304.102 175.5 305.402 175.5Z" fill="black"/>
<path d="M316.303 177.5H316.103L315.603 177.201C315.203 175.401 314.903 173.501 314.703 171.601C314.503 169.701 314.403 167.8 314.203 165.9C314.303 165.3 314.603 164.9 315.303 164.9H315.503L316.003 165.201C316.203 166.001 316.303 166.801 316.403 167.601C316.503 168.401 316.503 169.201 316.603 170.101C316.903 169.601 317.303 169.101 317.803 168.701C318.303 168.301 318.703 168.001 319.303 167.701C319.903 167.401 320.403 167.4 320.903 167.4C321.503 167.4 322.003 167.4 322.603 167.3L323.103 167.5C323.303 167.7 323.403 168 323.403 168.3V168.5L323.103 169C322.503 169.1 321.803 169.201 321.103 169.201C319.903 169.301 318.803 170.301 318.003 172.101C317.603 173.001 317.303 174.1 317.303 175.4L317.403 176.9L317.103 177.4C316.903 177.5 316.603 177.5 316.303 177.5Z" fill="black"/>
<path d="M335.602 177.601H335.502L335.002 177.3C334.802 177 334.702 176.7 334.702 176.3C333.502 176.7 332.602 176.9 332.002 176.9C330.102 176.9 328.702 176.301 327.802 175.201C327.002 174.201 326.602 173 326.602 171.5C326.602 169.5 327.102 168 328.202 167C329.102 166.2 330.302 165.701 331.702 165.701C332.702 165.701 333.502 165.801 334.302 166.101L334.102 158.9C334.202 158.3 334.502 157.9 335.202 157.9H335.402L335.902 158.201C336.102 158.601 336.202 159 336.202 159.4C336.202 159.8 336.402 165.601 336.902 176.701L336.602 177.201C336.202 177.501 335.902 177.601 335.602 177.601ZM331.702 174.9C331.902 174.9 332.202 174.9 332.602 174.8C333.002 174.7 333.602 174.5 334.402 174L334.202 168.5C333.102 167.9 332.202 167.701 331.502 167.701C330.602 167.701 329.902 168 329.402 168.5C328.702 169.2 328.302 170.2 328.302 171.4C328.302 172.5 328.602 173.4 329.202 174C329.902 174.6 330.702 174.9 331.702 174.9Z" fill="black"/>
<path d="M344.006 177.8C343.406 177.8 342.906 177.6 342.406 177.3C342.006 177.1 341.606 176.9 341.206 176.7C341.006 176.4 340.906 176.1 340.806 175.8C340.906 175.1 341.206 174.8 341.906 174.8H342.106C342.506 175 343.006 175.3 343.406 175.5C343.706 175.7 344.006 175.8 344.406 175.8C345.306 175.8 346.006 175.5 346.606 175C346.906 174.7 347.106 174.4 347.106 174C347.106 173.9 347.106 173.8 347.006 173.5C346.906 173.3 346.606 173.1 346.006 172.9C345.406 172.7 344.606 172.6 343.806 172.3C343.006 172 342.306 171.6 341.706 171.1C340.806 170.2 340.406 169.3 340.406 168.3L340.506 167.7C340.606 167 341.106 166.1 342.006 165.3C342.906 164.4 343.906 164 345.006 164C345.206 164 345.506 164 345.906 164.1C346.306 164.2 346.806 164.4 347.306 164.8C347.706 165.2 347.906 165.6 347.906 166C347.906 166.1 347.806 166.3 347.606 166.6C347.406 166.8 347.106 166.9 346.806 166.9H346.606C345.806 166.3 345.206 166 344.706 166C344.606 166 344.506 166 344.206 166.1C343.906 166.1 343.606 166.3 343.206 166.6C342.806 166.9 342.506 167.4 342.306 167.9C342.206 168.1 342.206 168.3 342.206 168.5C342.206 168.8 342.306 169.2 342.606 169.5C342.906 169.8 343.206 170.1 343.606 170.3C344.006 170.5 344.606 170.7 345.506 170.8C346.406 170.9 347.106 171.3 347.706 171.7C348.306 172.2 348.706 172.7 348.806 173.3C348.906 173.6 348.906 173.8 348.906 174.1C348.906 174.4 348.906 174.8 348.806 175.2C348.706 175.6 348.406 176.1 347.906 176.5C347.106 177.4 345.806 177.8 344.006 177.8Z" fill="black"/>
<path d="M13.1031 139.6H12.7031L11.6031 139.1C11.0031 137.9 10.7031 136.6 10.7031 135.2L10.6031 112.7C9.30312 114.8 8.30311 117 7.50311 119.3C6.70311 121.6 5.70311 123.8 4.50311 125.9C4.00311 126.3 3.30311 126.6 2.40311 126.6L1.3031 126C0.903101 125.6 0.703125 124.9 0.703125 124C4.60313 114.9 7.30312 108.3 8.70312 104.3L3.90311 104.5L2.8031 104C2.5031 103.5 2.3031 102.9 2.3031 102.3C2.3031 102.1 2.5031 101.6 2.8031 100.8C3.9031 100.4 5.10311 100.1 6.40311 100.1C7.70311 100.1 9.00313 99.9999 10.2031 99.8999L10.1031 93.1001C10.3031 91.7001 11.2031 91 12.8031 91L13.9031 91.6001C14.3031 92.2001 14.5031 92.9002 14.5031 93.7002V99.8999L19.4031 99.7998L20.5031 100.4C20.8031 100.8 21.0031 101.4 21.0031 102C21.0031 102.2 20.8031 102.7 20.5031 103.5C19.8031 104 19.0031 104.2 18.1031 104.2L15.0031 104.1L22.0031 111.9C22.4031 112.3 22.6031 113 22.6031 113.9L22.0031 115C21.5031 115.4 20.8031 115.6 19.9031 115.6L14.9031 110.5L15.1031 138.1L14.5031 139.2C14.3031 139.4 13.8031 139.6 13.1031 139.6ZM28.1031 136.9C26.5031 136.6 25.5031 136.1 25.2031 135.3C24.9031 134.5 24.8031 128.3 24.8031 116.6C24.8031 105 24.9031 98.8 25.2031 98C25.4031 97.2 26.0031 96.6999 26.8031 96.3999C27.3031 96.2999 28.9031 96.2002 31.5031 96.2002C33.0031 96.2002 35.8031 96.2999 39.8031 96.3999C43.9031 96.4999 46.3031 96.6002 47.1031 96.7002C47.7031 96.8002 48.1031 97.6999 48.1031 99.3999L47.9031 133.7C47.9031 135.4 47.3031 136.3 46.2031 136.4C45.0031 136.5 39.0031 136.7 28.1031 136.9ZM43.6031 108.2V100.7L29.3031 100.6L29.2031 107.9L43.6031 108.2ZM43.5031 119V112.5L29.2031 112.2L29.3031 119H43.5031ZM29.2031 132.5L43.6031 132.2L43.5031 123.3L29.4031 123.2L29.2031 132.5Z" fill="black"/>
<path d="M66.8 140.4H66.5L65.3 139.8C64.9 139.1 64.6 138.4 64.6 137.5L64.7 136.8L64.5 107.9C63.5 109.3 62.5 110.7 61.6 112C60.6 113.4 59.8 114.8 59.2 116.4C58.8 116.8 58.1 117 57.2 117L56.1 116.4C55.8 115.8 55.6 115.201 55.5 114.601C57.4 110.501 59.9 106.601 62.8 103.101C65.7 99.5006 68.4 95.9006 71 92.1006C71.5 91.7006 72.2 91.4004 73.2 91.4004L74.3 92.0005C74.6 92.5005 74.8 93.2006 74.8 94.1006L74.3 95.2007L68.8 102.601L69.2 137.601C69.2 138.501 69 139.3 68.5 139.9C68 140.2 67.4 140.4 66.8 140.4ZM103.1 105.201L77.7 104.701C76.3 104.501 75.6 103.6 75.6 102L76.2 100.9L77.3 100.3C89.6 100.6 97.2 100.701 99.9 100.701C102.2 100.701 104.1 100.9 105.5 101.3C105.9 101.7 106.1 102.4 106.1 103.3L105.5 104.4C104.8 105 104 105.201 103.1 105.201ZM101 140L80.3 139.8C78.7 139.7 77.9 139.201 77.8 138.201C77.7 137.201 77.7 133.5 77.5 126.9C77.6 124.6 78.5 123.5 79.9 123.5L101.6 123.4C103.1 123.5 103.8 123.8 103.8 124.5C103.8 125.2 103.7 126.101 103.7 127.201C103.7 128.401 103.7 130.6 103.8 133.9C103.8 136.2 103.7 137.801 103.5 138.601C103.4 139.501 102.5 140 101 140ZM82.3 121.5C80.9 121.3 80.2 120.4 80.2 118.9L80.8 117.8C81.5 117.4 82.4 117.101 83.4 117.101H98.9L100 117.701C100.3 118.101 100.5 118.801 100.5 119.701L100 120.8C99.5 121.2 98.9 121.4 98.3 121.5C88.7 121.4 83.3 121.5 82.3 121.5ZM99.2 112.701L82.5 112.3C81.1 112.1 80.4 111.201 80.4 109.701L81 108.601L82.1 108C90.4 108.2 95.8 108.3 98.4 108.3C99.3 108.3 100.2 108.5 100.9 109C101.3 109.4 101.5 110.1 101.5 111L100.9 112.101C100.4 112.401 99.8 112.601 99.2 112.701ZM99.6 135.5L99.5 127.701H81.8L82.1 135.5H99.6ZM96.4 99.3003C91.5 97.7003 87 96.6004 82.8 95.9004C82.4 95.4004 82.1 94.7003 82.1 93.8003L82.7 92.7007C83.4 92.3007 84.1 92.1006 85 92.1006C85.4 92.1006 85.7 92.1007 86.1 92.2007C90.1 92.9007 94.1 94.0004 98 95.4004C98.4 95.9004 98.6 96.6005 98.6 97.5005L98 98.6006C97.5 99.0006 97 99.3003 96.4 99.3003Z" fill="black"/>
<path d="M120.202 137.8C118.702 137.7 118.002 136.801 118.002 135.201L117.802 111.601C113.802 111.701 111.602 111.8 111.102 111.9C110.502 111.9 110.102 111.7 109.702 111.3C109.302 110.7 109.102 110.201 109.102 109.701C109.102 109.001 109.602 108.3 110.602 107.9C113.002 107.8 115.002 107.701 116.502 107.701C119.102 107.701 120.702 108.001 121.402 108.701C121.902 109.201 122.202 109.8 122.202 110.3C122.202 110.4 122.202 110.601 122.102 110.701L121.702 130.9C123.102 129.1 124.502 128.3 125.802 128.3C126.302 128.3 126.802 128.401 127.302 128.601C127.702 129.001 127.902 129.501 127.902 130.101C127.902 130.801 127.302 131.7 126.102 132.9C124.902 134.1 123.802 135.201 122.902 136.201C122.002 137.101 121.102 137.6 120.202 137.8ZM122.602 102C122.302 102 122.002 101.9 121.702 101.8L117.702 98.8003C116.202 98.1003 115.502 97.1003 115.502 95.8003V95.4004C115.902 94.5004 116.602 94.1006 117.702 94.1006L124.002 98.9004C124.302 99.2004 124.402 99.6005 124.402 100C124.402 100.2 124.402 100.501 124.302 100.701C123.902 101.601 123.402 102 122.602 102ZM127.002 118.601L125.902 118.101C125.502 117.501 125.202 116.9 125.202 116L125.802 114.9L126.902 114.3L135.902 114.201L137.202 107.201H132.402C131.402 107.201 130.402 107 129.502 106.5C129.202 106.1 129.002 105.4 129.002 104.5L129.502 103.4C130.102 103 130.902 102.701 131.702 102.701C132.002 102.701 132.302 102.7 132.602 102.8L138.002 102.9L138.402 98.1006C135.502 98.0006 133.102 97.9004 131.102 97.9004C130.002 97.9004 129.102 97.7007 128.302 97.2007C127.902 96.8007 127.702 96.1007 127.702 95.2007L128.302 94.1006C129.202 93.7006 130.302 93.4004 131.402 93.4004C131.802 93.4004 132.202 93.4005 132.702 93.5005L156.502 93.7007L157.602 94.3003C158.002 94.7003 158.202 95.4003 158.202 96.3003L157.602 97.4004C157.102 97.8004 156.602 98.0006 156.002 98.1006H142.802L142.402 102.701H151.302L152.402 103.3C152.802 103.9 153.002 104.501 153.002 105.101L152.902 105.8C152.302 108.8 151.902 111.5 151.602 113.8L158.302 113.9L159.402 114.5C159.702 114.9 159.902 115.501 159.902 116.101C159.902 116.301 159.702 116.801 159.402 117.601C158.902 118.001 158.302 118.201 157.702 118.201L127.002 118.601ZM132.902 140.5C132.302 140.4 131.802 140.2 131.402 139.8C130.802 137.3 130.402 134.801 130.202 132.101C130.102 129.401 129.902 126.801 129.602 124.201C129.802 122.701 130.802 121.9 132.602 121.8H153.102L154.202 122.4L154.802 123.5L154.602 137C154.602 137.9 154.302 138.7 153.802 139.3C153.002 139.9 152.002 140.3 150.902 140.3C141.002 140.2 135.002 140.3 132.902 140.5ZM134.802 136.101L150.302 135.9L150.502 126H134.102L134.802 136.101ZM147.102 114L148.102 107.101H141.702C141.202 108.901 140.702 111.2 140.302 114H147.102Z" fill="black"/>
<path d="M173.202 105.4C171.802 105.2 171.102 104.301 171.102 102.701L171.702 101.601C173.202 100.901 174.702 100.601 176.502 100.601L209.802 100.5C210.802 100.5 211.602 100.8 212.402 101.3C212.802 101.7 213.002 102.4 213.002 103.3L212.402 104.4C211.802 104.8 211.202 105.101 210.302 105.101L173.202 105.4ZM205.802 139.9L204.802 139.8L180.102 139.5C178.902 139.4 178.302 138.7 178.102 137.5C177.902 136.3 177.802 134.701 177.702 132.701C177.702 130.701 177.502 128.501 177.202 126.101C177.302 124.201 177.902 123.201 178.902 123.101C179.902 123.001 184.402 123 192.302 123C200.202 123 204.902 123.201 206.502 123.601C208.002 124.001 208.902 124.6 208.902 125.4C208.802 132.8 208.702 137.1 208.402 138.3C208.202 139.4 207.302 139.9 205.802 139.9ZM204.402 135.4L204.602 127.701L181.702 127.4L182.302 135.201L204.402 135.4ZM199.702 97.3003L184.002 97.0005L182.502 96.3003C182.102 95.9003 181.902 95.2003 181.902 94.3003L182.502 93.2007C183.502 92.6007 184.602 92.4004 186.002 92.4004C192.602 92.6004 196.502 92.7007 197.802 92.7007C199.102 92.7007 200.302 92.9004 201.502 93.4004C201.902 93.8004 202.102 94.4005 202.102 95.0005C202.102 95.3005 201.902 95.9007 201.502 96.7007C201.002 97.1007 200.402 97.3003 199.702 97.3003ZM202.002 112.5L201.302 112.4L184.302 112.101C182.902 111.901 182.202 111 182.202 109.5L182.802 108.4L183.902 107.8C193.002 107.9 198.402 108 200.002 108C201.602 108 203.102 108.201 204.502 108.701C204.802 109.101 205.002 109.801 205.002 110.701L204.502 111.8C203.802 112.3 202.902 112.5 202.002 112.5ZM184.502 119.9C183.102 119.7 182.402 118.8 182.402 117.3L183.002 116.201L184.102 115.701L202.702 115.4C204.102 115.6 204.802 116.5 204.802 118L204.202 119.101C203.602 119.501 203.002 119.7 202.402 119.8L184.502 119.9Z" fill="black"/>
<path d="M239.705 130.101L232.405 130.001L225.405 130.101C224.505 130.101 224.005 129.701 223.905 129.001C223.805 128.301 223.605 120.101 223.305 104.501C223.305 102.801 224.005 101.801 225.205 101.601C225.605 101.601 226.005 101.501 226.405 101.501C227.405 101.501 228.705 101.601 230.305 101.801C230.705 100.301 231.305 99.0008 232.105 97.8008C232.905 96.6008 233.605 95.4011 234.205 94.1011C234.605 93.7011 235.305 93.501 236.205 93.501L237.305 94.1011C237.705 94.5011 237.905 95.0012 237.905 95.7012C237.905 96.4012 237.405 97.6011 236.505 99.1011C235.905 100.001 235.505 101.001 235.005 102.001C239.005 102.001 241.405 102.101 242.105 102.301C242.905 102.501 243.205 103.301 243.205 104.801V105.401C242.905 120.201 242.605 128.101 242.405 128.901C242.205 129.701 241.305 130.101 239.705 130.101ZM227.805 112.501L238.605 112.401L238.805 106.401L227.605 106.101L227.805 112.501ZM228.305 125.801L238.505 125.701L238.605 116.601L228.005 116.701L228.305 125.801ZM266.605 140.101C265.805 140.101 265.005 139.601 264.005 138.601C262.405 137.001 260.905 135.601 259.805 134.601C259.105 134.001 258.705 133.201 258.705 132.101L259.305 131.001C259.705 130.601 260.405 130.401 261.305 130.401C262.305 130.901 263.705 132.101 265.505 134.001C266.105 129.301 266.705 124.401 267.105 119.301C267.505 114.201 268.005 109.401 268.405 105.001L252.305 104.901C252.105 106.501 251.705 107.901 251.305 109.101C250.905 110.301 250.305 111.601 249.705 113.001C249.305 113.401 248.605 113.601 247.705 113.601L246.605 113.001C246.205 112.601 246.005 112.001 246.005 111.401L246.105 110.801C247.305 108.201 248.105 105.201 248.605 101.901C249.105 98.5009 249.805 95.2009 250.805 91.9009C251.205 91.5009 251.905 91.3008 252.805 91.3008L253.905 91.9009C254.305 92.3009 254.505 92.801 254.505 93.501L254.405 94.1011C253.905 96.0011 253.405 98.1011 253.105 100.601L271.005 100.701C272.105 100.701 272.605 101.501 272.705 103.001C272.005 111.101 271.505 117.801 271.105 123.201C270.705 128.601 270.105 132.801 269.305 135.801C268.405 138.701 267.505 140.101 266.605 140.101ZM258.905 123.101H258.605L257.505 122.601L253.305 117.801C252.905 117.401 252.705 116.701 252.705 115.801L253.305 114.701C253.705 114.301 254.305 114.101 254.905 114.101C255.205 114.101 255.705 114.301 256.505 114.701L260.405 119.401C260.905 119.901 261.205 120.601 261.205 121.501L260.605 122.601C260.005 123.001 259.505 123.101 258.905 123.101Z" fill="black"/>
<path d="M316.706 139.799C316.506 139.799 316.306 139.799 316.106 139.699C315.106 139.399 314.106 138.899 313.406 138.099C312.106 136.799 311.306 135.299 311.106 133.499L311.706 132.399C312.106 132.099 312.806 131.899 313.706 131.899L314.806 132.399L315.806 133.599C316.806 130.199 317.706 126.999 318.506 123.999C319.206 120.999 319.806 115.299 320.106 107.099L301.906 106.999C301.206 111.699 299.606 116.699 297.006 121.899C294.406 127.099 291.706 131.999 288.906 136.599C288.406 137.199 287.706 137.399 286.806 137.399C286.606 137.399 286.106 137.199 285.406 136.899C285.006 136.499 284.806 135.799 284.806 134.899C287.306 130.899 289.806 126.399 292.406 121.399C295.006 116.399 296.706 111.599 297.306 107.099C293.906 106.999 291.506 106.899 289.906 106.899C287.706 106.899 286.106 106.699 285.006 106.199C284.606 105.799 284.406 105.099 284.406 104.199L285.006 103.099C286.006 102.699 287.206 102.399 288.406 102.399C288.806 102.399 289.306 102.399 289.806 102.499L298.106 102.599C298.406 101.199 298.606 99.4991 298.906 97.5991C299.206 95.6991 299.606 94.0992 300.206 92.6992C300.606 92.3992 301.306 92.1992 302.206 92.1992L303.306 92.6992C303.706 93.1992 303.906 93.8988 303.906 94.7988C303.506 95.7988 303.206 97.0991 303.006 98.5991C302.806 100.099 302.606 101.399 302.506 102.499C308.006 102.399 312.406 102.399 315.706 102.399C319.806 102.399 322.206 102.499 322.906 102.599C323.906 102.799 324.406 103.499 324.406 104.799L324.306 105.899C323.706 115.799 322.906 122.699 322.106 126.699C321.306 130.699 320.406 133.999 319.506 136.499C318.706 138.699 317.806 139.799 316.706 139.799Z" fill="black"/>
<path d="M379.702 113.6L378.702 113.5L337.302 113.3L336.202 112.7C335.802 112.3 335.602 111.6 335.602 110.7L336.202 109.6C337.402 109.1 338.602 108.8 340.102 108.8C341.002 108.8 354.102 108.9 379.402 109C380.402 109 381.402 109.2 382.202 109.7C382.602 110.2 382.802 110.9 382.802 111.8L382.202 112.9C381.502 113.4 380.602 113.6 379.702 113.6ZM340.502 140.1L339.402 139.5C339.002 139 338.702 138.3 338.702 137.4L339.302 136.3C340.502 135.7 341.802 135.4 343.102 135.4C343.602 135.4 344.102 135.4 344.702 135.5L358.802 135.7V133.2L350.502 133.3C349.102 133.1 348.402 132.2 348.402 130.7L349.002 129.6L350.102 129L358.702 128.9V127.5C355.402 127.6 352.902 127.6 351.202 127.6C349.902 127.6 348.902 127.6 348.202 127.5C347.502 127.4 347.102 126.9 346.902 125.9C346.702 124.9 346.402 121.7 346.002 116.3C346.002 115.3 346.202 114.7 346.702 114.5C347.002 114.4 349.402 114.3 353.902 114.3C358.402 114.3 365.002 114.4 373.702 114.5C374.702 114.7 375.202 115.3 375.202 116.3L375.102 117.1L375.302 126.2C375.202 127.1 374.702 127.5 373.802 127.5L373.402 127.4L363.002 127.5V128.9C368.002 128.9 371.602 129.2 374.002 129.7C374.402 130.1 374.602 130.8 374.602 131.7L374.002 132.8C373.402 133.3 372.702 133.5 371.902 133.5L363.102 133.1C363.102 133.5 363.202 134.4 363.302 135.6L380.902 135.3L382.002 135.9C382.402 136.3 382.602 137 382.602 137.9L382.002 139C381.502 139.3 381.002 139.5 380.402 139.6L340.502 140.1ZM347.902 107.8C346.502 107.8 345.702 107.5 345.502 106.8C345.302 106.1 344.802 101.7 344.102 93.6001C344.302 92.6001 344.802 91.9998 345.602 91.7998C346.402 91.5998 351.302 91.5 360.302 91.5C369.302 91.5 374.202 91.5001 375.002 91.6001C375.802 91.6001 376.202 92.1998 376.302 93.2998C375.902 100.5 375.602 104.7 375.502 106C375.402 107.1 374.602 107.6 373.202 107.6L372.202 107.5L347.902 107.8ZM348.702 98.3999L372.002 98.2002V95.8999L348.502 96.1001L348.702 98.3999ZM371.202 103.3L371.302 101.1H349.402L349.602 103.3H371.202ZM358.702 119.7V118H350.402L350.702 119.5L358.702 119.7ZM358.702 124.6V122.9L351.002 122.8L351.302 124.5L358.702 124.6ZM370.802 119.9V117.9H363.002V119.9H370.802ZM370.902 124.6L370.802 123H363.002V124.6H370.902Z" fill="black"/>
</svg>
