<svg width="383" height="184" viewBox="0 0 383 184" fill="none" xmlns="http://www.w3.org/2000/svg">
<path d="M16.4 180.602C16.1 180.602 15.7 180.401 15.4 179.901C14 175.701 12.5 170.102 11 163.102C11.1 162.502 11.4 162.102 12.1 162.102H12.3L12.8 162.401C13.4 164.801 14 167.202 14.6 169.602C15.2 172.002 15.8 174.401 16.6 176.801C17.4 174.401 18.2 172.102 18.9 169.702C19.6 167.302 20.2 164.901 20.5 162.401C20.7 162.201 21 162.102 21.3 162.102H21.5L22 162.401C22.2 162.701 22.3 163.001 22.3 163.301V163.602C21.9 166.402 21.3 169.101 20.4 171.801C19.5 174.501 18.6 177.101 17.6 179.801C17.1 180.301 16.8 180.602 16.4 180.602Z" fill="black"/>
<path d="M33.6016 180.601C33.3016 180.601 33.1016 180.501 32.9016 180.301L32.5016 179.801C31.4016 180.301 30.3016 180.601 29.3016 180.601C29.2016 180.601 29.0016 180.601 28.7016 180.601C28.3016 180.601 27.9016 180.401 27.3016 180.201C26.7016 179.901 26.2016 179.501 25.7016 179.101C24.9016 178.401 24.6016 177.401 24.6016 176.101C24.6016 175.901 24.6016 175.601 24.7016 175.201C24.8016 174.101 25.3016 173.101 26.1016 172.301C26.9016 171.601 27.8016 171.201 29.0016 171.201C29.7016 171.201 30.4016 171.301 31.2016 171.601C31.2016 171.001 31.0016 170.501 30.5016 170.201C29.7016 169.601 28.9016 169.301 28.1016 169.301C27.9016 169.301 27.6016 169.301 27.2016 169.401C26.8016 169.501 26.4016 169.601 26.0016 169.601L25.4016 169.301C25.2016 169.101 25.1016 168.801 25.1016 168.501V168.301L25.4016 167.801C26.0016 167.401 26.7016 167.201 27.6016 167.201C28.0016 167.201 28.4016 167.201 28.9016 167.301C29.4016 167.401 30.1016 167.601 30.9016 168.101C31.8016 168.501 32.4016 169.201 32.8016 170.101C33.2016 171.001 33.4016 172.401 33.4016 174.301C33.4016 176.301 33.8016 178.101 34.5016 179.901L34.2016 180.401C34.1016 180.501 33.8016 180.601 33.6016 180.601ZM29.4016 178.501C30.0016 178.501 30.5016 178.401 31.1016 178.101L31.8016 177.501C31.7016 176.901 31.6016 175.801 31.5016 174.401C30.8016 173.501 30.0016 173.101 29.2016 173.101C29.2016 173.101 29.0016 173.101 28.5016 173.101C28.1016 173.101 27.7016 173.301 27.3016 173.601C26.8016 174.101 26.5016 174.901 26.5016 175.901C26.5016 176.101 26.5016 176.301 26.5016 176.601C26.5016 176.901 26.7016 177.201 27.0016 177.501C27.3016 177.801 27.7016 178.101 28.2016 178.301C28.7016 178.501 29.0016 178.501 29.4016 178.501Z" fill="black"/>
<path d="M43.9984 180.901C43.2984 180.901 42.5984 180.501 41.8984 179.801C41.2984 179.201 40.8984 178.302 40.6984 177.202C40.4984 176.402 40.3984 174.902 40.3984 172.602V164.501C40.3984 163.501 40.3984 162.801 40.3984 162.401C40.5984 161.801 40.8984 161.602 41.2984 161.602C41.8984 161.602 42.1984 161.901 42.3984 162.501V173.301C42.3984 174.701 42.4984 175.701 42.5984 176.401C42.6984 178.001 43.1984 178.702 44.0984 178.702C44.6984 178.702 45.5984 178.502 46.7984 178.102L47.2984 178.301C47.4984 178.501 47.5984 178.802 47.5984 179.102V179.301L47.1984 179.901C46.2984 180.501 45.1984 180.901 43.9984 180.901Z" fill="black"/>
<path d="M59.4031 180.8H59.2031L58.7031 180.5C58.5031 180.1 58.4031 179.7 58.3031 179.3C58.2031 178.9 58.2031 178.4 58.1031 178C57.3031 179 56.5031 179.7 55.8031 180C55.2031 180.2 54.7031 180.4 54.2031 180.4C54.0031 180.4 53.7031 180.4 53.2031 180.3C52.7031 180.2 52.2031 179.9 51.7031 179.2C51.2031 178.5 50.8031 177.8 50.6031 177.1C50.3031 175.9 50.2031 174.4 50.2031 172.7C50.2031 172.3 50.2031 171.8 50.2031 171.2C50.2031 170.6 50.4031 170.2 50.6031 169.8C50.8031 169.6 51.1031 169.5 51.4031 169.5H51.5031L52.0031 169.8C52.2031 170 52.3031 170.3 52.3031 170.6V170.8C52.2031 172.3 52.1031 173.4 52.1031 174.2C52.1031 176.1 52.5031 177.4 53.2031 178.1C53.5031 178.4 53.8031 178.5 54.1031 178.5C54.2031 178.5 54.5031 178.4 54.8031 178.3C55.1031 178.2 55.6031 177.8 56.2031 177C56.8031 176.2 57.1031 175.2 57.3031 174.1C57.5031 172.9 57.7031 171.8 58.1031 170.6C58.3031 170.4 58.6031 170.4 58.9031 170.4C59.0031 170.4 59.2031 170.5 59.6031 170.6C59.8031 171 59.9031 171.4 59.9031 171.8C59.9031 172 59.9031 172.2 59.8031 172.3C59.8031 175.2 59.9031 177.1 60.0031 177.8C60.1031 178.6 60.2031 179.3 60.3031 180L60.0031 180.5C60.0031 180.7 59.7031 180.8 59.4031 180.8Z" fill="black"/>
<path d="M68.1969 180.501C67.5969 180.401 66.9969 180.201 66.4969 180.001C65.9969 179.801 65.3969 179.302 64.7969 178.602C64.1969 177.902 63.7969 177.001 63.5969 175.901C63.3969 174.901 63.2969 174.002 63.2969 173.202V172.202C63.3969 170.702 63.7969 169.602 64.5969 168.702C65.5969 167.602 66.6969 167.102 67.9969 167.102C68.0969 167.102 68.3969 167.102 68.7969 167.202C69.1969 167.202 69.5969 167.301 70.0969 167.501C70.5969 167.701 71.1969 168.201 71.8969 169.001C72.5969 169.801 73.0969 170.801 73.1969 171.801C73.3969 172.801 73.3969 173.501 73.3969 174.001C73.3969 174.401 73.2969 174.701 72.9969 174.801C72.7969 174.901 70.1969 175.002 65.2969 175.102C65.4969 176.302 65.8969 177.202 66.4969 177.702C67.1969 178.402 67.9969 178.702 68.7969 178.702C68.8969 178.702 69.0969 178.702 69.3969 178.702C69.6969 178.702 70.0969 178.502 70.5969 178.202C71.0969 177.902 71.5969 177.701 72.0969 177.501L72.5969 177.801C72.7969 178.001 72.8969 178.302 72.8969 178.602V178.801L72.5969 179.301C71.7969 179.901 71.0969 180.301 70.3969 180.501C69.6969 180.401 68.8969 180.501 68.1969 180.501ZM64.9969 173.001L71.1969 172.702C71.0969 171.402 70.7969 170.401 70.1969 169.801C69.5969 169.201 68.7969 169.001 67.9969 169.001C67.7969 169.001 67.4969 169.002 67.1969 169.102C66.8969 169.202 66.4969 169.401 66.0969 169.801C65.6969 170.201 65.4969 170.602 65.2969 171.102C65.0969 171.602 65.0969 172.201 64.9969 173.001Z" fill="black"/>
<path d="M93.8984 180.702H93.6984L93.1984 180.401C92.9984 180.201 92.8984 180.002 92.8984 179.702L92.9984 169.602C90.6984 165.902 89.0984 163.201 88.3984 161.501L88.6984 161.001C88.8984 160.801 89.1984 160.702 89.4984 160.702H89.6984L90.1984 161.001C90.7984 162.101 91.3984 163.102 92.0984 164.102C92.7984 165.102 93.3984 166.102 93.9984 167.202L98.2984 160.901C98.5984 160.701 98.7984 160.602 99.1984 160.602C99.2984 160.602 99.5984 160.701 99.8984 160.901C100.098 161.101 100.098 161.402 100.098 161.702V161.901C99.8984 162.201 98.2984 164.901 95.1984 170.001L95.0984 180.001L94.7984 180.501C94.4984 180.601 94.1984 180.702 93.8984 180.702Z" fill="black"/>
<path d="M106.698 180.401C105.898 180.401 105.198 180.301 104.598 180.101C104.098 179.901 103.698 179.601 103.198 179.001C102.298 177.901 101.898 176.601 101.898 174.901V174.001C101.998 172.201 102.498 170.801 103.498 169.701C104.598 168.401 105.898 167.801 107.398 167.801C107.598 167.801 107.998 167.801 108.598 167.901C109.198 168.001 109.798 168.401 110.598 169.201C111.398 170.001 111.798 170.701 111.898 171.201C112.098 172.401 112.198 173.301 112.198 173.901C112.198 174.201 112.198 174.701 112.098 175.301C111.998 176.801 111.398 178.101 110.398 179.101C109.498 179.901 108.298 180.401 106.698 180.401ZM106.698 178.401C107.398 178.401 108.098 178.201 108.698 177.901C109.298 177.601 109.598 177.101 109.898 176.601C110.198 175.801 110.298 174.901 110.298 173.901C110.298 173.601 110.298 173.101 110.198 172.601C110.098 172.101 109.898 171.501 109.598 170.901C109.298 170.301 108.798 169.901 108.398 169.801C108.198 169.701 107.998 169.701 107.798 169.701C107.498 169.701 107.098 169.801 106.698 169.901C106.198 170.001 105.698 170.401 105.198 171.101C104.598 171.801 104.298 172.401 104.198 173.101C104.098 173.601 104.098 174.101 104.098 174.601C104.098 175.301 104.198 176.001 104.498 176.801C104.498 177.901 105.298 178.401 106.698 178.401Z" fill="black"/>
<path d="M124.1 180.8H124L123.5 180.5C123.3 180.1 123.2 179.7 123.1 179.3C123 178.9 123 178.4 122.9 178C122.1 179 121.3 179.7 120.6 180C120 180.2 119.5 180.4 119 180.4C118.8 180.4 118.5 180.4 118 180.3C117.5 180.2 117 179.9 116.5 179.2C116 178.5 115.6 177.8 115.4 177.1C115.1 175.9 115 174.4 115 172.7C115 172.3 115 171.8 115 171.2C115 170.6 115.2 170.2 115.4 169.8C115.6 169.6 115.9 169.5 116.2 169.5H116.3L116.8 169.8C117 170 117.1 170.3 117.1 170.6V170.8C117 172.3 116.9 173.4 116.9 174.2C116.9 176.1 117.3 177.4 118 178.1C118.3 178.4 118.6 178.5 118.9 178.5C119 178.5 119.3 178.4 119.6 178.3C119.9 178.2 120.4 177.8 121 177C121.6 176.2 121.9 175.2 122.1 174.1C122.3 172.9 122.5 171.8 122.9 170.6C123.1 170.4 123.4 170.4 123.7 170.4C123.8 170.4 124 170.5 124.4 170.6C124.6 171 124.7 171.4 124.7 171.8C124.7 172 124.7 172.2 124.6 172.3C124.6 175.2 124.7 177.1 124.8 177.8C124.9 178.6 125 179.3 125.1 180L124.8 180.5C124.7 180.7 124.4 180.8 124.1 180.8Z" fill="black"/>
<path d="M130.498 180.401H130.298L129.798 180.101C129.398 178.301 129.098 176.401 128.898 174.501C128.698 172.601 128.598 170.701 128.398 168.801C128.498 168.201 128.798 167.801 129.498 167.801H129.698L130.198 168.101C130.398 168.901 130.498 169.701 130.598 170.501C130.698 171.301 130.698 172.101 130.798 173.001C131.098 172.501 131.498 172.001 131.998 171.601C132.498 171.201 132.898 170.901 133.498 170.601C134.098 170.301 134.598 170.301 135.098 170.301C135.698 170.301 136.198 170.301 136.798 170.201L137.298 170.401C137.498 170.601 137.598 170.901 137.598 171.201V171.401L137.298 171.901C136.698 172.001 135.998 172.101 135.298 172.101C134.098 172.201 132.998 173.201 132.198 175.001C131.798 175.901 131.498 177.001 131.498 178.301L131.598 179.801L131.298 180.301C131.098 180.301 130.798 180.401 130.498 180.401Z" fill="black"/>
<path d="M159.798 180.101C159.098 180.001 158.498 179.901 157.998 179.601C157.498 179.301 156.798 178.8 156.098 177.9C155.298 177.1 154.798 176 154.398 174.5C154.098 173.2 153.898 172.001 153.898 170.701C153.898 170.501 153.898 170.1 153.898 169.4C153.898 168.7 154.098 167.8 154.298 166.8C154.598 165.8 154.998 165 155.498 164.4C156.398 163.4 157.298 162.7 158.098 162.3C158.798 162 159.498 161.9 160.398 161.9C160.698 161.9 161.098 161.9 161.498 162C161.898 162.1 162.398 162.301 162.898 162.701C163.198 163.001 163.298 163.301 163.298 163.701V163.8L162.998 164.3C162.798 164.5 162.498 164.601 162.198 164.601H161.998C161.198 164.101 160.598 163.9 160.098 163.9C159.598 163.9 158.998 164.201 158.198 164.701C157.598 165.201 157.098 165.7 156.698 166.3C156.098 167.2 155.698 168.6 155.698 170.4C155.698 170.8 155.698 171.301 155.798 172.101C155.898 172.801 155.998 173.6 156.298 174.5C156.598 175.4 156.898 176.101 157.398 176.601C157.898 177.101 158.298 177.501 158.698 177.701C159.098 177.901 159.498 178.101 159.998 178.101C159.998 178.101 160.198 178.101 160.398 178.101C160.598 178.101 161.098 177.8 161.698 177.4L162.298 177.3L162.798 177.601C162.998 177.801 163.098 178.1 163.098 178.4V178.601C162.298 179.501 161.598 180.001 161.198 180.101C160.698 180.001 160.198 180.101 159.798 180.101Z" fill="black"/>
<path d="M175.297 180.8H175.097L174.597 180.5C174.397 180.2 174.197 179.9 174.197 179.5V179.4C174.397 178.7 174.497 177.601 174.497 176.101C174.497 174.601 174.397 173.5 174.297 172.9C174.197 172.3 173.897 171.701 173.497 171.201C173.197 170.901 172.897 170.701 172.497 170.701C172.297 170.701 171.897 170.8 171.497 170.9C170.997 171 170.597 171.501 170.297 172.201C169.997 172.901 169.697 173.6 169.397 174.3C169.097 175 168.897 175.7 168.897 176.4L168.997 179.5L168.797 180C168.597 180.2 168.297 180.3 167.997 180.3H167.797L167.297 180C167.097 179.5 166.897 179 166.897 178.4C166.797 177.8 166.797 172.6 166.797 162.9C166.897 162.3 167.197 161.9 167.897 161.9H168.097L168.597 162.201L168.897 162.701V170.701C169.197 170.301 169.497 170.001 169.897 169.701C170.597 169.001 171.397 168.601 172.297 168.601C172.597 168.601 172.897 168.7 173.497 168.8C174.097 168.9 174.597 169.3 175.197 169.9C175.797 170.5 176.197 171.201 176.397 172.101C176.597 172.901 176.697 174 176.697 175.4C176.697 175.5 176.697 176 176.697 176.9C176.697 177.8 176.697 178.5 176.697 179C176.697 179.5 176.597 180 176.297 180.4C175.897 180.7 175.597 180.8 175.297 180.8Z" fill="black"/>
<path d="M184.1 167.801C183.7 167.701 183.3 167.501 183 167.201C182.7 166.901 182.5 166.401 182.5 166.001C182.5 165.901 182.5 165.801 182.5 165.501C182.5 165.201 182.7 164.901 183.1 164.601C183.4 164.301 183.7 164.201 184 164.201C184.5 164.201 185 164.401 185.5 164.901C185.8 165.201 185.9 165.601 185.9 165.901C185.9 166.001 185.9 166.201 185.8 166.501C185.7 166.801 185.6 167.101 185.2 167.401C185 167.601 184.6 167.701 184.1 167.801ZM184.7 180.101H184.5L184 179.901C183.7 177.501 183.4 174.401 183.4 170.601C183.5 170.001 183.8 169.601 184.5 169.601H184.7L185.2 169.901C185.5 173.001 185.8 176.201 185.8 179.401L185.5 179.901C185.3 180.001 185 180.101 184.7 180.101Z" fill="black"/>
<path d="M199.303 180.901C198.603 180.901 197.903 180.501 197.203 179.801C196.603 179.201 196.203 178.302 196.003 177.202C195.803 176.402 195.703 174.902 195.703 172.602V164.501C195.703 163.501 195.703 162.801 195.703 162.401C195.903 161.801 196.203 161.602 196.603 161.602C197.203 161.602 197.503 161.901 197.703 162.501V173.301C197.703 174.701 197.803 175.701 197.903 176.401C198.003 178.001 198.503 178.702 199.403 178.702C200.003 178.702 200.903 178.502 202.103 178.102L202.603 178.301C202.803 178.501 202.903 178.802 202.903 179.102V179.301L202.503 179.901C201.503 180.501 200.503 180.901 199.303 180.901Z" fill="black"/>
<path d="M214.5 180.501H214.4L213.9 180.201C213.7 179.901 213.6 179.601 213.6 179.201C212.4 179.601 211.5 179.801 210.9 179.801C209 179.801 207.6 179.201 206.7 178.101C205.9 177.101 205.5 175.901 205.5 174.401C205.5 172.401 206 170.901 207.1 169.901C208 169.101 209.2 168.601 210.6 168.601C211.6 168.601 212.4 168.701 213.2 169.001L213 161.801C213.1 161.201 213.4 160.801 214.1 160.801H214.3L214.8 161.101C215 161.501 215.1 161.901 215.1 162.301C215.1 162.701 215.3 168.501 215.8 179.601L215.5 180.101C215.1 180.401 214.8 180.501 214.5 180.501ZM210.6 177.801C210.8 177.801 211.1 177.801 211.5 177.701C211.9 177.601 212.5 177.401 213.3 176.901L213.1 171.401C212 170.801 211.1 170.601 210.4 170.601C209.5 170.601 208.8 170.901 208.3 171.401C207.6 172.101 207.2 173.101 207.2 174.301C207.2 175.401 207.5 176.301 208.1 176.901C208.8 177.501 209.6 177.801 210.6 177.801Z" fill="black"/>
<path d="M218.703 165.5C218.403 165.4 218.203 165.101 218.203 164.601C218.203 164.301 218.303 164.1 218.603 163.9C219.203 163.8 219.703 163.5 220.103 162.9H220.003C219.503 162.9 219.003 162.701 218.703 162.201C218.403 161.701 218.203 161.3 218.203 160.9C218.203 160.9 218.203 160.7 218.203 160.5C218.203 160.3 218.403 160.001 218.803 159.701C219.103 159.501 219.403 159.4 219.803 159.4C219.903 159.4 220.203 159.4 220.603 159.5C221.003 159.6 221.303 159.9 221.703 160.4C221.903 160.8 222.103 161.201 222.103 161.701C222.103 161.901 222.103 162.3 222.003 162.8C221.903 163.3 221.603 163.8 221.003 164.4C220.303 165 219.503 165.4 218.703 165.5Z" fill="black"/>
<path d="M235.897 180.701C235.297 180.701 234.797 180.501 234.297 180.201C233.897 180.001 233.497 179.801 233.097 179.601C232.897 179.301 232.797 179.001 232.697 178.701C232.797 178.001 233.097 177.701 233.797 177.701H233.997C234.397 177.901 234.897 178.2 235.297 178.4C235.597 178.6 235.897 178.701 236.297 178.701C237.197 178.701 237.897 178.4 238.497 177.9C238.797 177.6 238.997 177.3 238.997 176.9C238.997 176.8 238.997 176.7 238.897 176.4C238.797 176.2 238.497 176 237.897 175.8C237.297 175.7 236.497 175.501 235.697 175.201C234.897 174.901 234.197 174.5 233.597 174C232.697 173.1 232.297 172.201 232.297 171.201L232.397 170.601C232.497 169.901 232.997 169.001 233.897 168.201C234.797 167.301 235.797 166.9 236.897 166.9C237.097 166.9 237.397 166.9 237.797 167C238.197 167.1 238.697 167.301 239.197 167.701C239.597 168.101 239.797 168.5 239.797 168.9C239.797 169 239.697 169.2 239.497 169.5C239.297 169.7 238.997 169.8 238.697 169.8H238.497C237.697 169.2 237.097 168.9 236.597 168.9C236.497 168.9 236.397 168.9 236.097 169C235.797 169 235.497 169.2 235.097 169.5C234.697 169.8 234.397 170.3 234.197 170.8C234.097 171 234.097 171.2 234.097 171.4C234.097 171.7 234.197 172.1 234.497 172.4C234.797 172.7 235.097 173.001 235.497 173.201C235.897 173.401 236.497 173.601 237.397 173.701C238.297 173.801 238.997 174.201 239.597 174.601C240.197 175.101 240.597 175.601 240.697 176.201C240.797 176.501 240.797 176.7 240.797 177C240.797 177.3 240.797 177.701 240.697 178.101C240.597 178.501 240.297 179 239.797 179.4C238.997 180.3 237.597 180.701 235.897 180.701Z" fill="black"/>
<path d="M260.603 180.401C259.603 180.401 258.803 180.201 258.203 179.801C258.003 179.601 257.903 179.301 257.903 179.001V178.901L258.203 178.401C258.403 178.201 258.603 178.101 259.003 178.101H259.203C259.803 178.401 260.303 178.501 260.903 178.501C261.003 178.501 261.303 178.501 261.703 178.401C262.103 178.301 262.603 178.301 263.003 178.201C263.503 178.101 264.003 177.701 264.503 177.201C264.903 176.701 265.103 176.201 265.103 175.601C265.103 175.501 265.103 175.201 265.003 174.801C264.903 174.401 264.603 173.901 263.903 173.401C263.203 172.901 262.503 172.401 261.603 172.101C260.803 171.701 260.003 171.201 259.403 170.601C258.303 169.501 257.703 168.201 257.703 166.701C257.703 166.601 257.703 166.301 257.703 165.901C257.703 165.501 257.903 165.001 258.203 164.401C258.503 163.801 258.903 163.301 259.403 162.801C260.103 162.101 261.003 161.801 262.303 161.801C263.303 161.801 264.103 162.001 264.803 162.401C265.003 162.701 265.103 163.001 265.103 163.401V163.601L264.803 164.101C264.603 164.301 264.403 164.401 264.003 164.401H263.803C263.103 164.101 262.503 163.901 262.003 163.901C261.403 163.901 260.903 164.101 260.403 164.501C259.703 165.201 259.403 165.901 259.403 166.701C259.403 166.801 259.403 166.901 259.403 167.201C259.403 167.501 259.503 167.801 259.703 168.201C259.903 168.601 260.203 169.001 260.703 169.501C261.203 170.001 261.903 170.401 262.803 170.701C263.703 171.101 264.503 171.601 265.203 172.301C265.903 173.001 266.403 173.701 266.503 174.501C266.603 175.001 266.703 175.501 266.703 176.001C266.703 176.801 266.603 177.501 266.303 178.101C266.103 178.501 265.703 178.901 265.103 179.401C264.403 180.001 262.803 180.401 260.603 180.401Z" fill="black"/>
<path d="M276.103 180.6C275.403 180.6 274.703 180.2 274.003 179.5C273.403 178.9 273.003 178 272.803 176.9C272.603 175.8 272.503 173.9 272.403 171.2L270.503 171.3L270.003 171C269.803 170.8 269.703 170.5 269.703 170.2V170.1L270.003 169.6C270.303 169.4 270.703 169.3 271.103 169.3H271.603H272.503V168C272.503 166.7 272.603 165.7 272.803 165.3C273.003 165.1 273.303 165 273.603 165H273.803L274.303 165.3C274.503 165.6 274.603 165.9 274.603 166.2V166.5L274.703 169.2L278.803 169.1L279.303 169.3C279.503 169.5 279.603 169.8 279.603 170.1V170.3L279.303 170.8C278.603 171 277.903 171.1 277.203 171.1H276.703C276.003 171.1 275.303 171.1 274.603 171.2C274.703 173.7 274.803 175.3 274.903 176.1C275.003 176.9 275.103 177.5 275.403 177.9C275.603 178.2 275.903 178.4 276.403 178.4C277.003 178.4 277.903 178.2 279.103 177.8L279.603 178C279.803 178.2 279.903 178.5 279.903 178.8V179L279.503 179.6C278.403 180.3 277.303 180.6 276.103 180.6Z" fill="black"/>
<path d="M285.803 180.401H285.603L285.103 180.101C284.703 178.301 284.403 176.401 284.203 174.501C284.103 172.601 283.903 170.701 283.703 168.801C283.803 168.201 284.103 167.801 284.803 167.801H285.003L285.503 168.101C285.703 168.901 285.803 169.701 285.903 170.501C286.003 171.301 286.003 172.101 286.103 173.001C286.403 172.501 286.803 172.001 287.303 171.601C287.803 171.201 288.203 170.901 288.803 170.601C289.403 170.301 289.903 170.301 290.403 170.301C291.003 170.301 291.503 170.301 292.103 170.201L292.603 170.401C292.803 170.601 292.903 170.901 292.903 171.201V171.401L292.603 171.901C292.003 172.001 291.303 172.101 290.603 172.101C289.403 172.201 288.303 173.201 287.503 175.001C287.103 175.901 286.803 177.001 286.803 178.301L286.903 179.801L286.603 180.301C286.303 180.301 286.103 180.401 285.803 180.401Z" fill="black"/>
<path d="M301.002 180.501C300.402 180.401 299.802 180.201 299.302 180.001C298.702 179.801 298.202 179.302 297.602 178.602C297.002 177.902 296.602 177.001 296.402 175.901C296.202 174.901 296.102 174.002 296.102 173.202V172.202C296.202 170.702 296.602 169.602 297.402 168.702C298.402 167.602 299.502 167.102 300.802 167.102C300.902 167.102 301.202 167.102 301.602 167.202C302.002 167.202 302.402 167.301 302.902 167.501C303.402 167.701 304.002 168.201 304.702 169.001C305.402 169.801 305.902 170.801 306.002 171.801C306.202 172.801 306.202 173.501 306.202 174.001C306.202 174.401 306.102 174.701 305.802 174.801C305.602 174.901 303.002 175.002 298.102 175.102C298.302 176.302 298.702 177.202 299.302 177.702C300.002 178.402 300.802 178.702 301.602 178.702C301.702 178.702 301.902 178.702 302.202 178.702C302.502 178.702 302.902 178.502 303.402 178.202C303.902 177.902 304.402 177.701 304.902 177.501L305.402 177.801C305.602 178.001 305.702 178.302 305.702 178.602V178.801L305.402 179.301C304.602 179.901 303.902 180.301 303.202 180.501C302.602 180.401 301.802 180.501 301.002 180.501ZM297.902 173.001L304.102 172.702C304.002 171.402 303.702 170.401 303.102 169.801C302.502 169.201 301.702 169.001 300.902 169.001C300.702 169.001 300.402 169.002 300.102 169.102C299.802 169.202 299.402 169.401 299.002 169.801C298.602 170.201 298.402 170.602 298.202 171.102C298.002 171.602 298.002 172.201 297.902 173.001Z" fill="black"/>
<path d="M317.503 180.501H317.303L316.803 180.201C316.603 179.901 316.503 179.501 316.503 179.101C316.503 179.001 316.503 178.801 316.603 178.701L316.803 176.701C316.803 176.201 316.903 175.701 316.903 175.301C316.903 174.401 316.803 173.701 316.603 173.101C316.203 171.901 315.503 171.301 314.703 171.301C314.603 171.301 314.403 171.301 314.203 171.401C314.003 171.501 313.603 171.701 313.203 172.201C312.803 172.701 312.403 173.201 312.003 173.801C311.603 174.401 311.303 175.101 311.303 175.801C311.303 177.501 311.303 178.501 311.303 179.001L311.103 179.501C310.903 179.701 310.603 179.801 310.303 179.801H310.103L309.603 179.501C309.303 177.801 309.103 176.101 309.003 174.401C308.903 172.701 308.803 171.001 308.703 169.301C308.803 168.601 309.103 168.301 309.803 168.301H310.003L310.503 168.601C310.703 169.101 310.803 169.601 310.803 170.201C310.803 170.801 310.903 171.301 310.903 171.901C311.303 171.401 311.603 171.001 312.003 170.601C312.803 169.701 313.603 169.301 314.603 169.301C314.803 169.301 315.103 169.301 315.603 169.401C316.103 169.501 316.603 169.801 317.103 170.401C317.603 171.001 318.103 171.601 318.403 172.401C318.603 173.001 318.803 173.901 318.803 175.001C318.803 175.201 318.803 175.701 318.703 176.501C318.703 177.301 318.603 178.001 318.603 178.601C318.603 179.201 318.503 179.801 318.303 180.301C318.103 180.401 317.803 180.501 317.503 180.501Z" fill="black"/>
<path d="M326.1 183.9C325.4 183.8 324.8 183.5 324.4 183C323.7 182.2 323.3 181.3 323.3 180.4C323.3 180.3 323.3 180.1 323.3 179.8C323.3 179.5 323.6 179.101 324.2 178.601C324.8 178.101 325.4 177.7 326 177.4C326.6 177.1 327.3 177 328 177L327.9 175.601C326.8 176.301 326 176.601 325.4 176.601C325.3 176.601 325.1 176.6 324.7 176.5C324.4 176.5 324 176.201 323.5 175.701C322.8 175.001 322.5 174.2 322.5 173.3C322.5 173.1 322.5 172.8 322.6 172.4C322.7 172 322.8 171.4 323.1 170.8C323.4 170.2 323.7 169.601 324.2 169.101C324.6 168.701 325.1 168.4 325.5 168.4C325.7 168.4 325.8 168.4 326 168.4C326.3 168.4 326.7 168.4 327.3 168.5C327.8 168.6 328.6 169.101 329.7 170.101C329.9 170.501 330 170.9 330 171.4C330 171.6 330 171.8 329.9 172L330 176.701C330.3 176.601 330.5 176.5 330.8 176.5C330.9 176.5 331.1 176.6 331.5 176.8C331.7 177 331.7 177.301 331.7 177.601V177.8L331.5 178.3C331.1 178.5 330.6 178.701 330 178.701V179.5C330 179.9 330 180.4 329.9 180.9C329.8 181.4 329.4 182.1 328.6 182.8C327.8 183.5 327 183.9 326.1 183.9ZM325.5 174.4C325.9 174.4 326.2 174.301 326.5 174.201C327 173.901 327.3 173.4 327.5 173C327.7 172.6 327.8 172 327.9 171.3C327.7 171 327.4 170.801 327 170.601C326.8 170.501 326.6 170.5 326.4 170.5C325.7 170.5 325.1 170.9 324.8 171.8C324.7 172.2 324.6 172.6 324.6 173C324.6 173.2 324.6 173.5 324.7 173.9C324.8 174.3 325.1 174.4 325.5 174.4ZM326.4 181.9C326.7 181.9 326.9 181.801 327 181.701C327.8 181.101 328.2 180.3 328.2 179.4V179C327 179.2 326.1 179.6 325.6 180.3C325.5 180.5 325.4 180.7 325.4 180.8C325.4 181 325.5 181.2 325.7 181.5C325.9 181.8 326.1 181.9 326.4 181.9Z" fill="black"/>
<path d="M340.798 180.6C340.098 180.6 339.398 180.2 338.698 179.5C338.098 178.9 337.698 178 337.498 176.9C337.298 175.8 337.198 173.9 337.098 171.2L335.198 171.3L334.698 171C334.498 170.8 334.398 170.5 334.398 170.2V170.1L334.698 169.6C334.998 169.4 335.398 169.3 335.798 169.3H336.298H337.198V168C337.198 166.7 337.298 165.7 337.498 165.3C337.698 165.1 337.998 165 338.298 165H338.498L338.998 165.3C339.198 165.6 339.298 165.9 339.298 166.2V166.5L339.398 169.2L343.498 169.1L343.998 169.3C344.198 169.5 344.298 169.8 344.298 170.1V170.3L343.998 170.8C343.298 171 342.598 171.1 341.898 171.1H341.398C340.698 171.1 339.998 171.1 339.298 171.2C339.398 173.7 339.498 175.3 339.598 176.1C339.698 176.9 339.798 177.5 340.098 177.9C340.298 178.2 340.598 178.4 341.098 178.4C341.698 178.4 342.598 178.2 343.798 177.8L344.298 178C344.498 178.2 344.598 178.5 344.598 178.8V179L344.198 179.6C343.098 180.3 341.998 180.6 340.798 180.6Z" fill="black"/>
<path d="M356.5 180.8H356.3L355.8 180.5C355.6 180.2 355.4 179.9 355.4 179.5V179.4C355.6 178.7 355.7 177.601 355.7 176.101C355.7 174.601 355.6 173.5 355.5 172.9C355.4 172.3 355.1 171.701 354.7 171.201C354.4 170.901 354.1 170.701 353.7 170.701C353.5 170.701 353.1 170.8 352.7 170.9C352.2 171 351.8 171.501 351.5 172.201C351.2 172.901 350.9 173.6 350.6 174.3C350.3 175 350.1 175.7 350.1 176.4L350.2 179.5L350 180C349.8 180.2 349.5 180.3 349.2 180.3H349L348.5 180C348.3 179.5 348.1 179 348.1 178.4C348 177.8 348 172.6 348 162.9C348.1 162.3 348.4 161.9 349.1 161.9H349.3L349.8 162.201L350.1 162.701V170.701C350.4 170.301 350.7 170.001 351.1 169.701C351.8 169.001 352.6 168.601 353.5 168.601C353.8 168.601 354.1 168.7 354.7 168.8C355.2 168.9 355.8 169.3 356.4 169.9C357 170.5 357.4 171.201 357.6 172.101C357.8 172.901 357.9 174 357.9 175.4C357.9 175.5 357.9 176 357.9 176.9C357.9 177.8 357.9 178.5 357.9 179C357.9 179.5 357.8 180 357.5 180.4C357 180.7 356.8 180.8 356.5 180.8Z" fill="black"/>
<path d="M365.303 180.701C364.703 180.701 364.203 180.501 363.703 180.201C363.303 180.001 362.903 179.801 362.503 179.601C362.303 179.301 362.203 179.001 362.103 178.701C362.203 178.001 362.503 177.701 363.203 177.701H363.403C363.803 177.901 364.303 178.2 364.703 178.4C365.003 178.6 365.303 178.701 365.703 178.701C366.603 178.701 367.303 178.4 367.903 177.9C368.203 177.6 368.403 177.3 368.403 176.9C368.403 176.8 368.403 176.7 368.303 176.4C368.203 176.2 367.903 176 367.303 175.8C366.703 175.7 365.903 175.501 365.103 175.201C364.303 174.901 363.603 174.5 363.003 174C362.103 173.1 361.703 172.201 361.703 171.201L361.803 170.601C361.903 169.901 362.403 169.001 363.303 168.201C364.203 167.301 365.203 166.9 366.303 166.9C366.503 166.9 366.803 166.9 367.203 167C367.603 167.1 368.103 167.301 368.603 167.701C369.003 168.101 369.203 168.5 369.203 168.9C369.203 169 369.103 169.2 368.903 169.5C368.703 169.7 368.403 169.8 368.103 169.8H367.903C367.103 169.2 366.503 168.9 366.003 168.9C365.903 168.9 365.803 168.9 365.503 169C365.203 169 364.903 169.2 364.503 169.5C364.103 169.8 363.803 170.3 363.603 170.8C363.503 171 363.503 171.2 363.503 171.4C363.503 171.7 363.603 172.1 363.903 172.4C364.203 172.7 364.503 173.001 364.903 173.201C365.303 173.401 365.903 173.601 366.803 173.701C367.703 173.801 368.403 174.201 369.003 174.601C369.603 175.101 370.003 175.601 370.103 176.201C370.203 176.501 370.203 176.7 370.203 177C370.203 177.3 370.203 177.701 370.103 178.101C370.003 178.501 369.703 179 369.203 179.4C368.303 180.3 367.003 180.701 365.303 180.701Z" fill="black"/>
<path d="M19.4969 143.702H19.1969L18.0969 143.102C17.6969 142.602 17.3969 142.101 17.2969 141.501L17.3969 111.401L9.09686 111.501C8.89686 120.001 8.4969 126.202 7.6969 130.202C6.9969 134.202 5.89689 138.101 4.49689 141.801C4.09689 142.101 3.39689 142.301 2.49689 142.301L1.39691 141.801C0.996912 141.301 0.796875 140.702 0.796875 140.102C3.49688 131.602 4.89691 123.401 4.89691 115.401C4.89691 112.501 4.7969 108.801 4.6969 104.501C4.5969 104.201 4.49689 103.902 4.49689 103.702C4.49689 103.102 4.89686 102.501 5.59686 102.001C10.8969 97.6015 14.5969 95.2016 16.6969 94.6016L17.7969 95.2017C18.0969 95.7017 18.2969 96.2014 18.2969 96.9014C18.2969 97.1014 18.0969 97.6013 17.7969 98.3013C16.2969 99.3013 13.2969 101.501 8.89691 105.001L9.09686 107.501L26.1969 107.202L27.2969 107.702C27.5969 108.102 27.7969 108.701 27.7969 109.301C27.7969 109.501 27.5969 110.002 27.2969 110.702C26.4969 111.102 25.5969 111.401 24.5969 111.401C23.5969 111.401 22.5969 111.501 21.5969 111.501V142.202L20.9969 143.301C20.6969 143.501 20.0969 143.702 19.4969 143.702ZM27.8969 120.901H27.5969L26.4969 120.301C26.0969 119.701 25.8969 119.101 25.7969 118.501C28.0969 112.301 29.7969 105.001 30.9969 96.8013C31.3969 96.5013 31.9969 96.3013 32.5969 96.3013C32.7969 96.3013 33.2969 96.5013 34.0969 96.8013C34.4969 97.3013 34.6969 97.9016 34.6969 98.6016L34.0969 103.702L49.7969 103.602C50.9969 103.602 51.4969 104.302 51.4969 105.602C51.4969 106.102 51.1969 107.901 50.4969 111.001C50.1969 112.501 49.6969 113.802 48.9969 115.102C48.4969 115.502 47.7969 115.801 46.8969 115.801L45.7969 115.202C45.3969 114.802 45.1969 114.102 45.1969 113.202C46.0969 111.202 46.5969 109.401 46.6969 107.801H33.3969C32.2969 112.301 30.9969 116.402 29.4969 120.202C28.9969 120.702 28.4969 120.901 27.8969 120.901ZM28.1969 142.602H27.9969L26.8969 142.102C26.4969 141.602 26.2969 140.901 26.2969 140.001C29.4969 135.801 31.7969 131.102 33.3969 126.202C34.9969 121.202 36.1969 116.202 36.9969 111.202C37.4969 110.802 38.1969 110.602 39.0969 110.602L40.1969 111.202C40.5969 111.602 40.7969 112.201 40.7969 112.901C40.2969 116.601 39.3969 120.502 38.2969 124.602C39.3969 126.102 40.5969 127.501 41.8969 128.901C43.1969 130.301 46.2969 133.002 50.9969 137.202C51.4969 137.602 51.7969 138.401 51.7969 139.301L51.1969 140.401C50.7969 140.801 50.0969 141.001 49.1969 141.001C47.4969 139.601 45.7969 138.202 44.0969 136.702C42.3969 135.202 40.9969 133.901 39.7969 132.901C38.5969 131.901 37.5969 130.802 36.6969 129.602C35.3969 133.002 33.0969 137.101 29.8969 142.001C29.4969 142.401 28.8969 142.602 28.1969 142.602Z" fill="black"/>
<path d="M103.297 112.401L102.997 112.301L101.897 111.801C101.497 111.201 101.297 110.601 101.197 109.901L101.797 105.301L63.8969 104.701L64.4969 108.601L63.8969 109.701C63.4969 110.101 62.8969 110.301 62.2969 110.301C62.0969 110.301 61.5969 110.101 60.7969 109.701C60.1969 108.501 59.8969 107.301 59.6969 106.001C59.5969 104.701 59.3969 103.401 59.2969 102.101C59.3969 100.901 60.1969 100.301 61.5969 100.301L70.4969 100.501C69.4969 99.001 68.9969 97.4012 68.7969 95.7012C68.9969 94.3012 69.8969 93.6011 71.4969 93.6011L72.5969 94.2012C73.2969 95.8012 73.6969 97.5012 73.9969 99.2012L73.2969 100.601H79.9969L79.8969 95.001C80.0969 93.601 80.8969 92.9009 82.1969 92.9009C82.3969 92.9009 82.8969 93.101 83.5969 93.501C83.9969 94.001 84.1969 94.6008 84.2969 95.3008V100.801L90.3969 100.901C89.8969 100.201 89.5969 99.5008 89.4969 98.8008C89.9969 96.8008 90.5969 95.0009 91.4969 93.4009C91.9969 93.0009 92.5969 92.8008 93.1969 92.8008C93.3969 92.8008 93.8969 93.0009 94.6969 93.4009C95.0969 93.9009 95.2969 94.401 95.2969 95.001L95.1969 95.6011C94.4969 97.2011 93.7969 99.0009 92.9969 100.901C100.297 100.901 104.397 101.001 105.197 101.201C105.997 101.401 106.397 102.001 106.397 103.101C106.397 103.401 106.297 104.001 106.097 105.001C105.897 106.001 105.797 107.101 105.797 108.401C105.797 109.701 105.497 110.901 104.997 112.001C104.497 112.201 103.897 112.401 103.297 112.401ZM67.5969 143.701C67.0969 143.701 66.6969 143.501 66.4969 143.101C65.9969 142.501 65.7969 142.001 65.7969 141.601C65.7969 140.901 66.4969 140.301 67.7969 139.901C70.1969 139.301 72.2969 138.501 74.0969 137.201C75.8969 136.001 77.6969 133.901 79.5969 131.001C80.2969 129.501 80.6969 128.701 80.6969 128.401C80.6969 127.901 80.8969 127.401 81.3969 127.101C81.9969 126.701 82.5969 126.501 82.9969 126.501C83.7969 126.501 84.4969 127.001 84.9969 128.001C84.9969 128.801 84.5969 130.101 83.6969 132.001C86.5969 133.901 89.0969 135.301 91.0969 136.201C93.0969 137.101 95.7969 138.101 99.2969 139.401C100.097 139.901 100.497 140.501 100.597 141.201C100.597 141.701 100.397 142.101 99.8969 142.501C99.2969 143.001 98.5969 143.301 97.7969 143.301C95.8969 143.301 90.5969 140.701 81.7969 135.501C78.3969 139.801 73.9969 142.501 68.2969 143.701H67.5969ZM92.8969 117.201L71.1969 117.001C70.2969 117.001 69.6969 116.501 69.4969 115.601C69.1969 114.701 68.9969 112.701 68.8969 109.801L68.7969 109.401C68.7969 108.301 69.3969 107.701 70.5969 107.401C85.5969 107.701 93.4969 108.001 94.2969 108.201C95.0969 108.501 95.5969 109.001 95.7969 109.801C95.8969 110.401 95.9969 111.001 95.9969 111.801C95.9969 112.201 95.9969 112.801 95.8969 113.701C95.7969 114.601 95.6969 115.401 95.4969 116.101C95.3969 116.801 94.4969 117.101 92.8969 117.201ZM94.7969 135.901C93.8969 135.901 93.2969 135.601 92.6969 134.901L92.7969 123.601L73.3969 123.301L73.1969 134.201C72.3969 134.801 71.6969 135.101 71.1969 135.101C70.6969 135.101 70.0969 134.801 69.3969 134.201L69.0969 121.701C69.1969 121.101 69.3969 120.601 69.7969 120.201C70.1969 119.801 70.8969 119.601 71.9969 119.601L79.7969 119.501C84.2969 119.501 88.3969 119.601 91.9969 119.701C93.2969 119.701 94.4969 119.901 95.5969 120.301C96.3969 120.901 96.7969 121.801 96.7969 122.801C96.7969 122.901 96.7969 123.201 96.6969 123.801C96.6969 124.401 96.5969 127.901 96.4969 134.301C96.1969 135.401 95.5969 135.901 94.7969 135.901ZM91.4969 113.801V111.201L73.1969 110.501L73.5969 113.801H91.4969Z" fill="black"/>
<path d="M126.097 142.9C125.897 142.9 125.697 142.9 125.497 142.8C124.197 142.5 123.197 141.8 122.297 140.6C121.397 139.9 120.997 139 120.997 137.7L121.597 136.6C121.997 136.2 122.697 136 123.597 136L124.997 136.7C125.197 133.8 125.297 130.9 125.297 128.3C125.297 127 125.297 125.7 125.197 124.4C123.397 124.8 121.797 125.3 120.397 125.7C118.997 126.1 117.497 126.5 115.997 126.7L114.897 126.1C114.497 125.6 114.297 124.9 114.297 124L114.897 122.9C116.597 122.3 118.297 121.8 119.897 121.3C121.597 120.8 123.297 120.3 124.997 119.8C124.597 116.3 123.597 113.4 122.197 111C121.897 110.6 121.697 110.1 121.697 109.7C121.697 109.3 121.997 108.7 122.497 108.2C123.097 107.6 124.797 105.5 127.697 101.9L116.497 102.2L115.297 101.5C114.897 101 114.597 100.3 114.597 99.2998L115.197 98.2002C116.097 97.8002 116.997 97.5 118.097 97.5C118.697 97.5 123.597 97.6001 132.897 97.6001C134.297 97.8001 134.997 98.3 134.997 99C134.997 99.3 134.897 99.7002 134.597 100.2C130.997 104.3 128.497 107.4 126.897 109.5C127.897 112.7 128.697 115.8 129.197 118.7C130.897 118.3 132.397 118.1 133.897 118L134.997 118.6C135.397 119 135.597 119.7 135.597 120.6L134.997 121.7C134.097 122.1 133.197 122.4 132.297 122.5C131.297 122.6 130.397 122.8 129.497 123.1L129.597 129.1C129.597 130.9 129.497 132.7 129.397 134.6C129.297 136.5 129.097 138 128.997 139C128.797 140 128.497 140.9 127.897 141.8C127.197 142.6 126.697 142.9 126.097 142.9ZM139.397 134.7C137.997 134.5 137.297 133.6 137.297 132C139.297 129.8 140.897 127.9 142.197 126.4C143.497 124.9 144.597 123.2 145.697 121.4C142.697 119.1 140.697 117.7 139.797 117.2C139.197 116.9 138.797 116.4 138.797 115.8C138.797 115.4 140.297 112.1 143.197 105.9L135.197 106.1L134.097 105.5C133.697 105 133.397 104.3 133.397 103.4L133.997 102.3C135.897 101.9 137.997 101.6 140.197 101.6C142.397 101.6 144.497 101.5 146.497 101.3L146.197 97.1001C146.297 95.7001 147.097 95 148.797 95L149.897 95.6001C150.397 96.3001 150.597 97.2001 150.597 98.1001C150.597 99.5001 150.697 100.5 150.797 101.3L160.597 101.4L161.697 102C162.097 102.4 162.297 103.1 162.297 104L161.697 105.2L160.497 105.8L147.697 105.7L143.797 114.8L148.197 118C149.297 116.7 150.397 114.8 151.597 112.2C151.997 111.9 152.597 111.7 153.197 111.7C153.397 111.7 153.897 111.9 154.697 112.2C155.097 112.7 155.297 113.3 155.297 113.9L155.197 114.5C154.097 116.8 152.697 119.1 151.097 121.2C149.497 123.3 148.097 125.3 146.897 127.2C145.697 129.1 143.697 131.5 141.097 134.3C140.697 134.4 140.097 134.6 139.397 134.7ZM140.697 142.4L139.597 141.9C139.297 141.4 139.097 140.8 139.097 140.2C139.097 140 139.297 139.5 139.597 138.7C140.597 138.2 141.497 137.5 142.297 136.8C143.097 136 144.097 135 145.397 133.6C149.497 129.1 152.397 125 154.097 121.2L156.297 116.2C156.697 115.8 157.397 115.6 158.297 115.6L159.397 116.2C159.797 116.7 159.997 117.3 159.997 118C159.997 118.7 159.197 120.8 157.497 124.4C156.597 126.3 155.497 128.1 154.197 129.8C155.097 131 155.997 132.2 156.897 133.3C157.797 134.5 158.797 135.5 159.797 136.5C160.797 137.5 161.297 138.6 161.397 139.9L160.797 141C160.297 141.4 159.597 141.6 158.697 141.6C156.497 139.4 153.997 136.7 151.197 133.4C149.997 135.4 147.597 138 143.997 141.1C143.097 141.8 141.997 142.3 140.697 142.4Z" fill="black"/>
<path d="M194.194 142.702C192.094 142.002 189.794 140.302 187.094 137.702C186.694 137.302 186.494 136.602 186.494 135.702L187.094 134.602C187.494 134.202 188.094 134.001 188.694 134.001C189.394 134.001 190.194 134.502 191.294 135.602C191.994 136.302 192.694 136.901 193.494 137.301L194.594 134.102C194.994 132.602 195.294 130.602 195.294 128.102C195.294 126.302 195.194 124.201 194.994 121.801L172.894 122.102L171.794 121.501C171.394 121.001 171.094 120.301 171.094 119.401L171.694 118.301C172.694 117.801 173.694 117.602 174.894 117.602L175.794 117.702L193.994 117.401C193.594 116.301 193.194 115.301 192.894 114.401C192.594 113.401 191.794 112.301 190.594 111.001C190.194 110.401 189.994 109.801 189.994 109.301C189.994 108.801 190.194 108.301 190.594 107.801C192.094 106.901 193.394 105.801 194.594 104.501C195.794 103.201 197.094 101.901 198.294 100.901L181.694 101.202C180.294 101.002 179.594 100.201 179.594 98.9014V98.6016L180.194 97.5015C181.494 97.0015 182.894 96.7016 184.294 96.6016H203.794C205.094 96.8016 205.794 97.3017 205.794 98.2017C205.794 98.5017 205.694 98.9014 205.494 99.4014C203.294 102.201 201.494 104.201 199.994 105.401C198.494 106.601 196.994 108.002 195.694 109.602L198.894 117.401L215.894 117.301L217.094 118.001C217.494 118.501 217.694 119.202 217.694 120.102L217.094 121.202C215.894 121.602 214.694 121.901 213.394 121.901C212.694 121.901 208.094 121.801 199.594 121.801C199.794 123.701 199.894 125.402 199.894 127.102C199.894 128.202 199.794 129.601 199.594 131.401C199.394 133.201 199.094 135.001 198.594 136.901C198.094 138.701 197.394 140.102 196.594 141.102C195.594 142.102 194.794 142.702 194.194 142.702Z" fill="black"/>
<path d="M241.595 133.001L234.295 132.901L227.295 133.001C226.395 133.001 225.895 132.601 225.795 131.901C225.695 131.201 225.495 123.001 225.195 107.401C225.195 105.701 225.895 104.701 227.095 104.501C227.495 104.501 227.895 104.401 228.295 104.401C229.295 104.401 230.595 104.501 232.195 104.701C232.595 103.201 233.195 101.901 233.995 100.701C234.795 99.5012 235.495 98.301 236.095 97.001C236.495 96.601 237.195 96.4009 238.095 96.4009L239.195 97.001C239.595 97.401 239.795 97.9011 239.795 98.6011C239.795 99.3011 239.295 100.501 238.395 102.001C237.795 102.901 237.395 103.901 236.895 104.901C240.895 104.901 243.295 105.001 243.995 105.201C244.795 105.401 245.095 106.201 245.095 107.701V108.301C244.795 123.101 244.495 131.001 244.295 131.801C243.995 132.601 243.095 133.001 241.595 133.001ZM229.595 115.301L240.395 115.201L240.595 109.201L229.395 108.901L229.595 115.301ZM230.095 128.601L240.295 128.501L240.395 119.401L229.795 119.501L230.095 128.601ZM268.395 143.001C267.595 143.001 266.795 142.501 265.795 141.501C264.195 139.901 262.695 138.501 261.595 137.501C260.895 136.901 260.495 136.101 260.495 135.001L261.095 133.901C261.495 133.501 262.195 133.301 263.095 133.301C264.095 133.801 265.495 135.001 267.295 136.901C267.895 132.201 268.495 127.301 268.895 122.201C269.295 117.101 269.795 112.301 270.195 107.901L254.095 107.801C253.895 109.401 253.595 110.801 253.095 112.001C252.695 113.201 252.095 114.501 251.495 115.901C251.095 116.301 250.395 116.501 249.495 116.501L248.395 115.901C247.995 115.501 247.795 114.901 247.795 114.301L247.895 113.701C249.095 111.101 249.895 108.101 250.395 104.801C250.895 101.401 251.595 98.1008 252.595 94.8008C252.995 94.4008 253.695 94.2012 254.595 94.2012L255.695 94.8008C256.095 95.2008 256.295 95.7009 256.295 96.4009L256.195 97.001C255.695 98.901 255.195 101.001 254.895 103.501L272.795 103.601C273.895 103.601 274.395 104.401 274.495 105.901C273.795 114.001 273.295 120.701 272.895 126.101C272.495 131.501 271.895 135.701 271.095 138.701C270.195 141.601 269.395 143.001 268.395 143.001ZM260.695 126.001H260.395L259.295 125.501L255.095 120.701C254.695 120.301 254.495 119.601 254.495 118.701L255.095 117.601C255.495 117.201 256.095 117.001 256.695 117.001C256.995 117.001 257.495 117.201 258.295 117.601L262.195 122.301C262.695 122.801 262.995 123.501 262.995 124.401L262.395 125.501C261.895 125.801 261.295 126.001 260.695 126.001Z" fill="black"/>
<path d="M290.597 142.601C289.997 142.601 289.297 142.2 288.497 141.3L288.297 113L284.497 120.4C284.097 121.7 283.497 122.3 282.597 122.3C282.097 122.3 281.597 122.101 280.897 121.701C280.497 121.201 280.297 120.6 280.297 120C280.297 118.8 284.697 110.5 293.497 95.0005C294.197 93.6005 294.997 92.9004 295.897 92.9004C297.197 93.2004 297.897 93.8004 297.897 94.9004C297.897 95.3004 297.797 95.7006 297.697 96.1006L292.697 106.3L292.597 141.3C291.897 142.2 291.197 142.601 290.597 142.601ZM299.097 144.101C297.797 144.001 297.097 143.301 296.997 142.101C297.197 141.201 297.597 140.4 298.197 139.8C299.597 137.8 301.097 135.4 302.597 132.8C304.097 130.2 305.397 127.501 306.297 124.601C307.197 121.801 307.897 119.4 308.197 117.5C308.597 115.6 308.897 113.5 309.097 111.3L300.397 110.8L299.297 110.9C298.297 110.9 297.297 110.701 296.397 110.201C295.997 109.701 295.797 109.2 295.797 108.8C295.797 108.3 295.997 107.8 296.497 107.3C296.797 107.1 296.997 106.901 297.197 106.701L309.397 107.201C309.597 104.901 309.697 102.4 309.797 99.8003C309.897 97.2003 310.197 95.8004 310.797 95.4004C311.197 95.0004 311.697 94.7007 312.097 94.7007C312.597 94.7007 313.097 94.9004 313.597 95.4004C313.997 95.7004 314.197 96.2007 314.197 96.7007C314.197 96.9007 314.197 97.1004 314.097 97.4004C313.997 99.0004 313.897 100.5 313.897 102C313.897 103.5 313.797 105.201 313.597 107.101C320.897 107.101 325.497 107.101 327.397 107.201C328.497 107.701 328.997 108.301 328.997 109.201C328.997 109.901 328.697 110.7 327.997 111.3L313.597 111.101C313.397 112.201 313.197 113.201 312.897 114.101C315.197 114.701 316.497 115.501 316.997 116.601C317.497 117.701 317.697 118.8 317.797 119.8C317.797 120.5 317.897 121.4 317.897 122.5C317.897 125.1 317.797 127.7 317.497 130.3C317.397 131 317.397 131.601 317.397 132.201C317.397 133.601 317.597 134.901 318.097 136.201C318.597 137.501 319.697 138.2 321.597 138.3C323.397 138.4 324.997 138.501 326.197 138.601C326.197 137.301 326.197 136.5 326.097 136C326.097 135.3 326.297 134.701 326.797 134.201C327.297 133.701 327.697 133.4 328.197 133.4C328.697 133.4 329.197 133.601 329.597 134.101C330.197 135.001 330.497 136.6 330.497 138.8C330.497 140 330.197 141.101 329.497 142.101C327.997 142.501 326.497 142.8 324.897 142.8C322.697 142.8 320.397 142.5 317.897 141.8C314.797 141 313.197 138.5 313.197 134.3C313.197 132.5 313.297 130.801 313.497 129.101C313.797 126.301 313.997 124.1 313.997 122.4C313.997 119.6 313.397 118.201 312.297 118.101C312.097 119.401 311.497 121.601 310.697 124.701C309.797 127.801 308.697 130.601 307.297 133.201C305.897 135.801 303.897 138.8 301.297 142.4C300.797 143.5 299.997 144.001 299.097 144.101ZM322.597 104.9C321.897 104.9 321.297 104.501 320.797 103.601C319.897 102.101 318.797 100.901 317.597 99.7007C316.997 99.2007 316.797 98.6006 316.797 98.1006C316.797 97.7006 316.997 97.2007 317.397 96.7007C317.897 96.3007 318.397 96.0005 318.997 96.0005C319.597 96.0005 320.197 96.3003 320.697 96.8003L322.897 99.2007C324.097 100.201 324.697 101.2 324.697 102.4C324.697 103 324.597 103.601 324.297 104.201C323.597 104.701 323.097 104.9 322.597 104.9Z" fill="black"/>
<path d="M342.5 141.601H342.2L341.1 141.001C340.7 140.501 340.5 139.801 340.5 138.901C341 137.901 341.4 136.901 341.6 135.901C341.8 134.901 342.1 133.901 342.6 132.901C343 132.501 343.7 132.301 344.6 132.301L345.7 132.901C346.1 133.401 346.3 134.001 346.3 134.601L346.2 135.201C345.6 137.801 345 139.701 344.1 141.001C343.7 141.401 343.1 141.601 342.5 141.601ZM349.2 128.401C348.1 128.401 347.5 127.601 347.3 126.101C347.1 124.601 346.9 122.601 346.7 120.101L346 112.501C346 111.401 346.4 110.801 347.2 110.601C348 110.401 351.9 110.301 358.9 110.301L358.1 95.8008C358.3 94.4008 359.2 93.7012 360.7 93.7012L361.8 94.3008L362.4 95.4009V100.501C364.4 100.601 366.5 100.701 368.5 100.701C370.5 100.701 372.6 100.901 374.4 101.401C374.8 101.801 375 102.501 375 103.401L374.4 104.501C373.5 105.001 372.5 105.201 371.4 105.201C371 105.201 370.6 105.201 370.2 105.101L362.6 104.801L363.1 110.301H373.7C374.7 110.301 375.2 111.101 375.2 112.801C374.8 121.901 374.6 126.601 374.5 126.901C374.4 127.701 373.8 128.101 372.7 128.201L349.2 128.401ZM370.4 123.901L370.7 114.501H350.5L351.6 123.801L370.4 123.901ZM355.2 142.501H354.9L353.8 142.001C353.2 140.801 352.7 138.101 352.4 134.001L353 132.901C353.4 132.501 354.1 132.301 355 132.301L356.1 132.901C356.7 134.101 357.1 135.401 357.2 136.801C357.3 138.201 357.5 139.501 357.7 140.801L357 142.001C356.4 142.301 355.8 142.501 355.2 142.501ZM367.8 142.201C367.2 142.101 366.7 141.901 366.3 141.601C365.5 139.401 364.8 137.001 364.1 134.401L364.7 133.301C365.1 133.001 365.8 132.801 366.7 132.801L367.8 133.301C368.7 134.801 369.5 137.201 370.2 140.501L369.7 141.601C369.1 141.901 368.5 142.201 367.8 142.201ZM380 141.301C379.4 141.201 378.9 141.001 378.5 140.601C377.8 139.401 377 138.301 376.2 137.201C375.4 136.101 374.8 134.801 374.5 133.501L375.1 132.401C375.6 132.001 376.3 131.801 377.2 131.801L378.3 132.401C378.9 133.601 379.7 134.701 380.5 135.901C381.3 137.001 381.9 138.201 382.2 139.601L381.6 140.701C381.2 141.001 380.6 141.201 380 141.301Z" fill="black"/>
<path d="M205.807 48.126C215.094 40.1198 216.131 26.1015 208.125 16.8152C200.119 7.52892 186.101 6.4913 176.814 14.4976C167.528 22.5038 166.49 36.5221 174.497 45.8084C182.503 55.0947 196.521 56.1323 205.807 48.126Z" fill="#393939"/>
<path opacity="0.45" d="M193.006 12.5603C201.506 12.5603 208.806 17.2603 212.606 24.2603C209.606 15.4603 201.306 9.16016 191.606 9.16016C179.306 9.16016 169.406 19.0601 169.406 31.3601C169.406 35.1601 170.406 38.7601 172.006 41.8601C171.206 39.6601 170.806 37.1602 170.806 34.6602C170.806 22.4602 180.806 12.5603 193.006 12.5603Z" fill="#B17F55"/>
<path opacity="0.5" d="M203.93 46.2615C212.19 39.1797 213.145 26.7427 206.063 18.4826C198.981 10.2225 186.544 9.26734 178.284 16.3491C170.024 23.4309 169.069 35.868 176.151 44.1281C183.233 52.3882 195.67 53.3433 203.93 46.2615Z" stroke="#393939" stroke-width="0.8656" stroke-miterlimit="10"/>
<path opacity="0.5" d="M191.203 48.959C200.868 48.959 208.703 41.124 208.703 31.459C208.703 21.794 200.868 13.959 191.203 13.959C181.538 13.959 173.703 21.794 173.703 31.459C173.703 41.124 181.538 48.959 191.203 48.959Z" fill="#393939"/>
<path d="M195.797 26.1594L191.497 18.3594L191.297 31.0596L195.797 26.1594Z" fill="#A11B00"/>
<path d="M191.297 31.3601V31.4602H204.797L195.997 26.5603L195.797 26.1602L191.297 31.0603V31.3601Z" fill="#EEDFA5"/>
<path d="M191.303 31.0605L191.203 31.2605L191.303 31.3604V31.0605Z" fill="#EEDFA5"/>
<path d="M191.2 31.2598L191 31.4597H191.3V31.3596L191.2 31.2598Z" fill="#EEDFA5"/>
<path d="M191.302 31.0598L191.502 18.3596L191.202 17.7598L186.602 26.1597L191.202 31.2598L191.302 31.0598Z" fill="#D23D14"/>
<path d="M191.302 31.459L191.102 44.8589L191.202 45.0591L195.902 36.5591L191.302 31.459Z" fill="#EEDFA5"/>
<path d="M204.797 31.459H191.297L195.897 36.5591L195.997 36.259L204.797 31.459Z" fill="#CEC095"/>
<path d="M191 31.459L186.5 36.459L191.1 44.8589L191.3 31.459H191Z" fill="#CEC095"/>
<path d="M177.6 31.459H177.5L186.4 36.259L186.5 36.459L191 31.459H177.6Z" fill="#EEDFA5"/>
<path d="M191.202 31.2603L186.602 26.1602L186.402 26.5603L177.602 31.4602H191.002L191.202 31.2603Z" fill="#CEC095"/>
<path d="M191.205 33.1594C192.254 33.1594 193.105 32.3089 193.105 31.2595C193.105 30.2102 192.254 29.3594 191.205 29.3594C190.155 29.3594 189.305 30.2102 189.305 31.2595C189.305 32.3089 190.155 33.1594 191.205 33.1594Z" fill="white"/>
<path d="M191.2 4.55859C176.4 4.55859 164.5 16.5585 164.5 31.2585C164.5 45.9585 176.5 57.9585 191.2 57.9585C205.9 57.9585 217.9 45.9585 217.9 31.2585C217.9 16.5585 206 4.55859 191.2 4.55859ZM191.2 53.3584C179 53.3584 169.1 43.4585 169.1 31.2585C169.1 19.0585 179 9.15845 191.2 9.15845C203.4 9.15845 213.3 19.0585 213.3 31.2585C213.3 43.4585 203.4 53.3584 191.2 53.3584Z" fill="#B17F55"/>
<path d="M171.602 18.6584C172.602 15.9584 174.702 13.7586 177.202 12.5586C175.302 14.7586 173.502 16.6584 171.602 18.6584Z" fill="#B17F55"/>
<path d="M168.003 31.0579C167.403 27.4579 168.303 23.6578 170.403 20.7578C169.303 24.2578 168.603 27.5579 168.003 31.0579Z" fill="#B17F55"/>
<path d="M174.5 47.1577C171 44.4577 168.7 40.1578 168.5 35.7578C169.9 39.9578 171.9 43.6577 174.5 47.1577Z" fill="#B17F55"/>
<path d="M187.205 53.8584C183.505 53.8584 179.805 52.2586 177.305 49.5586C180.505 51.3586 183.705 52.6584 187.205 53.8584Z" fill="#B17F55"/>
<path d="M206.702 48.1582C202.902 52.4582 196.802 54.8582 191.102 54.1582C196.802 53.6582 202.102 51.5582 206.702 48.1582Z" fill="#B17F55"/>
<path d="M214.1 33.457C214.3 38.057 212.3 42.6571 209 45.7571C211.4 41.8571 213.1 37.857 214.1 33.457Z" fill="#B17F55"/>
<path d="M209.102 16.457C212.902 20.157 214.902 25.7571 214.302 31.0571C213.602 25.7571 211.902 20.957 209.102 16.457Z" fill="#B17F55"/>
<path d="M193.602 8.05737C198.902 7.95737 204.402 10.6572 207.602 14.8572C203.502 11.5572 198.802 9.25737 193.602 8.05737Z" fill="#B17F55"/>
<path d="M179.203 11.2581C182.503 8.5581 187.003 7.35806 191.103 7.95806C186.903 8.55806 183.103 9.5581 179.203 11.2581Z" fill="#B17F55"/>
<path d="M183.805 7.65871C189.205 5.35871 195.805 5.65886 200.905 8.55886C195.305 6.85886 189.605 6.55871 183.805 7.65871Z" fill="#B17F55"/>
<path d="M170.898 17.2578C173.198 12.8578 177.498 9.35781 182.398 8.25781C177.998 10.5578 174.198 13.4578 170.898 17.2578Z" fill="#B17F55"/>
<path d="M166.705 28.5586C166.405 25.1586 167.505 21.6586 169.705 19.0586C168.605 22.3586 167.705 25.3586 166.705 28.5586Z" fill="#B17F55"/>
<path d="M173.205 47.8584C168.505 43.7584 165.905 37.2586 166.605 31.0586C167.205 37.2586 169.505 42.9584 173.205 47.8584Z" fill="#B17F55"/>
<path d="M189.905 55.5576C184.605 55.9576 179.005 53.7574 175.305 49.8574C179.805 52.7574 184.605 54.6576 189.905 55.5576Z" fill="#B17F55"/>
<path d="M201.5 53.2578C198.8 55.1578 195.3 56.0579 192 55.5579C195.2 54.8579 198.2 54.1578 201.5 53.2578Z" fill="#B17F55"/>
<path d="M209.505 47.2578C208.605 49.2578 206.805 50.7578 204.805 51.4578C206.205 49.7578 207.705 48.4578 209.505 47.2578Z" fill="#B17F55"/>
<path d="M215.503 33.2578C215.703 37.5578 214.103 41.9577 211.203 45.1577C213.103 41.2577 214.503 37.4578 215.503 33.2578Z" fill="#B17F55"/>
<path d="M214.398 23.457C215.798 25.757 216.198 28.5571 215.598 31.0571C214.998 28.4571 214.598 26.057 214.398 23.457Z" fill="#B17F55"/>
<path d="M203.805 10.1582C208.605 12.3582 212.505 16.8583 213.905 21.9583C211.305 17.2583 208.005 13.3582 203.805 10.1582Z" fill="#B17F55"/>
<path d="M179.5 8.15784C182.4 5.95784 186.3 4.95779 189.9 5.35779C186.3 6.15779 183 7.05784 179.5 8.15784Z" fill="#B17F55"/>
<path d="M172.602 13.2583C173.702 11.2583 175.602 9.7582 177.802 9.1582C176.202 10.7582 174.602 12.0583 172.602 13.2583Z" fill="#B17F55"/>
<path d="M166.602 23.3582C167.002 20.0582 168.802 16.8582 171.302 14.6582C169.702 17.6582 168.202 20.3582 166.602 23.3582Z" fill="#B17F55"/>
<path d="M165.402 31.0571C164.802 29.0571 165.102 26.857 166.102 24.957C166.202 27.157 166.002 29.0571 165.402 31.0571Z" fill="#B17F55"/>
<path d="M171.702 47.8582C167.902 44.4582 165.602 39.2582 165.602 34.1582C166.802 39.0582 168.802 43.6582 171.702 47.8582Z" fill="#B17F55"/>
<path d="M180.005 54.2585C177.305 53.5585 174.805 51.8586 173.305 49.5586C175.605 51.0586 177.805 52.4585 180.005 54.2585Z" fill="#B17F55"/>
<path d="M191.098 56.7578C188.098 57.3578 184.898 56.7578 182.398 55.2578C185.398 55.6578 188.098 56.1578 191.098 56.7578Z" fill="#B17F55"/>
<path d="M206.8 51.457C203.5 54.757 198.7 56.757 194 56.657C198.6 55.457 202.7 53.757 206.8 51.457Z" fill="#B17F55"/>
<path d="M216.103 37.0586C215.603 41.8586 213.003 46.4584 209.203 49.3584C212.103 45.5584 214.403 41.5586 216.103 37.0586Z" fill="#B17F55"/>
<path d="M206.203 10.3574C213.103 14.5574 217.403 23.0576 216.703 31.0576C216.203 22.9576 212.403 15.5574 206.203 10.3574Z" fill="#B17F55"/>
<path d="M193.602 5.55724C197.102 5.25724 200.802 6.45709 203.502 8.65709C200.202 7.45709 197.002 6.45724 193.602 5.55724Z" fill="#B17F55"/>
<path opacity="0.6" d="M207.805 10.3594C212.205 15.0594 214.905 21.3594 214.905 28.3594C214.905 42.9594 203.105 54.7595 188.505 54.7595C180.105 54.7595 172.705 50.8595 167.805 44.7595C172.505 52.6595 181.005 57.8594 190.805 57.8594C205.605 57.8594 217.505 45.8594 217.505 31.1594C217.605 22.7594 213.805 15.2594 207.805 10.3594Z" fill="#B17F55"/>
<path d="M195.748 8.39178C196.278 6.13365 194.878 3.87284 192.62 3.34212C190.362 2.8114 188.101 4.21175 187.57 6.46988C187.04 8.72801 188.44 10.9888 190.698 11.5195C192.956 12.0503 195.217 10.6499 195.748 8.39178Z" fill="#C38F73"/>
<path d="M191.597 10.7583C193.419 10.7583 194.897 9.28079 194.897 7.45825C194.897 5.63571 193.419 4.1582 191.597 4.1582C189.774 4.1582 188.297 5.63571 188.297 7.45825C188.297 9.28079 189.774 10.7583 191.597 10.7583Z" fill="white"/>
<path d="M189.898 9.45947V5.85938H190.398L191.598 7.65942C191.898 8.05942 192.098 8.45937 192.198 8.85938C192.198 8.35938 192.098 7.95938 192.098 7.35938V5.85938H192.498V9.45947H192.098L190.998 7.65942C190.698 7.25942 190.498 6.85947 190.298 6.45947C190.298 6.95947 190.298 7.35947 190.298 7.95947V9.45947H189.898Z" fill="#393939"/>
<path d="M195.764 55.9817C196.294 53.7236 194.894 51.4627 192.636 50.932C190.378 50.4013 188.117 51.8016 187.586 54.0597C187.055 56.3179 188.456 58.5787 190.714 59.1094C192.972 59.6402 195.233 58.2398 195.764 55.9817Z" fill="#C38F73"/>
<path d="M191.605 58.3577C193.427 58.3577 194.905 56.8804 194.905 55.0579C194.905 53.2353 193.427 51.7578 191.605 51.7578C189.782 51.7578 188.305 53.2353 188.305 55.0579C188.305 56.8804 189.782 58.3577 191.605 58.3577Z" fill="white"/>
<path d="M190.2 56.4575C190.4 56.5575 190.7 56.6575 191 56.6575C191.5 56.6575 191.8 56.3576 191.8 56.0576C191.8 55.7576 191.6 55.5574 191.1 55.3574C190.5 55.1574 190.1 54.8574 190.1 54.3574C190.1 53.7574 190.6 53.3574 191.3 53.3574C191.7 53.3574 191.9 53.4576 192.1 53.5576L192 53.9575C191.9 53.8575 191.6 53.7576 191.3 53.7576C190.8 53.7576 190.6 54.0576 190.6 54.2576C190.6 54.5576 190.8 54.7575 191.3 54.9575C191.9 55.1575 192.2 55.4576 192.2 56.0576C192.2 56.6576 191.8 57.0576 190.9 57.0576C190.6 57.0576 190.2 56.9574 190 56.8574L190.2 56.4575Z" fill="#393939"/>
<path d="M167.403 35.3589C169.723 35.3589 171.603 33.4785 171.603 31.1589C171.603 28.8393 169.723 26.959 167.403 26.959C165.084 26.959 163.203 28.8393 163.203 31.1589C163.203 33.4785 165.084 35.3589 167.403 35.3589Z" fill="#C38F73"/>
<path d="M167.402 34.4595C169.224 34.4595 170.702 32.982 170.702 31.1594C170.702 29.3369 169.224 27.8594 167.402 27.8594C165.579 27.8594 164.102 29.3369 164.102 31.1594C164.102 32.982 165.579 34.4595 167.402 34.4595Z" fill="white"/>
<path d="M165.806 33.0596L164.906 29.4595H165.406L165.806 31.2595C165.906 31.7595 166.006 32.1596 166.106 32.5596C166.206 32.1596 166.306 31.7595 166.406 31.2595L166.906 29.4595H167.406L167.806 31.2595C167.906 31.6595 168.006 32.1595 168.106 32.4595C168.206 32.0595 168.306 31.6594 168.406 31.1594L168.906 29.3594H169.406L168.406 32.9595H167.906L167.406 31.0596C167.306 30.5596 167.206 30.2594 167.206 29.8594C167.106 30.2594 167.106 30.5596 166.906 31.0596L166.406 32.9595H165.806V33.0596Z" fill="#393939"/>
<path d="M215.005 35.3589C217.324 35.3589 219.205 33.4785 219.205 31.1589C219.205 28.8393 217.324 26.959 215.005 26.959C212.685 26.959 210.805 28.8393 210.805 31.1589C210.805 33.4785 212.685 35.3589 215.005 35.3589Z" fill="#C38F73"/>
<path d="M215.003 34.4595C216.826 34.4595 218.303 32.982 218.303 31.1594C218.303 29.3369 216.826 27.8594 215.003 27.8594C213.181 27.8594 211.703 29.3369 211.703 31.1594C211.703 32.982 213.181 34.4595 215.003 34.4595Z" fill="white"/>
<path d="M215.605 31.3589H214.205V32.6589H215.805V33.0591H213.805V29.459H215.805V29.8589H214.305V30.959H215.705V31.3589H215.605Z" fill="#393939"/>
</svg>
