<svg width="380" height="185" viewBox="0 0 380 185" fill="none" xmlns="http://www.w3.org/2000/svg">
<path d="M26.5 181.201C25.9 181.201 25.6 181.001 25.6 180.601C25.5 180.301 25.3 174.101 25 162.301C25 162.001 25.1 161.801 25.3 161.601C25.5 161.401 25.7 161.301 26 161.301L33.9 161.501L34.4 161.801C34.6 162.001 34.7 162.201 34.7 162.601V162.801L34.4 163.301C34.2 163.501 33.9 163.601 33.6 163.601L26.9 163.501L27.3 170.301H33.4L33.9 170.601C34.1 170.801 34.2 171.101 34.2 171.401V171.601L33.9 172.101C33.7 172.301 33.4 172.401 33.1 172.401L27.3 172.301L27.5 179.201H34L34.5 179.501C34.7 179.701 34.8 179.901 34.8 180.301V180.501L34.5 181.001C33.8 180.901 31.1 181.101 26.5 181.201Z" fill="black"/>
<path d="M43.2 181H43L42.5 180.7C42.3 180.3 42.2 179.899 42.2 179.299C42.2 179.099 42.2 178.799 42.3 178.299C42.4 177.799 42.4 177.1 42.5 176.1C42.6 175.1 42.6 174.199 42.6 173.399C42.6 172.099 42.4 171.5 42.1 171.5C42 171.5 41.8 171.7 41.6 172C41.4 172.3 41.1 172.8 40.7 173.6C40.3 174.4 40.1 175.3 40 176.5C39.9 177.7 39.8 178.899 39.6 180.299C39.4 180.499 39.1 180.5 38.8 180.5C38.7 180.5 38.5 180.399 38.1 180.299C37.8 178.499 37.5 176.699 37.4 174.899C37.3 173.099 37.1 171.199 37 169.399L37.2 168.899C37.5 168.699 37.8 168.6 38.1 168.6H38.2L38.7 168.899C38.9 169.399 39 169.9 39.1 170.5C39.1 171.1 39.2 171.6 39.2 172.2C39.5 171.5 40 170.8 40.5 170.2C40.9 169.7 41.4 169.399 41.8 169.399C41.9 169.399 42.1 169.4 42.4 169.5C42.7 169.6 43 169.8 43.3 170C43.6 170.2 43.8 170.6 44 171C44.7 170.2 45.5 169.799 46.4 169.799C46.8 169.799 47.2 169.999 47.6 170.299C48.4 170.999 48.8 172.4 48.8 174.6C48.8 175.2 48.8 176 48.7 177.1C48.6 178.2 48.6 178.899 48.6 179.399C48.6 179.899 48.5 180.3 48.3 180.7C48.1 180.9 47.8 181 47.5 181H47.3L46.8 180.7C46.6 180.4 46.5 180.1 46.5 179.7L46.6 179.299C46.7 176.499 46.8 174.699 46.8 173.899C46.8 173.099 46.7 172.5 46.5 172.1C46.4 171.9 46.3 171.799 46.2 171.799C46.1 171.799 45.9 171.9 45.7 172.1C45.5 172.3 45.2 172.7 45 173.5C44.7 174.3 44.6 175.3 44.4 176.7C44.3 178.1 44.1 179.399 43.9 180.799C43.8 180.899 43.5 181 43.2 181Z" fill="black"/>
<path d="M52.2985 184.2H52.0984L51.5984 183.9C51.3984 183.6 51.2984 183.3 51.1984 183L50.8984 170C50.8984 169.7 50.9984 169.5 51.1984 169.3C51.3984 169.1 51.6984 169 51.9984 169H52.1984L52.6984 169.3L52.7985 169.6C54.0985 168.9 55.3984 168.5 56.5984 168.5C56.7984 168.5 57.1984 168.5 57.6984 168.6C58.4984 168.7 59.3984 169.3 60.3984 170.5C60.9984 171.3 61.2985 172.6 61.2985 174.5C61.2985 175.4 61.1984 176.4 60.8984 177.3C60.6984 178 60.2984 178.6 59.5984 179.2C58.4984 180.1 57.1985 180.5 55.7985 180.5C54.8985 180.5 53.9984 180.4 53.0984 180.1L53.1984 183.5L52.9984 184C52.8984 184.1 52.5985 184.2 52.2985 184.2ZM55.9984 178.4C56.4984 178.4 56.9984 178.3 57.3984 178.1C57.6984 177.9 58.0984 177.6 58.5984 177.2C58.9984 176.8 59.2984 176.3 59.3984 175.6C59.4984 175.1 59.4984 174.6 59.4984 174.2C59.4984 174 59.4984 173.8 59.4984 173.4C59.4984 173 59.3984 172.6 59.1984 172.1C58.9984 171.6 58.6984 171.2 58.1984 170.8C57.7984 170.5 57.3984 170.3 56.8984 170.3C56.7984 170.3 56.5984 170.3 56.1984 170.4C55.8984 170.4 55.3984 170.6 54.9984 170.7C54.4984 170.9 53.8985 171.4 53.2985 172.2L53.3984 177.8C54.1984 178.2 55.1984 178.4 55.9984 178.4Z" fill="black"/>
<path d="M73.1016 181C72.8016 181 72.6016 180.9 72.4016 180.7L72.0016 180.2C70.9016 180.7 69.8016 181 68.8016 181C68.7016 181 68.5015 181 68.2015 181C67.8015 181 67.4016 180.8 66.8016 180.6C66.2016 180.3 65.7015 179.9 65.2015 179.5C64.4015 178.8 64.1016 177.8 64.1016 176.5C64.1016 176.3 64.1015 176 64.2015 175.6C64.3015 174.5 64.8016 173.5 65.6016 172.7C66.4016 172 67.3016 171.6 68.5016 171.6C69.2016 171.6 69.9015 171.7 70.7015 172C70.7015 171.4 70.5016 170.9 70.0016 170.6C69.2016 170 68.4016 169.7 67.6016 169.7C67.4016 169.7 67.1015 169.699 66.7015 169.799C66.3015 169.899 65.9016 170 65.5016 170L64.9016 169.7C64.7016 169.5 64.6016 169.199 64.6016 168.899V168.7L64.9016 168.2C65.5016 167.8 66.2016 167.6 67.1016 167.6C67.5016 167.6 67.9016 167.6 68.4016 167.7C68.9016 167.8 69.6016 168 70.4016 168.5C71.3016 168.9 71.9016 169.6 72.3016 170.5C72.7016 171.4 72.9016 172.8 72.9016 174.7C72.9016 176.7 73.3016 178.499 74.0016 180.299L73.7015 180.799C73.7015 180.899 73.4016 181 73.1016 181ZM69.0016 178.899C69.6016 178.899 70.1015 178.8 70.7015 178.5L71.4016 177.899C71.3016 177.299 71.2016 176.199 71.1016 174.799C70.4016 173.899 69.6016 173.5 68.8016 173.5C68.8016 173.5 68.6016 173.5 68.1016 173.5C67.7016 173.5 67.3016 173.7 66.9016 174C66.4016 174.5 66.1016 175.299 66.1016 176.299C66.1016 176.499 66.1016 176.7 66.1016 177C66.1016 177.3 66.3016 177.599 66.6016 177.899C66.9016 178.199 67.3016 178.5 67.8016 178.7C68.3016 178.9 68.6016 178.899 69.0016 178.899Z" fill="black"/>
<path d="M82.7985 181C82.0985 181 81.3984 180.6 80.6984 179.9C80.0984 179.3 79.6984 178.4 79.4984 177.3C79.2984 176.2 79.1984 174.301 79.0984 171.601L77.1984 171.701L76.6984 171.4C76.4984 171.2 76.3984 170.901 76.3984 170.601V170.5L76.6984 170C76.9984 169.8 77.3985 169.701 77.7985 169.701H78.2985H79.1984V168.4C79.1984 167.1 79.2984 166.101 79.4984 165.701C79.6984 165.501 79.9985 165.4 80.2985 165.4H80.4984L80.9984 165.701C81.1984 166.001 81.2985 166.301 81.2985 166.601V166.9L81.3984 169.601L85.4984 169.5L85.9984 169.701C86.1984 169.901 86.2985 170.2 86.2985 170.5V170.701L85.9984 171.201C85.2984 171.401 84.5984 171.5 83.8984 171.5H83.3984C82.6984 171.5 81.9985 171.501 81.2985 171.601C81.3985 174.101 81.4984 175.7 81.5984 176.5C81.6984 177.3 81.7984 177.9 82.0984 178.3C82.2984 178.6 82.5984 178.8 83.0984 178.8C83.6984 178.8 84.5985 178.601 85.7985 178.201L86.2985 178.4C86.4985 178.6 86.5984 178.901 86.5984 179.201V179.4L86.1984 180C85.0984 180.7 83.9985 181 82.7985 181Z" fill="black"/>
<path d="M98.5 181.201H98.3L97.8 180.901C97.6 180.601 97.4 180.301 97.4 179.901V179.801C97.6 179.101 97.7 178.001 97.7 176.501C97.7 175.001 97.6 173.901 97.5 173.301C97.4 172.701 97.1 172.101 96.7 171.601C96.4 171.301 96.1 171.101 95.7 171.101C95.5 171.101 95.1 171.201 94.7 171.301C94.2 171.401 93.8 171.901 93.5 172.601C93.2 173.301 92.9 174.001 92.6 174.701C92.3 175.401 92.1 176.101 92.1 176.801L92.2 179.901L92 180.401C91.8 180.601 91.5 180.701 91.2 180.701H91L90.5 180.401C90.3 179.901 90.1 179.401 90.1 178.801C90 178.201 90 173.001 90 163.301C90.1 162.701 90.4 162.301 91.1 162.301H91.3L91.8 162.601L92.1 163.101V171.101C92.4 170.701 92.7 170.401 93.1 170.101C93.8 169.401 94.6 169.001 95.5 169.001C95.8 169.001 96.1 169.101 96.7 169.201C97.2 169.301 97.8 169.701 98.4 170.301C99 170.901 99.4 171.601 99.6 172.501C99.8 173.301 99.9 174.401 99.9 175.801C99.9 175.901 99.9 176.401 99.9 177.301C99.9 178.201 99.9 178.901 99.9 179.401C99.9 179.901 99.8 180.401 99.5 180.801C99 181.101 98.8 181.201 98.5 181.201Z" fill="black"/>
<path d="M107.303 168.2C106.903 168.1 106.503 167.9 106.203 167.6C105.903 167.2 105.703 166.799 105.703 166.399C105.703 166.299 105.703 166.199 105.703 165.899C105.703 165.599 105.903 165.3 106.303 165C106.603 164.7 106.903 164.6 107.203 164.6C107.703 164.6 108.203 164.799 108.703 165.299C109.003 165.599 109.103 165.999 109.103 166.299C109.103 166.399 109.103 166.599 109.003 166.899C108.903 167.199 108.803 167.499 108.403 167.799C108.203 167.999 107.803 168.1 107.303 168.2ZM107.903 180.5H107.703L107.203 180.299C106.903 177.899 106.603 174.8 106.603 171C106.703 170.4 107.003 170 107.703 170H107.903L108.403 170.299C108.703 173.399 109.003 176.599 109.003 179.799L108.703 180.299C108.403 180.399 108.103 180.5 107.903 180.5Z" fill="black"/>
<path d="M124 180.901L116.8 180.801C116.5 180.801 116.3 180.701 116 180.601C115.8 180.501 115.7 180.401 115.7 180.101C115.7 179.901 115.7 179.801 115.8 179.501C117.2 178.001 119.3 175.101 122 170.901L116.3 171.101L115.8 170.801C115.6 170.601 115.5 170.301 115.5 170.001V169.801L115.7 169.301L116.2 169.001L123.9 168.801C124.2 168.801 124.4 169.001 124.7 169.101C125 169.201 125 169.601 125 169.901V170.101C123.7 172.001 122.7 173.501 122.1 174.301C121.5 175.101 120.5 176.601 119 178.701H124.9L125.4 179.001C125.6 179.201 125.7 179.501 125.7 179.801V180.001L125.4 180.501C125.1 180.701 124.6 180.901 124 180.901Z" fill="black"/>
<path d="M133.603 180.9C133.003 180.8 132.403 180.6 131.903 180.4C131.303 180.2 130.803 179.7 130.203 179C129.603 178.3 129.203 177.4 129.003 176.3C128.803 175.3 128.703 174.4 128.703 173.6V172.6C128.803 171.1 129.203 170 130.003 169.1C131.003 168 132.103 167.5 133.403 167.5C133.503 167.5 133.803 167.5 134.203 167.6C134.603 167.6 135.003 167.7 135.503 167.9C136.003 168.1 136.603 168.6 137.303 169.4C138.003 170.2 138.503 171.2 138.603 172.2C138.803 173.2 138.803 173.9 138.803 174.4C138.803 174.8 138.703 175.1 138.403 175.2C138.203 175.3 135.603 175.4 130.703 175.5C130.903 176.7 131.303 177.6 131.903 178.1C132.603 178.8 133.403 179.1 134.203 179.1C134.303 179.1 134.503 179.1 134.803 179.1C135.103 179.1 135.503 178.9 136.003 178.6C136.503 178.3 137.003 178.1 137.503 177.9L138.003 178.2C138.203 178.4 138.303 178.7 138.303 179V179.2L138.003 179.7C137.203 180.3 136.503 180.7 135.803 180.9C135.103 180.8 134.403 180.9 133.603 180.9ZM130.503 173.4L136.703 173.1C136.603 171.8 136.303 170.8 135.703 170.2C135.103 169.6 134.303 169.4 133.503 169.4C133.303 169.4 133.003 169.4 132.703 169.5C132.403 169.6 132.003 169.8 131.603 170.2C131.203 170.6 131.003 171 130.803 171.5C130.603 172 130.503 172.6 130.503 173.4Z" fill="black"/>
<path d="M161.597 181C161.397 181 161.097 180.8 160.797 180.5C160.397 179.8 159.997 179 159.797 178.1C159.597 177.2 159.297 176.4 159.097 175.6C158.797 176.3 158.497 177.1 158.197 177.9C157.897 178.7 157.697 179.4 157.397 180.2C157.197 180.6 156.997 180.8 156.697 180.8C156.497 180.8 156.197 180.6 155.897 180.3C154.797 178 153.897 174.9 153.297 171.2C153.297 170.9 153.397 170.7 153.597 170.5C153.797 170.3 154.097 170.2 154.397 170.2H154.597L155.097 170.5C155.497 172.5 155.997 174.6 156.597 176.6C157.197 174.9 157.897 173.2 158.697 171.6C158.897 171.3 159.097 171.1 159.297 171.1C159.497 171.1 159.797 171.3 160.097 171.6L161.397 176.7C161.797 175.5 162.197 174.5 162.597 173.5C162.997 172.5 163.397 171.5 163.797 170.3C163.997 170.1 164.297 170 164.597 170H164.797L165.297 170.3C165.497 170.5 165.597 170.8 165.597 171.1C165.597 171.4 165.097 173 163.997 176C163.497 177.5 162.997 179 162.397 180.7C162.097 180.9 161.797 181 161.597 181Z" fill="black"/>
<path d="M171.897 168.2C171.497 168.1 171.097 167.9 170.797 167.6C170.497 167.2 170.297 166.799 170.297 166.399C170.297 166.299 170.297 166.199 170.297 165.899C170.297 165.599 170.497 165.3 170.897 165C171.197 164.7 171.497 164.6 171.797 164.6C172.297 164.6 172.797 164.799 173.297 165.299C173.597 165.599 173.697 165.999 173.697 166.299C173.697 166.399 173.697 166.599 173.597 166.899C173.497 167.199 173.397 167.499 172.997 167.799C172.897 167.999 172.397 168.1 171.897 168.2ZM172.497 180.5H172.297L171.797 180.299C171.497 177.899 171.197 174.8 171.197 171C171.297 170.4 171.597 170 172.297 170H172.497L172.997 170.299C173.297 173.399 173.597 176.599 173.597 179.799L173.297 180.299C173.097 180.399 172.797 180.5 172.497 180.5Z" fill="black"/>
<path d="M186.298 181C185.598 181 184.898 180.6 184.198 179.9C183.598 179.3 183.198 178.4 182.998 177.3C182.798 176.2 182.698 174.301 182.598 171.601L180.698 171.701L180.198 171.4C179.998 171.2 179.898 170.901 179.898 170.601V170.5L180.198 170C180.498 169.8 180.898 169.701 181.298 169.701H181.798H182.698V168.4C182.698 167.1 182.798 166.101 182.998 165.701C183.198 165.501 183.498 165.4 183.798 165.4H183.998L184.498 165.701C184.698 166.001 184.798 166.301 184.798 166.601V166.9L184.898 169.601L188.998 169.5L189.498 169.701C189.698 169.901 189.798 170.2 189.798 170.5V170.701L189.498 171.201C188.798 171.401 188.098 171.5 187.398 171.5H186.898C186.198 171.5 185.498 171.501 184.798 171.601C184.898 174.101 184.998 175.7 185.098 176.5C185.198 177.3 185.298 177.9 185.598 178.3C185.798 178.6 186.098 178.8 186.598 178.8C187.198 178.8 188.098 178.601 189.298 178.201L189.798 178.4C189.998 178.6 190.098 178.901 190.098 179.201V179.4L189.698 180C188.598 180.7 187.498 181 186.298 181Z" fill="black"/>
<path d="M202 181.201H201.8L201.3 180.901C201.1 180.601 200.9 180.301 200.9 179.901V179.801C201.1 179.101 201.2 178.001 201.2 176.501C201.2 175.001 201.1 173.901 201 173.301C200.9 172.701 200.6 172.101 200.2 171.601C199.9 171.301 199.6 171.101 199.2 171.101C199 171.101 198.6 171.201 198.2 171.301C197.7 171.401 197.3 171.901 197 172.601C196.7 173.301 196.4 174.001 196.1 174.701C195.8 175.401 195.6 176.101 195.6 176.801L195.7 179.901L195.5 180.401C195.3 180.601 195 180.701 194.7 180.701H194.5L194 180.401C193.8 179.901 193.6 179.401 193.6 178.801C193.5 178.201 193.5 173.001 193.5 163.301C193.6 162.701 193.9 162.301 194.6 162.301H194.8L195.3 162.601L195.6 163.101V171.101C195.9 170.701 196.2 170.401 196.6 170.101C197.3 169.401 198.1 169.001 199 169.001C199.3 169.001 199.6 169.101 200.2 169.201C200.7 169.301 201.3 169.701 201.9 170.301C202.5 170.901 202.9 171.601 203.1 172.501C203.3 173.301 203.4 174.401 203.4 175.801C203.4 175.901 203.4 176.401 203.4 177.301C203.4 178.201 203.4 178.901 203.4 179.401C203.4 179.901 203.3 180.401 203 180.801C202.5 181.101 202.3 181.201 202 181.201Z" fill="black"/>
<path d="M224 181.1H223.8L223.3 180.8C223.1 180.6 223 180.4 223 180.1L223.1 170C220.8 166.3 219.2 163.6 218.5 161.9L218.8 161.4C219 161.2 219.3 161.1 219.6 161.1H219.8L220.3 161.4C220.9 162.5 221.5 163.5 222.2 164.5C222.9 165.5 223.5 166.5 224.1 167.6L228.4 161.3C228.7 161.1 228.9 161 229.3 161C229.4 161 229.7 161.1 230 161.3C230.2 161.5 230.2 161.8 230.2 162.1V162.3C230 162.6 228.4 165.3 225.3 170.4L225.2 180.4L224.9 180.9C224.6 181 224.3 181.1 224 181.1Z" fill="black"/>
<path d="M236.8 180.799C236 180.799 235.3 180.699 234.7 180.499C234.2 180.299 233.8 179.999 233.3 179.399C232.4 178.299 232 176.999 232 175.299V174.399C232.1 172.599 232.6 171.199 233.6 170.099C234.7 168.799 236 168.199 237.5 168.199C237.7 168.199 238.1 168.199 238.7 168.299C239.3 168.399 239.9 168.799 240.7 169.599C241.5 170.399 241.9 171.099 242 171.599C242.2 172.799 242.3 173.699 242.3 174.299C242.3 174.599 242.3 175.099 242.2 175.699C242.1 177.199 241.5 178.499 240.5 179.499C239.7 180.299 238.4 180.799 236.8 180.799ZM236.8 178.799C237.5 178.799 238.2 178.599 238.8 178.299C239.4 177.999 239.7 177.499 240 176.999C240.3 176.199 240.4 175.299 240.4 174.299C240.4 173.999 240.4 173.499 240.3 172.999C240.2 172.499 240 171.899 239.7 171.299C239.3 170.699 238.9 170.299 238.5 170.199C238.3 170.099 238.1 170.099 237.9 170.099C237.6 170.099 237.2 170.199 236.8 170.299C236.3 170.399 235.8 170.799 235.3 171.499C234.7 172.199 234.4 172.799 234.3 173.499C234.2 173.999 234.2 174.499 234.2 174.999C234.2 175.699 234.3 176.399 234.6 177.199C234.6 178.299 235.5 178.799 236.8 178.799Z" fill="black"/>
<path d="M254.302 181.201H254.102L253.602 180.9C253.402 180.5 253.302 180.101 253.202 179.701C253.102 179.301 253.102 178.8 253.002 178.4C252.202 179.4 251.402 180.1 250.702 180.4C250.102 180.6 249.602 180.8 249.102 180.8C248.902 180.8 248.602 180.801 248.102 180.701C247.602 180.601 247.102 180.301 246.602 179.601C246.102 178.901 245.702 178.2 245.502 177.5C245.202 176.3 245.102 174.801 245.102 173.101C245.102 172.701 245.102 172.201 245.102 171.601C245.102 171.001 245.302 170.601 245.502 170.201C245.702 170.001 246.002 169.9 246.302 169.9H246.402L246.902 170.201C247.102 170.401 247.202 170.7 247.202 171V171.201C247.102 172.701 247.002 173.801 247.002 174.601C247.002 176.501 247.402 177.8 248.102 178.5C248.402 178.8 248.702 178.9 249.002 178.9C249.102 178.9 249.402 178.801 249.702 178.701C250.102 178.601 250.502 178.2 251.102 177.4C251.702 176.6 252.002 175.6 252.202 174.5C252.402 173.3 252.602 172.2 253.002 171C253.202 170.8 253.502 170.8 253.802 170.8C253.902 170.8 254.102 170.9 254.502 171C254.702 171.4 254.802 171.801 254.802 172.201C254.802 172.401 254.802 172.601 254.702 172.701C254.702 175.601 254.802 177.501 254.902 178.201C255.002 179.001 255.102 179.7 255.202 180.4L254.902 180.9C254.802 181.1 254.602 181.201 254.302 181.201Z" fill="black"/>
<path d="M260.6 180.799H260.4L259.9 180.499C259.5 178.699 259.2 176.799 259 174.899C258.9 172.999 258.7 171.099 258.5 169.199C258.6 168.599 258.9 168.199 259.6 168.199H259.8L260.3 168.499C260.5 169.299 260.6 170.099 260.7 170.899C260.8 171.699 260.8 172.499 260.9 173.399C261.2 172.899 261.6 172.399 262.1 171.999C262.6 171.599 263 171.299 263.6 170.999C264.2 170.699 264.7 170.699 265.2 170.699C265.8 170.699 266.3 170.699 266.9 170.599L267.4 170.799C267.6 170.999 267.7 171.299 267.7 171.599V171.799L267.4 172.299C266.8 172.399 266.1 172.499 265.4 172.499C264.2 172.599 263.1 173.599 262.3 175.399C261.9 176.299 261.6 177.399 261.6 178.699L261.7 180.199L261.4 180.699C261.2 180.699 261 180.799 260.6 180.799Z" fill="black"/>
<path d="M289.9 180.501C289.2 180.401 288.6 180.301 288.1 180.001C287.6 179.701 286.9 179.201 286.2 178.301C285.4 177.501 284.9 176.401 284.5 174.901C284.2 173.601 284 172.401 284 171.101C284 170.901 284 170.501 284 169.801C284 169.101 284.2 168.201 284.4 167.201C284.7 166.201 285.1 165.401 285.6 164.801C286.5 163.801 287.4 163.101 288.2 162.701C288.9 162.401 289.6 162.301 290.5 162.301C290.8 162.301 291.2 162.301 291.6 162.401C292 162.501 292.5 162.701 293 163.101C293.3 163.401 293.4 163.701 293.4 164.101V164.201L293.1 164.701C292.9 164.901 292.6 165.001 292.3 165.001H292.1C291.3 164.501 290.7 164.301 290.2 164.301C289.7 164.301 289.1 164.601 288.3 165.101C287.7 165.601 287.2 166.101 286.8 166.701C286.2 167.601 285.8 169.001 285.8 170.801C285.8 171.201 285.8 171.701 285.9 172.501C286 173.201 286.1 174.001 286.4 174.901C286.7 175.801 287 176.501 287.5 177.001C288 177.501 288.4 177.901 288.8 178.101C289.2 178.301 289.6 178.501 290.1 178.501C290.1 178.501 290.3 178.501 290.5 178.501C290.7 178.501 291.2 178.201 291.8 177.801L292.4 177.701L292.9 178.001C293.1 178.201 293.2 178.501 293.2 178.801V179.001C292.4 179.901 291.7 180.401 291.3 180.501C290.8 180.401 290.4 180.501 289.9 180.501Z" fill="black"/>
<path d="M305.5 181.201H305.3L304.8 180.901C304.6 180.601 304.4 180.301 304.4 179.901V179.801C304.6 179.101 304.7 178.001 304.7 176.501C304.7 175.001 304.6 173.901 304.5 173.301C304.4 172.701 304.1 172.101 303.7 171.601C303.4 171.301 303.1 171.101 302.7 171.101C302.5 171.101 302.1 171.201 301.7 171.301C301.2 171.401 300.8 171.901 300.5 172.601C300.2 173.301 299.9 174.001 299.6 174.701C299.3 175.401 299.1 176.101 299.1 176.801L299.2 179.901L299 180.401C298.8 180.601 298.5 180.701 298.2 180.701H298L297.5 180.401C297.3 179.901 297.1 179.401 297.1 178.801C297 178.201 297 173.001 297 163.301C297.1 162.701 297.4 162.301 298.1 162.301H298.3L298.8 162.601L299.1 163.101V171.101C299.4 170.701 299.7 170.401 300.1 170.101C300.8 169.401 301.6 169.001 302.5 169.001C302.8 169.001 303.1 169.101 303.7 169.201C304.2 169.301 304.8 169.701 305.4 170.301C306 170.901 306.4 171.601 306.6 172.501C306.8 173.301 306.9 174.401 306.9 175.801C306.9 175.901 306.9 176.401 306.9 177.301C306.9 178.201 306.9 178.901 306.9 179.401C306.9 179.901 306.8 180.401 306.5 180.801C306 181.101 305.8 181.201 305.5 181.201Z" fill="black"/>
<path d="M314.303 168.2C313.903 168.1 313.503 167.9 313.203 167.6C312.903 167.2 312.703 166.799 312.703 166.399C312.703 166.299 312.703 166.199 312.703 165.899C312.703 165.599 312.903 165.3 313.303 165C313.603 164.7 313.903 164.6 314.203 164.6C314.703 164.6 315.203 164.799 315.703 165.299C316.003 165.599 316.103 165.999 316.103 166.299C316.103 166.399 316.103 166.599 316.003 166.899C315.903 167.199 315.803 167.499 315.403 167.799C315.203 167.999 314.803 168.1 314.303 168.2ZM314.903 180.5H314.703L314.203 180.299C313.903 177.899 313.603 174.8 313.603 171C313.703 170.4 314.003 170 314.703 170H314.903L315.403 170.299C315.703 173.399 316.003 176.599 316.003 179.799L315.703 180.299C315.403 180.399 315.103 180.5 314.903 180.5Z" fill="black"/>
<path d="M329.397 181.3C328.697 181.3 327.997 180.9 327.297 180.2C326.697 179.6 326.297 178.7 326.097 177.6C325.897 176.8 325.797 175.3 325.797 173V164.9C325.797 163.9 325.797 163.2 325.797 162.8C325.997 162.2 326.297 162 326.697 162C327.297 162 327.597 162.3 327.797 162.9V173.7C327.797 175.1 327.897 176.1 327.997 176.8C328.097 178.4 328.597 179.1 329.497 179.1C330.097 179.1 330.997 178.9 332.197 178.5L332.697 178.7C332.897 178.9 332.997 179.2 332.997 179.5V179.7L332.597 180.3C331.697 180.9 330.597 181.3 329.397 181.3Z" fill="black"/>
<path d="M344.602 180.899H344.502L344.002 180.599C343.802 180.299 343.702 179.999 343.702 179.599C342.502 179.999 341.602 180.199 341.002 180.199C339.102 180.199 337.702 179.599 336.802 178.499C336.002 177.499 335.602 176.299 335.602 174.799C335.602 172.799 336.102 171.299 337.202 170.299C338.102 169.499 339.302 168.999 340.702 168.999C341.702 168.999 342.502 169.099 343.302 169.399L343.102 162.199C343.202 161.599 343.502 161.199 344.202 161.199H344.402L344.902 161.499C345.102 161.899 345.202 162.299 345.202 162.699C345.202 163.099 345.402 168.899 345.902 179.999L345.602 180.499C345.202 180.799 345.002 180.899 344.602 180.899ZM340.702 178.199C340.902 178.199 341.202 178.199 341.602 178.099C342.002 177.999 342.602 177.799 343.402 177.299L343.202 171.799C342.102 171.199 341.202 170.999 340.502 170.999C339.602 170.999 338.902 171.299 338.402 171.799C337.702 172.499 337.302 173.499 337.302 174.699C337.302 175.799 337.602 176.699 338.202 177.299C338.902 177.899 339.702 178.199 340.702 178.199Z" fill="black"/>
<path d="M39.3 142.901C38.2001 142.901 37 142.401 35.7 141.501C34.7999 140.901 33.8 140.301 32.9 139.701C32.5 139.301 32.3 138.601 32.3 137.701L32.9 136.601C33.3 136.201 34 136.001 34.9 136.001L37.2 137.201L37.4 101.701L4.5 101.501L5.09998 140.601L4.5 141.701C4 142.101 3.30002 142.301 2.40002 142.301L1.30005 141.701C0.900049 140.901 0.699976 140.001 0.599976 139.001C0.599976 138.001 0.4 124.801 0 99.4009C0.1 98.1009 0.799976 97.4012 2.09998 97.2012C25.8 97.3012 38.3 97.3009 39.6 97.4009C40.8 97.4009 41.5 98.1009 41.7 99.4009L41.6 140.901C41.1 142.301 40.4 142.901 39.3 142.901ZM10.8 110.901L9.69995 110.301C9.29995 109.801 9.09998 109.101 9.09998 108.201L9.69995 107.101C10.6 106.601 11.7 106.401 12.8 106.401L13.6 106.501L29.5 106.401L31 107.101C31.3 107.501 31.5 108.201 31.5 109.101L31 110.201L29.9 110.801L10.8 110.901ZM13 131.001C11.4 131.001 10.5 130.301 10.4 129.001C10.3 127.701 10 123.601 9.80005 116.901C9.80005 115.301 10.1 114.401 10.8 114.201C11 114.101 11.8 114.101 13.2 114.101C16 114.101 21.2 114.201 28.9 114.501C30.5 114.601 31.3 114.901 31.5 115.601C31.6 116.001 31.6 116.901 31.6 118.301C31.6 119.301 31.6 121.201 31.5 123.801C31.4 126.401 31.3 128.301 31 129.301C30.7 130.301 30 130.801 28.7 130.801L13 131.001ZM14.5 126.501L26.7 126.201L26.9 118.701L13.9 118.601L14.5 126.501Z" fill="black"/>
<path d="M54.2015 129.301C52.8015 129.101 52.1016 128.202 52.1016 126.702L52.7015 125.602C53.9015 125.202 55.3015 124.901 56.7015 124.801C58.1015 124.701 59.5016 124.601 60.9016 124.401L60.7015 115.202L56.1016 115.602L54.8016 114.901C54.5016 114.401 54.3016 113.701 54.3016 112.801L54.8016 111.702C55.6016 111.202 56.5016 110.901 57.6016 110.901C58.7016 110.901 59.6016 110.901 60.6016 110.801L60.5016 105.001L55.6016 105.202C55.0016 105.202 54.5016 104.901 54.1016 104.501C53.7016 104.101 53.5016 103.402 53.5016 102.602L54.1016 101.501C54.8016 101.001 55.6016 100.702 56.4016 100.702L70.7015 100.602L71.8016 101.202C72.2016 101.602 72.4016 102.302 72.4016 103.202L71.8016 104.301C70.9016 104.901 69.8015 105.202 68.7015 105.202C66.9015 105.202 65.6016 105.201 64.8016 105.301V110.602L69.9016 110.401L71.0016 111.001C71.4016 111.401 71.6016 112.101 71.6016 113.001L71.0016 114.102C70.1016 114.602 69.2016 114.801 68.1016 114.801C67.0016 114.801 66.0016 114.801 65.0016 114.901L65.2015 124.001L71.1016 123.501L72.2015 124.001C72.6015 124.401 72.8016 125.101 72.8016 126.001L72.2015 127.102C69.4015 127.802 66.4016 128.301 63.4016 128.501C60.3016 128.601 57.3015 128.901 54.2015 129.301ZM98.6016 141.202L74.3016 141.102L73.2015 140.501C72.8015 140.001 72.6016 139.301 72.6016 138.401L73.1016 137.301L74.2015 136.702L84.9016 136.602L85.0016 129.901L78.8016 130.102C77.4016 129.902 76.7015 129.001 76.7015 127.501L77.3016 126.401C78.3016 126.001 79.5015 125.801 80.7015 125.801C82.5015 125.801 84.0016 125.702 85.0016 125.602L84.9016 120.501L77.9016 120.702C76.4016 120.702 75.6016 120.202 75.5016 119.202C75.4016 118.202 75.1016 111.601 74.6016 99.4014V99.0015C74.6016 98.0015 75.2016 97.4017 76.3016 97.2017L98.0016 97.1016C99.1016 97.1016 99.6016 97.6016 99.6016 98.6016L99.8016 118.202C99.7016 119.602 99.2015 120.301 98.2015 120.401C97.2015 120.501 94.2016 120.602 89.3016 120.702V125.702H95.5016C96.2016 125.702 96.9016 125.901 97.5016 126.301C97.9016 126.801 98.1016 127.501 98.1016 128.401C97.9016 128.701 97.7016 129.101 97.5016 129.501C97.3016 129.901 96.8015 130.102 96.2015 130.102C95.9015 130.102 95.7016 130.101 95.4016 130.001L89.4016 129.901V136.602L97.3016 136.501C98.5016 136.501 99.6016 136.801 100.602 137.401C100.902 137.801 101.102 138.501 101.102 139.401L100.602 140.501C99.9016 140.901 99.3016 141.202 98.6016 141.202ZM84.5016 106.702L84.6016 101.702H78.8016L79.1016 106.702H84.5016ZM84.9016 116.401L84.8016 110.901H79.4016L79.7015 116.401H84.9016ZM95.4016 106.901V101.501L88.9016 101.602L88.8016 106.702L95.4016 106.901ZM89.2015 116.501L95.2015 116.301L95.3016 111.202L89.0016 111.001L89.2015 116.501Z" fill="black"/>
<path d="M120.402 143.3C120.202 143.3 120.002 143.301 119.802 143.201C118.502 142.901 117.502 142.2 116.602 141C115.702 140.3 115.302 139.401 115.302 138.101L115.902 137C116.302 136.6 117.002 136.4 117.902 136.4L119.302 137.101C119.502 134.201 119.602 131.301 119.602 128.701C119.602 127.401 119.602 126.1 119.502 124.8C117.702 125.2 116.102 125.701 114.702 126.101C113.302 126.501 111.802 126.901 110.302 127.101L109.202 126.5C108.802 126 108.602 125.3 108.602 124.4L109.202 123.3C110.902 122.7 112.602 122.201 114.202 121.701C115.902 121.201 117.602 120.701 119.302 120.201C118.902 116.701 117.902 113.8 116.502 111.4C116.202 111 116.002 110.501 116.002 110.101C116.002 109.701 116.302 109.101 116.802 108.601C117.402 108.001 119.102 105.9 122.002 102.3L110.802 102.601L109.602 101.9C109.202 101.4 108.902 100.701 108.902 99.7007L109.502 98.6006C110.402 98.2006 111.302 97.9004 112.402 97.9004C113.002 97.9004 117.902 98.0005 127.202 98.0005C128.602 98.2005 129.302 98.7004 129.302 99.4004C129.302 99.7004 129.202 100.101 128.902 100.601C125.302 104.701 122.802 107.8 121.202 109.9C122.202 113.1 123.002 116.201 123.502 119.101C125.202 118.701 126.702 118.5 128.202 118.4L129.302 119C129.702 119.4 129.902 120.1 129.902 121L129.302 122.101C128.402 122.501 127.502 122.8 126.602 122.9C125.602 123 124.702 123.2 123.802 123.5L123.902 129.5C123.902 131.3 123.802 133.1 123.702 135C123.602 136.9 123.402 138.4 123.302 139.4C123.102 140.4 122.802 141.301 122.202 142.201C121.502 143.001 121.002 143.3 120.402 143.3ZM133.702 135.101C132.302 134.901 131.602 134 131.602 132.4C133.602 130.2 135.202 128.3 136.502 126.8C137.802 125.3 138.902 123.6 140.002 121.8C137.002 119.5 135.002 118.101 134.102 117.601C133.502 117.301 133.102 116.801 133.102 116.201C133.102 115.801 134.602 112.5 137.502 106.3L129.502 106.5L128.402 105.9C128.002 105.4 127.702 104.7 127.702 103.8L128.302 102.701C130.202 102.301 132.302 102 134.502 102C136.702 102 138.802 101.901 140.802 101.701L140.502 97.5005C140.602 96.1005 141.402 95.4004 143.102 95.4004L144.202 96.0005C144.702 96.7005 144.902 97.6005 144.902 98.5005C144.902 99.9005 145.002 100.901 145.102 101.701L154.902 101.8L156.002 102.4C156.402 102.8 156.602 103.5 156.602 104.4L156.002 105.601L154.802 106.201L142.002 106.101L138.102 115.201L142.502 118.4C143.602 117.1 144.702 115.201 145.902 112.601C146.302 112.301 146.902 112.101 147.502 112.101C147.702 112.101 148.202 112.301 149.002 112.601C149.402 113.101 149.602 113.7 149.602 114.3L149.502 114.9C148.402 117.2 147.002 119.501 145.402 121.601C143.802 123.701 142.402 125.701 141.202 127.601C140.002 129.501 138.002 131.901 135.402 134.701C135.002 134.801 134.402 135.001 133.702 135.101ZM135.002 142.8L133.902 142.3C133.602 141.8 133.402 141.201 133.402 140.601C133.402 140.401 133.602 139.901 133.902 139.101C134.902 138.601 135.802 137.901 136.602 137.201C137.402 136.401 138.402 135.4 139.702 134C143.802 129.5 146.702 125.401 148.402 121.601L150.602 116.601C151.002 116.201 151.702 116 152.602 116L153.702 116.601C154.102 117.101 154.302 117.7 154.302 118.4C154.302 119.1 153.502 121.2 151.802 124.8C150.902 126.7 149.802 128.501 148.502 130.201C149.402 131.401 150.302 132.601 151.202 133.701C152.102 134.901 153.102 135.9 154.102 136.9C155.102 137.9 155.602 139 155.702 140.3L155.102 141.4C154.602 141.8 153.902 142 153.002 142C150.802 139.8 148.302 137.1 145.502 133.8C144.302 135.8 141.902 138.4 138.302 141.5C137.402 142.2 136.302 142.7 135.002 142.8Z" fill="black"/>
<path d="M188.397 143.1C186.397 142.4 183.997 140.7 181.297 138.1C180.897 137.7 180.697 137 180.697 136.1L181.297 135C181.697 134.6 182.297 134.4 182.897 134.4C183.597 134.4 184.397 134.9 185.497 136C186.197 136.7 186.897 137.3 187.697 137.7L188.797 134.5C189.197 133 189.497 131 189.497 128.5C189.497 126.7 189.397 124.6 189.197 122.2L167.097 122.5L165.997 121.9C165.597 121.4 165.297 120.7 165.297 119.8L165.897 118.7C166.897 118.2 167.897 118 169.097 118L169.997 118.1L188.197 117.8C187.797 116.7 187.397 115.7 187.097 114.8C186.797 113.9 185.997 112.7 184.797 111.4C184.397 110.8 184.197 110.2 184.197 109.7C184.197 109.2 184.397 108.7 184.797 108.2C186.297 107.3 187.597 106.2 188.797 104.9C189.997 103.6 191.297 102.3 192.497 101.3L175.897 101.6C174.497 101.4 173.797 100.6 173.797 99.2998V99L174.397 97.8999C175.697 97.3999 177.097 97.1 178.497 97H197.997C199.297 97.2 199.997 97.7001 199.997 98.6001C199.997 98.9001 199.897 99.2998 199.697 99.7998C197.497 102.6 195.697 104.6 194.197 105.8C192.697 107 191.197 108.4 189.897 110L193.097 117.8L210.097 117.7L211.297 118.4C211.697 118.9 211.897 119.6 211.897 120.5L211.297 121.6C210.097 122 208.897 122.3 207.597 122.3C206.897 122.3 202.297 122.2 193.797 122.2C193.997 124.1 194.097 125.8 194.097 127.5C194.097 128.6 193.997 130 193.797 131.8C193.597 133.6 193.297 135.4 192.797 137.3C192.297 139.1 191.597 140.5 190.797 141.5C189.797 142.5 189.097 143.1 188.397 143.1Z" fill="black"/>
<path d="M235.9 133.401L228.6 133.301L221.6 133.401C220.7 133.401 220.2 133.001 220.1 132.301C220 131.601 219.8 123.401 219.5 107.801C219.5 106.101 220.2 105.101 221.4 104.901C221.8 104.901 222.2 104.801 222.6 104.801C223.6 104.801 224.9 104.902 226.5 105.102C226.9 103.602 227.5 102.302 228.3 101.102C229.1 99.9016 229.8 98.7014 230.4 97.4014C230.8 97.0014 231.5 96.8013 232.4 96.8013L233.5 97.4014C233.9 97.8014 234.1 98.3015 234.1 99.0015C234.1 99.7015 233.6 100.901 232.7 102.401C232.1 103.301 231.7 104.301 231.2 105.301C235.2 105.301 237.6 105.402 238.3 105.602C239.1 105.802 239.4 106.602 239.4 108.102V108.702C239.1 123.502 238.8 131.402 238.6 132.202C238.3 133.002 237.4 133.401 235.9 133.401ZM223.9 115.702L234.7 115.602L234.9 109.602L223.7 109.301L223.9 115.702ZM224.4 129.001L234.6 128.901L234.7 119.801L224.1 119.901L224.4 129.001ZM262.7 143.401C261.9 143.401 261.1 142.901 260.1 141.901C258.5 140.301 257 138.901 255.9 137.901C255.2 137.301 254.8 136.501 254.8 135.401L255.4 134.301C255.8 133.901 256.5 133.702 257.4 133.702C258.4 134.202 259.8 135.401 261.6 137.301C262.2 132.601 262.8 127.702 263.2 122.602C263.6 117.502 264.1 112.701 264.5 108.301L248.4 108.202C248.2 109.802 247.9 111.201 247.4 112.401C247 113.601 246.4 114.901 245.8 116.301C245.4 116.701 244.7 116.901 243.8 116.901L242.7 116.301C242.3 115.901 242.1 115.302 242.1 114.702L242.2 114.102C243.4 111.502 244.2 108.502 244.7 105.202C245.2 101.802 245.9 98.5017 246.9 95.2017C247.3 94.8017 248 94.6016 248.9 94.6016L250 95.2017C250.4 95.6017 250.6 96.1013 250.6 96.8013L250.5 97.4014C250 99.3014 249.5 101.401 249.2 103.901L267.1 104.001C268.2 104.001 268.7 104.801 268.8 106.301C268.1 114.401 267.6 121.101 267.2 126.501C266.8 131.901 266.2 136.102 265.4 139.102C264.5 142.002 263.7 143.401 262.7 143.401ZM255 126.401H254.7L253.6 125.901L249.4 121.102C249 120.702 248.8 120.002 248.8 119.102L249.4 118.001C249.8 117.601 250.4 117.401 251 117.401C251.3 117.401 251.8 117.601 252.6 118.001L256.5 122.702C257 123.202 257.3 123.901 257.3 124.801L256.7 125.901C256.1 126.301 255.6 126.401 255 126.401Z" fill="black"/>
<path d="M278.798 121.9H278.498L277.498 121.5C277.098 121.1 276.898 120.4 276.898 119.5C278.898 117.1 280.298 114.501 281.098 111.601C281.898 108.701 282.298 105.5 282.398 101.8C282.498 100.2 282.998 99.3003 283.998 99.3003C284.998 99.2003 286.298 99.2007 288.098 99.2007C289.898 99.2007 295.798 99.1005 305.898 99.0005L305.598 97.2007C305.798 95.9007 306.598 95.2007 308.198 95.2007L309.298 95.8003C309.898 96.8003 310.098 97.8005 310.098 99.0005C311.598 99.1005 313.098 99.1006 314.798 99.1006C316.498 99.1006 317.898 99.4005 319.098 100C319.498 100.4 319.698 101.1 319.698 102L319.098 103C318.698 103.4 318.098 103.601 317.398 103.601C316.398 103.401 315.298 103.3 314.298 103.3C313.298 103.3 312.198 103.301 311.198 103.201C311.598 105.201 312.398 107.701 313.398 110.601C314.698 109.201 315.698 107.701 316.598 106.201C317.098 105.701 317.798 105.5 318.598 105.5L319.698 106.101C319.998 106.501 320.198 107.2 320.198 108C319.298 110 317.798 112.301 315.698 114.701L317.198 116.4L318.698 114.101C319.098 113.701 319.698 113.5 320.598 113.5L321.698 114.101C322.098 114.601 322.298 115.301 322.298 116.101C321.798 117.001 320.698 118.6 318.898 120.9C318.398 121.5 317.898 121.9 317.298 121.9C317.198 121.9 316.898 121.9 316.498 121.8C316.098 121.7 314.798 120.401 312.698 117.701L308.998 121.201C308.598 121.501 308.098 121.601 307.698 121.601C307.498 121.601 306.998 121.4 306.198 121C305.898 120.6 305.698 120 305.698 119.4C305.698 118.6 306.198 117.801 307.098 117.101L310.198 114.101C308.698 110.001 307.598 106.4 306.998 103.3L286.798 103.5C286.498 106.7 285.998 109.9 285.198 112.9C284.498 116 282.998 118.8 280.798 121.3C280.298 121.7 279.698 121.9 278.798 121.9ZM280.898 139.701H280.598L279.598 139.101C279.198 138.601 278.998 137.901 278.998 137.101C279.798 135.501 280.398 133.8 280.798 132C281.198 130.2 281.698 128.5 282.298 126.8C282.798 126.4 283.498 126.201 284.298 126.201L285.298 126.8C285.698 127.2 285.898 127.901 285.898 128.701C284.998 133.201 283.898 136.601 282.698 139.101C282.098 139.501 281.498 139.701 280.898 139.701ZM291.098 121.701C290.098 121.601 289.498 121.2 289.298 120.3C288.998 118.3 288.698 115.501 288.498 112.101C288.798 111.301 289.298 110.8 290.198 110.5L301.698 110.3C302.298 110.6 302.698 111.001 302.898 111.601V119C302.898 120.5 302.598 121.3 301.898 121.5C301.298 121.6 297.698 121.601 291.098 121.701ZM313.798 143.601C310.698 143.501 307.598 143.001 304.598 142.201C301.598 141.401 298.998 140 296.698 138C294.398 136 292.698 134.101 291.398 132.201C290.198 130.401 289.198 128.401 288.698 126.201C288.898 124.901 289.798 124.201 291.398 124.201L292.398 124.8C293.698 128.5 295.798 131.601 298.798 134.201C300.498 135.701 302.198 136.8 303.798 137.4C306.498 138.5 309.698 139 313.198 139C314.898 139 316.898 138.9 319.198 138.8L320.398 139.5C320.798 139.9 320.998 140.5 320.998 141.4L320.398 142.5C319.398 143 318.298 143.3 317.198 143.3C316.098 143.5 314.898 143.601 313.798 143.601ZM291.098 108.9L289.898 108.201C289.698 107.901 289.598 107.601 289.598 107.201C289.598 106.601 289.998 106.101 290.698 105.701L300.798 105.3C301.298 105.5 301.698 106.001 301.998 106.601V107.4C301.798 107.9 301.398 108.2 300.898 108.5C299.698 108.7 296.398 108.8 291.098 108.9ZM299.798 118.4V113.5L291.598 113.601L291.998 118.4H299.798ZM306.998 134.4H306.698L305.598 133.9C305.098 132.9 304.598 131.8 304.198 130.9C303.798 130 303.398 128.9 303.198 127.9C303.398 126.6 304.098 125.9 305.398 125.9C305.598 125.9 306.098 126.1 306.798 126.4C307.198 127.5 307.698 128.5 308.198 129.5C308.698 130.5 308.998 131.6 309.198 132.9L308.598 134C308.098 134.2 307.598 134.4 306.998 134.4ZM315.698 98.4004H315.398L312.698 97.0005C312.298 96.6005 312.098 96.0006 312.098 95.1006L312.698 94.0005C313.098 93.6005 313.598 93.4004 314.298 93.4004L314.898 93.5005L317.198 94.7007C317.598 95.2007 317.798 95.8004 317.798 96.4004C317.798 96.5004 317.598 97.0003 317.298 97.8003C316.898 98.2003 316.398 98.4004 315.698 98.4004ZM316.398 133.601C315.798 133.501 315.298 133.3 314.898 132.9C314.498 131.7 313.898 130.601 313.398 129.601C312.798 128.501 312.398 127.401 312.198 126.201L312.798 125.101C313.198 124.701 313.898 124.5 314.798 124.5L315.898 125.101C317.498 127.301 318.398 129.5 318.698 131.8L318.098 132.9C317.498 133.3 316.998 133.601 316.398 133.601Z" fill="black"/>
<path d="M375.402 121.702C374.002 121.502 373.302 120.801 373.302 119.501C373.302 119.301 373.702 117.501 374.402 114.001L356.302 113.901L338.202 114.001C338.402 115.901 338.702 117.701 339.002 119.301L338.502 120.401C338.002 120.801 337.302 121.001 336.402 121.001L335.302 120.401C334.602 119.201 334.302 117.801 334.202 116.401C334.102 114.901 333.902 113.601 333.602 112.301C333.602 110.901 334.202 110.101 335.402 110.001C336.602 109.901 337.902 109.802 339.102 109.702C340.302 109.602 341.702 109.602 343.102 109.602C342.702 109.002 342.302 108.401 341.902 107.901C341.502 107.401 341.302 106.602 341.302 105.702L341.902 104.602C342.402 104.202 343.102 104.001 343.902 104.001C346.002 105.901 347.202 107.701 347.502 109.301H353.502C352.502 107.501 351.802 105.801 351.502 104.001L352.102 102.901C352.502 102.501 353.202 102.301 354.102 102.301L355.202 102.901C356.402 104.601 357.002 106.001 357.002 107.001C357.002 107.801 356.702 108.502 356.202 109.202H364.402C364.402 108.202 365.402 105.702 367.402 101.602C367.802 101.202 368.502 101.001 369.402 101.001L370.602 101.602C371.002 102.102 371.202 102.701 371.202 103.301C371.202 103.601 370.302 105.502 368.502 109.202C370.302 109.302 372.002 109.401 373.802 109.401C375.502 109.401 377.002 109.501 378.102 109.801C379.002 110.001 379.402 110.701 379.402 111.901L379.302 112.801C378.902 114.201 378.602 115.601 378.402 117.001C378.202 118.401 377.802 119.702 377.302 121.102C376.502 121.402 376.002 121.602 375.402 121.702ZM341.402 102.602C340.002 102.402 339.302 101.501 339.302 100.001L339.902 98.9014C344.402 97.7014 349.102 96.9016 353.802 96.6016C358.502 96.3016 363.202 95.9016 367.902 95.6016L369.002 96.1016C369.402 96.5016 369.602 97.2016 369.602 98.1016L369.002 99.2017C364.502 100.002 359.902 100.601 355.202 100.801C350.602 100.901 346.002 101.602 341.402 102.602ZM345.502 145.401C344.102 145.201 343.402 144.301 343.402 142.801L344.002 141.702C347.802 139.202 351.002 136.301 353.702 132.901C352.702 132.001 351.702 131.202 350.602 130.602C349.502 129.902 348.502 129.201 347.502 128.401C347.102 128.001 346.902 127.301 346.902 126.401L347.502 125.301C348.002 124.901 348.702 124.702 349.602 124.702C350.802 125.402 352.002 126.202 353.202 127.102C354.402 127.902 355.502 128.701 356.702 129.401C357.602 127.901 358.702 126.502 359.902 125.202C361.102 123.902 362.102 122.401 362.802 120.901L346.302 120.602C344.902 120.402 344.202 119.501 344.202 118.001L344.802 116.901L345.902 116.401C355.202 116.501 360.802 116.702 362.702 116.702C364.602 116.802 366.102 117.001 367.202 117.301C368.102 117.601 368.602 118.202 368.602 119.102L368.502 119.801C367.502 122.101 366.202 124.201 364.602 126.001C363.002 127.901 361.502 129.901 360.202 132.001C364.302 134.901 368.602 137.402 373.102 139.602C373.402 140.002 373.602 140.702 373.602 141.602L373.102 142.702C372.602 143.102 371.902 143.301 371.002 143.301C368.502 142.301 366.202 141.102 364.002 139.702C361.802 138.302 359.602 136.902 357.402 135.602C356.502 136.602 353.702 139.301 348.802 143.801C347.902 144.501 346.802 145.101 345.502 145.401Z" fill="black"/>
<path d="M197.807 48.126C207.094 40.1198 208.131 26.1015 200.125 16.8152C192.119 7.52892 178.101 6.4913 168.814 14.4976C159.528 22.5038 158.49 36.5221 166.497 45.8084C174.503 55.0947 188.521 56.1323 197.807 48.126Z" fill="#393939"/>
<path opacity="0.45" d="M185.006 12.5603C193.506 12.5603 200.806 17.2603 204.606 24.2603C201.606 15.4603 193.306 9.16016 183.606 9.16016C171.306 9.16016 161.406 19.0601 161.406 31.3601C161.406 35.1601 162.406 38.7601 164.006 41.8601C163.206 39.6601 162.806 37.1602 162.806 34.6602C162.806 22.4602 172.806 12.5603 185.006 12.5603Z" fill="#B17F55"/>
<path opacity="0.5" d="M195.93 46.2615C204.19 39.1797 205.145 26.7427 198.063 18.4826C190.981 10.2225 178.544 9.26734 170.284 16.3491C162.024 23.4309 161.069 35.868 168.151 44.1281C175.233 52.3882 187.67 53.3433 195.93 46.2615Z" stroke="#393939" stroke-width="0.8656" stroke-miterlimit="10"/>
<path opacity="0.5" d="M183.203 48.959C192.868 48.959 200.703 41.124 200.703 31.459C200.703 21.794 192.868 13.959 183.203 13.959C173.538 13.959 165.703 21.794 165.703 31.459C165.703 41.124 173.538 48.959 183.203 48.959Z" fill="#393939"/>
<path d="M187.797 26.1594L183.497 18.3594L183.297 31.0596L187.797 26.1594Z" fill="#A11B00"/>
<path d="M183.297 31.3601V31.4602H196.797L187.997 26.5603L187.797 26.1602L183.297 31.0603V31.3601Z" fill="#EEDFA5"/>
<path d="M183.303 31.0605L183.203 31.2605L183.303 31.3604V31.0605Z" fill="#EEDFA5"/>
<path d="M183.2 31.2598L183 31.4597H183.3V31.3596L183.2 31.2598Z" fill="#EEDFA5"/>
<path d="M183.302 31.0598L183.502 18.3596L183.202 17.7598L178.602 26.1597L183.202 31.2598L183.302 31.0598Z" fill="#D23D14"/>
<path d="M183.302 31.459L183.102 44.8589L183.202 45.0591L187.902 36.5591L183.302 31.459Z" fill="#EEDFA5"/>
<path d="M196.797 31.459H183.297L187.897 36.5591L187.997 36.259L196.797 31.459Z" fill="#CEC095"/>
<path d="M183 31.459L178.5 36.459L183.1 44.8589L183.3 31.459H183Z" fill="#CEC095"/>
<path d="M169.6 31.459H169.5L178.4 36.259L178.5 36.459L183 31.459H169.6Z" fill="#EEDFA5"/>
<path d="M183.202 31.2603L178.602 26.1602L178.402 26.5603L169.602 31.4602H183.002L183.202 31.2603Z" fill="#CEC095"/>
<path d="M183.205 33.1594C184.254 33.1594 185.105 32.3089 185.105 31.2595C185.105 30.2102 184.254 29.3594 183.205 29.3594C182.155 29.3594 181.305 30.2102 181.305 31.2595C181.305 32.3089 182.155 33.1594 183.205 33.1594Z" fill="white"/>
<path d="M183.2 4.55859C168.4 4.55859 156.5 16.5585 156.5 31.2585C156.5 45.9585 168.5 57.9585 183.2 57.9585C197.9 57.9585 209.9 45.9585 209.9 31.2585C209.9 16.5585 198 4.55859 183.2 4.55859ZM183.2 53.3584C171 53.3584 161.1 43.4585 161.1 31.2585C161.1 19.0585 171 9.15845 183.2 9.15845C195.4 9.15845 205.3 19.0585 205.3 31.2585C205.3 43.4585 195.4 53.3584 183.2 53.3584Z" fill="#B17F55"/>
<path d="M163.602 18.6584C164.602 15.9584 166.702 13.7586 169.202 12.5586C167.302 14.7586 165.502 16.6584 163.602 18.6584Z" fill="#B17F55"/>
<path d="M160.003 31.0579C159.403 27.4579 160.303 23.6578 162.403 20.7578C161.303 24.2578 160.603 27.5579 160.003 31.0579Z" fill="#B17F55"/>
<path d="M166.5 47.1577C163 44.4577 160.7 40.1578 160.5 35.7578C161.9 39.9578 163.9 43.6577 166.5 47.1577Z" fill="#B17F55"/>
<path d="M179.205 53.8584C175.505 53.8584 171.805 52.2586 169.305 49.5586C172.505 51.3586 175.705 52.6584 179.205 53.8584Z" fill="#B17F55"/>
<path d="M198.702 48.1582C194.902 52.4582 188.802 54.8582 183.102 54.1582C188.802 53.6582 194.102 51.5582 198.702 48.1582Z" fill="#B17F55"/>
<path d="M206.1 33.457C206.3 38.057 204.3 42.6571 201 45.7571C203.4 41.8571 205.1 37.857 206.1 33.457Z" fill="#B17F55"/>
<path d="M201.102 16.457C204.902 20.157 206.902 25.7571 206.302 31.0571C205.602 25.7571 203.902 20.957 201.102 16.457Z" fill="#B17F55"/>
<path d="M185.602 8.05737C190.902 7.95737 196.402 10.6572 199.602 14.8572C195.502 11.5572 190.802 9.25737 185.602 8.05737Z" fill="#B17F55"/>
<path d="M171.203 11.2581C174.503 8.5581 179.003 7.35806 183.103 7.95806C178.903 8.55806 175.103 9.5581 171.203 11.2581Z" fill="#B17F55"/>
<path d="M175.805 7.65871C181.205 5.35871 187.805 5.65886 192.905 8.55886C187.305 6.85886 181.605 6.55871 175.805 7.65871Z" fill="#B17F55"/>
<path d="M162.898 17.2578C165.198 12.8578 169.498 9.35781 174.398 8.25781C169.998 10.5578 166.198 13.4578 162.898 17.2578Z" fill="#B17F55"/>
<path d="M158.705 28.5586C158.405 25.1586 159.505 21.6586 161.705 19.0586C160.605 22.3586 159.705 25.3586 158.705 28.5586Z" fill="#B17F55"/>
<path d="M165.205 47.8584C160.505 43.7584 157.905 37.2586 158.605 31.0586C159.205 37.2586 161.505 42.9584 165.205 47.8584Z" fill="#B17F55"/>
<path d="M181.905 55.5576C176.605 55.9576 171.005 53.7574 167.305 49.8574C171.805 52.7574 176.605 54.6576 181.905 55.5576Z" fill="#B17F55"/>
<path d="M193.5 53.2578C190.8 55.1578 187.3 56.0579 184 55.5579C187.2 54.8579 190.2 54.1578 193.5 53.2578Z" fill="#B17F55"/>
<path d="M201.505 47.2578C200.605 49.2578 198.805 50.7578 196.805 51.4578C198.205 49.7578 199.705 48.4578 201.505 47.2578Z" fill="#B17F55"/>
<path d="M207.503 33.2578C207.703 37.5578 206.103 41.9577 203.203 45.1577C205.103 41.2577 206.503 37.4578 207.503 33.2578Z" fill="#B17F55"/>
<path d="M206.398 23.457C207.798 25.757 208.198 28.5571 207.598 31.0571C206.998 28.4571 206.598 26.057 206.398 23.457Z" fill="#B17F55"/>
<path d="M195.805 10.1582C200.605 12.3582 204.505 16.8583 205.905 21.9583C203.305 17.2583 200.005 13.3582 195.805 10.1582Z" fill="#B17F55"/>
<path d="M171.5 8.15784C174.4 5.95784 178.3 4.95779 181.9 5.35779C178.3 6.15779 175 7.05784 171.5 8.15784Z" fill="#B17F55"/>
<path d="M164.602 13.2583C165.702 11.2583 167.602 9.7582 169.802 9.1582C168.202 10.7582 166.602 12.0583 164.602 13.2583Z" fill="#B17F55"/>
<path d="M158.602 23.3582C159.002 20.0582 160.802 16.8582 163.302 14.6582C161.702 17.6582 160.202 20.3582 158.602 23.3582Z" fill="#B17F55"/>
<path d="M157.402 31.0571C156.802 29.0571 157.102 26.857 158.102 24.957C158.202 27.157 158.002 29.0571 157.402 31.0571Z" fill="#B17F55"/>
<path d="M163.702 47.8582C159.902 44.4582 157.602 39.2582 157.602 34.1582C158.802 39.0582 160.802 43.6582 163.702 47.8582Z" fill="#B17F55"/>
<path d="M172.005 54.2585C169.305 53.5585 166.805 51.8586 165.305 49.5586C167.605 51.0586 169.805 52.4585 172.005 54.2585Z" fill="#B17F55"/>
<path d="M183.098 56.7578C180.098 57.3578 176.898 56.7578 174.398 55.2578C177.398 55.6578 180.098 56.1578 183.098 56.7578Z" fill="#B17F55"/>
<path d="M198.8 51.457C195.5 54.757 190.7 56.757 186 56.657C190.6 55.457 194.7 53.757 198.8 51.457Z" fill="#B17F55"/>
<path d="M208.103 37.0586C207.603 41.8586 205.003 46.4584 201.203 49.3584C204.103 45.5584 206.403 41.5586 208.103 37.0586Z" fill="#B17F55"/>
<path d="M198.203 10.3574C205.103 14.5574 209.403 23.0576 208.703 31.0576C208.203 22.9576 204.403 15.5574 198.203 10.3574Z" fill="#B17F55"/>
<path d="M185.602 5.55724C189.102 5.25724 192.802 6.45709 195.502 8.65709C192.202 7.45709 189.002 6.45724 185.602 5.55724Z" fill="#B17F55"/>
<path opacity="0.6" d="M199.805 10.3594C204.205 15.0594 206.905 21.3594 206.905 28.3594C206.905 42.9594 195.105 54.7595 180.505 54.7595C172.105 54.7595 164.705 50.8595 159.805 44.7595C164.505 52.6595 173.005 57.8594 182.805 57.8594C197.605 57.8594 209.505 45.8594 209.505 31.1594C209.605 22.7594 205.805 15.2594 199.805 10.3594Z" fill="#B17F55"/>
<path d="M187.748 8.39178C188.278 6.13365 186.878 3.87284 184.62 3.34212C182.362 2.8114 180.101 4.21175 179.57 6.46988C179.04 8.72801 180.44 10.9888 182.698 11.5195C184.956 12.0503 187.217 10.6499 187.748 8.39178Z" fill="#C38F73"/>
<path d="M183.597 10.7583C185.419 10.7583 186.897 9.28079 186.897 7.45825C186.897 5.63571 185.419 4.1582 183.597 4.1582C181.774 4.1582 180.297 5.63571 180.297 7.45825C180.297 9.28079 181.774 10.7583 183.597 10.7583Z" fill="white"/>
<path d="M181.898 9.45947V5.85938H182.398L183.598 7.65942C183.898 8.05942 184.098 8.45937 184.198 8.85938C184.198 8.35938 184.098 7.95938 184.098 7.35938V5.85938H184.498V9.45947H184.098L182.998 7.65942C182.698 7.25942 182.498 6.85947 182.298 6.45947C182.298 6.95947 182.298 7.35947 182.298 7.95947V9.45947H181.898Z" fill="#393939"/>
<path d="M187.764 55.9817C188.294 53.7236 186.894 51.4627 184.636 50.932C182.378 50.4013 180.117 51.8016 179.586 54.0597C179.055 56.3179 180.456 58.5787 182.714 59.1094C184.972 59.6402 187.233 58.2398 187.764 55.9817Z" fill="#C38F73"/>
<path d="M183.605 58.3577C185.427 58.3577 186.905 56.8804 186.905 55.0579C186.905 53.2353 185.427 51.7578 183.605 51.7578C181.782 51.7578 180.305 53.2353 180.305 55.0579C180.305 56.8804 181.782 58.3577 183.605 58.3577Z" fill="white"/>
<path d="M182.2 56.4575C182.4 56.5575 182.7 56.6575 183 56.6575C183.5 56.6575 183.8 56.3576 183.8 56.0576C183.8 55.7576 183.6 55.5574 183.1 55.3574C182.5 55.1574 182.1 54.8574 182.1 54.3574C182.1 53.7574 182.6 53.3574 183.3 53.3574C183.7 53.3574 183.9 53.4576 184.1 53.5576L184 53.9575C183.9 53.8575 183.6 53.7576 183.3 53.7576C182.8 53.7576 182.6 54.0576 182.6 54.2576C182.6 54.5576 182.8 54.7575 183.3 54.9575C183.9 55.1575 184.2 55.4576 184.2 56.0576C184.2 56.6576 183.8 57.0576 182.9 57.0576C182.6 57.0576 182.2 56.9574 182 56.8574L182.2 56.4575Z" fill="#393939"/>
<path d="M159.403 35.3589C161.723 35.3589 163.603 33.4785 163.603 31.1589C163.603 28.8393 161.723 26.959 159.403 26.959C157.084 26.959 155.203 28.8393 155.203 31.1589C155.203 33.4785 157.084 35.3589 159.403 35.3589Z" fill="#C38F73"/>
<path d="M159.402 34.4595C161.224 34.4595 162.702 32.982 162.702 31.1594C162.702 29.3369 161.224 27.8594 159.402 27.8594C157.579 27.8594 156.102 29.3369 156.102 31.1594C156.102 32.982 157.579 34.4595 159.402 34.4595Z" fill="white"/>
<path d="M157.806 33.0596L156.906 29.4595H157.406L157.806 31.2595C157.906 31.7595 158.006 32.1596 158.106 32.5596C158.206 32.1596 158.306 31.7595 158.406 31.2595L158.906 29.4595H159.406L159.806 31.2595C159.906 31.6595 160.006 32.1595 160.106 32.4595C160.206 32.0595 160.306 31.6594 160.406 31.1594L160.906 29.3594H161.406L160.406 32.9595H159.906L159.406 31.0596C159.306 30.5596 159.206 30.2594 159.206 29.8594C159.106 30.2594 159.106 30.5596 158.906 31.0596L158.406 32.9595H157.806V33.0596Z" fill="#393939"/>
<path d="M207.005 35.3589C209.324 35.3589 211.205 33.4785 211.205 31.1589C211.205 28.8393 209.324 26.959 207.005 26.959C204.685 26.959 202.805 28.8393 202.805 31.1589C202.805 33.4785 204.685 35.3589 207.005 35.3589Z" fill="#C38F73"/>
<path d="M207.003 34.4595C208.826 34.4595 210.303 32.982 210.303 31.1594C210.303 29.3369 208.826 27.8594 207.003 27.8594C205.181 27.8594 203.703 29.3369 203.703 31.1594C203.703 32.982 205.181 34.4595 207.003 34.4595Z" fill="white"/>
<path d="M207.605 31.3589H206.205V32.6589H207.805V33.0591H205.805V29.459H207.805V29.8589H206.305V30.959H207.705V31.3589H207.605Z" fill="#393939"/>
</svg>
